<svg xmlns="http://www.w3.org/2000/svg" viewBox="0 0 116.492 100.96"><defs><style>.a{fill:#7f7f7f;}</style></defs><g transform="translate(-502 -898)"><path class="a" d="M224.982,290.133c-6.859,0-11.649,4.79-11.649,11.649v1.941c0,9.436,5.335,15.532,13.591,15.532s13.591-6.1,13.591-15.532v-1.941c0-6.859-4.792-11.649-11.649-11.649Zm11.649,11.649v1.941c0,3.5-.947,11.649-9.708,11.649s-9.708-8.147-9.708-11.649v-1.941c0-4.718,3.048-7.766,7.766-7.766h3.883C233.581,294.016,236.631,297.064,236.631,301.782Z" transform="translate(337.205 666.113)"/><path class="a" d="M249.631,341.333h-.021a1.952,1.952,0,1,0,.021,0Z" transform="translate(310.673 626.562)"/><path class="a" d="M291.926,91.966a1.943,1.943,0,0,0,2.085-1.786l1.94-25.209c.431-4.621,6.642-9.888,11.657-9.888h3.883c5.11,0,11.319,5.246,11.655,9.857l1.941,25.24a1.941,1.941,0,0,0,1.934,1.792c.048,0,.1,0,.152-.006a1.942,1.942,0,0,0,1.786-2.085l-1.941-25.232C326.5,57.533,317.9,51.2,311.491,51.2h-3.883c-7.067,0-14.9,6.768-15.526,13.441l-1.941,25.24A1.942,1.942,0,0,0,291.926,91.966Z" transform="translate(277.878 850.683)"/><path class="a" d="M335.815,103.728a1.941,1.941,0,0,0-3.683,0,6.532,6.532,0,0,1-5.924,4.5,1.941,1.941,0,0,0-1.941,1.941v7.766c0,6.485,4.431,15.532,11.649,15.532s11.649-9.047,11.649-15.532v-7.766a1.942,1.942,0,0,0-1.941-1.941C345.54,108.225,337.275,108.1,335.815,103.728Zm7.867,14.2c0,5.277-3.464,11.649-7.766,11.649s-7.766-6.372-7.766-11.649v-6.061a10.547,10.547,0,0,0,5.972-3.72c2.718,2.72,7.058,3.571,9.56,3.836v5.945Z" transform="translate(251.511 811.132)"/><path class="a" d="M164.075,106.284h1.941a1.941,1.941,0,1,0,0-3.883h-1.941a1.941,1.941,0,1,0,0,3.883Z" transform="translate(376.755 811.131)"/><path class="a" d="M283.764,345.217a1.941,1.941,0,1,0,0-3.883h-.021a1.941,1.941,0,0,0,.021,3.883Z" transform="translate(284.306 626.561)"/><path class="a" d="M78.815,56.953a23.047,23.047,0,0,0,2.072,7.172c1.759,3.52,4.421,8.84,13.387,8.84s11.626-5.32,13.385-8.84a23.084,23.084,0,0,0,2.074-7.172,3.886,3.886,0,0,0,2.015-3.4V49.666a3.884,3.884,0,0,0-1.941-3.361v-.522A11.662,11.662,0,0,0,98.157,34.134H90.391A11.661,11.661,0,0,0,78.742,45.783v.522A3.879,3.879,0,0,0,76.8,49.666v3.883A3.886,3.886,0,0,0,78.815,56.953Zm1.868-7.287a1.942,1.942,0,0,0,1.941-1.941V45.783a7.774,7.774,0,0,1,7.766-7.766h7.766a7.774,7.774,0,0,1,7.766,7.766v1.941a1.941,1.941,0,0,0,1.941,1.941v3.883a1.941,1.941,0,0,0-1.941,1.941,18.189,18.189,0,0,1-1.738,6.9c-2.021,4.042-3.8,6.692-9.912,6.692s-7.892-2.65-9.912-6.691a18.182,18.182,0,0,1-1.738-6.9,1.942,1.942,0,0,0-1.941-1.941V49.666Z" transform="translate(442.674 863.866)"/><path class="a" d="M212.974,426.666a1.945,1.945,0,0,0-1.078.326l-4.747,3.165-4.749-3.165a1.945,1.945,0,0,0-1.075-.326c-11.232,0-13.591,5.279-13.591,9.708a1.941,1.941,0,1,0,3.883,0c0-1.561,0-5.654,9.127-5.821l5.327,3.553a1.94,1.94,0,0,0,2.153,0l5.33-3.553c9.127.167,9.127,4.26,9.127,5.821a1.941,1.941,0,1,0,3.883,0C226.565,431.945,224.206,426.666,212.974,426.666Z" transform="translate(356.98 560.644)"/><path class="a" d="M445.8,324.267H445.8a1.94,1.94,0,0,0-1.941,1.934l-.12,31.065a1.941,1.941,0,0,0,1.934,1.949h.008a1.94,1.94,0,0,0,1.941-1.934l.12-31.064A1.941,1.941,0,0,0,445.8,324.267Z" transform="translate(159.226 639.745)"/><path class="a" d="M121.408,106.284h1.941a1.941,1.941,0,0,0,0-3.883h-1.941a1.941,1.941,0,0,0,0,3.883Z" transform="translate(409.715 811.131)"/><path class="a" d="M183.04,233.983l1.625-8.108c9.8.221,16.858,2.664,19.021,6.636a1.941,1.941,0,1,0,3.409-1.856c-3.046-5.6-11.531-8.679-23.893-8.679a2,2,0,0,0-2.029,1.559l-1.941,9.682a1.941,1.941,0,0,0,1.522,2.285,1.868,1.868,0,0,0,.385.039A1.942,1.942,0,0,0,183.04,233.983Z" transform="translate(363.576 718.762)"/><path class="a" d="M362.221,244.839c-3.805-3.8-9.523-5.8-16.538-5.8a1.963,1.963,0,0,0-2,1.936c0,.4-.138,9.69-7.766,9.69s-7.764-9.292-7.766-9.688a1.941,1.941,0,0,0-3.883.006c0,4.341,2.1,12.249,9.708,13.408v9.865a1.941,1.941,0,1,0,3.883,0v-9.867c6.553-1,9.02-7,9.576-11.418,5.151.289,9.288,1.87,12.042,4.621a12.45,12.45,0,0,1,3.623,8.9v31.064a1.941,1.941,0,1,0,3.883,0V256.486A16.319,16.319,0,0,0,362.221,244.839Z" transform="translate(251.511 705.584)"/><path class="a" d="M140.416,221.867a3.871,3.871,0,0,0-1.942,7.226v14.131a1.941,1.941,0,0,0,3.883,0V229.093a3.871,3.871,0,0,0-1.941-7.226Z" transform="translate(396.531 718.847)"/><path class="a" d="M53.141,324.267a1.941,1.941,0,0,0-1.941,1.941v31.064a1.941,1.941,0,1,0,3.883,0V326.208A1.942,1.942,0,0,0,53.141,324.267Z" transform="translate(462.449 639.745)"/><path class="a" d="M27.139,223.523a2.047,2.047,0,0,0-2.031-1.546c-10.2,0-18,2.184-21.978,6.153A10.172,10.172,0,0,0,0,235.543v38.831a1.941,1.941,0,1,0,3.883,0V235.543a6.335,6.335,0,0,1,1.99-4.666c3.025-3.019,9.459-4.815,17.79-5l9.384,45.011a1.941,1.941,0,1,0,3.8-.792Z" transform="translate(502 718.762)"/></g></svg>