<svg xmlns="http://www.w3.org/2000/svg" viewBox="0 0 111.942 105.511"><defs><style>.a{fill:#7f7f7f;}</style></defs><g transform="translate(0 0.176)"><path class="a" d="M82.8,7.764A9.54,9.54,0,0,0,73.341.5a1.874,1.874,0,0,0-1.93,1.816,1.874,1.874,0,0,0,1.93,1.816,5.634,5.634,0,0,1,5.79,5.448,5.634,5.634,0,0,1-5.79,5.448,1.819,1.819,0,1,0,0,3.632A9.542,9.542,0,0,0,82.8,11.4h25.285V27.74H3.86V11.4H36.671A1.874,1.874,0,0,0,38.6,9.58a1.874,1.874,0,0,0-1.93-1.816h-3.5A5.766,5.766,0,0,1,38.6,4.132a5.634,5.634,0,0,1,5.79,5.448,5.634,5.634,0,0,1-5.79,5.448,1.819,1.819,0,1,0,0,3.632c5.321,0,9.65-4.073,9.65-9.08S43.922.5,38.6.5a9.542,9.542,0,0,0-9.455,7.264H0v96.247H111.942V7.764Zm25.285,92.615H3.86V31.372H108.082Z" transform="translate(0 1.324)"/><path class="a" d="M26.93,4.132A5.634,5.634,0,0,1,32.72,9.58a5.634,5.634,0,0,1-5.79,5.448,1.819,1.819,0,1,0,0,3.632c5.321,0,9.65-4.073,9.65-9.08S32.251.5,26.93.5A1.874,1.874,0,0,0,25,2.316,1.874,1.874,0,0,0,26.93,4.132Z" transform="translate(23.251 1.324)"/><path class="a" d="M32.93,4.132A5.634,5.634,0,0,1,38.72,9.58a5.634,5.634,0,0,1-5.79,5.448,1.819,1.819,0,1,0,0,3.632c5.321,0,9.65-4.073,9.65-9.08S38.251.5,32.93.5A1.874,1.874,0,0,0,31,2.316,1.874,1.874,0,0,0,32.93,4.132Z" transform="translate(28.831 1.324)"/><path class="a" d="M32.93,4.132A5.634,5.634,0,0,1,38.72,9.58a5.634,5.634,0,0,1-5.79,5.448,1.819,1.819,0,1,0,0,3.632c5.321,0,9.65-4.073,9.65-9.08S38.251.5,32.93.5A1.874,1.874,0,0,0,31,2.316,1.874,1.874,0,0,0,32.93,4.132Z" transform="translate(40.2 1.324)"/><path class="a" d="M32.93,4.132A5.634,5.634,0,0,1,38.72,9.58a5.634,5.634,0,0,1-5.79,5.448,1.819,1.819,0,1,0,0,3.632c5.321,0,9.65-4.073,9.65-9.08S38.251.5,32.93.5A1.874,1.874,0,0,0,31,2.316,1.874,1.874,0,0,0,32.93,4.132Z" transform="translate(6.093 1.324)"/><path class="a" d="M1.881,3.873A5.843,5.843,0,0,1,7.437,9.726a5.429,5.429,0,0,1-5.385,5.682A1.806,1.806,0,0,0,.257,17.3a1.944,1.944,0,0,0,1.852,1.951,9.048,9.048,0,0,0,8.976-9.469A9.738,9.738,0,0,0,1.824.029a1.806,1.806,0,0,0-1.8,1.894A1.944,1.944,0,0,0,1.881,3.873Z" transform="matrix(0.259, -0.966, 0.966, 0.259, 28.565, 10.525)"/><ellipse class="a" cx="1.93" cy="1.816" rx="1.93" ry="1.816" transform="translate(40.531 43.592)"/><ellipse class="a" cx="1.93" cy="1.816" rx="1.93" ry="1.816" transform="translate(54.041 43.592)"/><ellipse class="a" cx="1.93" cy="1.816" rx="1.93" ry="1.816" transform="translate(67.551 43.592)"/><ellipse class="a" cx="1.93" cy="1.816" rx="1.93" ry="1.816" transform="translate(81.061 43.592)"/><ellipse class="a" cx="1.93" cy="1.816" rx="1.93" ry="1.816" transform="translate(94.572 43.592)"/><ellipse class="a" cx="1.93" cy="1.816" rx="1.93" ry="1.816" transform="translate(13.51 58.119)"/><ellipse class="a" cx="1.93" cy="1.816" rx="1.93" ry="1.816" transform="translate(27.02 58.119)"/><ellipse class="a" cx="1.93" cy="1.816" rx="1.93" ry="1.816" transform="translate(40.531 58.119)"/><ellipse class="a" cx="1.93" cy="1.816" rx="1.93" ry="1.816" transform="translate(54.041 58.119)"/><ellipse class="a" cx="1.93" cy="1.816" rx="1.93" ry="1.816" transform="translate(67.551 58.119)"/><ellipse class="a" cx="1.93" cy="1.816" rx="1.93" ry="1.816" transform="translate(81.061 58.119)"/><ellipse class="a" cx="1.93" cy="1.816" rx="1.93" ry="1.816" transform="translate(94.572 58.119)"/><ellipse class="a" cx="1.93" cy="1.816" rx="1.93" ry="1.816" transform="translate(13.51 70.831)"/><ellipse class="a" cx="1.93" cy="1.816" rx="1.93" ry="1.816" transform="translate(27.02 70.831)"/><ellipse class="a" cx="1.93" cy="1.816" rx="1.93" ry="1.816" transform="translate(40.531 70.831)"/><ellipse class="a" cx="1.93" cy="1.816" rx="1.93" ry="1.816" transform="translate(54.041 70.831)"/><ellipse class="a" cx="1.93" cy="1.816" rx="1.93" ry="1.816" transform="translate(67.551 70.831)"/><ellipse class="a" cx="1.93" cy="1.816" rx="1.93" ry="1.816" transform="translate(81.061 70.831)"/><ellipse class="a" cx="1.93" cy="1.816" rx="1.93" ry="1.816" transform="translate(94.572 70.831)"/><ellipse class="a" cx="1.93" cy="1.816" rx="1.93" ry="1.816" transform="translate(13.51 85.359)"/><ellipse class="a" cx="1.93" cy="1.816" rx="1.93" ry="1.816" transform="translate(27.02 85.359)"/><ellipse class="a" cx="1.93" cy="1.816" rx="1.93" ry="1.816" transform="translate(40.531 85.359)"/><ellipse class="a" cx="1.93" cy="1.816" rx="1.93" ry="1.816" transform="translate(54.041 85.359)"/><ellipse class="a" cx="1.93" cy="1.816" rx="1.93" ry="1.816" transform="translate(67.551 85.359)"/></g></svg>