<svg xmlns="http://www.w3.org/2000/svg" viewBox="0 0 109.686 98.323"><defs><style>.a{fill:#7f7f7f;}</style></defs><g transform="translate(-1191 -609)"><path class="a" d="M287.17,330.443a2.147,2.147,0,1,0,2.142,2.152v-.02A2.134,2.134,0,0,0,287.17,330.443Z" transform="translate(967.034 343.667)"/><path class="a" d="M107.544,26.521H82.265a2.142,2.142,0,0,0-2.142,2.142v8.49A2.142,2.142,0,0,0,82.265,39.3h4.381l-5.728,5.728A32.3,32.3,0,0,0,63.2,39.788a32.945,32.945,0,0,0-4.363.3A32.556,32.556,0,1,0,25.279,91.032v12.818H18.852a2.142,2.142,0,0,0-2.142,2.142v9.426a2.142,2.142,0,0,0,2.142,2.142h6.427V122.7a2.142,2.142,0,0,0,2.142,2.142H37.7a2.142,2.142,0,0,0,2.142-2.142V117.56h6.427a2.142,2.142,0,0,0,2.142-2.142v-9.426a2.142,2.142,0,0,0-2.142-2.142H39.847V95.038A32.565,32.565,0,0,0,91.062,55.482l5.847-5.847v4.3a2.142,2.142,0,0,0,2.142,2.142h8.493a2.142,2.142,0,0,0,2.142-2.142V28.663A2.142,2.142,0,0,0,107.544,26.521Zm-70.2,60.642a2.142,2.142,0,0,0-1.783,2.112v16.716a2.142,2.142,0,0,0,2.142,2.142h6.427v5.142H37.7a2.142,2.142,0,0,0-2.142,2.142v5.142h-6v-5.142a2.142,2.142,0,0,0-2.142-2.142H20.995v-5.142h6.427a2.142,2.142,0,0,0,2.142-2.142V89.275a2.142,2.142,0,0,0-1.783-2.112,28.278,28.278,0,1,1,9.564,0ZM105.4,51.8h-4.209V44.463a2.142,2.142,0,0,0-3.657-1.515L86.81,53.674a2.143,2.143,0,0,0-.253,2.725A28.278,28.278,0,0,1,41.588,90.58a32.461,32.461,0,0,0,4.75-1.785A23.528,23.528,0,0,0,56.43,94.918a2.142,2.142,0,0,0,1.23-4.1,19.225,19.225,0,0,1-7.406-4.19A32.566,32.566,0,0,0,64.535,53.108a19.284,19.284,0,0,1,4.214,37.706,2.142,2.142,0,1,0,1.23,4.1,23.749,23.749,0,0,0,12.037-8.381A23.566,23.566,0,0,0,63.385,48.779a32.38,32.38,0,0,0-2.007-4.644c.608-.039,1.218-.063,1.827-.063a28.057,28.057,0,0,1,16.7,5.457,2.143,2.143,0,0,0,2.781-.213L93.333,38.669a2.142,2.142,0,0,0-1.515-3.657H84.407V30.806H105.4Z" transform="translate(1191 582.479)"/><path class="a" d="M74.79,99.468a2.143,2.143,0,0,0-3.016.033l-.024.024a2.142,2.142,0,0,0,3.064,3l.022-.023A2.142,2.142,0,0,0,74.79,99.468Z" transform="translate(1135.096 525.634)"/><path class="a" d="M65.565,69.479a23.363,23.363,0,0,0-10.038,2.239,2.142,2.142,0,0,0,1.827,3.876,19.279,19.279,0,0,1,21.156,3.174,32.58,32.58,0,0,0-14.278,33.511A19.292,19.292,0,0,1,47.922,85.256,2.142,2.142,0,0,0,44,83.524,23.569,23.569,0,1,0,65.565,69.479Zm3,42.612A28.3,28.3,0,0,1,81.378,82.026a19.259,19.259,0,0,1,2.209,4.167,23.579,23.579,0,0,0-10.476,24.593A19.122,19.122,0,0,1,68.566,112.091Zm8.509-3.588A19.3,19.3,0,0,1,84.7,90.632a19.276,19.276,0,0,1-7.62,17.871Z" transform="translate(1157.998 548.724)"/></g></svg>