<svg xmlns="http://www.w3.org/2000/svg" viewBox="0 0 103.642 109.943"><defs><style>.a{fill:#7f7f7f;}</style></defs><g transform="translate(-13.8)"><path class="a" d="M97.764,70.632A19.674,19.674,0,0,0,82.195,78.3l-30.2-16.87a19.72,19.72,0,0,0,1.1-6.483,19.289,19.289,0,0,0-1.119-6.506L82.149,31.595a19.634,19.634,0,1,0-4.064-11.939A19.191,19.191,0,0,0,79.2,26.162L49.047,43.009a19.637,19.637,0,1,0,.046,23.856l30.179,16.87a19.645,19.645,0,1,0,18.491-13.1Zm0-64.445A13.492,13.492,0,1,1,84.272,19.678,13.5,13.5,0,0,1,97.764,6.187ZM33.478,68.44A13.492,13.492,0,1,1,46.97,54.949,13.5,13.5,0,0,1,33.478,68.44Zm64.285,35.316a13.492,13.492,0,1,1,13.492-13.492A13.5,13.5,0,0,1,97.764,103.756Z"/></g></svg>