<svg xmlns="http://www.w3.org/2000/svg" viewBox="0 0 82.675 118.042"><defs><style>.a{fill:#7f7f7f;}</style></defs><g transform="translate(-481.999 -1400)"><path class="a" d="M35.647,12a15.09,15.09,0,1,0,15.09,15.09A15.11,15.11,0,0,0,35.647,12Zm0,25.869A10.779,10.779,0,1,1,46.426,27.09,10.791,10.791,0,0,1,35.647,37.869Z" transform="translate(488.075 1413.869)"/><path class="a" d="M78.776,12.109a41.339,41.339,0,0,0-58.464,0C5.862,26.557,4.067,53.74,16.423,70.21l33.121,47.831L82.615,70.277C95.021,53.74,93.226,26.557,78.776,12.109Zm.343,55.648L49.544,110.466,19.922,67.69C8.714,52.747,10.32,28.2,23.363,15.157a37.027,37.027,0,0,1,52.365,0C88.77,28.2,90.376,52.747,79.119,67.757Z" transform="translate(473.797 1400)"/></g></svg>