<svg xmlns="http://www.w3.org/2000/svg" viewBox="0 0 107.578 107.578"><defs><style>.a{fill:#7f7f7f;}</style></defs><g transform="translate(-508 -1218)"><path class="a" d="M96.094,280.046a9.627,9.627,0,0,0,1.835-5.662V261.758a2.1,2.1,0,0,0-2.1-2.1h-9.39a7.881,7.881,0,0,0-7.872,7.872v6.854a9.627,9.627,0,0,0,1.833,5.659,13.529,13.529,0,0,0-4.107,1.367,17.877,17.877,0,0,0-13.2-7.867l-.065-.016a12.353,12.353,0,0,0,3.165-8.266V248.1a2.1,2.1,0,0,0-2.1-2.1H51.329a9.956,9.956,0,0,0-9.945,9.945v9.316a12.353,12.353,0,0,0,3.165,8.266l-.065.016a17.876,17.876,0,0,0-13.2,7.868,13.545,13.545,0,0,0-4.107-1.367,9.628,9.628,0,0,0,1.834-5.659V261.758a2.1,2.1,0,0,0-2.1-2.1h-9.39a7.881,7.881,0,0,0-7.872,7.872v6.854a9.626,9.626,0,0,0,1.835,5.662A13.721,13.721,0,0,0,0,293.564v6.225a2.1,2.1,0,0,0,2.1,2.1H105.477a2.1,2.1,0,0,0,2.1-2.1v-6.225A13.721,13.721,0,0,0,96.094,280.046ZM13.851,267.53a3.674,3.674,0,0,1,3.67-3.67H24.81v2.559a2.278,2.278,0,0,1-2.275,2.276H13.851Zm0,5.366h8.684a6.44,6.44,0,0,0,2.275-.414v1.9a5.48,5.48,0,0,1-10.959,0Zm6.834,11.17-1.355,1.355-1.355-1.355Zm7.586,7.263v6.359H4.2v-4.123a9.512,9.512,0,0,1,7.958-9.371l5.685,5.685a2.1,2.1,0,0,0,2.971,0l5.686-5.687a9.4,9.4,0,0,1,2.87.961A17.781,17.781,0,0,0,28.271,291.329Zm25.518-17.866a8.211,8.211,0,0,1-8.2-8.2v-2.777H58.144a8,8,0,0,0,3.847-.981v3.758A8.211,8.211,0,0,1,53.789,273.463Zm3.662,4.2-3.663,3.663-3.663-3.663Zm-11.865-21.72h0a5.749,5.749,0,0,1,5.743-5.743H61.991v4.233a3.852,3.852,0,0,1-3.847,3.847H45.586v-2.337ZM75.1,297.688H32.474v-4.2H46.155a2.1,2.1,0,0,0,0-4.2H32.627a13.692,13.692,0,0,1,11.682-11.492l7.994,7.994a2.1,2.1,0,0,0,2.971,0l7.994-7.994A13.682,13.682,0,0,1,75.1,291.329Zm7.663-30.158a3.674,3.674,0,0,1,3.67-3.67h7.289v2.559a2.278,2.278,0,0,1-2.275,2.276H82.768Zm0,5.366h8.684a6.44,6.44,0,0,0,2.275-.414v1.9a5.48,5.48,0,0,1-10.959,0V272.9Zm6.834,11.17-1.355,1.355-1.355-1.355Zm-10.3,13.622v-6.359a17.778,17.778,0,0,0-1.1-6.177,9.37,9.37,0,0,1,2.87-.961l5.687,5.687a2.1,2.1,0,0,0,2.971,0l5.685-5.685a9.512,9.512,0,0,1,7.958,9.371v4.123Z" transform="translate(508 1023.688)"/><path class="a" d="M225.113,63.025a2.1,2.1,0,0,0-2.972,0l-10.31,10.31-4.457-4.457a2.1,2.1,0,1,0-2.971,2.971l5.943,5.943a2.1,2.1,0,0,0,2.971,0l11.8-11.8A2.1,2.1,0,0,0,225.113,63.025Z" transform="translate(347.032 1168.704)"/><path class="a" d="M185.225,7.985a2.1,2.1,0,1,0-1.712,3.838,16.91,16.91,0,1,1-13.831.032,2.1,2.1,0,0,0-1.73-3.83,21.112,21.112,0,1,0,17.273-.04Z" transform="translate(385.156 1211.837)"/><path class="a" d="M248.176,0H248.1a2.1,2.1,0,1,0,0,4.2h.066a2.1,2.1,0,0,0,.01-4.2Z" transform="translate(313.689 1218)"/></g></svg>