<svg xmlns="http://www.w3.org/2000/svg" viewBox="0 0 103.709 103.736"><defs><style>.a{fill:#7f7f7f;}</style></defs><g transform="translate(-607.999 -1174.064)"><path class="a" d="M138.905,546.127c-10.079-10.079-10.079-26.113,0-35.734a25.07,25.07,0,0,1,31.611-3.207l2.749-2.749a29.059,29.059,0,0,0-36.65,3.207c-11.453,11.453-11.453,29.778,0,40.773,11.453,11.453,29.778,11.453,40.773,0a28.584,28.584,0,0,0,3.207-36.65l-2.749,2.749c6.414,9.621,5.5,23.365-3.207,31.611C165.019,556.206,148.984,556.206,138.905,546.127Z" transform="translate(502.995 697.771)"/><path class="a" d="M137.332,508.78A40.169,40.169,0,1,0,197.8,512.9l-2.291,2.291c10.537,14.2,9.621,34.817-3.665,47.645a36.605,36.605,0,1,1-4.123-55.433l2.291-2.291C174.44,493.2,151.534,494.12,137.332,508.78Z" transform="translate(494.49 688.848)"/><path class="a" d="M226.536,549.989a49.667,49.667,0,0,0-7.788-31.152,4.13,4.13,0,0,1-2.291.458h-1.374c12.827,18.783,10.537,44.9-5.956,60.93a48.267,48.267,0,0,1-68.26-68.26c16.492-16.492,42.147-18.325,60.93-5.955v-1.374a3.433,3.433,0,0,1,.458-2.291,51.454,51.454,0,0,0-64.137,7.33,51.831,51.831,0,1,0,88.418,40.315Z" transform="translate(484.999 679.708)"/><path class="a" d="M168.576,512.973l-28.862,28.862a4.182,4.182,0,0,0-5.039.916,4.982,4.982,0,0,0,0,6.872,4.429,4.429,0,0,0,6.414,0,4.182,4.182,0,0,0,.916-5.039l28.862-28.862h8.246a1.683,1.683,0,0,0,1.374-.458l8.7-8.7a2.754,2.754,0,0,0,.458-1.832,2.38,2.38,0,0,0-1.832-.916h-7.33v-7.33a2.38,2.38,0,0,0-.916-1.832c-.458-.458-1.374,0-1.832.458l-8.7,8.7a1.683,1.683,0,0,0-.458,1.374Zm8.7-12.827v5.039a1.971,1.971,0,0,0,1.832,1.832h5.039l-5.039,5.039H172.7v-6.414Z" transform="translate(521.886 680.073)"/></g></svg>