<svg xmlns="http://www.w3.org/2000/svg" viewBox="0 0 104.301 104.301"><defs><style>.a{fill:#7f7f7f;}</style></defs><path class="a" d="M92.923,0a11.377,11.377,0,0,0-10,16.8L64.282,35.441a15.07,15.07,0,0,0-18.575,0L31.163,20.9a7.485,7.485,0,0,0,1.075-3.829,7.586,7.586,0,1,0-7.586,7.586,7.485,7.485,0,0,0,3.829-1.075L43.025,38.121a15.074,15.074,0,0,0,0,18.575L19.009,80.714a11.263,11.263,0,1,0,2.37,2.992L45.708,59.377a15.082,15.082,0,0,0,7.392,3.07V81.715a11.378,11.378,0,1,0,3.793,0V62.448a15.082,15.082,0,0,0,7.392-3.07L78.829,73.921a7.481,7.481,0,0,0-1.077,3.831,7.586,7.586,0,1,0,7.586-7.586,7.485,7.485,0,0,0-3.829,1.075L66.965,56.7a15.074,15.074,0,0,0,0-18.575L85.293,19.794A11.37,11.37,0,1,0,92.923,0ZM20.86,17.067a3.793,3.793,0,1,1,3.793,3.793A3.8,3.8,0,0,1,20.86,17.067ZM11.378,96.715a7.586,7.586,0,1,1,7.586-7.586A7.593,7.593,0,0,1,11.378,96.715Zm51.2-3.793a7.586,7.586,0,1,1-7.586-7.586A7.593,7.593,0,0,1,62.58,92.923ZM54.995,58.788A11.378,11.378,0,1,1,66.373,47.409,11.39,11.39,0,0,1,54.995,58.788ZM89.13,77.751a3.793,3.793,0,1,1-3.793-3.793A3.8,3.8,0,0,1,89.13,77.751Zm3.793-58.788a7.586,7.586,0,1,1,7.586-7.586A7.593,7.593,0,0,1,92.923,18.964Z"/></svg>