<svg xmlns="http://www.w3.org/2000/svg" viewBox="0 0 90.359 105.453"><defs><style>.a{fill:#7f7f7f;}</style></defs><g transform="translate(-623.285 -1172.679)"><path class="a" d="M186.485,40.264a17.545,17.545,0,0,1,3.3,1.473,1.7,1.7,0,1,0,1.7-2.938,20.952,20.952,0,0,0-3.943-1.761,1.7,1.7,0,1,0-1.064,3.226Z" transform="translate(472.389 1144.095)"/><path class="a" d="M227.786,79.384a35.075,35.075,0,0,1-.874,7.7,1.7,1.7,0,1,0,3.314.747,38.471,38.471,0,0,0,.958-8.444c0-5.931-1.448-10.872-4.3-14.684a1.7,1.7,0,1,0-2.719,2.036c2.4,3.211,3.624,7.467,3.624,12.648Z" transform="translate(442.603 1123.157)"/><path class="a" d="M87.215,191.957c-4.221-2.879-8-8.4-10.1-14.769a1.7,1.7,0,1,0-3.226,1.065c2.362,7.158,6.52,13.176,11.408,16.511a1.7,1.7,0,1,0,1.914-2.807Z" transform="translate(558.647 1036.52)"/><path class="a" d="M115.21,27.739a28.91,28.91,0,0,0-20.4-7.81,33.49,33.49,0,0,0-4.969.368A27.3,27.3,0,0,0,82.6,7.81,28.91,28.91,0,0,0,62.2,0,28.91,28.91,0,0,0,41.8,7.81c-5.543,5.4-8.473,13.024-8.473,22.053A46.775,46.775,0,0,0,41.591,56.12C46.07,62.508,51.6,66.618,57.5,68.05a5.288,5.288,0,0,0-.622,2.494v3.623a1.7,1.7,0,0,0,1.7,1.7H60.4a10.521,10.521,0,0,1-.7,2.534,15.03,15.03,0,0,0,0,10.854,11.646,11.646,0,0,1,0,8.472,13.523,13.523,0,0,0-1.014,5.429,1.7,1.7,0,1,0,3.4,0,10.213,10.213,0,0,1,.8-4.236,15.037,15.037,0,0,0,0-10.857,11.638,11.638,0,0,1,0-8.468,13.4,13.4,0,0,0,.934-3.727h2.005a1.7,1.7,0,0,0,1.7-1.7V70.544A5.288,5.288,0,0,0,66.9,68.05a21.131,21.131,0,0,0,2.544-.791c4.463,10.974,12.2,18.612,20.674,20.708a5.289,5.289,0,0,0-.629,2.506V94.1a1.7,1.7,0,0,0,1.7,1.7h1.824a10.519,10.519,0,0,1-.7,2.534,13.509,13.509,0,0,0-1.014,5.426,1.7,1.7,0,1,0,3.4,0,10.2,10.2,0,0,1,.8-4.232,13.4,13.4,0,0,0,.934-3.727h2.005a1.7,1.7,0,0,0,1.7-1.7V90.473a5.288,5.288,0,0,0-.622-2.494c5.9-1.432,11.428-5.542,15.907-11.929a46.776,46.776,0,0,0,8.267-26.258c0-9.029-2.93-16.655-8.472-22.053ZM44.372,54.17A43.3,43.3,0,0,1,36.72,29.863c0-8.091,2.575-14.875,7.446-19.619A25.539,25.539,0,0,1,62.2,3.4a25.54,25.54,0,0,1,18.031,6.846c4.871,4.744,7.446,11.529,7.446,19.619A43.3,43.3,0,0,1,80.023,54.17c-5,7.127-11.328,11.052-17.825,11.052S49.369,61.3,44.372,54.17Zm19.75,16.374v1.925h-3.85V70.544a1.925,1.925,0,1,1,3.85,0ZM96.733,90.473V92.4h-3.85V90.473a1.925,1.925,0,1,1,3.85,0Zm15.9-16.374c-5,7.127-11.328,11.052-17.825,11.052-4.58,0-9.163-2-13.253-5.771a37.994,37.994,0,0,1-9.032-13.567,26.313,26.313,0,0,0,3.243-2.159c2.43,6.437,6.318,11.8,10.83,14.88a1.7,1.7,0,1,0,1.914-2.806c-4.159-2.836-7.882-8.238-10-14.487A37.236,37.236,0,0,0,82.8,56.12a46.776,46.776,0,0,0,8.267-26.258,37.882,37.882,0,0,0-.5-6.241,30.168,30.168,0,0,1,4.24-.3,25.54,25.54,0,0,1,18.031,6.846c4.871,4.744,7.446,11.529,7.446,19.619A43.3,43.3,0,0,1,112.634,74.1Z" transform="translate(589.962 1172.679)"/><path class="a" d="M370.88,152.7a1.7,1.7,0,1,0-2.719,2.036c2.405,3.212,3.625,7.467,3.625,12.648a35.071,35.071,0,0,1-.874,7.7,1.7,1.7,0,1,0,3.314.747,38.472,38.472,0,0,0,.958-8.444C375.183,161.452,373.735,156.512,370.88,152.7Z" transform="translate(331.215 1055.087)"/><path class="a" d="M335.493,126.8a20.953,20.953,0,0,0-3.943-1.761,1.7,1.7,0,0,0-1.064,3.226,17.545,17.545,0,0,1,3.3,1.473,1.7,1.7,0,0,0,1.7-2.938Z" transform="translate(360.999 1076.024)"/></g></svg>