<svg xmlns="http://www.w3.org/2000/svg" viewBox="0 0 106.94 106.94"><defs><style>.a{fill:#7f7f7f;}</style></defs><g transform="translate(-852 -593)"><path class="a" d="M101.9,51.8A48.455,48.455,0,0,0,55.141,5.045V0H51.8V5.045A48.455,48.455,0,0,0,5.045,51.8H0v3.342H5.045A48.455,48.455,0,0,0,51.8,101.9v5.045h3.342v-5.046a48.512,48.512,0,0,0,46.753-46.753h5.046V51.8ZM53.47,98.586A45.115,45.115,0,1,1,98.586,53.47,45.115,45.115,0,0,1,53.47,98.586Z" transform="translate(852 593)"/><path class="a" d="M133.495,83.213a16.26,16.26,0,0,0-10.5-3.271,16.26,16.26,0,0,0-10.56,3.314l-.007-.022a35.113,35.113,0,1,0,21.069-.021Zm-18.857,2.52a15.477,15.477,0,0,1,16.709,0v7.336c-.835-.22-1.671-.638-1.671-1.43a1.671,1.671,0,0,0-1.671-1.671H117.98a1.671,1.671,0,0,0-1.671,1.671c0,.792-.835,1.21-1.671,1.43Zm0,10.763a5.937,5.937,0,0,0,4.709-3.186h7.292a5.937,5.937,0,0,0,4.709,3.186v1.826c0,4.625-2.189,10.026-8.355,10.026s-8.355-5.4-8.355-10.026Zm13.094,16.447-4.739,4.739-4.74-4.74.637-1.977a11.976,11.976,0,0,0,8.2,0Zm-24.615,4.684-1.671,3.342a1.67,1.67,0,0,0-.175.747v18.137A31.753,31.753,0,0,1,111.3,87.179V98.323c0,4.737,1.744,8.612,4.633,10.948l-.894,2.77-11.083,4.8A1.671,1.671,0,0,0,103.117,117.627Zm38.256,24.96a31.55,31.55,0,0,1-5.013,2.906v-8.739h-3.342V146.78h.1c-.189.063-.377.127-.568.187a31.6,31.6,0,0,1-19.7-.187h.112V136.754h-3.342v8.736a31.928,31.928,0,0,1-5.013-2.909V122.11l1.22-2.446,10.061-4.356,5.428,5.428v9.334h3.342v-9.334l5.428-5.428,10.06,4.355,1.221,2.446Zm3.342-2.731v-18.14a1.669,1.669,0,0,0-.167-.747l-1.671-3.342a1.671,1.671,0,0,0-.835-.785l-11.1-4.8-.893-2.768c2.891-2.336,4.636-6.212,4.636-10.95V87.183a31.751,31.751,0,0,1,10.026,52.672Z" transform="translate(782.478 529.767)"/><path class="a" d="M15.221,8.537v4.32L4.706,2.342,2.343,4.705,12.858,15.22H8.537v3.342h8.355a1.671,1.671,0,0,0,1.671-1.671V8.537Z" transform="translate(850.146 591.147)"/><path class="a" d="M448.217,4.691l-2.363-2.363L435.342,12.84V8.526H432V16.88a1.671,1.671,0,0,0,1.671,1.671h8.355V15.209H437.7Z" transform="translate(510.231 591.158)"/><path class="a" d="M16.86,432H8.5v3.342h4.312L2.3,445.857l2.363,2.363L15.189,437.7v4.329h3.342v-8.355A1.671,1.671,0,0,0,16.86,432Z" transform="translate(850.179 251.231)"/><path class="a" d="M437.705,435.342h4.321V432h-8.355A1.671,1.671,0,0,0,432,433.671v8.355h3.342v-4.321l10.512,10.512,2.363-2.363Z" transform="translate(510.231 251.231)"/></g></svg>