<svg xmlns="http://www.w3.org/2000/svg" viewBox="0 0 100.48 100.48"><defs><style>.a{fill:#7f7f7f;}</style></defs><g transform="translate(-1710 -697)"><path class="a" d="M1.675,0A1.675,1.675,0,0,0,0,1.675V20.1H3.349V3.349H20.1V0Z" transform="translate(1710 697)"/><path class="a" d="M402.421,0H384V3.349h16.747V20.1H404.1V1.675A1.675,1.675,0,0,0,402.421,0Z" transform="translate(1406.384 697)"/><path class="a" d="M3.349,400.747V384H0v18.421A1.675,1.675,0,0,0,1.675,404.1H20.1v-3.349Z" transform="translate(1710 393.384)"/><path class="a" d="M400.747,384v16.747H384V404.1h18.421a1.675,1.675,0,0,0,1.675-1.675V384Z" transform="translate(1406.384 393.384)"/><path class="a" d="M97.088,48.565A46.934,46.934,0,0,0,51.914,3.391V0H48.565V3.391A46.934,46.934,0,0,0,3.391,48.565H0v3.349H3.391A46.934,46.934,0,0,0,48.565,97.088v3.391h3.349V97.088A46.934,46.934,0,0,0,97.088,51.914h3.391V48.565H97.088ZM14.709,75.36A43.616,43.616,0,0,1,11.723,70.5V64.139a5.526,5.526,0,0,1,5.526-5.526h3.723l-2.43,6.076a1.675,1.675,0,0,0,.372,1.807l3.349,3.349a1.675,1.675,0,0,0,2.368,0L27.98,66.5a1.675,1.675,0,0,0,.372-1.807l-2.433-6.076h3.723a5.526,5.526,0,0,1,5.526,5.526V75.36ZM25.755,44.2l5.985,3.592c-.672,4.1-5.724,7.471-8.295,7.471A10.551,10.551,0,0,1,15.3,48.478C18.172,48.242,23.348,47.373,25.755,44.2Zm-10.59.918c.449-5.612,3.09-8.276,8.281-8.276,4.753,0,7.368,2.247,8.117,6.936l-5.58-3.349a1.674,1.674,0,0,0-2.45.906C22.685,43.876,18.11,44.839,15.164,45.119Zm9.664,19.789-1.383,1.385-1.383-1.385,1.383-3.462ZM51.914,93.739V90.432H48.565v3.307a43.447,43.447,0,0,1-31.227-15.03h19.5a1.675,1.675,0,0,0,1.675-1.675V68.661H61.962v8.373a1.675,1.675,0,0,0,1.675,1.675h19.5A43.447,43.447,0,0,1,51.914,93.739Zm.635-59.586,5.985,3.592c-.672,4.1-5.724,7.471-8.295,7.471A10.551,10.551,0,0,1,42.1,38.43C44.966,38.194,50.143,37.325,52.549,34.153Zm-10.59.918c.449-5.612,3.09-8.276,8.281-8.276,4.753,0,7.369,2.247,8.117,6.936l-5.58-3.349a1.674,1.674,0,0,0-2.45.906C49.479,33.828,44.9,34.791,41.959,35.071ZM51.623,54.86,50.24,56.245,48.857,54.86,50.24,51.4Zm-3.857-6.3-2.43,6.076a1.675,1.675,0,0,0,.372,1.807L49.057,59.8a1.675,1.675,0,0,0,2.368,0l3.349-3.349a1.675,1.675,0,0,0,.372-1.807l-2.433-6.076h3.723a5.526,5.526,0,0,1,5.526,5.526v11.22H38.517V54.091a5.526,5.526,0,0,1,5.526-5.526ZM88.757,70.5a43.614,43.614,0,0,1-2.986,4.857H65.312V64.139a5.526,5.526,0,0,1,5.526-5.526h3.723l-2.43,6.076A1.675,1.675,0,0,0,72.5,66.5l3.349,3.349a1.675,1.675,0,0,0,2.368,0L81.569,66.5a1.675,1.675,0,0,0,.372-1.807l-2.433-6.076h3.723a5.526,5.526,0,0,1,5.526,5.526ZM79.344,44.2l5.985,3.592c-.672,4.1-5.724,7.471-8.295,7.471a10.551,10.551,0,0,1-8.141-6.786C71.761,48.242,76.937,47.373,79.344,44.2Zm-10.59.918c.449-5.612,3.09-8.276,8.281-8.276,4.753,0,7.368,2.247,8.117,6.936l-5.58-3.349a1.674,1.674,0,0,0-2.45.906C76.274,43.876,71.7,44.839,68.753,45.119Zm9.664,19.789-1.383,1.385-1.383-1.385,1.383-3.462ZM93.739,51.914a43.32,43.32,0,0,1-1.772,10.745,8.812,8.812,0,0,0-7.626-7.313,11.626,11.626,0,0,0,4.416-8.455c0-11.073-6.375-13.4-11.723-13.4s-11.723,2.324-11.723,13.4a11.626,11.626,0,0,0,4.416,8.455,8.846,8.846,0,0,0-3.812,1.41c-.213.142-.407.3-.6.461V54.091a8.847,8.847,0,0,0-7.765-8.8,11.626,11.626,0,0,0,4.416-8.45c0-11.073-6.375-13.4-11.723-13.4s-11.723,2.324-11.723,13.4A11.626,11.626,0,0,0,42.933,45.3a8.847,8.847,0,0,0-7.765,8.794V57.21c-.2-.157-.392-.318-.6-.461a8.843,8.843,0,0,0-3.812-1.41,11.626,11.626,0,0,0,4.416-8.449c0-11.073-6.375-13.4-11.723-13.4s-11.723,2.324-11.723,13.4a11.626,11.626,0,0,0,4.416,8.455,8.812,8.812,0,0,0-7.626,7.313A43.32,43.32,0,0,1,6.741,51.914h3.307V48.565H6.741A43.585,43.585,0,0,1,48.565,6.741v3.307h3.349V6.741A43.585,43.585,0,0,1,93.739,48.565H90.432v3.349Z" transform="translate(1710 697)"/></g></svg>