<svg xmlns="http://www.w3.org/2000/svg" viewBox="0 0 112.595 111.905"><defs><style>.a{fill:none;stroke:#7f7f7f;stroke-linecap:round;stroke-linejoin:round;stroke-miterlimit:10;stroke-width:3px;}</style></defs><g transform="translate(1.5 1.5)"><path class="a" d="M379.994,110.34,333.74,156.595a8.75,8.75,0,0,1-12.427,0h0a8.751,8.751,0,0,1,0-12.427l46.254-46.254a8.75,8.75,0,0,1,12.426,0h0A8.75,8.75,0,0,1,379.994,110.34Z" transform="translate(-272.988 -50.279)"/><path class="a" d="M359.735,183.38,312.1,88.8l95.96,46.254Z" transform="translate(-312.1 -88.8)"/><circle class="a" cx="6.904" cy="6.904" r="6.904" transform="translate(44.183 62.823)"/><circle class="a" cx="6.904" cy="6.904" r="6.904" transform="translate(53.158 34.518)"/><circle class="a" cx="6.904" cy="6.904" r="6.904" transform="translate(24.163 26.924)"/><line class="a" y1="6.213" transform="translate(41.422 51.087)"/><line class="a" x2="6.213" transform="translate(66.275 57.3)"/><line class="a" y1="6.213" transform="translate(78.701 44.874)"/><line class="a" y1="6.213" transform="translate(44.874 28.995)"/><line class="a" x2="6.213" transform="translate(16.569 20.02)"/></g></svg>