<svg xmlns="http://www.w3.org/2000/svg" viewBox="0 0 109.564 109.564"><defs><style>.a{fill:#7f7f7f;}</style></defs><path class="a" d="M109.432,51.13a54.767,54.767,0,0,0-51-51.006V0h-7.3V.124A54.774,54.774,0,0,0,.124,51.13H0v7.3H.124a54.767,54.767,0,0,0,51.006,51v.131h7.3v-.131a54.761,54.761,0,0,0,51-51h.131v-7.3ZM34.294,11.942A58.073,58.073,0,0,0,25.7,29.217H14.762A47.728,47.728,0,0,1,34.294,11.942ZM10.942,36.521H23.783a86.745,86.745,0,0,0-1.8,14.609H7.443A47.067,47.067,0,0,1,10.942,36.521Zm-3.5,21.913H21.986a86.745,86.745,0,0,0,1.8,14.609H10.942A47.067,47.067,0,0,1,7.443,58.434Zm7.319,21.913H25.7a57.908,57.908,0,0,0,8.6,17.275A47.676,47.676,0,0,1,14.762,80.347ZM51.13,101.792c-7.509-2.009-13.973-10.073-17.9-21.445h17.9Zm0-28.75H31.182A81.635,81.635,0,0,1,29.29,58.434H51.13Zm0-21.913H29.29a81.635,81.635,0,0,1,1.892-14.609H51.13Zm0-21.913h-17.9C37.157,17.844,43.621,9.78,51.13,7.779Zm43.672,0H83.875a57.917,57.917,0,0,0-8.6-17.275A47.774,47.774,0,0,1,94.8,29.217ZM58.434,7.779c7.5,2,13.973,10.065,17.9,21.438h-17.9Zm0,28.742H78.375a82.292,82.292,0,0,1,1.9,14.609H58.434Zm0,21.913h21.84a80.966,80.966,0,0,1-1.9,14.609H58.434Zm0,43.358V80.347h17.9C72.407,91.72,65.936,99.784,58.434,101.792ZM75.27,97.621a58.354,58.354,0,0,0,8.6-17.275H94.8A47.722,47.722,0,0,1,75.27,97.621ZM98.622,73.043H85.781a86.746,86.746,0,0,0,1.8-14.609h14.535A46.855,46.855,0,0,1,98.622,73.043ZM87.578,51.13a86.745,86.745,0,0,0-1.8-14.609H98.622a47.067,47.067,0,0,1,3.5,14.609Z"/></svg>