<svg xmlns="http://www.w3.org/2000/svg" viewBox="0 0 27 17.977"><defs><style>.a{fill:#ff0083;}</style></defs><path class="a" d="M26.993,10.557c0-.011,0-.022.006-.032a.474.474,0,0,0,0-.1c0-.009,0-.017,0-.025a.451.451,0,0,0-.045-.13c0-.007-.009-.014-.013-.021s0,0,0,0l0,0-.009-.015a.444.444,0,0,0-.1-.1c-.009-.006-.018-.01-.027-.016a.431.431,0,0,0-.106-.052.388.388,0,0,0-.05-.011.434.434,0,0,0-.1-.009.421.421,0,0,0-.053,0c-.012,0-.023,0-.035,0L.359,15.434a.45.45,0,0,0-.119.838l7.477,3.944,1.311,7.277c0,.005,0,.011,0,.017a.423.423,0,0,0,0,.107.415.415,0,0,0,.009.053.434.434,0,0,0,.049.12c0,.007,0,.016.009.023l.005.006c.006.009.014.015.021.024a.459.459,0,0,0,.068.07s.007.008.011.011.014.006.021.011a.458.458,0,0,0,.086.045c.012,0,.023.01.036.013a.45.45,0,0,0,.125.02H9.5a.447.447,0,0,0,.32-.142l4.98-3.32,5.215,3.39a.45.45,0,0,0,.667-.222l6.292-17.077a.412.412,0,0,0,.015-.047c0-.007,0-.013,0-.02S26.992,10.562,26.993,10.557Zm-5.207,2.869L11,21.356a.438.438,0,0,0-.047.045.185.185,0,0,0-.017.016c-.009.01-.018.021-.027.032s-.014.022-.022.033a.46.46,0,0,0-.041.085c0,.006-.006.01-.008.016s0,0,0,0L9.6,25.6l-.98-5.435ZM10.3,26.469l1.225-4.048,1.908,1.24.546.355-1.854,1.236ZM23.4,11.592,8.124,19.414,1.767,16.061ZM20.031,26.879l-6.925-4.5L12.057,21.7l13.555-9.967Z" transform="translate(0 -10.035)"/></svg>