<svg xmlns="http://www.w3.org/2000/svg" viewBox="0 0 25 25"><defs><style>.a{fill:#ff0083;}</style></defs><path class="a" d="M21.339,3.661A12.5,12.5,0,1,0,3.661,21.339,12.5,12.5,0,0,0,21.339,3.661ZM12.5,24A11.5,11.5,0,1,1,24,12.5,11.517,11.517,0,0,1,12.5,24Z"/><g transform="translate(4.433 6.624)"><path class="a" d="M105.965,136.176a1.745,1.745,0,0,0-2.465,0l-7.333,7.333-2.4-2.4a1.743,1.743,0,1,0-2.465,2.465l3.636,3.635a1.743,1.743,0,0,0,2.465,0l8.566-8.566A1.745,1.745,0,0,0,105.965,136.176Zm-.7,1.761L96.7,146.5a.747.747,0,0,1-1.056,0L92,142.867a.747.747,0,0,1,1.056-1.056l2.755,2.755a.5.5,0,0,0,.7,0l7.685-7.685a.747.747,0,1,1,1.056,1.056Z" transform="translate(-90.789 -135.667)"/></g><g transform="translate(12.002 14.542)"><path class="a" d="M256.364,297.83a.5.5,0,0,0-.605.36,9.751,9.751,0,0,1-9.459,7.344.5.5,0,1,0,0,1,10.746,10.746,0,0,0,10.425-8.094A.5.5,0,0,0,256.364,297.83Z" transform="translate(-245.801 -297.814)"/></g><g transform="translate(22.251 12.002)"><path class="a" d="M456.215,245.8a.5.5,0,0,0-.5.5c0,.142,0,.286-.009.427a.5.5,0,0,0,.476.519h.022a.5.5,0,0,0,.5-.477c.007-.155.01-.313.01-.47A.5.5,0,0,0,456.215,245.8Z" transform="translate(-455.707 -245.802)"/></g></svg>