<svg xmlns="http://www.w3.org/2000/svg" viewBox="0 0 27 16.875"><defs><style>.a{fill:#ff0083;}</style></defs><g transform="translate(0 -96.003)"><g transform="translate(3.936 97.198)"><g transform="translate(0 0)"><path class="a" d="M92.025,129.034c-.53-1.1-2.426-2.638-4.257-4.12-1.022-.826-1.987-1.607-2.6-2.222a.562.562,0,0,0-.588-.132c-.379.137-.613.243-.8.325a1.86,1.86,0,0,1-.755.207.562.562,0,0,0-.412.246,1.72,1.72,0,0,1-2.169.9c-.176-.058-.207-.134-.224-.206a3.719,3.719,0,0,1,1.243-2.412c1.828-1.829,2.771-2.287,4.762-1.4,2.259,1.01,4.523,1.8,4.545,1.809a.563.563,0,1,0,.37-1.063c-.023-.008-2.241-.783-4.455-1.774-2.58-1.153-3.995-.394-6.017,1.629-.77.769-1.815,2.326-1.545,3.468a1.391,1.391,0,0,0,.966,1.014,2.815,2.815,0,0,0,3.3-1.132,2.84,2.84,0,0,0,.845-.268c.106-.047.229-.1.394-.169.644.6,1.512,1.307,2.427,2.046,1.654,1.338,3.529,2.854,3.951,3.732a.659.659,0,0,1-.168.845.62.62,0,0,1-.693.136.562.562,0,0,0-.879.523.68.68,0,0,1-.431.633.863.863,0,0,1-.876.02.562.562,0,0,0-.944.359,1.069,1.069,0,0,1-.664.862.593.593,0,0,1-.646-.1.569.569,0,0,0-.514-.131.562.562,0,0,0-.395.354c-.021.056-.07.191-.6.191a3.239,3.239,0,0,1-1.378-.471c-.395-.26-2.871-2.107-5.01-3.9-.3-.253-.82-.8-1.279-1.275-.407-.425-.78-.811-.971-.973a.563.563,0,1,0-.727.86c.174.147.512.5.884.892.5.524,1.02,1.066,1.369,1.359,2.095,1.754,4.613,3.647,5.114,3.977a4.316,4.316,0,0,0,2,.655,1.936,1.936,0,0,0,1.277-.376,1.751,1.751,0,0,0,1.279-.014,2.216,2.216,0,0,0,1.171-1.081,2.175,2.175,0,0,0,1.412-.2,1.909,1.909,0,0,0,.939-.981,1.84,1.84,0,0,0,1.29-.462A1.788,1.788,0,0,0,92.025,129.034Z" transform="translate(-74.642 -118.658)"/></g></g><g transform="translate(5.625 98.253)"><g transform="translate(0 0)"><path class="a" d="M112.291,138.663h-5.062a.563.563,0,1,0,0,1.125h5.063a.563.563,0,0,0,0-1.125Z" transform="translate(-106.666 -138.663)"/></g></g><g transform="translate(20.293 106.127)"><g transform="translate(0 0)"><path class="a" d="M387.485,288.227a.561.561,0,0,0-.781-.153l-1.645,1.1a.563.563,0,0,0,.628.934l1.645-1.1A.563.563,0,0,0,387.485,288.227Z" transform="translate(-384.811 -287.977)"/></g></g><g transform="translate(15.188 105.565)"><g transform="translate(0 0)"><path class="a" d="M292.3,280.813c-.4-.317-2.2-2.161-3.318-3.322a.563.563,0,1,0-.812.779c.289.3,2.839,2.96,3.432,3.428a.56.56,0,0,0,.348.12.568.568,0,0,0,.443-.215A.562.562,0,0,0,292.3,280.813Z" transform="translate(-288.016 -277.317)"/></g></g><g transform="translate(13.5 107.254)"><path class="a" d="M259.732,312.273c-.674-.539-2.367-2.338-2.75-2.754a.563.563,0,0,0-.829.762c.02.021,2.041,2.2,2.876,2.871a.563.563,0,0,0,.7-.879Z" transform="translate(-256.005 -309.337)"/></g><g transform="translate(11.251 108.377)"><path class="a" d="M217.081,333.589c-.8-.676-2.443-2.423-2.764-2.766a.563.563,0,0,0-.822.768c.461.494,2.032,2.159,2.861,2.859a.563.563,0,1,0,.726-.861Z" transform="translate(-213.343 -330.644)"/></g><g transform="translate(0 96.003)"><g transform="translate(0 0)"><path class="a" d="M6.575,97.282C5.61,96.369,1.755,96.073.6,96a.562.562,0,0,0-.6.561v10.125a.563.563,0,0,0,.563.563H3.938a.562.562,0,0,0,.534-.388,58.977,58.977,0,0,0,2.276-9.126A.56.56,0,0,0,6.575,97.282Zm-3.048,8.846h-2.4v-8.96a17.089,17.089,0,0,1,4.467.8A59.025,59.025,0,0,1,3.527,106.128Z" transform="translate(0 -96.004)"/></g></g><g transform="translate(19.145 97.128)"><g transform="translate(0 0)"><path class="a" d="M370.339,117.33a17.553,17.553,0,0,0-6.969,1.178.56.56,0,0,0-.3.35.567.567,0,0,0,.062.457,74.792,74.792,0,0,1,3.291,8.853.562.562,0,0,0,.542.413h3.375a.563.563,0,0,0,.563-.563V117.892A.562.562,0,0,0,370.339,117.33Zm-.562,10.125h-2.392c-.533-1.737-2.108-6.266-2.987-8.138a18.321,18.321,0,0,1,5.379-.855Z" transform="translate(-363.046 -117.33)"/></g></g></g></svg>