<svg xmlns="http://www.w3.org/2000/svg" viewBox="0 0 26.103 27.69"><defs><style>.a{fill:#ff0083;}</style></defs><g transform="translate(-13.8)"><path class="a" d="M34.947,17.789a4.955,4.955,0,0,0-3.921,1.932l-7.607-4.249a4.967,4.967,0,0,0,.276-1.633,4.858,4.858,0,0,0-.282-1.639l7.6-4.243A4.945,4.945,0,1,0,29.991,4.95a4.833,4.833,0,0,0,.282,1.639l-7.6,4.243a4.946,4.946,0,1,0,.011,6.008l7.6,4.249a4.948,4.948,0,1,0,4.657-3.3Zm0-16.231a3.4,3.4,0,1,1-3.4,3.4A3.4,3.4,0,0,1,34.947,1.558ZM18.756,17.237a3.4,3.4,0,1,1,3.4-3.4A3.4,3.4,0,0,1,18.756,17.237Zm16.191,8.895a3.4,3.4,0,1,1,3.4-3.4A3.4,3.4,0,0,1,34.947,26.132Z"/></g></svg>