<svg xmlns="http://www.w3.org/2000/svg" xmlns:xlink="http://www.w3.org/1999/xlink" viewBox="0 0 320 342.85"><defs><style>.a{fill:none;}.b{clip-path:url(#a);}.c{fill:#707070;}.d{fill:#ececec;}.e{fill:#6d6d6d;}.f{fill:#ff0083;}.g{fill:#fff8fb;}</style><clipPath id="a"><rect class="a" width="320" height="342.85" transform="translate(188 329)"/></clipPath></defs><g class="b" transform="translate(-188 -329)"><path class="c" d="M-12751.664-6083.5a144.333,144.333,0,0,1-28.868-2.91c-2.211-.453-4.448-.967-6.649-1.529l6.3-4.576a137.758,137.758,0,0,0,29.219,3.127,137.14,137.14,0,0,0,105.212-49.144l3.6,4.954c-2.4,2.8-4.928,5.529-7.518,8.12a144.213,144.213,0,0,1-21.2,17.492,143.433,143.433,0,0,1-24.333,13.209,142.784,142.784,0,0,1-26.89,8.347A144.348,144.348,0,0,1-12751.664-6083.5Zm-139.258-109.531h0c-.384-1.59-.748-3.222-1.081-4.848a144.522,144.522,0,0,1-2.91-28.872,144.522,144.522,0,0,1,2.91-28.872,142.426,142.426,0,0,1,8.347-26.89,143.29,143.29,0,0,1,13.206-24.33,144.476,144.476,0,0,1,17.492-21.2,144.347,144.347,0,0,1,21.2-17.492,143.4,143.4,0,0,1,24.333-13.206,142.406,142.406,0,0,1,26.89-8.347,144.333,144.333,0,0,1,28.868-2.91,144.348,144.348,0,0,1,28.871,2.91,142.507,142.507,0,0,1,26.89,8.347,143.474,143.474,0,0,1,24.333,13.206c1.508,1.02,3.024,2.087,4.508,3.175l-5.063,3.679a136.289,136.289,0,0,0-79.538-25.429c-75.741,0-137.36,61.62-137.36,137.36a137.619,137.619,0,0,0,3.289,29.953l-5.185,3.768Z" transform="translate(13088.913 6715.5)"/><g transform="translate(258 392.296)"><g transform="translate(-258 -392.296)"><rect class="d" width="12" height="12" rx="2" transform="translate(300 461)"/><rect class="d" width="12" height="12" rx="2" transform="translate(300 539)"/><rect class="d" width="16" height="179" rx="8" transform="translate(263 402)"/><rect class="d" width="12" height="45" rx="6" transform="translate(408 441)"/><rect class="d" width="5" height="33" rx="2.5" transform="translate(361.5 454.5) rotate(90)"/><rect class="d" width="5" height="18" rx="2.5" transform="translate(347.5 473.5) rotate(90)"/><rect class="d" width="5" height="28" rx="2.5" transform="translate(389.5 473.5) rotate(90)"/><rect class="d" width="5" height="8" rx="2.5" transform="translate(337.5 492.5) rotate(90)"/><rect class="d" width="5" height="34" rx="2.5" transform="translate(382.5 492.5) rotate(90)"/><rect class="d" width="5" height="27" rx="2.5" transform="translate(356.5 511.5) rotate(90)"/><rect class="d" width="5" height="18" rx="2.5" transform="translate(385.5 511.5) rotate(90)"/><rect class="d" width="5" height="10" rx="2.5" transform="translate(377.5 530.5) rotate(90)"/><rect class="d" width="5" height="26" rx="2.5" transform="translate(356.5 530.5) rotate(90)"/><rect class="d" width="5" height="29" rx="2.5" transform="translate(358.5 549.5) rotate(90)"/></g><path class="e" d="M332.745,310.395a3.2,3.2,0,0,0-3.195-3.195H310.38a3.195,3.195,0,1,0,0,6.39H329.55A3.2,3.2,0,0,0,332.745,310.395Z" transform="translate(-198.552 -192.177)"/><path class="e" d="M330.641,61.838V45.862a3.195,3.195,0,1,0-6.39,0V61.838a15.994,15.994,0,0,0,15.976,15.976h28.756V117.8a3.195,3.195,0,1,0,6.39,0V74.618a3.2,3.2,0,0,0-3.195-3.195H340.227A9.6,9.6,0,0,1,330.641,61.838Z" transform="translate(-209.228 -26.691)"/><path class="e" d="M318.873,204.8H293.312a3.195,3.195,0,1,0,0,6.39h25.561a3.195,3.195,0,0,0,0-6.39Z" transform="translate(-187.875 -128.118)"/><path class="e" d="M230.345,207.995a3.2,3.2,0,0,0-3.195-3.195H207.98a3.195,3.195,0,0,0,0,6.39H227.15A3.2,3.2,0,0,0,230.345,207.995Z" transform="translate(-134.493 -128.118)"/><path class="e" d="M207.979,256a3.195,3.195,0,1,0,0,6.39h6.39a3.195,3.195,0,0,0,0-6.39Z" transform="translate(-134.492 -160.147)"/><path class="e" d="M207.979,159.991H239.93a3.195,3.195,0,0,0,0-6.39H207.979a3.195,3.195,0,1,0,0,6.39Z" transform="translate(-134.492 -96.089)"/><path class="e" d="M259.179,262.391H291.13a3.195,3.195,0,0,0,0-6.39H259.179a3.195,3.195,0,0,0,0,6.39Z" transform="translate(-166.522 -160.148)"/><path class="e" d="M310.379,358.4a3.195,3.195,0,1,0,0,6.39h6.39a3.195,3.195,0,1,0,0-6.39Z" transform="translate(-198.551 -224.206)"/><path class="e" d="M233.54,307.2H207.979a3.195,3.195,0,1,0,0,6.39H233.54a3.195,3.195,0,1,0,0-6.39Z" transform="translate(-134.492 -192.177)"/><path class="e" d="M233.54,358.4H207.979a3.195,3.195,0,1,0,0,6.39H233.54a3.195,3.195,0,1,0,0-6.39Z" transform="translate(-134.492 -224.206)"/><path class="e" d="M116.1,185.315H33.026a9.6,9.6,0,0,1-9.585-9.585V15.976A9.6,9.6,0,0,1,33.026,6.39h100.92L164.961,37.4a3.195,3.195,0,1,0,4.518-4.518L137.528.936A3.187,3.187,0,0,0,135.269,0H33.026A15.993,15.993,0,0,0,17.051,15.976V175.73a15.994,15.994,0,0,0,15.976,15.976H116.1a3.2,3.2,0,0,0,0-6.391Z" transform="translate(-17.051 0)"/><path class="e" d="M233.54,409.6H207.979a3.195,3.195,0,1,0,0,6.39H233.54a3.195,3.195,0,1,0,0-6.39Z" transform="translate(-134.492 -256.236)"/><path class="e" d="M127.945,156.795a3.2,3.2,0,0,0-3.195-3.195H105.58a3.2,3.2,0,0,0-3.195,3.195v19.171a3.2,3.2,0,0,0,3.195,3.195h19.17a3.2,3.2,0,0,0,3.195-3.195Zm-6.39,15.976h-12.78V159.99h12.78Z" transform="translate(-70.434 -96.088)"/><path class="e" d="M105.579,383.961h19.171a3.2,3.2,0,0,0,3.195-3.195V361.6a3.2,3.2,0,0,0-3.195-3.195H105.579a3.2,3.2,0,0,0-3.195,3.195v19.171A3.2,3.2,0,0,0,105.579,383.961Zm3.2-19.171h12.78v12.78h-12.78Z" transform="translate(-70.433 -224.207)"/><path class="f" d="M109.709,280.622a3.2,3.2,0,0,0,2.259.936,2.591,2.591,0,0,0,.316-.016,3.187,3.187,0,0,0,2.342-1.406l12.78-19.171a3.2,3.2,0,0,0-5.317-3.547l-10.617,15.928-3.636-3.633a3.195,3.195,0,1,0-4.518,4.518Z" transform="translate(-70.432 -160.145)"/><g transform="translate(123.741 55.137)"><path class="f" d="M-1414.967,2388.578c3.221-.761,12.884,7.847,12.884,11.479s-12.884,3.046-12.884,3.046S-1418.188,2389.34-1414.967,2388.578Z" transform="translate(1421.954 -2286.275)"/><path class="e" d="M113.292,7.868a26.717,26.717,0,0,0-37.813,0L6.151,77.17a3.468,3.468,0,0,0-.981,1.987L.034,117.2a3.457,3.457,0,0,0,.981,2.917,3.526,3.526,0,0,0,2.452,1.032,2.8,2.8,0,0,0,.465-.026l22.92-3.1a3.49,3.49,0,1,0-.929-6.917L7.545,113.589l3.588-26.534L39.06,114.983a3.526,3.526,0,0,0,2.452,1.032,3.418,3.418,0,0,0,2.452-1.032l69.328-69.3a26.7,26.7,0,0,0,0-37.813ZM76.821,16.386,88.462,28.026,25.2,91.289,13.559,79.648ZM41.538,107.6,30.155,96.219,93.418,32.956,104.8,44.339Zm68.115-68.244L81.8,11.507a19.784,19.784,0,0,1,27.85,27.85Z" transform="translate(0 -0.028)"/></g><rect class="g" width="1" height="7" rx="0.5" transform="translate(52.645 105.238) rotate(-146)"/><path class="g" d="M.5,0A.5.5,0,1,1,0,.5.5.5,0,0,1,.5,0Z" transform="translate(52.389 106.077) rotate(180)"/></g><circle class="e" cx="5" cy="5" r="5" transform="translate(204 529)"/></g></svg>