<svg xmlns="http://www.w3.org/2000/svg" xmlns:xlink="http://www.w3.org/1999/xlink" viewBox="0 0 320 342.85"><defs><style>.a,.f{fill:none;}.b{clip-path:url(#a);}.c{fill:#707070;}.d,.j{fill:#fff;}.d,.f{stroke:#707070;stroke-width:10px;}.e{fill:#ececec;}.g,.h{fill:#6d6d6d;}.g{font-size:20px;font-family:Helvetica-Bold, Helvetica;font-weight:700;}.i{fill:#ff0083;}</style><clipPath id="a"><rect class="a" width="320" height="342.85" transform="translate(661 329)"/></clipPath></defs><g class="b" transform="translate(-661 -329)"><g transform="translate(503 22)"><path class="c" d="M-13243.38-6106.755h0c-3.293-.437-6.6-.993-9.826-1.653a142.628,142.628,0,0,1-26.891-8.348,143.387,143.387,0,0,1-24.333-13.208,144.085,144.085,0,0,1-21.2-17.492,144.451,144.451,0,0,1-17.492-21.2,143.166,143.166,0,0,1-13.208-24.333,142.716,142.716,0,0,1-8.348-26.888c-.631-3.081-1.168-6.248-1.6-9.415l7.167,7.167c10.694,54.227,54.337,97.724,108.6,108.237l7.133,7.133Zm142.622-69.512h0l-4.343-4.343a135.9,135.9,0,0,0,16.795-49.009l5.162,5.163c-.265,1.547-.554,3.087-.858,4.578a142.31,142.31,0,0,1-8.345,26.888,143.338,143.338,0,0,1-8.409,16.724Zm-13.045-153.943a138.045,138.045,0,0,0-110.536-55.9,137.426,137.426,0,0,0-103.324,46.942l-4.217-4.217c2-2.275,4.1-4.515,6.245-6.657a144.516,144.516,0,0,1,21.2-17.492,143.425,143.425,0,0,1,24.333-13.208,142.4,142.4,0,0,1,26.891-8.345,144.246,144.246,0,0,1,28.87-2.912,144.28,144.28,0,0,1,28.869,2.912,142.653,142.653,0,0,1,26.888,8.345,143.425,143.425,0,0,1,24.333,13.208,144.27,144.27,0,0,1,21.2,17.492,144.649,144.649,0,0,1,13.5,15.583l-4.25,4.25Z" transform="translate(13545.591 6708.5)"/><rect class="d" width="307.492" height="65.9" rx="4" transform="translate(165 400)"/><path class="e" d="M307.492,61.9a4,4,0,0,1-4,4H4a4,4,0,0,1-4-4c0-3.186-1.74-28.849,0-31.876,0,0-.744,22.737,153.886,22.737S307.492,30.024,307.492,30.024C308.108,31.7,307.492,59.85,307.492,61.9Z" transform="translate(165 397)"/><rect class="f" width="307.492" height="65.9" rx="4" transform="translate(165 400)"/><text class="g" transform="translate(253 441.605)"><tspan x="0" y="0">İLETİŞİME GEÇ</tspan></text><circle class="h" cx="5" cy="5" r="5" transform="translate(431 535)"/><g transform="translate(248.803 468.925) rotate(-23)"><path class="i" d="M24.072,36.364a4.04,4.04,0,0,0,4.04-4.04,24.243,24.243,0,1,1,48.485,0,4.04,4.04,0,1,0,8.081,0,32.324,32.324,0,1,0-64.647,0A4.04,4.04,0,0,0,24.072,36.364Zm0,0" transform="translate(-11.937 0)"/><path class="i" d="M24.072,36.364a4.04,4.04,0,0,0,4.04-4.04,24.243,24.243,0,1,1,48.485,0,4.04,4.04,0,1,0,8.081,0,32.324,32.324,0,1,0-64.647,0A4.04,4.04,0,0,0,24.072,36.364Zm0,0" transform="translate(92.739 64.595) rotate(180)"/><path class="j" d="M.78,153.2a117.97,117.97,0,0,0,31.427,56.429l.129.131v16.912a4.04,4.04,0,0,0,4.04,4.04h72.728a4.04,4.04,0,0,0,4.04-4.04V209.291A100.259,100.259,0,0,0,129.307,154.7V123.233a16.153,16.153,0,0,0-25.153-13.422,16.148,16.148,0,0,0-24.243-8.081,16.162,16.162,0,0,0-23.332-8.657V56.161a16.162,16.162,0,1,0-32.324,0v58.174L13.214,121.7A29.822,29.822,0,0,0,.78,153.2Z" transform="translate(0 -23.838)"/><path class="h" d="M264.071,314.081a4.04,4.04,0,1,0-4.04-4.04A4.042,4.042,0,0,0,264.071,314.081Zm0,0" transform="translate(-154.966 -182.362)"/><path class="h" d="M228.55,384.792a4.039,4.039,0,0,0,5.6-1.119,83.375,83.375,0,0,0,13.027-33.064,4.041,4.041,0,0,0-7.977-1.3,75.323,75.323,0,0,1-11.773,29.88A4.04,4.04,0,0,0,228.55,384.792Zm0,0" transform="translate(-135.133 -206.152)"/><rect class="e" width="9" height="92" rx="4.5" transform="translate(42.726 23.129)"/><rect class="e" width="9" height="40" rx="4.5" transform="translate(66.929 75.208)"/><rect class="e" width="9" height="32" rx="4.5" transform="translate(91.946 83.878)"/><rect class="e" width="38" height="22" rx="11" transform="translate(38.446 182.543)"/><path class="h" d="M.78,153.2a117.97,117.97,0,0,0,31.427,56.429l.129.131v16.912a4.04,4.04,0,0,0,4.04,4.04h72.728a4.04,4.04,0,0,0,4.04-4.04V209.291A100.259,100.259,0,0,0,129.307,154.7V123.233a16.153,16.153,0,0,0-25.153-13.422,16.148,16.148,0,0,0-24.243-8.081,16.162,16.162,0,0,0-23.332-8.657V56.161a16.162,16.162,0,1,0-32.324,0v58.174L13.214,121.7A29.822,29.822,0,0,0,.78,153.2ZM17.7,128.421l6.558-4.373v27.469a4.04,4.04,0,1,0,8.081,0V56.161a8.081,8.081,0,1,1,16.162,0v79.193a4.04,4.04,0,0,0,8.081,0V107.071a8.081,8.081,0,1,1,16.162,0v28.283a4.04,4.04,0,0,0,8.081,0v-20.2a8.081,8.081,0,0,1,16.162,0v20.2a4.04,4.04,0,0,0,8.081,0V123.233a8.081,8.081,0,0,1,16.162,0V154.7a92.176,92.176,0,0,1-15.483,51.137,4.048,4.048,0,0,0-.679,2.241v14.546H40.417V208.083a4.04,4.04,0,0,0-1.184-2.857A110.1,110.1,0,0,1,8.645,151.347,21.71,21.71,0,0,1,17.7,128.421Zm0,0" transform="translate(0 -23.838)"/></g></g></g></svg>