<svg xmlns="http://www.w3.org/2000/svg" xmlns:xlink="http://www.w3.org/1999/xlink" viewBox="0 0 320 342.85"><defs><style>.a{fill:none;}.b{clip-path:url(#a);}.c{fill:#707070;}.d{fill:#6d6d6d;}.e{fill:#ececec;}.f{fill:#ff0083;}</style><clipPath id="a"><rect class="a" width="320" height="342.85" transform="translate(1119 329)"/></clipPath></defs><g class="b" transform="translate(-1119 -329)"><g transform="translate(182 16)"><g transform="translate(-286.281 -170.648) rotate(9)"><g transform="translate(1154 -41)"><path class="c" d="M-13659.295-6030.917c-2.113,0-4.25-.048-6.351-.142-4.244-.19-8.542-.578-12.772-1.152l5.315-5.315a136.825,136.825,0,0,0,13.938.714,138.332,138.332,0,0,0,21.566-1.7,137.8,137.8,0,0,0,92.675-59.4l4.286,4.287c-.813,1.2-1.675,2.423-2.559,3.641a144.469,144.469,0,0,1-18.2,20.591,143.265,143.265,0,0,1-21.969,16.854,142.8,142.8,0,0,1-25.253,12.449,144.367,144.367,0,0,1-28.062,7.39A144.917,144.917,0,0,1-13659.295-6030.917Zm-142.811-151.965v0a142.816,142.816,0,0,1,3.928-25.73,143.481,143.481,0,0,1,9.237-26.1,144.207,144.207,0,0,1,13.96-23.677,144.266,144.266,0,0,1,18.2-20.595,143.483,143.483,0,0,1,21.969-16.851,142.1,142.1,0,0,1,25.253-12.449,144.186,144.186,0,0,1,28.058-7.394,145,145,0,0,1,22.6-1.781l.936,0-5.98,5.981a138.446,138.446,0,0,0-16.636,1.615,137.736,137.736,0,0,0-115.049,120.494l-6.479,6.479Z" transform="translate(13980.242 6640.051)"/></g><circle class="d" cx="5" cy="5" r="5" transform="translate(1593.14 484.129)"/><path class="e" d="M1441.712,399.226c6.807.13,6.515,2.174-.144,2.56s-30.472,3.626-50.942,19.329-24.9,37.683-27.2,44.884-2.451.555-2.026-1.9a69.469,69.469,0,0,1,26.914-46.434C1412.593,399.1,1434.9,399.1,1441.712,399.226Z" transform="translate(24.971 -73.382) rotate(3)"/><path class="e" d="M1448.04,397.133c9.1.284,8.1,4.73.861,5.157s-30.668,4.581-51.193,17.247-31.617,46.983-34.117,54.958-5.453,2.8-5.672-4.765,9.565-37.952,33.15-54.923A94.335,94.335,0,0,1,1448.04,397.133Z" transform="translate(504.603 -744.438) rotate(30)"/></g><g transform="translate(968 360.68)"><path class="e" d="M-815.239,2435.957l11.627-37.33s21.317-7.777,20.542,3.111-27.518,36.552-27.518,36.552Z" transform="translate(834 -2202.128)"/><path class="e" d="M-783.436,2435.476l-11.488-36.882s-21.061-7.684-20.295,3.073,27.188,36.114,27.188,36.114Z" transform="translate(1034.193 -2273.874)"/><path class="d" d="M251.29,100a5.29,5.29,0,1,0,5.29,5.29A5.292,5.292,0,0,0,251.29,100Zm0,0" transform="translate(-115.876 -47.104)"/><path class="f" d="M85.29,270.579A5.29,5.29,0,1,0,80,265.29,5.292,5.292,0,0,0,85.29,270.579Zm0,0" transform="translate(-37.683 -122.471)"/><path class="d" d="M177.73,0C130.109,0,91.024,32.832,88,74.188,42.649,76.463,0,109.166,0,153.4c0,18.485,7.314,36.395,20.629,50.586a32.169,32.169,0,0,1-8.5,30.308,5.289,5.289,0,0,0,3.74,9.029,58.348,58.348,0,0,0,40.426-16.34,120.54,120.54,0,0,0,36.8,5.761c47.614,0,86.7-32.824,89.727-74.172a118.943,118.943,0,0,0,31.709-5.643,58.348,58.348,0,0,0,40.426,16.34,5.289,5.289,0,0,0,3.74-9.029,32.169,32.169,0,0,1-8.5-30.308c13.315-14.191,20.629-32.1,20.629-50.586C270.827,33.384,224.892,0,177.73,0ZM93.1,222.162c-12.484,0-26.71-2.451-36.24-6.242A5.29,5.29,0,0,0,51,217.263a47.728,47.728,0,0,1-23.739,14.088,42.778,42.778,0,0,0,3.225-31.483,5.279,5.279,0,0,0-1.293-2.236c-12-12.36-18.611-28.07-18.611-44.234,0-37.275,37.787-68.765,82.517-68.765,42.238,0,79.344,29.372,79.344,68.765,0,37.918-35.593,68.765-79.344,68.765Zm148.54-98.585a5.3,5.3,0,0,0-1.293,2.236,42.778,42.778,0,0,0,3.225,31.483,47.713,47.713,0,0,1-23.739-14.088,5.293,5.293,0,0,0-5.86-1.343c-8.259,3.285-20.04,5.56-31.163,6.11-1.546-20-11.523-38.8-28.582-52.764h69a5.29,5.29,0,1,0,0-10.579H137.973A98.652,98.652,0,0,0,98.607,74.209c3.039-35.527,37.366-63.63,79.123-63.63,44.73,0,82.517,31.49,82.517,68.765,0,16.164-6.61,31.874-18.611,44.234Zm0,0"/><path class="f" d="M191.938,260H125.29a5.29,5.29,0,0,0,0,10.579h66.649a5.29,5.29,0,0,0,0-10.579Zm0,0" transform="translate(-56.525 -122.471)"/><path class="f" d="M173.1,320H85.29a5.29,5.29,0,0,0,0,10.579H173.1a5.29,5.29,0,0,0,0-10.579Zm0,0" transform="translate(-37.683 -150.734)"/><path class="d" d="M357.938,100H291.29a5.29,5.29,0,0,0,0,10.579h66.649a5.29,5.29,0,1,0,0-10.579Zm0,0" transform="translate(-134.718 -47.104)"/></g></g></g></svg>