<svg xmlns="http://www.w3.org/2000/svg" xmlns:xlink="http://www.w3.org/1999/xlink" viewBox="0 0 320 342.85"><defs><style>.a{fill:none;}.b{clip-path:url(#a);}.c{fill:#ececec;}.d{fill:#707070;}.e{fill:#6d6d6d;}.f{fill:#ff0083;}.g{fill:#fff;}</style><clipPath id="a"><rect class="a" width="320" height="342.85" transform="translate(1563 329)"/></clipPath></defs><g class="b" transform="translate(-1563 -329)"><g transform="translate(146 46)"><g transform="translate(1650.983 -107.716) rotate(42)"><path class="c" d="M-279.69,2306.692c.4-.8,4.411-18.6,15.037-21.654s23.057,3.408,27.468,9.423,1.6,15.639,1.6,15.639l-23.257-11.829Z" transform="translate(-1037.541 -1431.799) rotate(-42)"/><rect class="c" width="9" height="57" rx="4.5" transform="matrix(0.07, -0.998, 0.998, 0.07, 351.225, 463.28)"/><rect class="c" width="9" height="51" rx="4.5" transform="matrix(0.07, -0.998, 0.998, 0.07, 349.891, 487.287)"/><rect class="c" width="14" height="21" rx="7" transform="translate(400.766 443.395) rotate(-165)"/><rect class="c" width="9" height="51" rx="4.5" transform="matrix(0.07, -0.998, 0.998, 0.07, 340.306, 512.844)"/><rect class="c" width="9" height="51" rx="4.5" transform="translate(324.021 536.379) rotate(-89)"/><path class="d" d="M-14049.544-5991.346c-2.5,0-5.024-.066-7.51-.2-4.063-.213-8.175-.6-12.219-1.165l5.345-5.345a139.227,139.227,0,0,0,14.445.754,137.023,137.023,0,0,0,91.839-35.219,137.847,137.847,0,0,0,45.362-99.709l5.93-5.929c.09,3.694.038,7.413-.151,11.055a144.477,144.477,0,0,1-4.053,27.184,143.407,143.407,0,0,1-9.244,26.1,142.4,142.4,0,0,1-14.4,24.193,144.294,144.294,0,0,1-19.507,21.482,144.423,144.423,0,0,1-23.4,17.153,142.27,142.27,0,0,1-25.566,11.791,143.214,143.214,0,0,1-26.919,6.468A144.791,144.791,0,0,1-14049.544-5991.346Zm-142.967-152.483v0a144.138,144.138,0,0,1,3.948-25.449,143.123,143.123,0,0,1,9.248-26.1,142.194,142.194,0,0,1,14.4-24.2,144.183,144.183,0,0,1,19.5-21.478,144.559,144.559,0,0,1,23.4-17.157,142.833,142.833,0,0,1,25.566-11.791,143.48,143.48,0,0,1,26.923-6.464,144.277,144.277,0,0,1,19.934-1.384c.952,0,1.921.01,2.882.029l-5.954,5.955a137.244,137.244,0,0,0-88.812,35.188,137.139,137.139,0,0,0-44.478,86.285l-6.561,6.561Z" transform="translate(14370.458 6601.186)"/></g><g transform="translate(1439 276.688)"><g transform="translate(40.658 108.344)"><path class="e" d="M254.189,225.829c-5.473-11.411-25.054-27.25-43.971-42.554-10.551-8.529-20.522-16.594-26.878-22.95a5.808,5.808,0,0,0-6.077-1.36c-3.916,1.418-6.333,2.51-8.239,3.358a19.215,19.215,0,0,1-7.8,2.138,5.808,5.808,0,0,0-4.253,2.545c-8.216,12.282-16.722,11.237-22.4,9.331-1.813-.6-2.138-1.383-2.312-2.127-1.22-5.1,4.9-16.977,12.84-24.914,18.883-18.895,28.621-23.624,49.189-14.432,23.333,10.435,46.714,18.6,46.946,18.685a5.814,5.814,0,1,0,3.823-10.981c-.233-.081-23.148-8.088-46.016-18.325-26.645-11.911-41.264-4.067-62.145,16.826-7.948,7.948-18.744,24.031-15.955,35.826a14.372,14.372,0,0,0,9.982,10.47c13.166,4.346,25.181.186,34.129-11.69a29.332,29.332,0,0,0,8.727-2.765c1.092-.488,2.371-1.057,4.067-1.743,6.647,6.24,15.618,13.5,25.065,21.137,17.082,13.816,36.453,29.481,40.811,38.545a6.808,6.808,0,0,1-1.732,8.727c-2.3,1.976-5.45,2.6-7.158,1.406a5.809,5.809,0,0,0-9.075,5.4c.395,3.7-2.987,5.81-4.451,6.542-3.719,1.882-7.6,1.557-9.052.209a5.809,5.809,0,0,0-9.75,3.707,11.041,11.041,0,0,1-6.856,8.9,6.127,6.127,0,0,1-6.67-1.034,5.878,5.878,0,0,0-5.31-1.348,5.8,5.8,0,0,0-4.079,3.66c-.221.581-.721,1.976-6.159,1.976-3.87,0-10.83-2.615-14.235-4.869-4.079-2.684-29.655-21.765-51.745-40.264-3.1-2.615-8.471-8.216-13.212-13.166-4.207-4.392-8.053-8.378-10.028-10.051a5.813,5.813,0,0,0-7.507,8.878c1.8,1.522,5.287,5.206,9.134,9.215,5.183,5.415,10.539,11.016,14.142,14.037,21.637,18.116,47.643,37.673,52.826,41.078,4.276,2.812,13.491,6.763,20.626,6.763,5.729,0,10.133-1.313,13.189-3.881a18.086,18.086,0,0,0,13.212-.139,22.888,22.888,0,0,0,12.1-11.167,22.469,22.469,0,0,0,14.583-2.1,19.715,19.715,0,0,0,9.7-10.133,19,19,0,0,0,13.328-4.776A18.473,18.473,0,0,0,254.189,225.829Z" transform="translate(-74.642 -118.658)"/><path class="f" d="M-394.676,2244.718l59.466,11.012-23.346,92.5-36.12,3.083Z" transform="translate(358.342 -2251.032)"/><path class="f" d="M-336.99,2244.718l-57.686,10.683,22.647,89.733,35.039,2.991Z" transform="translate(564.232 -2238.437)"/></g><g transform="translate(58.101 119.24)"><path class="e" d="M164.768,138.663H112.476a5.81,5.81,0,1,0,0,11.621h52.291a5.81,5.81,0,1,0,0-11.621Z" transform="translate(-106.666 -138.663)"/></g><g transform="translate(209.607 200.572)"><path class="e" d="M412.432,290.556a5.8,5.8,0,0,0-8.064-1.58l-16.989,11.411a5.811,5.811,0,0,0,6.485,9.645l16.989-11.411A5.815,5.815,0,0,0,412.432,290.556Z" transform="translate(-384.811 -287.977)"/></g><g transform="translate(156.882 194.765)"><path class="e" d="M332.292,313.429c-4.16-3.277-22.764-22.322-34.268-34.315a5.811,5.811,0,0,0-8.39,8.041c2.987,3.114,29.329,30.573,35.453,35.407a5.786,5.786,0,0,0,3.591,1.244,5.871,5.871,0,0,0,4.578-2.22A5.806,5.806,0,0,0,332.292,313.429Z" transform="translate(-288.016 -277.317)"/></g><g transform="translate(139.446 212.206)"><path class="e" d="M294.5,339.662c-6.961-5.566-24.449-24.147-28.4-28.446a5.815,5.815,0,1,0-8.564,7.867c.209.221,21.079,22.753,29.7,29.655a5.812,5.812,0,0,0,7.263-9.076Z" transform="translate(-256.005 -309.337)"/></g><g transform="translate(116.208 223.812)"><path class="e" d="M251.952,361.065c-8.285-6.984-25.239-25.03-28.551-28.574a5.813,5.813,0,1,0-8.495,7.937c4.764,5.1,20.986,22.3,29.551,29.527a5.814,5.814,0,0,0,7.5-8.89Z" transform="translate(-213.343 -330.644)"/></g><g transform="translate(0 96.003)"><path class="e" d="M67.909,109.212c-9.959-9.436-49.781-12.492-61.75-13.2A5.805,5.805,0,0,0,0,101.81V206.392a5.813,5.813,0,0,0,5.81,5.81H40.671a5.8,5.8,0,0,0,5.519-4.009c.848-2.6,20.87-64.051,23.508-94.264A5.78,5.78,0,0,0,67.909,109.212ZM36.43,200.583H11.62V108.038c18.674,1.476,38.824,4.683,46.144,8.239C54.685,141.725,40.752,186.94,36.43,200.583Z" transform="translate(0 -96.003)"/></g><g transform="translate(197.752 107.62)"><g transform="translate(0 0)"><path class="e" d="M438.371,117.33c-45.621,0-70.93,11.678-71.988,12.166a5.781,5.781,0,0,0-3.1,3.614,5.859,5.859,0,0,0,.639,4.718c7.181,11.562,29.667,75.776,33.989,91.44a5.809,5.809,0,0,0,5.6,4.264h34.861a5.813,5.813,0,0,0,5.81-5.81V123.14A5.8,5.8,0,0,0,438.371,117.33Zm-5.81,104.583h-24.7c-5.508-17.942-21.777-64.725-30.852-84.061,8.866-3.009,27.912-8.181,55.557-8.831Z" transform="translate(-363.046 -117.33)"/></g></g></g><rect class="g" width="3.847" height="21.799" rx="1.923" transform="translate(1453.394 389.249)"/><rect class="g" width="3.847" height="3.847" rx="1.923" transform="translate(1453.394 413.613)"/><rect class="g" width="3.875" height="21.375" rx="1.938" transform="translate(1703 485.633) rotate(-180)"/><rect class="g" width="3.875" height="5.344" rx="1.938" transform="translate(1703 462.732) rotate(-180)"/><circle class="e" cx="5" cy="5" r="5" transform="translate(1683.51 526.742) rotate(9)"/></g></g></svg>