<svg xmlns="http://www.w3.org/2000/svg" viewBox="0 0 527.124 341.466"><defs><style>.a{fill:#6d6d6d;}.b{fill:#fbe4c9;}.c{fill:#ff0083;}.d{fill:#ececec;}.e{fill:#e9d7b3;}.f{fill:#c99b57;}.g{fill:#ecf2f4;}.h{fill:#844c23;}</style></defs><g transform="translate(0 0)"><path class="a" d="M492.646,387.528c-2.513,17.99-5.078,35.973-7.528,53.971q-6.173,45.354-12.242,90.72c-.792,5.841-2.584,6.29-9.03,2.068-2.328,14.816-4.4,29.5-7.02,44.083-1.365,7.607-.965,15.275-1.883,22.856-.487,4.027-3.666,8.668-2.413,11.7s6.912,3.639,10.28,6.03c12.6,8.943,16.67,21.381,12.027,37.082a36.311,36.311,0,0,1-16.043,17.06A28.179,28.179,0,0,1,445,676.743q-112.69-.392-225.379-.58c-11.786-.028-23.574-.293-35.358-.149-7.116.087-12-3.117-14.919-9.258-2.96-6.227-.884-11.577,3.812-16.158,2.43-1.117,6.024-1.654,6.953-3.519.885-1.776-1.247-4.9-1.645-7.5-1.871-12.215,6.909-23.821,19.471-25.561,2.762-.383,3.59-.889,3.268-3.983-3.01-28.885,15.4-52.18,44.427-56.375,1.884-.272,2.677-.941,3.075-2.738,5.044-22.8,18.007-39.744,37.269-52.787,8.967-6.072,18.124-12.125,26.435-19.89-.691-1.232-2.7-2.237-2.039-4.309.569-1.795,2.148-2.587,3.488-3.59q74.974-56.079,149.963-112.137c1.242-.929,2.394-1.979,3.589-2.971q12.134-8.925,24.272-17.848c1.693-1.242,3.326-2.958,5.684-1.545s1.585,3.723,1.32,5.766Q495.71,364.577,492.646,387.528Zm-32.335,77.529c-.148-.088-.3-.175-.441-.263.08.154.159.309.239.463q.266.54.531,1.081c3.758,6.7,7.807,13.237,10.919,21.228,2.9-15.45,3.912-12.476-7.183-20.3a26.586,26.586,0,0,0-2.971-1.6Q460.857,465.363,460.311,465.058Zm-134.244,5.056c3.161,0,5.145.04,7.128-.006,26.4-.62,51.169,5.733,74.717,17.394,19.195,9.506,36.515,21.826,53.176,35.159,1.671,1.337,3.121,3.13,5.576,3.75,1.231-8.915,2.434-17.464,3.556-26.023a8.171,8.171,0,0,0-.366-2.916c-2.136-8.586-5.979-16.488-9.456-24.577-4.179-9.725-11.421-14.271-21.306-16.7a144.231,144.231,0,0,0-39.768-4.263c6.134-1.512,12.343-1.3,18.549-1.2,10.289.169,20.22,2.622,30.208,4.681l.864.134-.369-.9c-6.074-8.644-13.691-15.83-21.552-22.786l.036-.036c1.14-.2,1.867.582,2.622,1.176A125.019,125.019,0,0,1,450.62,453.5c1.936,2.442,3.972,4.615,7.071,5.7a67.785,67.785,0,0,1,13.586,7.02c.9.572,1.816,1.863,2.958,1.138,1.07-.681.585-2.056.384-3.147a115.811,115.811,0,0,0-10.47-31.383,5.763,5.763,0,0,0-3.652-3.086c-7.609-2.676-15.48-3.117-23.415-3.383,7.348-1.935,14.667-.626,21.989-.078l1.039,0-.2-.705c-3.019-5.9-7.377-10.8-12.032-15.656,1.967-.32,2.7,1.135,3.63,2.065a99.014,99.014,0,0,1,10.438,12.326c.893,1.24,1.671,2.75,3.366,3.08a73.485,73.485,0,0,1,11.845,3.387c1.119.422,2.4.71,2.574-1.005.349-3.488,1.844-6.932.621-10.5a167.971,167.971,0,0,0-8.578-20.371,4.738,4.738,0,0,0-5.046-2.927c-3.205.131-6.342,1.264-10.112.67a40.737,40.737,0,0,1,9.37-2.487c1.612-.317,2.382-.9,1.077-2.477-.63-.761-1.172-1.594-1.756-2.4a2.2,2.2,0,0,0,.5-.545c2.606,1.2,3.3,5.11,7.107,4.754a56.6,56.6,0,0,1,8.934-.025c2.129.139,3.089-.4,3.256-2.671.228-3.107.832-6.184,1.249-9.279q2.211-16.453,4.409-32.91c.358-2.661-.656-1.508-1.6-.6-.406.278-.954.453-.827,1.125l.028-.065c-1.627-.084-2.472,1.266-3.55,2.07q-57.965,43.248-115.852,86.6C360.375,444.2,330.861,466.075,326.067,470.114Zm142.227-37.843c-.318-.28-.673-.446-.92.022-.057.109.234.4.365.609,3.061,6.141,6.2,12.241,8.831,18.614a45.975,45.975,0,0,0,1.157-6.505c1.412-8.919,1.374-9.027-6.982-12.115A22.315,22.315,0,0,0,468.294,432.271Zm-57.426,72.846c10.166,3.313,18.565,9.577,26.708,16.2a85.559,85.559,0,0,1,18.059,20.6,75.273,75.273,0,0,1,1.394-8.248c1.007-3.467.113-5.735-2.9-7.848-7.2-5.047-14.041-10.613-21.255-15.643-29.426-20.514-61.478-32.964-97.936-33.575-10.323-.173-15.746,5.9-23.569,11.406,5.123-.545,9.048-1.3,12.978-1.329q53.827-.4,77.906,47.83c1.109,2.219,2.2,3.609,4.886,3.933,12.725,1.534,23.475,7.117,32.485,16.217,4.582,4.628,8.034,10.034,11.51,16.686.919-6.076,1.4-11.124,2.516-16.03a14.593,14.593,0,0,0-1.54-10.217,80.852,80.852,0,0,0-13.075-18.271c-8.111-8.9-17.839-15.693-28.215-21.642Zm-53.749,58.176c-1.152-.553-.26-1.049.047-1.557,8.062-13.334,20.141-20.61,35.222-23.384,1.711-.315,4.411.278,2.6-3.24-7.551-14.627-18.274-26.035-33.158-33.338-.6-.364-1.171-.78-1.8-1.083A74.374,74.374,0,0,0,269.348,522.3c-6.064,7.917-10.891,16.47-12.814,26.412-1.623,2.784-1.554,4.24,2.3,5.14,13.35,3.124,23.412,10.531,28.551,23.691.59,1.511,1.429,3.055.326,5.008-2.3-6.24-5.544-11.569-11.091-15.165-1.28-1.6-3.13-2.377-4.832-3.366-14.68-8.528-41.1-4.274-54.1,11.74-10.385,12.793-13.348,32.014-6.371,45,4.945,13.2,15.7,18.675,28.741,21.166-11.864,1.232-21.571-2.75-29.29-11.356-2.7-3.006-4.848-6.5-7.248-9.773a15.98,15.98,0,0,0-16.792,8.647c-3.174,6.254-2,13.1,3.114,18.148,5.712,6.509,12.906,8.14,21.79,5.9a18.782,18.782,0,0,1-14.53,3.966c-3.711-.39-6.862-2.446-10.482-2.976a36.949,36.949,0,0,0-5.015-.087c-5.238.59-7.688,4.927-5.764,9.99,1.854,3.623,4.934,4.585,8.823,4.593q130.365.293,260.729.691a16.893,16.893,0,0,0,4.617-.444c11-3.13,19.216-12.454,19.952-22.5.787-10.72-5.623-20.395-16.682-25.289-3.394-1.5-5.845-1.257-8.267,2.186-6.382,9.072-14.279,16.529-24.864,20.625-1.488.576-2.984,1.615-4.956.277,7.715-2.568,13.405-7.572,18.36-13.493a77.048,77.048,0,0,0,11.673-20.181,42.494,42.494,0,0,0,.852-31.6c-5.636-15.632-16.122-26.668-32.418-31.535-18.045-7.66-40.835-2.979-53.65,12.564C359.121,561.351,358.569,562.755,357.119,563.294Zm115.56-166.935c3.732,4.986,6.261,9.866,9.451,15.476.325-2.071.47-3.02.622-3.97C484.378,397.763,484.379,397.763,472.678,396.359Z" transform="translate(-51.748 -335.319)"/><path class="a" d="M134,561.761c9.6-4.9,19.359-5.583,28.88-.166,10.437,5.937,14.7,15.3,13.708,27.166-1.03,4-2.256,7.944-4.862,11.23-1.04,1.311-.806,2.488-.616,3.934.73,5.56-.814,7.286-6.293,7.286q-39.8.008-79.61,0c-6.175,0-8.291-3.035-6.349-9.022a13.913,13.913,0,0,1,4.326-6.2,24.658,24.658,0,0,1,9.55-5.427c4.43-1.218,6.637-3.125,7.482-8.282,1.663-10.134,11.552-17.263,22.252-16.391C127.369,566.286,130.84,565.063,134,561.761ZM86.776,603.3c-.217.1-.61.185-.622.307-.054.533.3.634.754.529h77.33c-2.372-2.86-.972-4.686.678-6.677,7.563-9.128,5.927-21.38-3.726-28.652a20.4,20.4,0,0,0-27,2.252c-2.384,2.48-4.347,3.124-7.735,2.143-10.371-3-20.659,4.872-19.741,15.2.384,4.32-1.162,5.836-4.991,6.576a31.626,31.626,0,0,0-10.974,4.369c-1.581,1.005-3.595,1.733-3.99,3.988C86.755,603.332,86.776,603.3,86.776,603.3Z" transform="translate(-78.16 -269.892)"/><path class="a" d="M465.2,606.144c-10.655,0-21.315-.177-31.964.084-4.444.11-6.05-1.722-6.469-5.858-.973-9.607,3.513-18.4,11.877-22.67a21.829,21.829,0,0,1,25.262,3.689,7.192,7.192,0,0,0,5.228,2.117c9.061.169,17.826,1.759,25.654,6.642,3.918,2.446,7.383,5.469,7.9,10.487.48,4.632-.365,5.469-5.1,5.5-5.4.032-10.8.009-16.2.009S470.6,606.144,465.2,606.144ZM453.42,583.06c-10.3-3.5-20.186,4.053-19.75,15.1.907,2.061,2.727.978,4.049.986,17.574.091,35.148.061,52.723.061h3.893a8.278,8.278,0,0,0-4.018-3.758c-7.125-4.012-14.936-5.264-22.948-5.062-3.3.083-5.623-.633-7.618-3.368A9.845,9.845,0,0,0,453.42,583.06Z" transform="translate(24.318 -264.767)"/><path class="a" d="M456.864,575.84c-1.118-4.752.39-8.542,3.934-11.831,3.623-3.362,3.511-4.371-.029-7.933-5.766-5.8-5.774-11.108-.026-16.9,3.568-3.595,3.577-4.443.084-7.956-5.893-5.928-5.869-11.235.133-17.223a7.249,7.249,0,0,0,2.5-4.258,3.086,3.086,0,0,1,3.962-2.835c2.1.469,2.851,2.076,2.7,4.2-.233,3.378-2.1,5.816-4.523,7.882-2.931,2.5-2.855,4.694-.075,7.413,6.545,6.4,6.457,11.085-.146,17.733-2.112,2.126-2.877,3.92-.515,6.487,7.541,8.2,7.385,11.471-.543,19.617,0,0,.027.1.03.108a2.636,2.636,0,0,0-.766,3.151c.448,1.779,2.027,2.637,3.165,3.845a11,11,0,0,1,3.371,6.624c.2,2.25-.554,4.025-2.872,4.437-2.156.384-3.5-.985-3.85-3.018C462.69,581.151,457.963,579.753,456.864,575.84Z" transform="translate(33.081 -284.891)"/><path class="b" d="M462.017,559.048a2.636,2.636,0,0,1,.766-3.151A2.132,2.132,0,0,1,462.017,559.048Z" transform="translate(34.66 -270.453)"/><path class="a" d="M175.03,541.3c-.168-3.907,1.581-6.847,4.067-9.58,3.78-4.155,3.724-6.012.111-10.269-5.843-6.882-5.8-12.238.145-19.261,3.436-4.057,3.415-5.9-.109-9.954-5.861-6.733-5.836-12.384.084-19.249,3.459-4.012,3.447-5.9-.062-9.929-5.869-6.729-5.871-12.559.049-19.239a8.528,8.528,0,0,0,2.595-5.194,3.053,3.053,0,0,1,3.759-3.073c2.192.287,3.081,1.944,2.939,4.008a13.715,13.715,0,0,1-3.8,8.352c-4.141,4.62-4.12,6.369-.184,10.914,5.413,6.249,5.372,12.2-.131,18.613-3.741,4.362-3.717,6.2.145,10.609,5.285,6.03,5.338,12.215.157,18.327-4.157,4.9-4.142,6.157.131,11.213,5.007,5.924,4.964,12.161-.122,18.016-4.146,4.774-4.181,6.318.116,11.22a13.776,13.776,0,0,1,3.673,7.965c.208,2.3-.774,4.04-3.11,4.295-2.129.233-3.511-1.079-3.6-3.286-.094-2.364-1.563-3.867-3.006-5.435C176.5,547.778,174.85,544.876,175.03,541.3Z" transform="translate(-49.723 -305.856)"/><path class="a" d="M226.685,471.733a14.564,14.564,0,0,1,4.19-10.008c3.7-4.155,3.648-6.01.03-10.231-5.744-6.7-5.655-12.393.3-19.256,3.189-3.673,3.2-5.94.03-9.693-6.082-7.211-6.087-12.373-.022-19.537,3.253-3.842,3.192-6.064-.269-10.01-5.585-6.364-5.713-12.316-.323-18.6,1.491-1.738,2.839-3.378,3.05-5.879.175-2.073,1.722-3.249,3.946-2.863,2.023.352,2.709,1.784,2.72,3.72.023,3.674-1.825,6.428-4.138,9.05-3.687,4.177-3.634,6.121.023,10.268,5.713,6.479,5.708,12.36-.017,18.939-3.636,4.179-3.635,6.048.009,10.254,5.728,6.611,5.726,12.36,0,18.938-3.639,4.177-3.643,6.043-.021,10.292,5.755,6.75,5.764,12.207.027,18.929-3.723,4.362-3.732,6.161.258,10.6,2.369,2.633,3.986,5.493,3.856,9.145a3.255,3.255,0,0,1-3.11,3.422,2.887,2.887,0,0,1-3.4-2.54c-.2-3.345-2.373-5.332-4.29-7.582A12.626,12.626,0,0,1,226.685,471.733Z" transform="translate(-34.488 -326.42)"/><path class="a" d="M110.914,555.442c-.031-3.556,1.636-6.2,4.1-8.572,3.666-3.521,3.631-4.457.232-7.9-5.888-5.972-5.964-11.369.106-17.187,2.923-2.8,2.949-4.932.018-7.759-6.086-5.871-6.047-11.331-.148-17.184a8.214,8.214,0,0,0,2.725-4.633,2.959,2.959,0,0,1,3.735-2.58c1.964.335,2.769,1.734,2.789,3.687.035,3.41-1.9,5.8-4.1,8.054-3.574,3.673-3.6,4.444-.142,7.917,5.9,5.926,5.964,11.286-.159,17.214-2.916,2.822-2.9,4.925.039,7.739,6.12,5.852,6.01,11.134.039,17.179-3.346,3.387-3.375,4.5.236,7.97,2.454,2.36,4.243,4.928,4.071,8.5a3.266,3.266,0,0,1-2.828,3.245c-1.566.334-3.239-.509-3.4-1.87-.39-3.369-2.89-5.059-4.835-7.239A9.945,9.945,0,0,1,110.914,555.442Z" transform="translate(-68.561 -289.962)"/><path class="c" d="M449.391,168.993c2.753-4.445,5.421-9.04,10.344-11.434,3.017-1.465,6.263-2.46,9.407-3.666a9.846,9.846,0,0,1,6.331,3.957c2,2.735,4.321,3.451,7.618,3.368,8.012-.2,15.823,1.051,22.948,5.063a8.271,8.271,0,0,1,4.017,3.758h-3.892c-17.575,0-35.148.029-52.723-.061a6.173,6.173,0,0,0-1.1.139,6.383,6.383,0,0,1-1.136.139A1.83,1.83,0,0,1,449.391,168.993Zm-64.345.953q-130.365-.346-260.73-.691c-3.889-.009-6.967-.971-8.82-4.591a6.531,6.531,0,0,0,6.072-4.279,12.044,12.044,0,0,1,4.7-5.625c3.619.53,6.771,2.587,10.482,2.976a18.782,18.782,0,0,0,14.53-3.966c-8.884,2.24-16.077.609-21.789-5.9-.913-6.016-2.409-12.173,4.548-16.005a3.021,3.021,0,0,0,1.1-2.207c.265-5.166,3.728-7.244,8.028-8.583,2.4,3.272,4.551,6.767,7.248,9.773,7.719,8.605,17.426,12.587,29.29,11.355-13.037-2.49-23.8-7.969-28.742-21.166-.374-5.635-1.367-11.25-.785-16.919,1.528-14.866,5.674-22.3,20.273-21.251,4.968.357,8.887-2.462,11.359-6.94.957-1.735,1.867-3.5,2.918-5.175,3.61-5.766,8.585-7.984,15.512-6.94,5.5.828,10.552,3.158,16.027,3.854,5.549,3.6,8.789,8.925,11.092,15.165,1.1-1.953.264-3.495-.327-5.008A36.4,36.4,0,0,0,208.42,57.563a47.756,47.756,0,0,0-9.932-3.433c-3.851-.9,12.449-26.051,21.934-35.916,5.711-5.94,12.35-8.44,20.366-6.649,8.608,1.924,15.957,0,22.229-6.252,3.941-3.928,8.836-5.2,14.351-5.3,8.132-.155,16.081,1.335,24.115,2.042,14.884,7.3,25.607,18.711,33.158,33.338,1.817,3.518-.885,2.925-2.6,3.24-15.08,2.775-27.159,10.049-35.222,23.384-.307.508-1.2,1-.047,1.557-1.049,2.787-3.227,5.105-3.968,9.259,2.4-2.929,4.045-5.03,5.788-7.043,5.468-6.318,12.129-9.691,20.681-8.047a17.538,17.538,0,0,0,15.113-3.929c5.576-4.673,11.414-7.767,18.922-5.822,16.3,4.867,26.782,15.9,32.418,31.536a42.49,42.49,0,0,1-.851,31.6,77.049,77.049,0,0,1-11.672,20.181c-4.955,5.921-10.644,10.926-18.361,13.493,1.972,1.337,3.467.3,4.956-.277,10.586-4.094,18.482-11.553,24.865-20.625,2.421-3.442,4.874-3.686,8.267-2.186,11.06,4.895,17.468,14.568,16.682,25.289-.736,10.042-8.951,19.366-19.952,22.5a16.278,16.278,0,0,1-4.411.444ZM165.438,98.568a12.4,12.4,0,0,0-7.148,7.332c-.575,1.376.067,2.514,1.782,2.553,2.484.057,7.878-5.518,7.874-8.56a1.424,1.424,0,0,0-1.506-1.523A2.927,2.927,0,0,0,165.438,98.568ZM306.669,70.956a6.58,6.58,0,0,0-1.128,2.229c-.29,1.162.238,1.889,1.738,1.855a9.609,9.609,0,0,0,5.549-5.76c.3-.853.139-1.98-.876-1.982h-.014C309.44,67.3,308.006,69.148,306.669,70.956ZM345.525,60.5a17.385,17.385,0,0,0-9.918,10.373c-.744,1.925.021,3.3,1.913,3.475,4.064.016,11.584-7.833,11.464-11.649-.054-1.71-.847-2.511-2.03-2.511A3.9,3.9,0,0,0,345.525,60.5ZM227.083,27.02c-3.559.12-10.848,7.631-11.038,11.372-.087,1.717.675,2.665,1.827,2.726,4.506.121,12.421-8.26,11.872-11.964a2.3,2.3,0,0,0-2.514-2.138ZM278.564,10.9a19.977,19.977,0,0,0-11.126,12.112c-.981,2.8.658,4.456,3.462,3.9,4.562-.906,11.826-8.623,12.276-13.041.226-2.217-.664-3.516-2.387-3.516A5.665,5.665,0,0,0,278.564,10.9ZM.152,169.847c-.043-.271-.086-.544-.129-.815,3.491-1.107,6.924-2.48,10.487-3.261,8.1-1.77,13.122-6.367,15.659-14.394,2.1-6.644,5.7-8.43,12.533-6.684,3.606.922,5.931-.156,8.33-2.489,7.721-7.5,16.507-11.4,27.4-7.687,9.653,7.273,11.289,19.522,3.726,28.652-1.65,1.991-3.05,3.818-.678,6.678Zm-.132-.836,0,.021L0,169.039Z" transform="translate(8.596 164.401)"/><path class="d" d="M416.087,452.77c-9.992-2.069-19.922-4.523-30.212-4.691-6.206-.1-12.415-.312-18.549,1.2a144.241,144.241,0,0,1,39.768,4.263c9.884,2.433,17.126,6.98,21.306,16.7,3.477,8.091,7.319,15.992,9.456,24.577a8.147,8.147,0,0,1,.366,2.916c-1.122,8.559-2.325,17.106-3.556,26.023-2.455-.62-3.906-2.413-5.576-3.75-16.661-13.333-33.982-25.653-53.176-35.159-23.548-11.662-58.37-17.007-61.531-17.007,4.795-4.04,108.992-92.589,139.526-117.721,1.162-.956,2.652-1.79,2.452-3.693,0,0-.028.065-.028.063l.827-1.123c.949-.9,1.963-2.059,1.6.6q-2.217,16.453-4.409,32.91c-.415,3.094-1.021,6.171-1.249,9.279-.167,2.274-1.127,2.811-3.256,2.671a56.57,56.57,0,0,0-8.934.025c-3.807.356-4.5-3.548-7.107-4.749-.78-1.007-1.478-2.138-3.008-2.056.026-.38.06-.77-.514-.422q.281.188.562.378l2.457,2.641c.582.8,1.126,1.634,1.756,2.4,1.3,1.577.536,2.16-1.077,2.477a40.736,40.736,0,0,0-9.37,2.487c3.77.593,6.905-.54,10.112-.67a4.739,4.739,0,0,1,5.046,2.927,168.078,168.078,0,0,1,8.578,20.371c1.223,3.565-.272,7.009-.621,10.5-.172,1.716-1.455,1.427-2.574,1.005a73.488,73.488,0,0,0-11.845-3.387c-1.7-.331-2.473-1.84-3.366-3.08a99.1,99.1,0,0,0-10.438-12.326c-.934-.93-1.662-2.385-3.63-2.065,4.655,4.857,9.012,9.751,12.032,15.656l-.84.705c-7.321-.551-14.639-1.861-21.986.075,7.935.267,15.806.708,23.415,3.383a5.762,5.762,0,0,1,3.652,3.086,115.732,115.732,0,0,1,10.47,31.383c.2,1.091.686,2.467-.384,3.147-1.144.726-2.054-.566-2.958-1.138a67.769,67.769,0,0,0-13.586-7.02c-3.1-1.09-5.135-3.263-7.071-5.7a125.016,125.016,0,0,0-20.936-20.506c-.756-.594-1.483-1.381-2.623-1.176-.521-1.71-1.891-2.241-3.462-2.5-.285-.291-.571-.581-.855-.872q-.848-.415-1.7-.829l-.867-.877-3.383-1.709-.32.005.212-.315c.04.1.079.2.119.3l3.41,1.68.868.876,1.7.827.863.866a7.686,7.686,0,0,0,3.374,2.579c7.86,6.956,15.477,14.142,21.552,22.786C416.416,452.252,416.252,452.511,416.087,452.77Z" transform="translate(-19.749 -332.671)"/><path class="d" d="M378.23,473.078c10.375,5.949,20.1,12.739,28.215,21.642a80.829,80.829,0,0,1,13.075,18.271,14.593,14.593,0,0,1,1.54,10.217c-1.114,4.9-1.6,9.954-2.516,16.03-3.476-6.652-6.927-12.058-11.509-16.686-9.012-9.1-19.761-14.684-32.485-16.217-2.684-.323-3.777-1.712-4.886-3.933q-24.048-48.122-77.906-47.83c-3.93.028-7.855.783-12.978,1.329,7.823-5.509,13.246-11.579,23.569-11.406,36.458.612,68.51,13.061,97.936,33.575,7.215,5.029,14.052,10.6,21.255,15.643,3.015,2.112,3.909,4.382,2.9,7.849a75.55,75.55,0,0,0-1.394,8.248,85.562,85.562,0,0,0-18.059-20.6c-8.142-6.619-16.542-12.884-26.708-16.2-.2-.681-.756-.648-1.284-.582-.127.015-.228.242-.34.371Z" transform="translate(-19.163 -303.215)"/><path class="d" d="M394.9,436.045a27.1,27.1,0,0,1,2.97,1.6c11.1,7.828,10.082,4.854,7.183,20.3-3.112-7.992-7.161-14.53-10.917-21.229C394.392,436.493,394.644,436.269,394.9,436.045Z" transform="translate(14.76 -305.698)"/><path class="d" d="M400.173,410.234a24.086,24.086,0,0,1,2.451.632c8.357,3.088,8.393,3.2,6.982,12.115a46.159,46.159,0,0,1-1.157,6.505c-2.631-6.373-5.77-12.474-8.831-18.614A4.409,4.409,0,0,0,400.173,410.234Z" transform="translate(16.373 -313.289)"/><path class="d" d="M403.435,382.488c11.7,1.4,11.7,1.4,10.073,11.506-.153.948-.3,1.9-.622,3.97C409.7,392.354,407.167,387.474,403.435,382.488Z" transform="translate(17.495 -321.448)"/><path class="e" d="M416.363,345.136l-.827,1.123C415.409,345.59,415.957,345.416,416.363,345.136Z" transform="translate(21.049 -332.433)"/><path class="f" d="M393.924,435.575q.547.3,1.093.608-.379.336-.762.673c-.181-.36-.357-.719-.534-1.08Z" transform="translate(14.639 -305.837)"/><path class="f" d="M393.775,435.836c-.08-.154-.159-.309-.239-.463l.443.261Z" transform="translate(14.584 -305.896)"/><path class="e" d="M301.94,430.946l-1.346.918Z" transform="translate(-12.748 -307.198)"/><path class="f" d="M384.924,427.526l.369.9c-.289-.045-.576-.089-.863-.129C384.6,428.044,384.76,427.785,384.924,427.526Z" transform="translate(11.907 -308.204)"/><path class="f" d="M399.7,410.933c-.131-.208-.422-.5-.365-.61.247-.47.6-.3.92-.026A4.7,4.7,0,0,1,399.7,410.933Z" transform="translate(16.289 -313.35)"/><path class="f" d="M393.759,405.074l.2.705c-.347,0-.694,0-1.04,0Z" transform="translate(14.403 -314.806)"/><path class="g" d="M84.96,592.964c.044.28.087.558.132.836-.453.106-.809,0-.753-.529C84.351,593.149,84.743,593.065,84.96,592.964Z" transform="translate(-76.345 -259.552)"/><path class="g" d="M451.824,581.477c-3.143,1.206-6.389,2.2-9.405,3.668-4.924,2.394-7.592,6.989-10.344,11.434C431.638,585.532,441.519,577.976,451.824,581.477Z" transform="translate(25.914 -263.184)"/><path class="g" d="M307.27,473.874c-.45,4.418-7.714,12.135-12.276,13.04-2.806.558-4.444-1.095-3.463-3.9A19.975,19.975,0,0,1,302.657,470.9C305.8,469.527,307.579,470.842,307.27,473.874Z" transform="translate(-15.497 -295.608)"/><path class="g" d="M253.581,497.34c-1.152-.062-1.914-1.008-1.826-2.727.189-3.74,7.48-11.252,11.038-11.372a2.32,2.32,0,0,1,2.661,2.135C266,489.079,258.088,497.46,253.581,497.34Z" transform="translate(-27.112 -291.82)"/><path class="h" d="M365.51,407.974c1.57.255,2.94.787,3.462,2.5l-.035.035a7.685,7.685,0,0,1-3.374-2.579Z" transform="translate(6.343 -313.968)"/><path class="h" d="M363.677,406.321l-3.41-1.68-.012.009,3.383,1.71Z" transform="translate(4.798 -314.934)"/><path class="h" d="M398.31,377.633l-2.457-2.641-.049.045c1.53-.081,2.227,1.05,3.007,2.056A2.277,2.277,0,0,1,398.31,377.633Z" transform="translate(15.251 -323.653)"/><path class="h" d="M363.54,406.656l1.7.829.044-.043-1.7-.827Z" transform="translate(5.763 -314.353)"/><path class="h" d="M360.339,404.709c-.04-.1-.08-.2-.119-.3l-.212.315.32-.005Z" transform="translate(4.725 -315.002)"/><path class="h" d="M365.756,408.122l-.863-.866-.044.043.855.872Z" transform="translate(6.148 -314.165)"/><path class="h" d="M362.869,405.978l.867.877.04-.04-.868-.876S362.869,405.978,362.869,405.978Z" transform="translate(5.566 -314.552)"/><path class="h" d="M395.97,375.109q-.281-.188-.562-.378c.572-.348.54.041.514.422C395.92,375.153,395.97,375.109,395.97,375.109Z" transform="translate(15.135 -323.769)"/><path class="h" d="M355.987,466.737l-1.572-.276c.113-.129.214-.356.34-.371.529-.066,1.081-.1,1.284.582Z" transform="translate(3.08 -296.873)"/></g></svg>