<svg xmlns="http://www.w3.org/2000/svg" viewBox="0 0 92.893 90.48"><defs><style>.a{fill:#6d6d6d;}</style></defs><g transform="translate(0 0)"><path class="a" d="M361.458,407.646h-7.641v-6.635a2.011,2.011,0,0,0-4.021,0v6.635H338.737v-6.635a2.011,2.011,0,0,0-4.021,0v6.635H323.657v-6.635a2.011,2.011,0,0,0-4.021,0v6.635H308.577v-6.635a2.011,2.011,0,0,0-4.021,0v6.635H293.5v-6.635a2.011,2.011,0,0,0-4.021,0v6.635h-7.641a6.694,6.694,0,0,0-6.635,6.635v68.564a6.694,6.694,0,0,0,6.635,6.635h79.623a6.694,6.694,0,0,0,6.635-6.635V414.281A6.565,6.565,0,0,0,361.458,407.646Zm2.614,36.594H346.177V429.361h17.895Zm-21.916-14.477V444.24h-18.3V429.361h18.5A.623.623,0,0,0,342.156,429.763Zm-22.52,0V444.24h-18.3V429.361h18.5A.623.623,0,0,0,319.636,429.763Zm-22.318,0V444.24h-17.9V429.361h17.9Zm-17.9,18.5h17.895v17.091H279.422Zm21.916,0h18.3v17.091h-18.3Zm18.3,21.112v15.884h-18.3V469.374Zm4.021,0h18.3v15.884h-18.3Zm0-4.021V448.262h18.3v17.091Zm22.52-17.091h17.895v17.091H346.177Zm-64.342-36.594h7.641V418.5a2.011,2.011,0,1,0,4.021,0v-6.836h11.059V418.5a2.011,2.011,0,1,0,4.021,0v-6.836h11.059V418.5a2.011,2.011,0,1,0,4.021,0v-6.836h11.059V418.5a2.011,2.011,0,1,0,4.021,0v-6.836H349.8V418.5a2.011,2.011,0,1,0,4.021,0v-6.836h7.641a2.662,2.662,0,0,1,2.614,2.614v11.26h-84.65v-11.26A2.38,2.38,0,0,1,281.835,411.667Zm-2.413,71.178V469.374h17.895v15.884H282.036A2.38,2.38,0,0,1,279.422,482.845Zm82.036,2.413H346.177V469.374h17.895v13.472A2.493,2.493,0,0,1,361.458,485.258Z" transform="translate(-275.2 -399)"/></g></svg>