<svg id="super" xmlns="http://www.w3.org/2000/svg" viewBox="0 0 353.009 308.206">
  <defs>
    <style>
      .cls-1 {
        fill: #6d6d6d;
      }

      .cls-2 {
        fill: #ff0083;
      }

      .cls-3 {
        fill: #676767;
      }

      .cls-4 {
        fill: #e4e4e4;
      }

      .cls-5 {
        fill: #f2f2f2;
      }

      .cls-6 {
        fill: #e3e3e3;
      }

      .cls-7 {
        fill: #f3f3f3;
      }

      .cls-8 {
        fill: #606060;
      }

      .cls-9 {
        fill: #e2e2e2;
      }

      .cls-10 {
        fill: #f4f4f4;
      }

      .cls-11 {
        fill: #636363;
      }

      .cls-12 {
        fill: #d9d9d9;
      }

      .cls-13 {
        fill: #fdfdfd;
      }

      .cls-14 {
        fill: #fff;
      }

      .cls-15 {
        fill: #f6f6f6;
      }

      .cls-16 {
        fill: #fefefe;
      }

      .cls-17 {
        fill: #fbfbfb;
      }

      .cls-18 {
        fill: #848484;
      }

      .cls-19 {
        fill: #bcbcbc;
      }

      .cls-20 {
        fill: #fcfcfc;
      }

      .cls-21 {
        fill: #e5e5e5;
      }

      .cls-22 {
        fill: #292929;
      }

      .cls-23 {
        fill: #929292;
      }

      .cls-24 {
        fill: #949494;
      }
    </style>
  </defs>
  <g id="XMLID_108_" transform="translate(0 0)">
    <path id="XMLID_347_" class="cls-1" d="M144.293,448.4c17.172,0,34.275.069,51.447.069.414,0,.828-.138,1.517-.207-2.138-2.621-1.862-5.448-1.517-8.689h56.619c2.759,0,2.759,0,3.586-2.483,1.035-3.034,2.414-6,2.9-9.1.483-3.172,0-6.552-.138-9.793-.069-1.379-.483-2.69-.552-4.069-.207-3.862-.207-7.724-.552-11.655-.414-5.448-.966-10.9-1.586-16.345-.621-5.517-1.241-11.034-2.138-16.482-.966-5.724-2.345-11.31-3.448-17.034a25.08,25.08,0,0,1-.207-3.31c1.862.552,1.862.552,3.517,6.758a28.6,28.6,0,0,0,2.552-2.345c1.724-1.862,3.172-4.138,5.172-5.655,3.172-2.483,3.931-5.793,3.793-9.379a65.817,65.817,0,0,0-2.207-16.413c-1.172-3.793-2.345-7.586-3.793-11.31a21.613,21.613,0,0,0-2.9-4.621c-.828-1.172-2.069-.759-2.965-.069a42.934,42.934,0,0,0-5.724,4.9,8.129,8.129,0,0,0-1.448,3.724,31.435,31.435,0,0,1-5.241,11.931,34.446,34.446,0,0,1-11.862,10.207c-.966.552-2,.9-2.9,1.517a2.477,2.477,0,0,0-.9,1.655c-.552,4.621-3.379,7.793-6.9,10.207-5.241,3.586-14,1.931-18-3.1-.276-.414-.828-.69-.9-1.1-.759-2.9-3.034-2.621-5.31-2.69-4.621-.207-9.241-.828-13.862-1.034-5.793-.207-11.241-1.862-16.965-2.483-.69-.069-1.379-.069-2.414-.138,5.931,14.413,3.517,28.206-2.9,41.93,6.758,1.931,13.586,2.138,20.344,3.724.138,1.379.345,2.827.345,4.276-.069,8.9,0,17.793-.414,26.62-.276,5.241-1.241,10.482-1.931,15.724-.483,3.793-1.034,7.586-1.586,11.379-.138.966-.207,2.276-2.276,2.207.345-2.552.552-4.965.9-7.379.414-3.1.966-6.207,1.379-9.379.483-3.862.965-7.793,1.379-11.724.276-2.621.552-5.31.621-7.931.138-5.172.138-10.345.069-15.517a51.043,51.043,0,0,0-.552-5.586c-.138-1.1-.965-1.241-1.862-1.379-2.621-.276-5.31-.621-7.931-1.034-3.034-.483-6-1.034-9.034-1.655-2.69-.552-3.448-1.724-3.931-4.621a74.144,74.144,0,0,1-.965-15.1,4.129,4.129,0,0,0-.138-.828c-2.276-.621-4.552-1.31-6.827-1.931-1.586-.414-3.1-.828-4.69-1.172-3.172-.69-6.345-1.31-9.517-2.138-4.276-1.1-8.552-2.276-12.827-3.448a5.958,5.958,0,0,0-1.448-.483c-3.862-.069-6.069-2.69-8.276-5.241-5.655-6.827-11.172-13.724-16.758-20.62-4.138-5.172-8.345-10.345-12.482-15.517-1.724-2.138-3.31-4.414-4.965-6.552-2.207-2.758-5.241-3.31-8.483-2.689a21.206,21.206,0,0,1-13.793-2,17.178,17.178,0,0,1-7.862-6.965c-2.621-4.414-2.552-7.1.9-10.689a2.767,2.767,0,0,0,.965-2.345,34.433,34.433,0,0,1,0-4.621c.276-3.862,2.069-6.138,5.862-7.241a3.009,3.009,0,0,0,2.276-2.69,9.676,9.676,0,0,1,4.69-6.758,6.988,6.988,0,0,1,5.448-.759,14.738,14.738,0,0,1,9.793,6.414c.9,1.379,1.793,1.31,2.965,1.241,1.31-.138,2.552-.345,3.862-.483,3.655-.483,6.345,2.759,7.31,5.448,1.655,4.552,1.379,9.172.207,13.793-.483,1.862-1.034,3.724-1.448,5.655a3.132,3.132,0,0,0,.828,3.241c4.483,4.621,8.758,9.448,13.1,14.207L121.4,331.157c1.172,1.31,2.276,2.69,3.448,3.931a9.341,9.341,0,0,0,6.345,2.69,58.342,58.342,0,0,1,6.827,1.034c4,.69,8.069,1.379,12.069,2.069,1.655.276,3.31.621,5.241.9a17.426,17.426,0,0,1,.828-2.483c.9-2.207,1.586-2.62,3.862-2.138,2.828.552,5.655,1.1,8.552,1.586,3.241.552,6.552,1.034,9.862,1.517,3.931.552,7.931,1.172,11.862,1.586,1.31.138,2.759.621,4.207-.828-15.655-5.1-24.068-16.276-27.241-31.723-2.069-.483-4-.965-6-1.448-3.931-1.034-5.862-4-7.1-7.448a54.63,54.63,0,0,1-2-8.689c-.828-4.965,1.172-7.862,6.069-9.172,1.724-.414,2.207-1.1,1.862-2.69-.69-2.965-1.586-5.931-2.345-8.9-.552-2.069-1.1-4.138-1.517-6.207a99.194,99.194,0,0,1-2.138-10c-.69-5.724,1.793-10.207,6.414-13.31,2-1.31,4.552-1.793,6.965-2.69.414-1.793.69-3.793,1.31-5.724a14.913,14.913,0,0,1,11.241-11.034c5.931-1.517,11.793-3.034,17.724-4.552,4.552-1.1,9.1-2.138,13.655-3.31,5.655-1.379,11.31-2.965,17.034-4.276,3.241-.759,4.276.483,3.448,3.724-.621,2.345-1.034,4.69-1.862,6.9-1.379,3.862-.552,7.586.276,11.379.621,2.827,1.655,5.517,2.345,8.345,1.241,5.1,2.414,10.276,3.655,15.448.414,1.793,1.034,3.586,1.586,5.379a32.271,32.271,0,0,1,4.414-.276,6.29,6.29,0,0,1,6.138,5.31c.552,3.034,1.31,6,1.724,9.034.69,4.69-.759,8.483-4.965,10.965a1.917,1.917,0,0,0-.9,2.621,56.722,56.722,0,0,1,2.965,18.9,2.717,2.717,0,0,0,.345.966,44.215,44.215,0,0,1,4-3.31,9.1,9.1,0,0,1,3.586-1.517,6.757,6.757,0,0,0,4-1.862c4.9-4.483,9.793-8.965,14.758-13.31,2.069-1.793,2.69-4.276,3.31-6.689,1.655-6,3.241-11.931,4.759-17.931,1.034-4.138,2-8.276,3.034-12.413,1.862-7.241,3.724-14.482,5.655-21.655.414-1.586.9-3.1,1.379-4.69a2.236,2.236,0,0,0-1.034-2.621,20.4,20.4,0,0,1-7.517-10.207c-2.069-6.827-.069-13.793,7.172-16.62a2.556,2.556,0,0,0,1.724-2.483c.345-3.517,1.379-6.69,4.483-8.9a7.052,7.052,0,0,1,8.827.138,2.042,2.042,0,0,0,2.759.207c4.414-2.9,7.172-.965,9.862,2a25.878,25.878,0,0,1,2.552,4.276c.621,0,1.586.069,2.621,0a5.675,5.675,0,0,1,5.655,4.827c1.034,5.655.759,11.034-2.414,16.207a29.579,29.579,0,0,1-8.9,8.9c-2.965,2-5.793,4.138-8.689,6.138-1.793,1.241-1.724,3.31-2.207,5.034-.9,3.586-1.448,7.31-2.207,10.965-1.586,7.724-3.31,15.448-4.9,23.172-1.586,7.655-3.1,15.241-4.759,22.9-.69,3.1-.621,6.483-2.827,9.1a61.644,61.644,0,0,1-5.517,5.724c-3.862,3.517-7.931,6.827-11.862,10.207-2.621,2.276-5.1,4.828-7.931,6.827-1.448,1.034-1.241,1.931-1.034,3.241.552,5.1,1.1,10.207,1.586,15.241v.276c.414,4-1.034,7.1-4,9.793a111.372,111.372,0,0,0-7.931,8.207,4.209,4.209,0,0,0-.9,2.828c.552,4.759,1.31,9.448,2.069,14.207.345,2.207.759,4.345.966,6.483.414,3.379.621,6.827,1.034,10.207.483,4.345,1.034,8.689,1.517,12.965.069.69,0,1.379.069,2.069.207,4.276.483,8.552.69,12.758.207.207.483.414.69.621.138-.483.345-.966.483-1.448,1.655-5.448,3.241-10.9,4.965-16.276,2.69-8.62,5.31-17.241,8.069-25.792,1.1-3.379,3.931-4.345,7.172-4.759a15.545,15.545,0,0,1,1.793,0q50.378,0,100.825.069a11.477,11.477,0,0,1,3.724.69c2.483.828,3.241,2.138,2.759,4.621-.414,2-1.172,3.931-1.724,5.862-2.276,7.379-4.552,14.758-6.9,22.137-2,6.345-4.207,12.689-6.207,19.1-2.345,7.379-4.621,14.758-6.965,22.137-.207.69-.621,1.31-1.034,2.276.966.069,1.862.138,2.759.207h13.724a19.011,19.011,0,0,1,3.034.552c-.9,1.586-2.069,1.379-3.172,1.379-7.931,0-15.862.069-23.792.069H205.809c-21.793,0-43.585-.069-65.447-.069l1.034-1.448A13.779,13.779,0,0,1,144.293,448.4ZM66.777,301.571c1.862.069,3.586-.276,5.517.483,3.172,1.172,4.827,3.862,6.69,6.138,5.1,6.138,9.862,12.62,14.827,18.827,5.448,6.9,11.034,13.655,16.551,20.482,1.655,2,3.172,4.138,5.931,4.758,3.034.69,6,1.31,8.965,2.069,2.207.552,4.483,1.1,6.689,1.655,4.9,1.31,9.862,2.69,14.758,3.931,3.517.9,7.1,1.724,10.689,2.483,1.31.276,2.621.552,4,.828a32.026,32.026,0,0,0-1.379-18.551c-2.552-.483-4.965-.9-7.379-1.31l-21.724-3.517c-3.379-.552-6.552-1.379-8.621-4.552a32.285,32.285,0,0,0-3.862-4.276c-4.207-4.552-8.414-9.1-12.551-13.655-5.379-5.862-10.758-11.793-16.138-17.655C84.777,294.33,84.363,295.5,86.5,287.5c1.241-4.552,1.793-9.172.414-13.862-1.1-3.724-5.241-6.069-8.483-4.345a33.676,33.676,0,0,0-6.345,4.414c-1.862,1.724-3.241,3.931-2.9,6.758.276,2.138,1.862,3.034,3.931,2.621a7.856,7.856,0,0,0,4.621-3.172c.69-.759,1.241-2.207,3.1-1.31-1.172,2.345-2.345,4.483-4.759,5.586a4.842,4.842,0,0,0-3.1,4.207,20.807,20.807,0,0,0,.138,3.586c.069.759.345,1.655-.759,1.793a1.42,1.42,0,0,1-1.586-1.586c.069-2.138.207-4.207.345-6.483-.828-.414-1.517-1.931-3.172-1.172-1.31.621-2.69,1.241-4,1.931.483,4.552-1.379,5.655-4.69,6.276-2.828.552-3.931,0-4.345-2,.69,0,1.379-.069,2-.069.759,0,1.586.069,2.345,0,2.069-.276,3.517-2.138,2.621-3.724-1.379-2.207-2.965-4.207-6-4.345a13.151,13.151,0,0,0-7.517,2.207c-3.1,1.931-4.276,5.793-2.552,8.345,3.1,4.69,7.172,8.138,13.1,8.62C60.64,303.089,64.778,303.089,66.777,301.571ZM197.05,219.78c-3.517.828-7.034,1.586-10.483,2.552a58.735,58.735,0,0,0-8.552,2.69c-4.483,1.862-6.9,5.517-7.655,10.345-.345,1.655-.621,3.241-.9,4.69-1.241.69-2.276,1.241-3.379,1.862-4.621-.276-8.965,5.034-9.862,9.1-.69,2.965.414,5.448,1.1,8.138,1.172,4.69,2.414,9.379,3.517,14.069,1.586,6.689,3.1,13.448,4.69,20.137.483,2.207.9,4.483,1.517,6.758,1.172,4.552,2.621,8.965,3.724,13.517a34.159,34.159,0,0,0,5.448,11.793,33.65,33.65,0,0,0,23.034,14.344c12.62,1.862,24.482-.345,34.827-8.552a28.177,28.177,0,0,0,9.931-15.931,35.6,35.6,0,0,0,.69-15.724c-.414-2.069-.828-4.207-1.31-6.276-.69-2.9-1.517-5.724-2.207-8.62-.828-3.31-1.586-6.621-2.414-9.931-.69-2.759-1.517-5.586-2.207-8.345-.759-3.172-1.31-6.345-2.069-9.517-1.517-6.483-3.1-12.9-4.759-19.31-.552-2.138-1.241-4.207-1.862-6.345a16.98,16.98,0,0,1-.552-8.9c.483-2.276,1.517-4.483,2.138-6.759a23.51,23.51,0,0,0,.414-3.517,19.436,19.436,0,0,0-2.828.414c-1.793.483-3.517,1.172-5.379,1.586-5.379,1.241-10.827,2.414-16.275,3.724C202.568,218.263,199.809,219.091,197.05,219.78Zm136.893,154.2H282.5c-4.483,0-4.138.414-5.793,4.621-1.586,4.069-2.552,8.276-3.931,12.413-1.724,5.448-3.586,10.9-5.379,16.413-1.379,4.345-2.621,8.827-4,13.172-2.552,8-5.241,15.931-7.724,23.931-.276.828.207,1.931.483,2.828.621,1.655,2.138,1.1,3.31,1.1H336.5c8.689,0,17.379-.069,26.137.069a5.586,5.586,0,0,0,5.034-3.517,56.268,56.268,0,0,0,1.793-5.793c.828-2.759,1.517-5.586,2.414-8.345,2.207-6.69,4.483-13.31,6.621-20,1.517-4.621,2.759-9.31,4.207-13.931,2.069-6.552,4.207-13.1,6.276-19.586.828-2.621.345-3.241-2.345-3.31h-1.793Q359.392,373.949,333.944,373.984ZM264.98,319.019a8.377,8.377,0,0,0,2.138-1.172c6.483-5.586,12.965-11.172,19.379-16.827,2.759-2.414,5.31-4.965,5.862-8.965.69-4.9,1.793-9.655,2.759-14.482.828-4.276,1.517-8.483,2.414-12.758,1.172-5.586,2.621-11.034,3.862-16.62.966-4.345.9-4.483-3.31-5.517-2.483-.621-5.1-1.034-7.931-1.655-.69,2.827-1.31,5.517-2,8.207-1.241,4.483-2.552,8.965-3.724,13.517-1.862,7.1-3.586,14.207-5.379,21.31a10.8,10.8,0,0,1-3.172,5.31c-5.724,5.241-11.379,10.551-16.965,15.724C260.842,309.709,262.911,314.261,264.98,319.019ZM293.324,228.4c1.655.552,3.241,1.172,4.827,1.655,1.448.414,3.034.483,4.483.965,1.517.483,2.345.069,2.552-1.448a6.157,6.157,0,0,1,2.345-4.069c2.9-2.207,5.931-4.207,8.9-6.345,3.379-2.414,6.69-4.828,8.552-8.827,2.276-4.828,3.724-9.586,1.517-14.827-.828-2-1.655-2.69-3.724-2.621-3.035.069-5.172,1.931-7.31,3.862a6.966,6.966,0,0,0-2.483,5.586c.138,2.828,2.069,4.207,4.69,3.172a24.451,24.451,0,0,0,3.724-2.414c.414-.276.9-.483,1.379-.759a5.734,5.734,0,0,1,.207,1.793,4.146,4.146,0,0,1-1.448,1.655c-2.207,1.724-4.9,3.517-8.207,1.172a2.513,2.513,0,0,0-3.655.483c-1.724,1.931-3.586,3.793-5.172,5.862-.759,1.034-1.379.965-2.552.414,1.241-3.241,4.276-5.1,6-8.138-1.241-.138-2.414,0-3.241-.483-1.586-.966-2.9-.207-4.345.276a43.939,43.939,0,0,0-4.207,1.586c-1.517.759-1.793-.069-1.862-1.517.965-.276,2-.414,2.9-.759.966-.345,1.793-.9,2.69-1.31,2.965-1.241,4.414-3.31,4.069-6-3.172-1.379-5.448-1.724-7.655-1.241-1.379.276-2.828.621-4.207,1.034-4.9,1.379-8.138,6.9-7.31,11.862s3.586,8.758,7.448,11.862c1.931,1.586,2.276,2.483,1.517,5.034A18.085,18.085,0,0,1,293.324,228.4Zm-40,219.926a17.672,17.672,0,0,1,.483-4.414c.828-2.414.9-2.552-1.724-2.552H200.223c-.828,0-2.207.345-2.414.828a4.58,4.58,0,0,0,.276,3.172,5.659,5.659,0,0,0,5.517,3.172c15.862-.069,31.654-.069,47.516-.069C251.808,448.465,252.566,448.4,253.325,448.327ZM48.985,281.641c4.483-1.1,9.1-2.345,12.9,1.448a2.613,2.613,0,0,0,3.379.483c1.1-.552,2.414-1.31,1.724-3.1a4.233,4.233,0,0,1,.069-2.069,2.616,2.616,0,0,0-.966-2.69A15.68,15.68,0,0,0,55.4,271.365C50.088,271.158,46.778,277.089,48.985,281.641Zm113.722,8.965c-.414-1.448-.69-2.414-.9-3.379s-.414-2-.621-2.9c-4.827-.414-7.793,2.276-6.965,6.621a55.846,55.846,0,0,0,3.034,10.689c1.31,3.1,4.276,4.552,7.586,5.034,1.241.207,1.724-.552,1.379-1.724-1.034-3.862-2.069-7.655-3.034-11.31-1.448-.483-2.759-.9-4-1.448-.414-.207-.69-.759-1.034-1.172a8.442,8.442,0,0,1,1.655-.69C160.706,290.33,161.6,290.537,162.706,290.606Zm142.342-87.584a12.816,12.816,0,0,0,1.793.552c2.69.207,3.448-.414,3.931-3.1.138-.621.552-1.172.759-1.793,1.172-3.31,4.207-4.9,6.827-6.69a10.186,10.186,0,0,0-3.241-5.448,5.61,5.61,0,0,0-6.414.414c-1.931,1.724-2.9,4.069-4,6.276a2.366,2.366,0,0,0,.276,2.138c1.655,1.724,1.517,3.655.828,5.655A15.48,15.48,0,0,0,305.048,203.022ZM200.43,342.6c.552,3.655,6.276,7.862,11.241,7.586,4.9-.345,10.9-4.483,11.1-9.931-3.793-.138-7.241,1.793-10.965,2C208.016,342.6,204.223,342.536,200.43,342.6ZM56.5,268.813a61.756,61.756,0,0,1,6.345,2.207,42.941,42.941,0,0,1,5.517,3.448c1.655-1.586,3.517-3.31,5.517-5.172a12.4,12.4,0,0,0-10.138-7.586,5.9,5.9,0,0,0-4.827,1.655C57.329,264.883,57.4,266.882,56.5,268.813Zm186.617-1.034c-.828,1.655-2,3.1-2.138,4.621-.138,1.655.69,3.448,1.034,5.172.069.345.069.69.138,1.034l1.448,5.586c2.9-.9,5.379-5.517,4.621-8.552-.828-3.448-1.655-6.9-2.621-10.345a4.724,4.724,0,0,0-1.1-1.586c-1.793-1.931-3.862-1.034-6.069-.759.414,2,.828,3.862,1.172,5.724C241.118,268.882,241.049,265.3,243.118,267.779Zm61.24-34.275c-4.138-.9-7.862-1.724-11.793-2.621q-.931,3.931-1.862,7.655c5.1,1.517,9.448,2.9,12.138,2.069C303.393,238.4,303.876,236.056,304.358,233.5Zm1.034-46.551c-2.69-2.207-4.9-2.69-6.758-1.586a8.95,8.95,0,0,0-3.931,8.9c2.552-.138,5.1-.276,7.379-.414C303.186,191.5,304.289,189.367,305.393,186.953ZM155.81,380.052c.345.069.69.069,1.034.138,1.379-4.138,2.759-8.276,4-12.413.483-1.724-.138-2.414-2-2.827-1.172-.276-2.276-.483-3.655-.759C155.258,369.57,154.844,374.811,155.81,380.052Z" transform="translate(-42.729 -177.915)"/>
    <path id="XMLID_344_" class="cls-2" d="M309.989,451c1.793,3.586,2,7.172,2.138,10.758.207,4.414.207,8.827,0,13.172a40.613,40.613,0,0,1-2.9,14,84.193,84.193,0,0,1-3.517,8.483c-2.552,4.69-5.517,9.172-10.414,11.793-.483.276-1.241.621-1.655.414a68.658,68.658,0,0,1-8-3.517c-6.827-3.931-11.448-9.862-14.551-17.1a36.462,36.462,0,0,1-3.034-12.345c-.207-2.414-1.1-4.827-.965-7.31.069-1.655.207-2.828,2.276-3.034a28.641,28.641,0,0,0,4.207-.966c6.552-1.448,12.965-2.965,19.034-6,2.414-1.241,5.1-2.069,7.517-3.31,2.552-1.31,4.965-2.965,7.517-4.414A9.049,9.049,0,0,1,309.989,451Zm-.9,2.483c-4.414,2.276-8.414,4.276-12.414,6.276a68.227,68.227,0,0,1-14.344,5.448c-3.448.828-6.9,2-10.414,2.69-2.069.414-2.138,1.448-2.207,3.034a42.738,42.738,0,0,0,1.793,13.448,35.394,35.394,0,0,0,5.586,11.448c3.655,4.552,7.862,8.552,13.586,10.689,2.828,1.034,4.138,1.1,6.207-1.1,1.793-1.862,3.448-3.793,5.034-5.793,3.724-4.758,5.724-10.345,6.965-16.138.69-3.172.828-6.414,1.241-9.586C311.162,467.069,310.334,460.379,309.093,453.483Z" transform="translate(-112.358 -261.138)"/>
    <path id="XMLID_341_" class="cls-3" d="M174.637,554.873c-1.035.207-2.069.345-3.034.552H151.879c-1.172-.345-2.345-.69-3.517-.966-3.862-2.965-7.034-6.414-7.862-11.448,0-5.31.069-10.689.069-16,.828-.345,1.655-1.034,2.483-1.034,12.414-.069,24.827-.069,37.172,0,2.207,0,2.621.552,3.517,3.931,1.31.207,2.621.414,3.931.689-1.379.069-2.828.207-4.207.276,0,.138.069.276.069.414,1.31.345,2.69.621,4,.966a15.676,15.676,0,0,0-1.793-.138c-2.414,0-2.621.207-2.69,2.621,0,1.172.069,2.414,0,3.586-.138,2.207-.276,4.414-.621,6.62a19.162,19.162,0,0,1-1.517,3.586c.9.138,1.448.207,2.069.276-.552.276-1.1.552-2.069,1.1,1.034.207,1.655.345,2.207.483a2.7,2.7,0,0,1-1.241.276c-2.069-.345-3.586.759-4.965,2.069C176.154,553.424,175.4,554.183,174.637,554.873Zm-12.9-26.413c-5.793,0-11.517.069-17.31,0-1.655,0-2.345.552-2.345,2.207.069,3.1-.069,6.207.069,9.31a14.242,14.242,0,0,0,8.965,13.31c6,2.552,12.482,2.207,18.9.759,5.724-1.31,11.793-8.483,11.379-15.379-.138-2.552,0-5.172,0-7.724,0-2.345-.138-2.483-2.552-2.483Z" transform="translate(-73.073 -284.392)"/>
    <path id="XMLID_340_" class="cls-4" d="M239.6,582.191c.552-.345.828-.69,1.172-.759a13.137,13.137,0,0,1,2.345-.069H355.528c1.1,0,2.414-.483,3.379.9-.483.207-.9.552-1.241.552q-58.55,0-117.032-.069C240.359,582.811,240.083,582.536,239.6,582.191Z" transform="translate(-103.83 -301.572)"/>
    <path id="XMLID_339_" class="cls-5" d="M454.741,352.356c-3.517,0-5.172-1.586-5.241-4.828,0-2.828,2.69-5.793,5.31-5.931,2.828-.138,5.586,2.828,5.517,6Q460.327,352.356,454.741,352.356Z" transform="translate(-168.975 -227.183)"/>
    <path id="XMLID_336_" class="cls-2" d="M289.6,182.664a7.005,7.005,0,0,1,6.483-6.965,7.282,7.282,0,0,1,7.448,6.965,7.366,7.366,0,0,1-7.379,7.034A7.128,7.128,0,0,1,289.6,182.664Zm2.207-.069a4.686,4.686,0,0,0,4.621,4.9c2.552.069,5.172-2.414,5.1-4.9,0-2.345-2.552-4.758-4.965-4.758A4.525,4.525,0,0,0,291.807,182.595Z" transform="translate(-119.348 -175.694)"/>
    <path id="XMLID_335_" class="cls-6" d="M135.914,330.51c-2.828,0-4.414-1.586-4.414-4.483a4.947,4.947,0,0,1,4.9-4.827c2.138,0,4.414,2.483,4.414,4.9C140.81,328.786,138.948,330.51,135.914,330.51Z" transform="translate(-70.28 -220.853)"/>
    <path id="XMLID_334_" class="cls-2" d="M97.548,450.607c-2.759-1.172-.9-3.724-1.793-5.448-1.586-1.31-4.9,1.172-5.655-2.69,1.931-.138,3.793-.207,5.517-.276.965-1.931-.759-4.345,1.655-5.793,2.345,1.31.552,3.862,1.517,5.724,1.724.965,4.207-.9,5.586,1.448-1.31,2.345-3.724.828-5.586,1.517C97.755,446.607,99.548,449.02,97.548,450.607Z" transform="translate(-57.431 -256.607)"/>
    <path id="XMLID_333_" class="cls-4" d="M183.347,582.022c-1.931.965-24.551,1.379-37.379.759a10.99,10.99,0,0,1-2.069-.414v-.69a17.272,17.272,0,0,1,1.793-.483C154.589,580.643,181.416,581.126,183.347,582.022Z" transform="translate(-74.129 -301.473)"/>
    <path id="XMLID_332_" class="cls-7" d="M294.648,426.586A15.314,15.314,0,0,1,292.441,429c-3.1,2-6.345,3.655-10.276,3.586-3.793-.069-7.586.207-11.034-1.724a14.573,14.573,0,0,1-5.931-5.241l.414-.621a16.55,16.55,0,0,1,1.862,1.1c3.862,3.241,8.207,5.172,13.379,4.965A15.659,15.659,0,0,0,291.406,427C292.3,426.172,293.13,425.483,294.648,426.586Z" transform="translate(-111.775 -253.069)"/>
    <path id="XMLID_331_" class="cls-1" d="M140.293,567.3c1.172.345,2.345.69,3.517.965l1.034,1.448c-9.31,0-18.551.069-27.861,0a10.911,10.911,0,0,1-2.483-.621v-.828a15.612,15.612,0,0,1,3.034-.552c6.689-.069,13.379,0,20.137-.069A11.908,11.908,0,0,0,140.293,567.3Z" transform="translate(-65.004 -297.233)"/>
    <path id="XMLID_330_" class="cls-2" d="M107.1,264.695c0-1.655,1.034-1.862,2.207-2,2.483-.207,2.483-.207,2.69-2.621.069-1.31.345-2.345,2.345-2.276.069.965.207,1.862.207,2.759,0,1.517.621,2.207,2.138,2.138a5.132,5.132,0,0,1,1.793.138c.483.207,1.034.759,1.034,1.172s-.69,1.172-1.034,1.172c-3.034-.276-4.483.9-4.138,4.069.069.345-.69,1.034-1.1,1.034s-1.241-.69-1.172-.966c.552-3.724-1.655-4.276-4.552-4.207A1.9,1.9,0,0,0,107.1,264.695Z" transform="translate(-62.707 -201.175)"/>
    <path id="XMLID_327_" class="cls-2" d="M142.4,238.327a5.339,5.339,0,0,1-4.9-5.31,5.861,5.861,0,0,1,5.379-5.517c2.345,0,5.379,3.1,5.448,5.586C148.4,235.638,145.293,238.4,142.4,238.327Zm3.655-5.31a3.179,3.179,0,0,0-3.172-3.241,3.232,3.232,0,0,0-3.172,3.034,2.94,2.94,0,0,0,3.034,3.31A3.177,3.177,0,0,0,146.052,233.017Z" transform="translate(-72.142 -191.773)"/>
    <path id="XMLID_324_" class="cls-2" d="M384.627,611.123c-.276,3.793-1.931,4.9-5.655,5.1-2.621.138-5.241-2.621-5.172-5.31.069-2.827,2.621-5.517,5.31-5.517C382.42,605.33,384.627,607.675,384.627,611.123Zm-5.31,3.1a3.621,3.621,0,0,0,3.724-3.172c.138-1.586-1.724-3.379-3.448-3.448a3.45,3.45,0,0,0-3.586,3.241C375.868,612.847,377.179,614.158,379.317,614.227Z" transform="translate(-145.48 -309.057)"/>
    <path id="XMLID_323_" class="cls-8" d="M201.307,552.424c-.621-.138-1.172-.276-2.207-.483.965-.483,1.517-.758,2.069-1.1a3.791,3.791,0,0,1,1.241-.9c2.759-.828,3.862-3.034,4.414-5.448.414-1.793.069-3.793.207-5.655a6.131,6.131,0,0,0-1.241-4.483c-1.31-.345-2.69-.621-4-.966,0-.138-.069-.276-.069-.414,1.379-.069,2.828-.207,4.207-.276a3.608,3.608,0,0,1,2.9,3.586c.069,2.9.138,5.862-.069,8.758A8.7,8.7,0,0,1,201.307,552.424Z" transform="translate(-91.26 -286.495)"/>
    <path id="XMLID_322_" class="cls-9" d="M342.9,196.948a16.093,16.093,0,0,1,2.69-.414c3.517-.138,3.517-.138,3.655-3.793a23.2,23.2,0,0,1,.69-3.241c.69.828,1.1,1.1,1.172,1.448a7.58,7.58,0,0,1,.138,1.793c.069,3.655.069,3.655,3.655,3.793a12.973,12.973,0,0,1,2.276.345v.9c-1.1.138-2.207.276-3.31.345-2.414.138-2.621.207-2.69,2.69-.069,2.759-.069,2.759-1.172,4.552a20.769,20.769,0,0,1-.828-2.483c-.138-.759,0-1.517-.069-2.345-.069-2.138-.276-2.276-2.414-2.414C345.59,197.983,344.21,198.534,342.9,196.948Z" transform="translate(-135.89 -179.979)"/>
    <path id="XMLID_321_" class="cls-2" d="M474.276,308.217a15.1,15.1,0,0,1-3.172-.276c-.483-.069-1.1-.69-1.1-1.034a1.755,1.755,0,0,1,.965-1.241,14.186,14.186,0,0,1,2.9-.276c1.241-1.31-.276-3.448,1.931-4.69a23.915,23.915,0,0,1,.758,3.241c.069,1.448.621,2,2,2a15.655,15.655,0,0,1,2.827.552c-.965,1.241-.965,1.241-4.069,1.862a30.583,30.583,0,0,1-.9,3.379c-.138.345-.759.552-1.1.828-.276-.414-.69-.759-.759-1.172A21.733,21.733,0,0,1,474.276,308.217Z" transform="translate(-175.337 -214.491)"/>
    <path id="XMLID_320_" class="cls-2" d="M159.841,199.407c1.655.69,3.448-.345,4.207,1.724a5.341,5.341,0,0,1-1.1.483c-2.207.207-3.724.828-3.379,3.586.138,1.1-.828,1.586-2.069,1.1-.276-1.379-.138-3.172-.965-4.069-.759-.828-2.552-.828-3.931-1.172.552-.9,1.1-1.034,4.414-1.655a13.316,13.316,0,0,1,.276-2.9c.138-.483.828-.9,1.241-1.31.345.414.965.759,1.1,1.241A21.432,21.432,0,0,1,159.841,199.407Z" transform="translate(-76.829 -181.748)"/>
    <path id="XMLID_317_" class="cls-2" d="M231.589,618.627a4.749,4.749,0,0,1-4.69-4.483c-.069-1.724,2.966-4.345,5.1-4.345,1.724,0,4.069,2.758,4.069,4.759A4.358,4.358,0,0,1,231.589,618.627Zm-2.138-4.621c-.069,1.517.621,2.483,1.862,2.552a2.506,2.506,0,0,0,2.621-1.931,3.075,3.075,0,0,0-2.69-2.621C229.934,612.076,229.451,612.834,229.451,614.007Z" transform="translate(-99.888 -310.423)"/>
    <path id="XMLID_314_" class="cls-2" d="M430.742,424c1.517-.069,4.759,2.759,4.759,4.138,0,1.655-3.034,4.965-4.621,5.034-2,.138-4.414-2.276-4.483-4.414A4.316,4.316,0,0,1,430.742,424Zm2.276,4.827c.138-1.448-.552-2.552-1.724-2.69a2.572,2.572,0,0,0-2.828,2.345c-.069,1.379.759,2,2,2.138C432.052,430.827,432.879,430.206,433.017,428.827Z" transform="translate(-161.802 -252.758)"/>
    <path id="XMLID_311_" class="cls-2" d="M131.5,482.945c0-3.035,1.1-4.276,3.793-4.345a4.344,4.344,0,0,1,4.483,4.276,4.262,4.262,0,0,1-4.276,4.483C132.81,487.358,131.5,485.91,131.5,482.945Zm3.586,1.862c1.517.069,2.483-.621,2.552-1.862a2.574,2.574,0,0,0-1.931-2.621,3.074,3.074,0,0,0-2.621,2.69C133.155,484.324,133.914,484.807,135.086,484.807Z" transform="translate(-70.28 -269.704)"/>
    <path id="XMLID_310_" class="cls-2" d="M202.748,595.379a11.415,11.415,0,0,1,.414,1.448c.069,1.31.621,1.793,1.862,1.931.621.069,1.1.759,1.655,1.172-.552.414-1.034,1.173-1.586,1.241-1.448.138-1.931.828-2,2.138a3.787,3.787,0,0,1-.345,1.172c-1.31.345-2-.207-2.138-1.31a1.929,1.929,0,0,0-1.862-2c-.552-.069-.966-.759-1.448-1.172.483-.414.9-1.172,1.379-1.241a1.987,1.987,0,0,0,1.931-2C200.748,595.655,201.438,595.172,202.748,595.379Z" transform="translate(-90.702 -305.933)"/>
    <path id="XMLID_309_" class="cls-6" d="M125.612,351.6c5.31,4.758,9.172,10.207,13.655,15.172-.069.207-.207.414-.276.621-.483-.069-1.172,0-1.448-.345q-3-2.793-5.793-5.793c-1.931-2.069-3.724-4.207-5.655-6.276C124.991,353.807,124.991,353.807,125.612,351.6Z" transform="translate(-68.323 -230.288)"/>
    <path id="XMLID_308_" class="cls-10" d="M285.372,530.663a7.446,7.446,0,0,1-2.207-.276c-3.517-1.655-6.069-4.345-8.483-7.31a16.434,16.434,0,0,1-2.345-3.379c-.414-.759-.759-2.207-.483-2.414,1.172-.828,1.517.552,2.069,1.172,1.793,2.069,3.448,4.276,5.31,6.207,1.655,1.655,3.655,3.034,5.517,4.552a3.768,3.768,0,0,0,1.241.414A6.811,6.811,0,0,1,285.372,530.663Z" transform="translate(-113.81 -281.63)"/>
    <path id="XMLID_307_" class="cls-2" d="M493.4,413.686c-.69-1.379-.9-2.69-1.724-3.448-.759-.69-2.414,0-3.172-1.724.552-.345,1.172-.965,1.793-.965,1.793,0,2.483-.828,2.483-2.483,0-.345.345-.621.552-.965.276.069.414.069.414.138.483,1.931,1.1,3.793,3.724,3.379.276-.069.965.69.9.965-.069.483-.552.9-.965,1.31-.138.138-.483.138-.759.138-1.724-.138-2.552.621-2.552,2.414C494.155,412.721,493.81,413.065,493.4,413.686Z" transform="translate(-181.079 -246.582)"/>
    <path id="XMLID_306_" class="cls-5" d="M397.829,603.821c-2.138-.069-3.172-1.31-3.034-3.586.138-2,1.172-3.035,3.1-3.035a3.207,3.207,0,0,1,3.034,3.448A3.149,3.149,0,0,1,397.829,603.821Z" transform="translate(-151.992 -306.513)"/>
    <path id="XMLID_305_" class="cls-2" d="M473.6,361.871a2.831,2.831,0,0,1,2.9-3.172,3.236,3.236,0,0,1,3.241,3.241,3.281,3.281,0,0,1-3.172,3.31C474.772,365.319,473.6,363.94,473.6,361.871Z" transform="translate(-176.454 -232.491)"/>
    <path id="XMLID_304_" class="cls-4" d="M424.376,285.51c-1.1-2-.069-4,.207-5.931a57.471,57.471,0,0,1,1.379-5.724q.517-2.069,1.241-4.138c.069-.276.621-.69.9-.621a1.174,1.174,0,0,1,.69.9,13.337,13.337,0,0,1-.414,2.827c-.414,2.069-.828,4.138-1.379,6.207-.552,2.276-1.172,4.483-1.793,6.689A7.154,7.154,0,0,0,424.376,285.51Z" transform="translate(-161.023 -204.68)"/>
    <path id="XMLID_303_" class="cls-11" d="M157.934,570.148,156.9,568.7h19.724l-1.034,1.448Z" transform="translate(-78.163 -297.668)"/>
    <path id="XMLID_207_" class="cls-7" d="M336.848,463.838c-.276-1.517-.552-3.1-.828-4.621-.276-1.862-.483-3.655-.621-5.517,0-.483.414-.965.828-2,.621,1.172,1.241,1.793,1.241,2.414.069,3.241,1.379,6.483.207,9.724A1.676,1.676,0,0,0,336.848,463.838Z" transform="translate(-133.563 -261.355)"/>
    <path id="XMLID_206_" class="cls-2" d="M424.2,582.2c2.138-1.172,10.62-1.172,12.482-.069C435.165,583.166,426.752,583.3,424.2,582.2Z" transform="translate(-161.123 -301.582)"/>
    <path id="XMLID_205_" class="cls-1" d="M106.9,569.122c-.759.345-1.241.828-1.724.828-2.069.069-4.069.069-6.138,0-.414,0-.828-.552-1.241-.9.276-.345.621-.965.9-.965,2.345-.069,4.759,0,7.1.069C106.076,568.156,106.283,568.57,106.9,569.122Z" transform="translate(-59.821 -297.469)"/>
    <path id="XMLID_204_" class="cls-12" d="M140.1,527.5c0,5.31-.069,10.689-.069,16a7.087,7.087,0,0,1-.965-2.414c-.138-3.793-.069-7.517-.069-11.31C138.992,528.879,138.854,527.845,140.1,527.5Z" transform="translate(-72.6 -284.881)"/>
    <path id="XMLID_203_" class="cls-4" d="M150.59,379.6c1.034,1.241,2.138,2.483,3.517,4.069-.9.069-1.862.483-2.276.138-1.172-.9-2.207-2.069-1.862-3.724A3.787,3.787,0,0,0,150.59,379.6Z" transform="translate(-75.991 -238.978)"/>
    <path id="XMLID_202_" class="cls-1" d="M550.282,570.032c-1.035-.276-2.552.483-2.483-1.172,0-1.379,1.379-.9,2.207-.9.9.069,2.414-.552,2.483.966C552.558,570.584,550.9,569.549,550.282,570.032Z" transform="translate(-199.482 -297.413)"/>
    <path id="XMLID_201_" class="cls-6" d="M466.617,582.435c-2.138.69-3.724.827-5.517,0C462.686,581.055,464.479,581.055,466.617,582.435Z" transform="translate(-172.575 -301.609)"/>
    <path id="XMLID_200_" class="cls-4" d="M432.229,257.5c.759,1.793.207,3.1-.621,4.483C430.3,259.914,430.436,258.948,432.229,257.5Z" transform="translate(-163.152 -201.083)"/>
    <path id="XMLID_194_" class="cls-13" d="M429.765,459.969h52.757c2.69.138,3.172.759,2.345,3.31-2.069,6.552-4.207,13.034-6.276,19.586-1.448,4.621-2.69,9.31-4.207,13.931-2.138,6.69-4.483,13.31-6.62,20-.9,2.759-1.586,5.586-2.414,8.345a56.249,56.249,0,0,1-1.793,5.793,5.586,5.586,0,0,1-5.034,3.517c-8.689-.138-17.379-.069-26.137-.069H355.353c-1.172,0-2.69.552-3.31-1.1a4.673,4.673,0,0,1-.483-2.828c2.483-8,5.172-15.931,7.724-23.931,1.379-4.345,2.621-8.827,4-13.172,1.724-5.448,3.586-10.9,5.379-16.413,1.31-4.138,2.345-8.414,3.931-12.414,1.655-4.207,1.31-4.621,5.793-4.621Q404.041,460,429.765,459.969ZM388.8,464.245a2.587,2.587,0,0,0-.069-.69c-.207-.138-.414-.414-.552-.414-3.724-.069-7.379-.138-11.1-.069a2.013,2.013,0,0,0-1.517,1.172,84.609,84.609,0,0,0-2.965,7.931c-1.379,4.483-2.552,9.034-3.931,13.517s-2.965,8.9-4.483,13.379c-.759,2.276-1.517,4.552-2.276,6.758-.69,2.138-1.31,4.276-2,6.345-1.448,4.483-2.9,8.966-4.276,13.448-.414,1.379-1.172,2.828.138,4.9a14.25,14.25,0,0,0,1.173-2.138c.621-1.862,1.1-3.793,1.724-5.655l5.793-17.793c.552-1.724,1.1-3.379,1.655-5.1.759-2.483,1.517-5.034,2.345-7.586,1.1-3.517,2.345-6.965,3.448-10.414,1.586-5.1,3.172-10.276,4.621-15.448a2.3,2.3,0,0,1,2.621-1.931h7.241A9.53,9.53,0,0,0,388.8,464.245Zm17.448,34.275c.621,1.862,1.1,3.724,1.793,5.448a7.13,7.13,0,0,0,6.138,4.483c6.276.621,12.275-1.724,14.827-8.552,2.759-7.31-.621-13.586-8.689-14.551-1.586-.207-3.31.621-4.9,1.241A14.565,14.565,0,0,0,406.248,498.52Zm70-34.344v-.828a23.73,23.73,0,0,0-3.1-.345h-65.1a10.391,10.391,0,0,0-2.069.069,2.7,2.7,0,0,0-1.1.69c0,.207.069.345.069.552,1.034.069,2.138.276,3.172.276h65.654C474.591,464.521,475.419,464.314,476.246,464.176Zm-80.55-1.241c-.069.207-.069.414-.138.621,1.379,1.379,2.552,1.448,4.483-.276C398.317,463.141,397.007,463,395.7,462.934Z" transform="translate(-138.55 -263.9)"/>
    <path id="XMLID_187_" class="cls-10" d="M217.527,254.9c1.1-.621,2.207-1.172,3.379-1.862.276-1.379.621-3.034.9-4.69.207.414.414.9.552,1.1,2.483-1.931,4.9-4,7.517-5.655,4.207-2.759,8.551-5.31,12.9-7.793,1.586-.9,3.517-1.379,5.172-2.138.276-.138.345-.759.483-1.1,2.759-.69,5.517-1.448,8.345-2.138,5.379-1.241,10.827-2.414,16.275-3.724,1.793-.414,3.586-1.1,5.379-1.586.759-.207,1.586-.207,2.828-.414a23.5,23.5,0,0,1-.414,3.517c-.621,2.276-1.655,4.483-2.138,6.758a17.723,17.723,0,0,0,.552,8.9c.621,2.138,1.31,4.207,1.862,6.345,1.586,6.414,3.172,12.9,4.758,19.31.759,3.172,1.31,6.345,2.069,9.517.69,2.827,1.517,5.586,2.207,8.345.828,3.31,1.586,6.621,2.414,9.931.69,2.9,1.517,5.724,2.207,8.62.483,2.069.9,4.138,1.31,6.276a35.6,35.6,0,0,1-.69,15.724,28.687,28.687,0,0,1-9.931,15.931c-10.345,8.276-22.206,10.483-34.827,8.551A33.65,33.65,0,0,1,227.6,338.277a34.159,34.159,0,0,1-5.448-11.793c-1.1-4.552-2.483-9.034-3.724-13.517-.621-2.207-.965-4.483-1.517-6.758-1.517-6.689-3.1-13.448-4.69-20.137-1.1-4.69-2.345-9.379-3.517-14.069.345-.69.965-1.379.965-2.138a15.865,15.865,0,0,1,2.828-8.621C214.01,259.106,215.8,257.037,217.527,254.9Zm47.792-10.069a1.51,1.51,0,0,0-.552.207c-3.31,6-6.621,12-9.931,18.069-2.207,4.069-4.207,5.1-7.586,4.414-1.586-.345-2.965-1.517-4.483-2.138-1.655-.69-3.034-2.138-5.1-1.448-1.31.414-2.621.621-3.931,1.034-4.276,1.31-8.758,1.793-12.689,4.207-3.586,2.207-6.965,8.069-6.069,12.551.965,4.9,2.138,9.793,3.31,14.689,1.379,5.586,2.828,11.241,4.345,16.758.966,3.517,2.9,6.276,6.621,7.586,4,1.379,7.31.069,10.276-2.414a39.532,39.532,0,0,1,13.1-7.31c2.759-.9,5.448-1.931,8.207-2.552,3.31-.69,6.621-2.138,10.069-1.586a49.035,49.035,0,0,1,8.276,1.724,6.87,6.87,0,0,0,4.552,0,8.569,8.569,0,0,0,5.724-10.965,36.679,36.679,0,0,1-1.517-5.379c-1.793-7.448-3.517-14.9-5.241-22.344a17.379,17.379,0,0,0-3.448-7.793c-3.724-4.138-9.862-6.483-15.931-4a11.752,11.752,0,0,1-3.172.552c-.069-.483-.207-.69-.138-.828,1.793-3.172,3.655-6.345,5.448-9.586C266.078,247.106,266.7,245.865,265.319,244.831Zm-3.586,88.343a13.936,13.936,0,0,0,9.655-2.345,19.649,19.649,0,0,0,9.31-14.414c.345-2.759-1.379-4.552-4-4-2.207.483-4.414,1.1-6.689,1.586-4.759,1.1-9.586,2.207-14.345,3.379-2.828.621-5.655,1.241-8.414,1.931-1.793.414-3.31,2.621-2.759,4a8.433,8.433,0,0,0,1.793,3.034C250.492,330.484,255.182,333.794,261.733,333.173Zm-35.447-4.9c-.276.069-.552.069-.759.138a8.237,8.237,0,0,0,.276,2.276,29.223,29.223,0,0,0,5.586,8.483,29.885,29.885,0,0,0,12.069,8.414c3.724,1.379,7.31,2.9,11.379,2.759a15.243,15.243,0,0,1,1.724.345,18.181,18.181,0,0,0,4.276.552,53.865,53.865,0,0,0,6.552-1.034c.414-.069.759-.69,1.172-1.034a3.481,3.481,0,0,0-1.448-.69c-3.586.069-7.241.138-10.827.345a25.927,25.927,0,0,1-11.448-2.483,33.681,33.681,0,0,1-15.724-13.517C228.148,331.242,227.251,329.725,226.286,328.277Zm46.068,4.965c-3.379.483-5.517,2.965-8.621,2.552-2.828-.345-5.655-.345-8.62-.552a1.412,1.412,0,0,0,1.31,1.931c3.448.483,7.034,1.172,10.414-.069C268.7,336.415,270.906,335.932,272.354,333.242Zm-16.207-80.688a8.105,8.105,0,0,1-.759-.345,75.8,75.8,0,0,0-6.207,10.9c2.138-.276,2.207-.207,2.9-1.586,1.379-2.552,2.69-5.172,3.931-7.724A8.527,8.527,0,0,0,256.147,252.555Z" transform="translate(-94.24 -190.966)"/>
    <path id="XMLID_184_" class="cls-14" d="M59.944,340.122c-5.931-.483-10-3.931-13.1-8.62-1.724-2.552-.552-6.414,2.552-8.345a12.85,12.85,0,0,1,7.517-2.207c3.034.138,4.69,2.138,6,4.345.966,1.586-.483,3.448-2.621,3.724-.759.069-1.517,0-2.345,0-.69,0-1.31.069-2,.069.414,2,1.517,2.552,4.345,2,3.379-.621,5.172-1.724,4.69-6.276,1.379-.621,2.69-1.31,4-1.931,1.655-.759,2.414.759,3.172,1.172-.138,2.276-.207,4.414-.345,6.483a1.367,1.367,0,0,0,1.586,1.586c1.172-.069.9-.965.759-1.793a20.8,20.8,0,0,1-.138-3.586,4.763,4.763,0,0,1,3.1-4.207c2.414-1.1,3.586-3.31,4.758-5.586-1.862-.966-2.414.483-3.1,1.31a7.856,7.856,0,0,1-4.621,3.172c-2.069.414-3.655-.552-3.931-2.621a7.679,7.679,0,0,1,2.9-6.758,29.021,29.021,0,0,1,6.345-4.414c3.241-1.724,7.379.621,8.483,4.345,1.379,4.69.828,9.31-.414,13.862-2.138,8-1.724,6.827,3.241,12.207,5.448,5.862,10.758,11.793,16.138,17.655,4.207,4.552,8.414,9.1,12.551,13.655a37.294,37.294,0,0,1,3.862,4.276c2.069,3.172,5.241,4,8.62,4.552l21.724,3.517c2.414.414,4.827.9,7.379,1.31a32.61,32.61,0,0,1,1.379,18.551c-1.379-.276-2.69-.552-4-.828-3.586-.828-7.172-1.586-10.689-2.483-4.965-1.241-9.862-2.621-14.758-3.931-2.207-.621-4.483-1.1-6.689-1.655-2.965-.69-6-1.379-8.965-2.069-2.759-.621-4.276-2.759-5.931-4.758-5.517-6.827-11.1-13.586-16.551-20.482-4.965-6.276-9.724-12.689-14.827-18.827-1.931-2.276-3.517-4.965-6.69-6.138-1.931-.69-3.655-.414-5.517-.483C65.186,340.122,62.565,340.122,59.944,340.122ZM114.081,382.6c-.207.069-.414.138-.69.207.138.552.138,1.379.483,1.655a41.17,41.17,0,0,0,4.759,2.828c.414.207,1.1-.345,1.724-.552-.207-.483-.276-1.241-.621-1.448C117.874,384.328,115.943,383.5,114.081,382.6Z" transform="translate(-43.758 -216.466)"/>
    <path id="XMLID_181_" class="cls-14" d="M362.238,345.2c-2.069-4.69-4.138-9.31-6.138-13.931,5.586-5.172,11.241-10.483,16.965-15.724a9.632,9.632,0,0,0,3.172-5.31c1.793-7.1,3.517-14.207,5.379-21.31,1.172-4.552,2.552-8.965,3.724-13.517.759-2.69,1.31-5.448,2-8.207,2.828.552,5.379.965,7.931,1.655,4.207,1.1,4.276,1.172,3.31,5.517-1.172,5.586-2.621,11.034-3.862,16.62-.9,4.207-1.586,8.483-2.414,12.758-.9,4.827-2,9.655-2.759,14.482-.552,4-3.1,6.552-5.862,8.965-6.414,5.655-12.9,11.241-19.379,16.827A10.92,10.92,0,0,1,362.238,345.2ZM376.1,315.13c-1.31,1.379-2.414,2.552-3.586,3.724.827,1.034,1.655,1.31,2.689.414C377.2,317.475,377.272,317.337,376.1,315.13Z" transform="translate(-139.987 -204.094)"/>
    <path id="XMLID_180_" class="cls-14" d="M402.225,232.915a19.756,19.756,0,0,1,.483-2.483c.759-2.552.414-3.517-1.517-5.034-3.862-3.1-6.621-6.9-7.448-11.862a10.892,10.892,0,0,1,7.31-11.862,41.623,41.623,0,0,1,4.207-1.034c2.207-.483,4.414-.069,7.655,1.241.345,2.69-1.034,4.759-4.069,6-.9.414-1.793.965-2.69,1.31-.965.345-1.931.483-2.9.759.138,1.448.345,2.276,1.862,1.517a30.961,30.961,0,0,1,4.207-1.586c1.379-.483,2.689-1.241,4.345-.276.828.483,2,.345,3.241.483-1.724,3.034-4.759,4.9-6,8.138,1.172.552,1.724.621,2.552-.414,1.586-2.069,3.379-3.931,5.172-5.862a2.506,2.506,0,0,1,3.655-.483c3.31,2.345,6,.552,8.207-1.172a5.454,5.454,0,0,0,1.448-1.655c.207-.483-.069-1.172-.207-1.793-.483.276-.9.483-1.379.759a21.478,21.478,0,0,1-3.724,2.414c-2.621,1.034-4.552-.345-4.69-3.172a6.967,6.967,0,0,1,2.483-5.586c2.138-1.931,4.276-3.793,7.31-3.862,2.069-.069,2.9.69,3.724,2.621,2.207,5.241.759,10-1.517,14.827-1.862,4-5.172,6.414-8.551,8.827-2.965,2.069-6,4.138-8.9,6.345a6.157,6.157,0,0,0-2.345,4.069c-.207,1.517-1.034,1.931-2.552,1.448-1.448-.483-2.965-.552-4.483-.965C405.466,234.087,403.949,233.535,402.225,232.915Z" transform="translate(-151.63 -182.429)"/>
    <path id="XMLID_176_" class="cls-15" d="M323.043,564.642c-.69.069-1.448.138-2.207.138-15.862,0-31.654-.069-47.516.069a5.659,5.659,0,0,1-5.517-3.172,4.581,4.581,0,0,1-.276-3.173c.138-.483,1.517-.827,2.414-.827q25.965-.1,51.861,0c2.621,0,2.552.138,1.724,2.552A17.672,17.672,0,0,0,323.043,564.642Zm-10.9-3.724c-1.379-1.172-3.1-.621-4.621-.621-1.862,0-1.931.345-1.034,2.276C311.182,562.849,311.182,562.849,312.147,560.918Zm1.586.552a2.884,2.884,0,0,0,.276.69c1.655,0,3.379.069,5.034-.069.345,0,.69-.552.965-.828-.276-.345-.621-.966-.9-.966a25.167,25.167,0,0,0-4.552.207C314.285,560.573,314.009,561.125,313.733,561.47Z" transform="translate(-112.448 -294.23)"/>
    <path id="XMLID_175_" class="cls-16" d="M51.488,321.5c-2.207-4.621,1.1-10.483,6.483-10.207a15.681,15.681,0,0,1,10.689,4.345,2.616,2.616,0,0,1,.965,2.69,4.233,4.233,0,0,0-.069,2.069c.69,1.793-.621,2.621-1.724,3.1a2.606,2.606,0,0,1-3.379-.483C60.592,319.158,55.971,320.468,51.488,321.5Z" transform="translate(-45.233 -217.777)"/>
    <path id="XMLID_174_" class="cls-16" d="M212.821,336.262a15.122,15.122,0,0,0-2.9-.276,4.248,4.248,0,0,0-1.655.69c.345.414.621,1.034,1.034,1.172,1.241.552,2.552.9,4,1.448.965,3.655,2,7.517,3.034,11.31.345,1.172-.138,1.931-1.379,1.724-3.31-.483-6.276-1.862-7.586-5.034a58.835,58.835,0,0,1-3.034-10.689c-.828-4.276,2.207-6.965,6.965-6.62l.621,2.9C212.132,333.918,212.408,334.814,212.821,336.262Z" transform="translate(-92.844 -223.571)"/>
    <path id="XMLID_173_" class="cls-16" d="M422.849,204.293c.276-.759.483-1.379.69-2,.69-2,.828-3.931-.827-5.655a2.339,2.339,0,0,1-.276-2.138c1.1-2.207,2.069-4.552,4-6.276a5.388,5.388,0,0,1,6.414-.414,10.186,10.186,0,0,1,3.241,5.448c-2.69,1.862-5.655,3.379-6.827,6.689-.207.621-.621,1.172-.759,1.793-.483,2.69-1.241,3.31-3.931,3.1A15.817,15.817,0,0,1,422.849,204.293Z" transform="translate(-160.53 -179.186)"/>
    <path id="XMLID_172_" class="cls-13" d="M271.4,413.473c3.793-.069,7.586-.069,11.379-.276,3.724-.276,7.1-2.138,10.965-2-.207,5.448-6.207,9.586-11.1,9.931C277.676,421.4,271.952,417.2,271.4,413.473Z" transform="translate(-113.7 -248.783)"/>
    <path id="XMLID_171_" class="cls-16" d="M62.7,304.305c.9-1.931.828-3.931,2.483-5.379a5.616,5.616,0,0,1,4.827-1.655,12.463,12.463,0,0,1,10.138,7.586c-2,1.862-3.793,3.586-5.517,5.172a55.152,55.152,0,0,0-5.517-3.448A53.774,53.774,0,0,0,62.7,304.305Z" transform="translate(-48.927 -213.407)"/>
    <path id="XMLID_170_" class="cls-16" d="M331.19,303.637c-2.069-2.483-2.069,1.1-3.517.9-.345-1.793-.759-3.655-1.172-5.724,2.207-.207,4.276-1.172,6.069.759a4.132,4.132,0,0,1,1.1,1.586c.9,3.448,1.793,6.9,2.621,10.345.69,3.1-1.724,7.724-4.621,8.552l-1.448-5.586c-.069-.345-.069-.69-.138-1.034-.345-1.724-1.172-3.517-1.034-5.172C329.19,306.74,330.431,305.292,331.19,303.637Z" transform="translate(-130.8 -213.773)"/>
    <path id="XMLID_169_" class="cls-16" d="M254.52,236.4c-.138.414-.207.965-.483,1.1a42.839,42.839,0,0,0-5.172,2.138c-4.345,2.483-8.689,5.034-12.9,7.793-2.621,1.724-5.034,3.793-7.517,5.655l-.552-1.1c.759-4.758,3.172-8.414,7.655-10.345a61.5,61.5,0,0,1,8.551-2.69C247.486,237.986,251,237.228,254.52,236.4Z" transform="translate(-100.199 -194.535)"/>
    <path id="XMLID_168_" class="cls-2" d="M415.955,255.121c-.552,2.483-1.034,4.9-1.517,7.1-2.69.828-7.034-.621-12.138-2.069q.931-3.724,1.862-7.655C408.093,253.4,411.886,254.224,415.955,255.121Z" transform="translate(-154.326 -199.532)"/>
    <path id="XMLID_167_" class="cls-13" d="M418.692,187.837c-1.172,2.345-2.207,4.552-3.379,6.9-2.345.138-4.9.276-7.379.414a9.005,9.005,0,0,1,3.931-8.9C413.8,185.147,416,185.7,418.692,187.837Z" transform="translate(-156.028 -178.798)"/>
    <path id="XMLID_166_" class="cls-7" d="M206.412,461.662c-.965-5.172-.552-10.483-.552-15.862,1.31.276,2.483.483,3.655.759,1.862.414,2.483,1.1,2,2.828-1.241,4.138-2.69,8.276-4,12.413A9.427,9.427,0,0,0,206.412,461.662Z" transform="translate(-93.331 -259.524)"/>
    <path id="XMLID_165_" class="cls-17" d="M216.964,268.4c-1.655,2.138-3.448,4.207-4.965,6.483a17.305,17.305,0,0,0-2.828,8.62c0,.69-.621,1.448-.965,2.138-.69-2.69-1.793-5.172-1.1-8.138C208,273.43,212.343,268.12,216.964,268.4Z" transform="translate(-93.676 -204.462)"/>
    <path id="XMLID_164_" class="cls-18" d="M66.2,355h7.862C72.062,356.517,67.924,356.517,66.2,355Z" transform="translate(-50.014 -231.344)"/>
    <path id="XMLID_163_" class="cls-17" d="M310.309,454.6c1.241,6.965,2.069,13.586,1.1,20.413-.414,3.172-.552,6.483-1.241,9.586-1.241,5.793-3.241,11.379-6.965,16.138a67.365,67.365,0,0,1-5.034,5.793c-2.069,2.207-3.379,2.138-6.207,1.1-5.724-2.138-9.931-6.207-13.586-10.689a35.4,35.4,0,0,1-5.586-11.448A42.474,42.474,0,0,1,271,472.048c0-1.586.138-2.69,2.207-3.034,3.517-.69,6.9-1.862,10.414-2.69a65.475,65.475,0,0,0,14.344-5.448C301.9,458.807,305.827,456.807,310.309,454.6Z" transform="translate(-113.575 -262.256)"/>
    <path id="XMLID_159_" class="cls-19" d="M162.422,529.6h17.034c2.345,0,2.483.138,2.552,2.483.069,2.552-.138,5.172,0,7.724.414,6.9-5.655,14.069-11.379,15.379-6.414,1.448-12.9,1.793-18.9-.758-5.517-2.345-8.689-7.1-8.965-13.31-.138-3.1,0-6.207-.069-9.31-.069-1.724.69-2.276,2.345-2.207C150.836,529.667,156.629,529.6,162.422,529.6Zm14.62,3.1c.069-.207.207-.483.276-.69a7.187,7.187,0,0,0-2.345-.759q-8.276-.1-16.551,0a8.368,8.368,0,0,0-2.483.69,1.91,1.91,0,0,0,.069.621,9.233,9.233,0,0,0,1.793.621C160.974,533.666,175.594,533.253,177.042,532.7Zm-25.792-1.517a5.08,5.08,0,0,0-1.655.345c-.276.138-.276.69-.483,1.035a7.186,7.186,0,0,0,2.276.69,5.627,5.627,0,0,0,1.931-.759c-.207-.345-.276-.828-.552-.966A3.085,3.085,0,0,0,151.25,531.184Z" transform="translate(-73.754 -285.53)"/>
    <path id="XMLID_158_" class="cls-17" d="M205.69,534.907a6.131,6.131,0,0,1,1.241,4.483c-.138,1.862.138,3.862-.207,5.655-.552,2.414-1.655,4.69-4.414,5.448-.483.138-.828.621-1.241.9-.552-.069-1.172-.138-2.069-.276a15.452,15.452,0,0,0,1.517-3.586,53.7,53.7,0,0,0,.621-6.62c.069-1.172,0-2.414,0-3.586.069-2.414.276-2.62,2.69-2.62A9.067,9.067,0,0,0,205.69,534.907Z" transform="translate(-91.229 -287.116)"/>
    <path id="XMLID_157_" class="cls-13" d="M292.8,183.559a4.6,4.6,0,0,1,4.759-4.759c2.414,0,4.965,2.414,4.965,4.759a5.409,5.409,0,0,1-5.1,4.9A4.644,4.644,0,0,1,292.8,183.559Z" transform="translate(-120.34 -176.658)"/>
    <path id="XMLID_156_" class="cls-20" d="M147.012,234.041a3.2,3.2,0,0,1-3.379,3.1,2.972,2.972,0,0,1-3.034-3.31,3.232,3.232,0,0,1,3.172-3.034A3.282,3.282,0,0,1,147.012,234.041Z" transform="translate(-73.103 -192.797)"/>
    <path id="XMLID_155_" class="cls-17" d="M380.309,615.219A3.13,3.13,0,0,1,377,611.84a3.45,3.45,0,0,1,3.586-3.241c1.793.069,3.586,1.862,3.448,3.448A3.677,3.677,0,0,1,380.309,615.219Z" transform="translate(-146.472 -310.05)"/>
    <path id="XMLID_154_" class="cls-16" d="M230.6,615c0-1.172.483-1.931,1.793-2,1.172,0,2.759,1.517,2.69,2.621a2.506,2.506,0,0,1-2.621,1.931C231.219,617.483,230.529,616.517,230.6,615Z" transform="translate(-101.035 -311.417)"/>
    <path id="XMLID_153_" class="cls-13" d="M433.95,429.778c-.138,1.379-.966,2-2.552,1.793-1.241-.138-2.069-.759-2-2.138a2.527,2.527,0,0,1,2.828-2.345C433.329,427.227,434.088,428.261,433.95,429.778Z" transform="translate(-162.735 -253.709)"/>
    <path id="XMLID_152_" class="cls-20" d="M135.8,485.582c-1.172,0-1.931-.483-2-1.793,0-1.172,1.517-2.759,2.621-2.69a2.506,2.506,0,0,1,1.931,2.621C138.283,484.961,137.317,485.651,135.8,485.582Z" transform="translate(-70.994 -270.479)"/>
    <path id="XMLID_151_" class="cls-4" d="M390.434,465.722c-.759.138-1.586.276-2.345.345q-3.621.1-7.241,0A2.341,2.341,0,0,0,378.227,468c-1.448,5.172-3.034,10.345-4.621,15.448-1.1,3.517-2.345,6.965-3.448,10.414-.827,2.483-1.586,5.034-2.345,7.586-.552,1.724-1.1,3.448-1.655,5.1l-5.793,17.793c-.621,1.862-1.1,3.793-1.724,5.655a14.24,14.24,0,0,1-1.172,2.138c-1.31-2.069-.552-3.517-.138-4.9,1.379-4.483,2.9-8.965,4.276-13.448.69-2.138,1.31-4.276,2-6.345.759-2.276,1.517-4.552,2.276-6.758,1.517-4.483,3.034-8.9,4.483-13.379,1.379-4.483,2.552-9.034,3.931-13.517a84.644,84.644,0,0,1,2.965-7.931,2.377,2.377,0,0,1,1.517-1.172c3.724-.069,7.379,0,11.1.069.207,0,.414.276.552.414A.755.755,0,0,0,390.434,465.722Z" transform="translate(-140.184 -265.377)"/>
    <path id="XMLID_148_" class="cls-2" d="M430.9,509.965a14.642,14.642,0,0,1,9.241-11.931c1.586-.552,3.31-1.379,4.9-1.241,8,1.034,11.448,7.31,8.689,14.62-2.621,6.827-8.621,9.172-14.827,8.552a6.939,6.939,0,0,1-6.138-4.483A51.851,51.851,0,0,1,430.9,509.965Zm10.207,7.931c5.379.414,10.069-4.207,11.241-8.827a8.35,8.35,0,0,0-.207-5.517,7.36,7.36,0,0,0-6.276-4.345c-4.9-.345-8.345,2-10.965,5.517a9.307,9.307,0,0,0-1.862,6.207C433.659,515,436.21,518.31,441.107,517.9Z" transform="translate(-163.202 -275.346)"/>
    <path id="XMLID_147_" class="cls-4" d="M500.278,465.565a15.546,15.546,0,0,1-2.483.414c-4.138.069-8.276,0-12.414,0h-53.24a24.609,24.609,0,0,1-3.172-.276c0-.207-.069-.345-.069-.552.345-.207.69-.621,1.1-.69a10.378,10.378,0,0,1,2.069-.069h65.1a23.72,23.72,0,0,1,3.1.345Z" transform="translate(-162.581 -265.289)"/>
    <path id="XMLID_146_" class="cls-21" d="M415.538,464.3c1.31.138,2.621.207,4.345.345-1.931,1.724-3.1,1.655-4.483.276A2.015,2.015,0,0,1,415.538,464.3Z" transform="translate(-158.391 -265.266)"/>
    <path id="XMLID_143_" class="cls-1" d="M268.078,253.8c1.379,1.034.69,2.276.138,3.379-1.724,3.241-3.655,6.414-5.448,9.586-.069.138.069.345.138.828a23.426,23.426,0,0,0,3.172-.552,14.133,14.133,0,0,1,15.931,4c1.862,2.069,2.828,4.965,3.448,7.793,1.724,7.448,3.448,14.9,5.241,22.344a36.684,36.684,0,0,0,1.517,5.379,8.469,8.469,0,0,1-5.724,10.965,6.466,6.466,0,0,1-4.552,0,46.351,46.351,0,0,0-8.276-1.724c-3.517-.483-6.758.965-10.069,1.586a66.577,66.577,0,0,0-8.207,2.552,39,39,0,0,0-13.1,7.31c-3.034,2.483-6.276,3.793-10.276,2.414-3.724-1.241-5.655-4-6.621-7.586q-2.276-8.379-4.345-16.758c-1.172-4.9-2.414-9.724-3.31-14.689-.9-4.483,2.483-10.345,6.069-12.551,3.931-2.414,8.414-2.9,12.689-4.207,1.31-.414,2.69-.552,3.931-1.034,2.069-.69,3.448.759,5.1,1.448,1.517.621,2.9,1.793,4.483,2.138,3.379.69,5.379-.345,7.586-4.414,3.31-6,6.621-12,9.931-18.069C267.6,253.869,267.871,253.869,268.078,253.8Zm22.551,55.447c-.138-.759-.207-1.517-.414-2.276-1.31-4.9-2.758-9.793-4-14.758s-2.345-9.931-3.517-14.9c-.9-4-4.965-8.414-9.31-8.758-4.138-.345-7.862.759-11.724,1.724-.414.069-.759.621-1.034,1.034-1.034,1.517-1.931,3.1-2.965,4.483a7.505,7.505,0,0,1-7.1,3.034,13.791,13.791,0,0,1-6.207-2.621c-1.931-1.517-3.655-1.1-5.517-.69-3.31.759-6.552,1.793-9.862,2.552a11.718,11.718,0,0,0-8.62,7.862,10.042,10.042,0,0,0-.138,6.207c.966,3.862,1.655,7.862,2.621,11.724.621,2.483,1.448,4.9,2.069,7.31.759,3.034,1.31,6.207,2.138,9.241a12.672,12.672,0,0,0,1.931,4.414c3.172,4.069,8,4.276,11.655.965a40.084,40.084,0,0,1,11.31-6.965,71.746,71.746,0,0,1,14-4.414c4.827-.965,9.862-1.379,14.689.69a11.733,11.733,0,0,0,3.517.552C287.388,316.074,290.905,312.626,290.629,309.247Z" transform="translate(-96.998 -199.935)"/>
    <path id="XMLID_139_" class="cls-1" d="M277.82,372.482c-6.552.69-11.172-2.621-15.379-6.9a8.431,8.431,0,0,1-1.793-3.034c-.552-1.379.965-3.586,2.759-4,2.827-.69,5.655-1.241,8.414-1.931,4.758-1.1,9.586-2.207,14.344-3.379,2.207-.552,4.414-1.1,6.69-1.586,2.621-.552,4.345,1.241,4,4a19.648,19.648,0,0,1-9.31,14.413A14.251,14.251,0,0,1,277.82,372.482Zm15.172-12.276c-8.965,2-17.586,4-26.551,6C276.234,374.689,289.751,369.655,292.992,360.207Zm-29.723.965c.138,2.828.965,3.517,2.965,3.034,1.724-.414,3.448-.9,5.172-1.241,4.828-1.1,9.655-2.138,14.414-3.241,2.69-.621,5.448-1.241,8.345-1.931.069-1.31.207-2.552.345-4.414C283.682,355.655,273.476,358.483,263.269,361.172Z" transform="translate(-110.327 -230.274)"/>
    <path id="XMLID_138_" class="cls-21" d="M233.859,374.8c.965,1.517,1.931,2.965,2.828,4.483A33.682,33.682,0,0,0,252.41,392.8a25.925,25.925,0,0,0,11.448,2.483c3.586-.207,7.241-.276,10.827-.345.483,0,.965.483,1.448.69-.414.345-.759.965-1.172,1.035a51.822,51.822,0,0,1-6.552,1.034,23.442,23.442,0,0,1-4.276-.552c-.621-.069-1.172-.345-1.724-.345-4.069.207-7.655-1.31-11.379-2.759a32.971,32.971,0,0,1-17.655-16.9,8.237,8.237,0,0,1-.276-2.276C233.307,374.869,233.583,374.8,233.859,374.8Z" transform="translate(-101.813 -237.489)"/>
    <path id="XMLID_137_" class="cls-4" d="M293.218,382c-1.379,2.69-3.655,3.172-5.517,3.862-3.379,1.241-6.965.621-10.414.069a1.462,1.462,0,0,1-1.31-1.931c2.965.207,5.793.207,8.62.552C287.632,384.965,289.839,382.483,293.218,382Z" transform="translate(-115.104 -239.723)"/>
    <path id="XMLID_136_" class="cls-4" d="M274.365,264.814a6.079,6.079,0,0,1-.138,1.172c-1.31,2.621-2.621,5.172-3.931,7.724-.759,1.379-.759,1.379-2.9,1.586a97.406,97.406,0,0,1,6.207-10.9A7.531,7.531,0,0,0,274.365,264.814Z" transform="translate(-112.458 -203.225)"/>
    <path id="XMLID_135_" class="cls-22" d="M144.39,416.6c1.862.9,3.793,1.724,5.655,2.69.345.207.414.965.621,1.448-.552.207-1.31.759-1.724.552a41.188,41.188,0,0,1-4.759-2.828c-.345-.276-.345-1.1-.483-1.655A2.627,2.627,0,0,0,144.39,416.6Z" transform="translate(-74.067 -250.462)"/>
    <path id="XMLID_134_" class="cls-22" d="M383.486,336.7c1.172,2.207,1.1,2.345-.9,4.138-.966.9-1.793.621-2.69-.414C381.072,339.252,382.176,338.079,383.486,336.7Z" transform="translate(-147.374 -225.664)"/>
    <path id="XMLID_133_" class="cls-1" d="M329.49,562.066c-.966,1.931-.966,1.931-5.655,1.724-.966-1.931-.828-2.276,1.034-2.276C326.387,561.446,328.042,560.894,329.49,562.066Z" transform="translate(-129.79 -295.379)"/>
    <path id="XMLID_132_" class="cls-1" d="M334.6,562.672c.276-.345.483-.9.828-.966q2.276-.207,4.552-.207c.345,0,.621.621.9.966-.345.276-.621.828-.966.828-1.655.069-3.379.069-5.034.069A4.749,4.749,0,0,0,334.6,562.672Z" transform="translate(-133.314 -295.433)"/>
    <path id="XMLID_131_" class="cls-23" d="M183.034,533.425c-1.448.552-16.069.966-19.172.483a9.236,9.236,0,0,1-1.793-.621,1.91,1.91,0,0,0-.069-.621,11.141,11.141,0,0,1,2.483-.69q8.276-.1,16.551,0a8.423,8.423,0,0,1,2.345.759A6.393,6.393,0,0,0,183.034,533.425Z" transform="translate(-79.746 -286.254)"/>
    <path id="XMLID_130_" class="cls-24" d="M154.169,531.9a5.036,5.036,0,0,1,1.586.276c.276.138.414.621.552.965a5.628,5.628,0,0,1-1.931.759,7.184,7.184,0,0,1-2.276-.69c.138-.345.207-.9.483-1.034A6.377,6.377,0,0,1,154.169,531.9Z" transform="translate(-76.673 -286.246)"/>
    <path id="XMLID_127_" class="cls-13" d="M442.077,518.974c-4.9.345-7.448-2.9-8-6.965a9.307,9.307,0,0,1,1.862-6.207c2.621-3.586,6.069-5.862,10.965-5.517a7.545,7.545,0,0,1,6.276,4.345,8.37,8.37,0,0,1,.207,5.517C452.077,514.836,447.457,519.388,442.077,518.974Zm-5.655-8.207c0,4.207,2.552,6.9,6.758,6.621,4.138-.276,6.552-2.9,7.931-6.621a6.458,6.458,0,0,0-6.552-8.827A9.3,9.3,0,0,0,436.422,510.767Z" transform="translate(-164.173 -276.424)"/>
    <path id="XMLID_119_" class="cls-17" d="M295.651,364.1c-3.241,9.379-16.689,14.414-26.551,6C278.065,368.1,286.686,366.169,295.651,364.1Z" transform="translate(-112.986 -234.168)"/>
    <path id="XMLID_118_" class="cls-16" d="M264.5,361.962c10.207-2.69,20.413-5.586,31.31-7.862-.138,1.862-.207,3.1-.345,4.414-2.9.69-5.655,1.31-8.345,1.931-4.828,1.1-9.655,2.138-14.413,3.241l-5.172,1.241C265.466,365.548,264.638,364.789,264.5,361.962Z" transform="translate(-111.558 -231.064)"/>
    <path id="XMLID_115_" class="cls-2" d="M437.5,511.519a9.3,9.3,0,0,1,8.138-8.827,6.459,6.459,0,0,1,6.552,8.827c-1.448,3.724-3.862,6.345-7.931,6.621C440.052,518.416,437.5,515.8,437.5,511.519Zm6.138,4.069a6.948,6.948,0,0,0,6.345-4.276,4.713,4.713,0,0,0-1.448-5.793c-1.448-1.241-3.1-1.241-5.172.276a20.224,20.224,0,0,0-2.828,2.621c-1.448,1.517-1.241,3.379-.621,5.1A3.082,3.082,0,0,0,443.638,515.588Z" transform="translate(-165.25 -277.176)"/>
    <path id="XMLID_114_" class="cls-1" d="M303.072,298.515c-.828-.759-1.517-1.655-2.414-2.345a15.056,15.056,0,0,0-9.586-3.379,6.944,6.944,0,0,1-2.069-.069c-.414-.138-.69-.69-1.1-1.172,6.414-1.448,11.655-.138,15.793,4.759C304.451,297.274,304.038,297.756,303.072,298.515Z" transform="translate(-118.82 -211.479)"/>
    <path id="XMLID_113_" class="cls-1" d="M243.031,303.458c-2.207,1.862-4.414,3.517-6.414,5.379a8.074,8.074,0,0,0-2.69,4.965,10.639,10.639,0,0,1-1.1,2.621,2.431,2.431,0,0,1-1.172-2.965c1.1-5.034,4.621-7.931,8.621-10.483C241.238,302.492,241.651,302.63,243.031,303.458Z" transform="translate(-101.33 -215.111)"/>
    <path id="XMLID_112_" class="cls-1" d="M301.776,308.9a1.435,1.435,0,0,1-2.345.345,6.321,6.321,0,0,0-6.552-1.035,9.152,9.152,0,0,0-2.828,2,1.79,1.79,0,0,1-2.552.483c.966-3.241,3.724-4.345,6.483-5.172C296.6,304.76,300.258,306.484,301.776,308.9Z" transform="translate(-118.696 -215.93)"/>
    <path id="XMLID_111_" class="cls-1" d="M283.793,333.71c-4.69,2.345-9.793,2.965-14.965,4.138-.276-1.31-.345-2.069,1.034-2.345,3.034-.621,6-1.31,8.965-2,.621-.138,1.241-.552,1.862-.69C281.862,332.331,283.034,331.917,283.793,333.71Z" transform="translate(-112.851 -224.329)"/>
    <path id="XMLID_110_" class="cls-1" d="M239.762,326.287c-.483-3.034,1.172-4.552,2.552-5.862,2.483-2.345,5.655-2.552,8.9-1.724,1.1.276,1.448.965,1.1,1.931-.414,1.034-1.1.69-1.862.207-2.345-1.379-5.1-.345-7.379,2-.69.69-1.1,1.724-1.793,2.483A6.435,6.435,0,0,1,239.762,326.287Z" transform="translate(-103.854 -219.941)"/>
    <path id="XMLID_109_" class="cls-13" d="M444.49,516.487a3.157,3.157,0,0,1-3.793-2.069c-.621-1.724-.759-3.586.621-5.1a20.234,20.234,0,0,1,2.828-2.621c2.069-1.448,3.724-1.448,5.172-.276a4.713,4.713,0,0,1,1.448,5.793A6.71,6.71,0,0,1,444.49,516.487Z" transform="translate(-166.103 -278.075)"/>
  </g>
</svg>
