<svg xmlns="http://www.w3.org/2000/svg" viewBox="0 0 1204.444 1179.997"><defs><style>.a{fill:#fff;}.b,.c{stroke:none;}.c{fill:#4a4a4a;}</style></defs><g transform="translate(-124.556 -46)"><g class="a" transform="translate(12345 1824.001)"><path class="b" d="M -11953.998046875 -648.004150390625 L -12170.0009765625 -648.004150390625 L -12170.001953125 -864.2535400390625 L -12170.001953125 -867.576171875 L -12170.44140625 -870.869384765625 L -11743.8115234375 -1297.553344726562 L -11725.763671875 -1315.6015625 L -11729.794921875 -1340.80517578125 C -11732.5859375 -1358.25732421875 -11734.0009765625 -1376.154907226562 -11734.0009765625 -1394.000610351562 C -11734.0009765625 -1405.419555664062 -11733.419921875 -1416.929321289062 -11732.2744140625 -1428.2099609375 C -11731.146484375 -1439.311401367188 -11729.4443359375 -1450.468017578125 -11727.2138671875 -1461.368408203125 C -11722.8310546875 -1482.786376953125 -11716.2900390625 -1503.857421875 -11707.7734375 -1523.994140625 C -11699.4072265625 -1543.77392578125 -11689.0498046875 -1562.855712890625 -11676.9892578125 -1580.708374023438 C -11665.033203125 -1598.405151367188 -11651.30078125 -1615.04833984375 -11636.1748046875 -1630.174926757812 C -11621.046875 -1645.301513671875 -11604.404296875 -1659.033813476562 -11586.708984375 -1670.98876953125 C -11568.85546875 -1683.050170898438 -11549.7734375 -1693.407958984375 -11529.994140625 -1701.774169921875 C -11509.861328125 -1710.289794921875 -11488.791015625 -1716.83056640625 -11467.3662109375 -1721.214721679688 C -11456.46875 -1723.444580078125 -11445.3134765625 -1725.14697265625 -11434.2109375 -1726.2744140625 C -11422.9296875 -1727.420166015625 -11411.419921875 -1728.001220703125 -11400.0009765625 -1728.001220703125 C -11388.58203125 -1728.001220703125 -11377.072265625 -1727.420166015625 -11365.791015625 -1726.274536132812 C -11354.6865234375 -1725.146728515625 -11343.53125 -1723.444580078125 -11332.6357421875 -1721.214721679688 C -11311.2138671875 -1716.831176757812 -11290.142578125 -1710.290405273438 -11270.0078125 -1701.77392578125 C -11250.2265625 -1693.407104492188 -11231.14453125 -1683.04931640625 -11213.2919921875 -1670.98876953125 C -11195.5966796875 -1659.033569335938 -11178.9541015625 -1645.301147460938 -11163.8251953125 -1630.17333984375 C -11148.69921875 -1615.047973632812 -11134.9677734375 -1598.404907226562 -11123.0126953125 -1580.708374023438 C -11110.9521484375 -1562.8583984375 -11100.5947265625 -1543.776733398438 -11092.2265625 -1523.992797851562 C -11083.7109375 -1503.859985351562 -11077.1708984375 -1482.788940429688 -11072.7861328125 -1461.36572265625 C -11070.556640625 -1450.468139648438 -11068.8544921875 -1439.31201171875 -11067.7265625 -1428.208984375 C -11066.5810546875 -1416.927978515625 -11066 -1405.417724609375 -11066 -1394.000610351562 C -11066 -1382.583374023438 -11066.5810546875 -1371.072998046875 -11067.7265625 -1359.78955078125 C -11068.8544921875 -1348.68896484375 -11070.556640625 -1337.53271484375 -11072.787109375 -1326.633422851562 C -11077.1708984375 -1305.2119140625 -11083.7109375 -1284.14111328125 -11092.2265625 -1264.008178710938 C -11100.5947265625 -1244.22412109375 -11110.9521484375 -1225.142822265625 -11123.01171875 -1207.293579101562 C -11134.970703125 -1189.593383789062 -11148.7021484375 -1172.9501953125 -11163.826171875 -1157.826538085938 C -11178.9541015625 -1142.699340820312 -11195.5966796875 -1128.967407226562 -11213.2919921875 -1117.012329101562 C -11231.1455078125 -1104.951416015625 -11250.2275390625 -1094.593383789062 -11270.0078125 -1086.2265625 C -11290.1435546875 -1077.710571289062 -11311.21484375 -1071.169799804688 -11332.634765625 -1066.78662109375 C -11343.53125 -1064.556518554688 -11354.6865234375 -1062.854370117188 -11365.791015625 -1061.726806640625 C -11377.07421875 -1060.580932617188 -11388.583984375 -1060 -11400.0009765625 -1060 C -11431.7119140625 -1060 -11463.0654296875 -1064.427734375 -11493.1904296875 -1073.160400390625 L -11521.5712890625 -1081.387573242188 L -11542.466796875 -1060.492797851562 L -11646.95703125 -956.0027465820312 L -11750 -956.0027465820312 L -11800 -956.0027465820312 L -11800 -906.0027465820312 L -11800 -802.9588623046875 L -11802.95703125 -800.001953125 L -11902.0009765625 -800.001953125 L -11952.0009765625 -800.001953125 L -11952.0009765625 -750.001953125 L -11952.0009765625 -650.7883911132812 L -11953.970703125 -648.0365600585938 L -11953.998046875 -648.004150390625 Z"/><path class="c" d="M -12002.0009765625 -698.0040893554688 L -12002.0009765625 -750.0020751953125 L -12002.0009765625 -850.0020751953125 L -11902.0009765625 -850.0020751953125 L -11850 -850.0020751953125 L -11850 -906.0025634765625 L -11850 -1006.002563476562 L -11750 -1006.002563476562 L -11667.66796875 -1006.002563476562 L -11577.822265625 -1095.848022460938 L -11536.0322265625 -1137.637329101562 L -11479.2705078125 -1121.18359375 C -11453.669921875 -1113.762817382812 -11427 -1110.000122070312 -11400.0009765625 -1110.000122070312 C -11390.2626953125 -1110.000122070312 -11380.4521484375 -1110.494873046875 -11370.8427734375 -1111.470825195312 C -11361.400390625 -1112.429809570312 -11351.91796875 -1113.876586914062 -11342.658203125 -1115.771606445312 C -11324.4716796875 -1119.493041992188 -11306.5810546875 -1125.046264648438 -11289.486328125 -1132.276611328125 C -11272.677734375 -1139.386352539062 -11256.4599609375 -1148.190307617188 -11241.283203125 -1158.44287109375 C -11226.2236328125 -1168.617309570312 -11212.0576171875 -1180.305786132812 -11199.1806640625 -1193.1826171875 C -11186.3076171875 -1206.055297851562 -11174.6201171875 -1220.220825195312 -11164.44140625 -1235.285278320312 C -11154.1904296875 -1250.458374023438 -11145.3876953125 -1266.67529296875 -11138.2763671875 -1283.486328125 C -11131.046875 -1300.579833984375 -11125.4931640625 -1318.469604492188 -11121.7724609375 -1336.656372070312 C -11119.876953125 -1345.919311523438 -11118.4296875 -1355.40380859375 -11117.470703125 -1364.83935546875 C -11116.4951171875 -1374.452270507812 -11116 -1384.263549804688 -11116 -1394.000610351562 C -11116 -1403.737548828125 -11116.4951171875 -1413.548828125 -11117.4697265625 -1423.154052734375 C -11118.4296875 -1432.597290039062 -11119.876953125 -1442.081787109375 -11121.771484375 -1451.3427734375 C -11125.4931640625 -1469.531616210938 -11131.046875 -1487.421264648438 -11138.2763671875 -1504.514770507812 C -11145.3876953125 -1521.326049804688 -11154.1904296875 -1537.543334960938 -11164.443359375 -1552.717529296875 C -11174.6181640625 -1567.7783203125 -11186.3056640625 -1581.943603515625 -11199.1796875 -1594.817016601562 C -11212.0576171875 -1607.695068359375 -11226.2236328125 -1619.3837890625 -11241.283203125 -1629.557861328125 C -11256.458984375 -1639.810791015625 -11272.6767578125 -1648.6142578125 -11289.4853515625 -1655.723754882812 C -11306.5810546875 -1662.95458984375 -11324.470703125 -1668.5078125 -11342.6591796875 -1672.229858398438 C -11351.91796875 -1674.12451171875 -11361.400390625 -1675.5712890625 -11370.84375 -1676.5302734375 C -11380.4521484375 -1677.50634765625 -11390.2626953125 -1678.001098632812 -11400.0009765625 -1678.001098632812 C -11409.7392578125 -1678.001098632812 -11419.548828125 -1677.50634765625 -11429.1591796875 -1676.5302734375 C -11438.6005859375 -1675.571533203125 -11448.0830078125 -1674.12451171875 -11457.3427734375 -1672.229858398438 C -11475.533203125 -1668.50732421875 -11493.4228515625 -1662.954345703125 -11510.5166015625 -1655.723754882812 C -11527.322265625 -1648.615600585938 -11543.5400390625 -1639.811767578125 -11558.7177734375 -1629.558349609375 C -11573.7763671875 -1619.384033203125 -11587.9423828125 -1607.695556640625 -11600.8193359375 -1594.819580078125 C -11613.6953125 -1581.943603515625 -11625.3828125 -1567.7783203125 -11635.5576171875 -1552.7177734375 C -11645.8115234375 -1537.540283203125 -11654.615234375 -1521.32275390625 -11661.72265625 -1504.517822265625 C -11668.9541015625 -1487.420043945312 -11674.5078125 -1469.529052734375 -11678.228515625 -1451.347778320312 C -11680.1240234375 -1442.082275390625 -11681.5712890625 -1432.596313476562 -11682.5302734375 -1423.158325195312 C -11683.505859375 -1413.549072265625 -11684.0009765625 -1403.739013671875 -11684.0009765625 -1394.000610351562 C -11684.0009765625 -1378.791259765625 -11682.796875 -1363.550537109375 -11680.421875 -1348.701782226562 L -11672.3603515625 -1298.294311523438 L -11708.45703125 -1262.19775390625 L -12120.001953125 -850.6552124023438 L -12120.001953125 -698.0040893554688 L -12002.0009765625 -698.0040893554688 M -11953.998046875 -598.0040893554688 L -12170.0009765625 -598.0040893554688 C -12176.75 -598.0040893554688 -12183.2978515625 -599.3260498046875 -12189.4619140625 -601.9330444335938 C -12195.4169921875 -604.4518432617188 -12200.7646484375 -608.0568237304688 -12205.3564453125 -612.6483154296875 C -12209.9482421875 -617.2405395507812 -12213.5537109375 -622.5873413085938 -12216.072265625 -628.5405883789062 C -12218.6796875 -634.70458984375 -12220.001953125 -641.2520751953125 -12220.001953125 -648.0013427734375 L -12220.001953125 -864.2535400390625 C -12220.4990234375 -867.9780883789062 -12220.578125 -871.7620849609375 -12220.2353515625 -875.5003051757812 C -12219.8916015625 -879.258544921875 -12219.1220703125 -882.9797973632812 -12217.947265625 -886.56005859375 C -12216.7509765625 -890.2025756835938 -12215.1318359375 -893.7060546875 -12213.134765625 -896.9728393554688 C -12211.0791015625 -900.3353271484375 -12208.611328125 -903.46630859375 -12205.7998046875 -906.278564453125 L -11779.1669921875 -1332.908813476562 C -11782.375 -1352.966552734375 -11784.0009765625 -1373.521362304688 -11784.0009765625 -1394.000610351562 C -11784.0009765625 -1407.099853515625 -11783.333984375 -1420.309326171875 -11782.0185546875 -1433.262329101562 C -11780.7216796875 -1446.027099609375 -11778.763671875 -1458.855102539062 -11776.19921875 -1471.389770507812 C -11771.154296875 -1496.043823242188 -11763.6259765625 -1520.295288085938 -11753.82421875 -1543.470825195312 C -11744.19921875 -1566.22705078125 -11732.287109375 -1588.1728515625 -11718.419921875 -1608.698852539062 C -11704.681640625 -1629.033813476562 -11688.9052734375 -1648.154541015625 -11671.5302734375 -1665.52978515625 C -11654.1513671875 -1682.908081054688 -11635.0302734375 -1698.68408203125 -11614.69921875 -1712.419799804688 C -11594.169921875 -1726.2890625 -11572.2236328125 -1738.201049804688 -11549.4716796875 -1747.824340820312 C -11526.298828125 -1757.626098632812 -11502.046875 -1765.154052734375 -11477.390625 -1770.199584960938 C -11464.85546875 -1772.764526367188 -11452.02734375 -1774.722290039062 -11439.2626953125 -1776.0185546875 C -11426.3095703125 -1777.334106445312 -11413.099609375 -1778.001098632812 -11400.0009765625 -1778.001098632812 C -11386.90234375 -1778.001098632812 -11373.6923828125 -1777.334106445312 -11360.7392578125 -1776.0185546875 C -11347.97265625 -1774.722045898438 -11335.14453125 -1772.764282226562 -11322.611328125 -1770.199584960938 C -11297.9560546875 -1765.154296875 -11273.705078125 -1757.626342773438 -11250.5302734375 -1747.824340820312 C -11227.7763671875 -1738.200073242188 -11205.830078125 -1726.28857421875 -11185.3017578125 -1712.419799804688 C -11164.9677734375 -1698.681762695312 -11145.84765625 -1682.90576171875 -11128.470703125 -1665.52978515625 C -11111.095703125 -1648.154541015625 -11095.3193359375 -1629.033813476562 -11081.5810546875 -1608.698852539062 C -11067.712890625 -1588.17236328125 -11055.8017578125 -1566.226318359375 -11046.1767578125 -1543.470825195312 C -11036.3740234375 -1520.295043945312 -11028.8466796875 -1496.043579101562 -11023.8017578125 -1471.389770507812 C -11021.2373046875 -1458.855834960938 -11019.279296875 -1446.02783203125 -11017.982421875 -1433.262329101562 C -11016.6669921875 -1420.307861328125 -11016 -1407.098266601562 -11016 -1394.000610351562 C -11016 -1380.90283203125 -11016.6669921875 -1367.693359375 -11017.982421875 -1354.738525390625 C -11019.279296875 -1341.973266601562 -11021.2373046875 -1329.145263671875 -11023.8017578125 -1316.611328125 C -11028.8466796875 -1291.95751953125 -11036.3740234375 -1267.7060546875 -11046.1767578125 -1244.5302734375 C -11055.8017578125 -1221.774536132812 -11067.712890625 -1199.828857421875 -11081.5810546875 -1179.302368164062 C -11095.3203125 -1158.966796875 -11111.095703125 -1139.846069335938 -11128.470703125 -1122.471313476562 C -11145.84765625 -1105.095092773438 -11164.9677734375 -1089.319091796875 -11185.3017578125 -1075.581298828125 C -11205.830078125 -1061.712768554688 -11227.7763671875 -1049.801025390625 -11250.5302734375 -1040.176513671875 C -11273.705078125 -1030.374755859375 -11297.9560546875 -1022.846557617188 -11322.611328125 -1017.801574707031 C -11335.14453125 -1015.23681640625 -11347.97265625 -1013.279052734375 -11360.7392578125 -1011.982543945312 C -11373.6923828125 -1010.667053222656 -11386.90234375 -1010.000061035156 -11400.0009765625 -1010.000061035156 C -11436.423828125 -1010.000061035156 -11472.4609375 -1015.093078613281 -11507.111328125 -1025.137329101562 L -11626.24609375 -906.0025634765625 L -11750 -906.0025634765625 L -11750 -782.24853515625 L -11782.24609375 -750.0020751953125 L -11902.0009765625 -750.0020751953125 L -11902.0009765625 -630.247802734375 L -11913.3095703125 -618.9385375976562 C -11915.5712890625 -615.778076171875 -11918.2041015625 -612.8785400390625 -11921.134765625 -610.320556640625 C -11924.0771484375 -607.7525634765625 -11927.31640625 -605.5313110351562 -11930.763671875 -603.7185668945312 C -11934.2734375 -601.8738403320312 -11937.9990234375 -600.4518432617188 -11941.8388671875 -599.4927978515625 C -11945.7919921875 -598.5050659179688 -11949.8837890625 -598.0040893554688 -11953.998046875 -598.0040893554688 Z"/></g><g class="a" transform="translate(921 247)"><path class="b" d="M 104 133 C 88.00930023193359 133 75 119.9906997680664 75 104 C 75 88.00930023193359 88.00930023193359 75 104 75 C 119.9906997680664 75 133 88.00930023193359 133 104 C 133 119.9906997680664 119.9906997680664 133 104 133 Z"/><path class="c" d="M 104 0 C 161.4376373291016 0 208 46.56236267089844 208 104 C 208 161.4376373291016 161.4376373291016 208 104 208 C 46.56236267089844 208 0 161.4376373291016 0 104 C 0 46.56236267089844 46.56236267089844 0 104 0 Z"/></g></g></svg>