<svg xmlns="http://www.w3.org/2000/svg" viewBox="0 0 679.508 420.454"><defs><style>.a{fill:#ae44ff;}.a,.b{opacity:0.69;}.b{fill:#ff0083;}</style></defs><g transform="translate(-333.49 -822.999)"><path class="a" d="M-22073.252-6955c0-103.226,72.834-188.608,170.441-206.843a211.768,211.768,0,0,1,36.568-3.165c.846,0,1.68,0,2.521.015v158.067c-28.24,0-51.926,23.686-51.926,51.926s23.686,51.017,51.926,51.017A50.932,50.932,0,0,0-21812.7-6955c0-65.5,30.939-124.825,78.879-163.151a210.092,210.092,0,0,1,78.084,163.644,210.564,210.564,0,0,1-134.729,196.446,211.823,211.823,0,0,1-72.338,12.593C-21979.418-6745.47-22073.252-6838.391-22073.252-6955Z" transform="translate(22406.742 7988.011)"/><path class="b" d="M-21602.262-6903.984c29.148,0,51.928-22.773,51.928-51.015s-22.779-51.929-51.02-51.929-51.924,23.688-51.924,51.929c0,67.5-31.137,127.059-79.979,165.256a210.114,210.114,0,0,1-79.48-163.369c.021-.627.033-1.254.033-1.887,0-66.5,31.887-126.631,81.078-164.893a205.844,205.844,0,0,1,67.73-35.947,210.5,210.5,0,0,1,61.654-9.174c116.256,0,210.5,94.246,210.5,210.5,0,93.854-61.418,173.362-146.258,200.519a220.235,220.235,0,0,1-64.26,9.434Z" transform="translate(22404.742 7988.011)"/></g></svg>