<svg xmlns="http://www.w3.org/2000/svg" viewBox="0 0 51.028 42.669"><defs><style>.a{fill:#b7b7b7;stroke:#b7b7b7;}</style></defs><g transform="translate(0.546 -42.115)"><g transform="translate(0 42.636)"><path class="a" d="M49.371,43.018a1.649,1.649,0,0,0-1.67-.263L5.514,59.783a.833.833,0,0,0,.625,1.545l40.3-16.262L26.448,68.645a.833.833,0,1,0,1.271,1.077L48.014,45.785,45.3,59.4,42.569,77.657a.833.833,0,0,1-.417.606.787.787,0,0,1-.7.033l-11.36-4.467L24.64,71.546a.833.833,0,0,0-1.09.446.8.8,0,0,0-.035.176h-.02L20.788,82.618,16.9,69.053,37.146,53.976a.833.833,0,1,0-.995-1.333L15.806,67.791,1.14,61.854A.833.833,0,0,0,.516,63.4L15.26,69.364,19.191,83.09a1.652,1.652,0,0,0,1.593,1.194H20.8a1.637,1.637,0,0,0,1.083-.436.737.737,0,0,0,.083-.058l8.052-8.233,10.8,4.281a2.427,2.427,0,0,0,2.142-.12,2.492,2.492,0,0,0,1.255-1.808l2.725-18.223,3-15.045A1.675,1.675,0,0,0,49.371,43.018ZM23.123,80.233l1.758-6.778,2.754,1.156.71.282Z" transform="translate(0 -42.636)"/></g></g></svg>