<svg xmlns="http://www.w3.org/2000/svg" viewBox="0 0 828.443 755.8">
  <defs>
    <style>
      .cls-1 {
        fill: #f9f9f9;
      }

      .cls-2 {
        fill: #f8f8f8;
      }

      .cls-3 {
        fill: #fdfdfd;
      }

      .cls-4 {
        fill: #6d6d6d;
      }

      .cls-5 {
        fill: #e9e9e9;
      }

      .cls-6 {
        fill: #dfdfdf;
      }

      .cls-7 {
        fill: #f5f5f5;
      }

      .cls-8 {
        fill: #d5d5d5;
      }

      .cls-9 {
        fill: #dedede;
      }

      .cls-10 {
        fill: #d9d9d9;
      }

      .cls-11 {
        fill: #d7d7d7;
      }

      .cls-12 {
        fill: #fefefe;
      }

      .cls-13 {
        fill: #5e5e5e;
      }

      .cls-14 {
        fill: #5d5d5d;
      }

      .cls-15 {
        fill: #3c3c3c;
      }

      .cls-16 {
        fill: #fafafa;
      }

      .cls-17, .cls-20, .cls-21 {
        fill: #ff0083;
      }

      .cls-18 {
        fill: #e2e2e2;
      }

      .cls-19 {
        fill: #7f7f7f;
      }

      .cls-20, .cls-21 {
        font-size: 59px;
      }

      .cls-20 {
        font-family: Titillium-Light, Titillium;
        font-weight: 300;
      }

      .cls-21 {
        font-family: Titillium-Bold, Titillium;
        font-weight: 700;
      }

      .cls-22, .cls-24 {
        fill: none;
      }

      .cls-22 {
        stroke: #ff0083;
        stroke-width: 6px;
      }

      .cls-23 {
        stroke: none;
      }
    </style>
  </defs>
  <g id="NEDEN" transform="translate(-298.362 -22.7)">
    <g id="Group_626" data-name="Group 626" transform="translate(298.362 22.7)">
      <path id="Path_9202" data-name="Path 9202" class="cls-1" d="M321.549,179.453c0-8.093,7.419-11.465,9.442-18.209,12.814-11.465,20.907-26.3,33.721-37.093,21.582-18.884,43.837-37.767,70.139-49.907,18.884-8.767,37.093-18.209,57.326-23.6C516.455,43.9,531.967,39.174,554.9,40.523a146.686,146.686,0,0,1,48.558,0c10.116,0,19.558-1.349,29,3.372,9.442-.674,18.209,3.372,26.977,5.4,27.651,6.744,53.279,18.884,78.233,32.372,10.791,6.07,20.907,14.163,31.7,21.581,15.511,10.791,28.325,23.6,40.465,37.767,10.116,11.465,19.558,22.256,26.977,35.744,1.349,2.023,1.349,3.372,0,5.4-13.488,7.419-28.326,2.023-42.488,3.372-33.721,4.047-62.046-5.4-89.7-26.3-46.535-34.4-101.837-41.814-159.163-35.07-8.093.674-16.186,2.023-24.279.674-2.023-.674-3.372-1.349-5.4-2.023a20.524,20.524,0,0,1-5.4-5.4c-2.023-1.349-2.7-4.047-5.4-2.7l-.675,1.349a8.555,8.555,0,0,1-.674,4.047c0,7.419-2.7,14.163-9.442,16.86-24.953,9.442-45.86,26.977-68.116,41.139-8.093,5.4-15.511,6.744-24.279,6.744-25.628,0-50.581-1.349-76.209,1.349-2.023,0-3.372-.674-5.4-2.023A7.272,7.272,0,0,1,321.549,179.453Z" transform="translate(-172.919 68.058)"/>
      <path id="Path_9203" data-name="Path 9203" class="cls-2" d="M680.667,183.875c-8.093,2.7-16.86,6.07-24.954,8.767-2.023.674-4.046.674-6.744,1.349-2.023,2.023-5.4,1.349-6.744,3.372h-6.744c-2.023,2.023-5.4,1.349-6.744,3.372H617.946c-2.023,2.023-5.4,1.349-6.744,3.372H597.039c-2.7,3.372-7.419,0-10.791,3.372h-52.6c-2.7-3.372-7.419,0-10.791-3.372H505.318c-2.023-2.023-5.4-1.349-6.744-3.372-9.442,1.349-18.209-2.7-26.977-4.721a304.3,304.3,0,0,1-70.139-29.674c-9.442-5.4-18.209-12.14-26.977-18.209a5.112,5.112,0,0,1-1.349-2.7c-2.023-2.7-4.047-5.4-6.744-6.744H324.574c-1.349-2.7-.674-4.046,2.023-4.721,95.768-.674,191.535,0,262.349,0-70.139-.674-165.232.674-261,0a5.113,5.113,0,0,0-2.7-1.349c2.023-1.349,3.372-3.372,5.4-3.372,5.4-.674,10.116,0,15.511,0,2.023-3.372,1.349-8.767,6.744-10.791,6.744-2.023,14.163-1.349,20.907-1.349H746.76c8.093,0,17.535-2.7,24.954,4.721,1.349,3.372,2.023,7.419,3.372,10.791-5.4,6.744-15.512,0-20.907,6.744a392.768,392.768,0,0,1-44.512,29.674c-.675,0-.675.674-.675,1.349-2.023,2.023-2.023,4.047-3.372,6.07-1.349,2.7-3.372,5.4-6.744,6.07C692.807,185.9,686.063,179.828,680.667,183.875Z" transform="translate(-151.666 516.846)"/>
      <path id="Path_9210" data-name="Path 9210" class="cls-3" d="M313.406,413.546c-5.4-4.721-2.7-10.116-2.023-16.186,6.744-2.7,12.814-1.349,19.558-1.349h37.093c.675-3.372,2.023-6.07,2.023-8.767V369.035c-12.139-21.581-21.581-43.163-27.651-66.093-3.372-12.14-7.419-24.279-9.442-36.419,0-1.349-1.349-2.023-1.349-3.372,1.349-18.209-6.07-36.419-4.046-54.628q1.011-6.07,2.023-12.14a34.163,34.163,0,0,0,1.349-8.767c-1.349-22.256,7.418-42.488,10.791-64.07,6.07-9.442,6.744-21.581,13.489-31.023l2.023,2.023-2.023-2.023c3.372-8.093,6.744-16.186,10.791-24.279,1.349-2.7,4.046-4.721,6.744-6.744a10.488,10.488,0,0,1,4.046,5.4c1.349,4.046,1.349,8.093,1.349,12.139,0,104.535.674,209.744,0,314.279-.675,7.419-5.4,10.116-12.14,12.14-14.837,4.046-29.674,4.721-44.511,7.419-2.023.674-3.372.674-5.4,1.349A5.1,5.1,0,0,0,313.406,413.546Z" transform="translate(-230.869 200.174)"/>
      <path id="Path_9213" data-name="Path 9213" class="cls-4" d="M361.823,265.1c0-2.7-.675-5.4-.675-9.442,3.372-.674,6.07-2.023,8.768-2.023H411.73c3.372,0,6.744.674,9.442-2.7a14.685,14.685,0,0,1,5.4-3.372c2.7-1.349,6.07-2.023,8.767-3.372,20.907-3.372,41.14,5.4,62.047,5.4q106.221-1.012,212.442,0c23.6,0,45.86-4.721,68.791-6.744,4.721-.674,8.768-2.7,12.814-5.4,6.07-4.047,7.419-8.767,8.093-16.186,3.372-39.116,3.372-78.232,3.372-117.349,0-5.4-.675-11.465,4.046-16.186,3.372-2.023,6.07-.674,8.093,2.023,3.372,4.721,4.046,8.767,3.372,14.837-3.372,44.512-1.349,89.023-1.349,133.535,0,29,11.465,40.465,41.14,41.814,19.558.674,39.116-4.721,58.674-2.7h6.07c24.954,0,50.581,1.349,75.535-3.372a9.572,9.572,0,0,1,6.07,5.4c2.7,7.419,39.791,4.721,53.279,5.4,2.023.674,2.7,2.023,1.349,4.046-4.046,3.372-9.442,3.372-14.837,3.372-18.209,0-36.418,0-54.628.674H899.334c-4.047,0-8.093-.674-12.14-.674H305.172c-1.349,0-2.7-1.349-3.372-2.7a3.709,3.709,0,0,1,2.023-3.372h0c16.86-4.721,34.4-.674,51.93-2.7,4.721-.674,17.44,5.579,12.355-2.9s-6.285-21.629-6.96-22.978c-1.349-2.7.574,6.167,3.946,4.144,2.023-1.349,6.171,4.2,8.868,4.2,17.535,10.116,37.093,11.465,57.325,11.465q75.872-1.012,151.744,0c51.256.674,102.511,4.721,153.767,3.372,17.535-.674,33.721-3.372,53.279-5.4-8.768-10.116-16.861-6.07-23.6-6.744-4.047-.674-8.093-2.7-12.139-3.372-36.418-2.7-73.511-1.349-109.93-.674-4.721,0-7.419,2.7-10.791,4.047l-6.07,2.023c-66.767-6.744-134.209-1.349-200.976-3.372-17.535-.674-34.4,1.349-51.93-2.023A68.694,68.694,0,0,0,361.823,265.1Z" transform="translate(-278.612 345.246)"/>
      <path id="Path_9225" data-name="Path 9225" class="cls-4" d="M321.649,69.427a3.5,3.5,0,0,0,2.7-1.349c28.326-3.372,57.325,2.023,84.977-2.023,95.768-13.488,188.47,1.349,284.238.674,45.86-.674,94.785,2.7,140.645,0,2.7,0,4.721.674,6.07,2.7v2.7c0,4.046-2.023,6.744-5.4,8.767-8.767,4.046-18.209,3.372-27.651,3.372H666.276c-101.837-.674-203.674.674-305.511,0-10.791,0-22.256.674-33.046-2.023a21.083,21.083,0,0,1-7.419-6.07C320.974,73.474,320.974,71.45,321.649,69.427Z" transform="translate(-172.345 182.805)"/>
      <path id="Path_9231" data-name="Path 9231" class="cls-4" d="M426.2,63.2c1.349-.674-3.372-5.809-2.023-6.484.84.56.007-.609,2.023-1.015,2.1-.423,7.257-.172,9.207,1.015,2.317,1.3,1.584,22,1.584,28.74V384.221c0,6.07-1.349,12.814,1.349,19.558a33.848,33.848,0,0,0,8.093,1.349h36.418a61.707,61.707,0,0,1,11.465.674c4.046,5.4,2.023,9.442.674,14.163a9.555,9.555,0,0,1-7.419.674c-18.884-3.372-37.767-1.349-57.325-1.349-12.139-.674-16.186,12.14-25.628,15.512h-4.047c-8.093-6.07-6.744-15.512-6.744-23.6,4.047-56.651,4.721-112.628-2.023-168.6,0-4.047,2.023-6.744,5.4-7.419a13.6,13.6,0,0,1,12.139,4.047c4.721,8.093,4.047,16.86,4.047,25.628v97.791c0,7.419-2.023,14.837,5.4,21.581,6.07-5.4,5.4-12.814,5.4-18.884,0-93.744.674-188.163,0-281.907C424.172,73.988,424.172,68.593,426.2,63.2Z" transform="translate(238.364 194.43)"/>
      <path id="Path_9256" data-name="Path 9256" class="cls-4" d="M326.819,405.7c-1.349-1.349-2.7-2.023-4.046-3.372-3.372-6.07-1.349-12.814-1.349-18.884V90.074c0-6.07,1.349-12.814-1.349-18.884,0-1.349-.551-11.931,1.349-13.25s11.348-1.437,13.39.941c.866,1.009.951,2.469.643,4.385-.514,3.255-2.756,7.546-1.893,9.272,2.023,8.767,2.023,17.535,2.023,25.628V368.609c0,10.116.674,20.907-4.047,30.349C329.516,401.655,328.842,403.679,326.819,405.7Z" transform="translate(-177.515 193.856)"/>
      <path id="Path_9398" data-name="Path 9398" class="cls-2" d="M367.893,115.4c2.023,1.349,3.372,2.023,5.4,3.372-1.349,4.047-4.047,2.7-6.07,2.7H320.684c-6.07,0-12.814.674-18.884.674,1.349-3.372,4.047-4.046,6.744-4.046h49.907C361.823,118.1,365.87,118.772,367.893,115.4Z" transform="translate(-278.612 509.785)"/>
      <path id="Path_9407" data-name="Path 9407" class="cls-5" d="M419.167,73.9c4.721,0,8.767,4.721,8.093,8.767a8.535,8.535,0,0,1-9.442,8.093c-4.046-.674-7.418-4.047-7.418-8.093S414.446,73.9,419.167,73.9Z" transform="translate(345.206 271.402)"/>
      <path id="Path_9465" data-name="Path 9465" class="cls-3" d="M324.837,63.745a80.8,80.8,0,0,1-8.093,7.419c-2.023-.674-3.372-.674-4.047-1.349-2.7-1.349-4.721-4.046-2.7-6.744a12.367,12.367,0,0,1,6.744-4.721C320.116,57,322.814,59.024,324.837,63.745Z" transform="translate(-236.231 179.72)"/>
      <path id="Path_9466" data-name="Path 9466" class="cls-3" d="M403.658,41.672H355.1c1.349-1.349,2.7-3.372,4.046-3.372h41.14C400.96,38.3,402.309,40.323,403.658,41.672Z" transform="translate(27.552 66.909)"/>
      <path id="Path_9467" data-name="Path 9467" class="cls-6" d="M387.6,125.644c0-4.047,1.349-6.744,5.4-6.744h18.884a4.506,4.506,0,0,1,0,6.744Z" transform="translate(214.239 529.89)"/>
      <path id="Path_9560" data-name="Path 9560" class="cls-3" d="M336.9,143.363c.675-4.047.675-7.419,1.349-12.14,4.046-.674,8.767-1.349,12.814-2.023-1.349,1.349-2.023,3.372-3.372,3.372-4.721.674-6.744,2.7-7.419,7.419C340.272,140.665,338.249,142.014,336.9,143.363Z" transform="translate(-76.991 589.055)"/>
      <path id="Path_9561" data-name="Path 9561" class="cls-2" d="M351.063,140.863c-4.046-.674-7.418-.674-12.139-1.349-.674-4.047-1.349-8.767-2.023-12.814,1.349,1.349,3.372,2.023,3.372,3.372.675,4.721,2.7,6.744,7.419,7.419C349.039,137.491,349.714,139.514,351.063,140.863Z" transform="translate(-76.991 574.695)"/>
      <path id="Path_9563" data-name="Path 9563" class="cls-2" d="M348.563,126.6a67.231,67.231,0,0,0-1.349,10.791c-4.047,4.047-8.767,2.023-12.814,2.7,1.349-.674,2.7-2.7,4.047-2.7,4.721-.674,6.744-3.372,7.418-7.419C345.191,128.623,347.214,127.949,348.563,126.6Z" transform="translate(-91.352 574.12)"/>
      <path id="Path_9564" data-name="Path 9564" class="cls-3" d="M393.66,125.6v6.744q-5.058,4.046-10.116,0H376.8C381.521,127.623,387.591,126.949,393.66,125.6Z" transform="translate(152.201 568.376)"/>
      <path id="Path_9658" data-name="Path 9658" class="cls-3" d="M380.484,138.475c-.674-8.767,2.023-11.465,10.116-10.791C387.229,131.73,383.856,135.1,380.484,138.475Z" transform="translate(172.796 579.78)"/>
      <path id="Path_9663" data-name="Path 9663" class="cls-3" d="M312.288,119.747H298.8c1.349-3.372,4.047-4.047,6.744-4.047C308.242,116.374,310.94,116.374,312.288,119.747Z" transform="translate(-295.845 511.509)"/>
      <path id="Path_9699" data-name="Path 9699" class="cls-3" d="M371.1,132.3h14.163C379.193,137.021,377.17,137.021,371.1,132.3Z" transform="translate(119.459 606.862)"/>
      <path id="Path_9723" data-name="Path 9723" class="cls-3" d="M383.924,138.088c-4.721-2.023-3.372-6.744-3.372-10.116,1.349-1.349,2.023-2.7,3.372-3.372Z" transform="translate(172.728 562.632)"/>
      <path id="Path_9778" data-name="Path 9778" class="cls-3" d="M314.616,54.3V64.416C309.895,59.021,309.895,59.021,314.616,54.3Z" transform="translate(-225.335 158.816)"/>
      <path id="Path_9779" data-name="Path 9779" class="cls-3" d="M312.7,56.9h10.116C318.1,60.947,318.1,60.947,312.7,56.9Z" transform="translate(-216 173.751)"/>
      <path id="Path_9788" data-name="Path 9788" class="cls-3" d="M423.116,85.952c-2.023,4.721-6.744,3.372-10.116,3.372C415.023,84.6,419.07,85.952,423.116,85.952Z" transform="translate(360.141 339.606)"/>
      <path id="Path_9789" data-name="Path 9789" class="cls-3" d="M425.716,89.324c-3.372-.674-8.093,1.349-10.116-3.372C418.972,85.952,423.019,84.6,425.716,89.324Z" transform="translate(375.075 339.606)"/>
      <path id="Path_9790" data-name="Path 9790" class="cls-3" d="M412.9,86.8c3.372.674,8.093-1.349,10.116,3.372C419.644,90.172,415.6,91.521,412.9,86.8Z" transform="translate(359.566 345.502)"/>
      <path id="Path_9791" data-name="Path 9791" class="cls-3" d="M415.5,90.172c2.023-4.721,6.744-2.7,10.116-3.372C423.593,91.521,419.547,90.172,415.5,90.172Z" transform="translate(374.501 345.502)"/>
      <path id="Path_9804" data-name="Path 9804" class="cls-3" d="M301.317,116.3c1.349,2.023,2.7,4.721,4.047,6.744h-3.372C297.271,121.7,297.271,120.346,301.317,116.3Z" transform="translate(-298.362 514.955)"/>
      <path id="Path_9805" data-name="Path 9805" class="cls-3" d="M300.2,121.465c1.349-1.349,2.7-2.023,4.047-3.372a4.506,4.506,0,0,1,6.744,0c.674.674.674,2.023,1.349,2.7A73.3,73.3,0,0,1,300.2,121.465Z" transform="translate(-287.803 516.535)"/>
      <path id="Path_9806" data-name="Path 9806" class="cls-3" d="M330.2,119.9c6.07.674,6.07.674,6.744,6.744C334.246,125.97,331.549,123.272,330.2,119.9Z" transform="translate(-115.477 535.634)"/>
      <path id="Path_9807" data-name="Path 9807" class="cls-2" d="M377.8,126.6h10.116c-2.023,4.721-6.744,3.372-10.116,3.372Z" transform="translate(157.945 574.12)"/>
      <path id="Path_9808" data-name="Path 9808" class="cls-3" d="M334.4,129.484c4.047,0,8.093-1.349,10.116,2.7C341.144,132.181,337.1,133.53,334.4,129.484Z" transform="translate(-91.352 589.446)"/>
      <path id="Path_9809" data-name="Path 9809" class="cls-3" d="M335.9,129.7c4.721,2.023,2.7,6.744,3.372,10.116C334.551,138.467,336.574,133.747,335.9,129.7Z" transform="translate(-82.736 591.927)"/>
      <path id="Path_9810" data-name="Path 9810" class="cls-3" d="M353.5,129.7c4.046.674,8.093-1.349,10.791,3.372C360.244,133.072,355.523,134.421,353.5,129.7Z" transform="translate(18.362 591.927)"/>
      <path id="Path_9811" data-name="Path 9811" class="cls-3" d="M362.8,133.224c2.023-4.721,6.744-3.372,10.791-3.372C370.893,134.573,366.847,133.224,362.8,133.224Z" transform="translate(71.783 591.775)"/>
      <path id="Path_9812" data-name="Path 9812" class="cls-3" d="M353.816,135.247c-3.372,0-6.744.674-10.116.674C348.421,130.527,348.421,130.527,353.816,135.247Z" transform="translate(-37.931 603.914)"/>
      <path id="Path_9915" data-name="Path 9915" class="cls-3" d="M344.2,134.474c2.023,0,4.721-.674,6.744-.674C348.246,137.847,348.246,137.847,344.2,134.474Z" transform="translate(-35.059 615.478)"/>
      <path id="Path_9918" data-name="Path 9918" class="cls-3" d="M379.3,129.2h6.744C383.346,133.247,383.346,133.247,379.3,129.2Z" transform="translate(166.562 589.055)"/>
      <path id="Path_9919" data-name="Path 9919" class="cls-2" d="M378.344,131.854H371.6C374.972,128.482,374.972,128.482,378.344,131.854Z" transform="translate(122.332 589.773)"/>
      <path id="Path_9922" data-name="Path 9922" class="cls-3" d="M366.4,132.572c1.349-3.372,4.047-3.372,6.744-3.372C372.47,132.572,369.1,132.572,366.4,132.572Z" transform="translate(92.462 589.055)"/>
      <path id="Path_9926" data-name="Path 9926" class="cls-3" d="M349.9,129.2c2.7,0,5.4,0,6.744,3.372C353.947,132.572,351.249,132.572,349.9,129.2Z" transform="translate(-2.317 589.055)"/>
      <path id="Path_9928" data-name="Path 9928" class="cls-3" d="M369,132.072c1.349-3.372,4.047-3.372,6.744-3.372C375.07,132.072,371.7,132.072,369,132.072Z" transform="translate(107.397 586.183)"/>
      <path id="Path_9930" data-name="Path 9930" class="cls-3" d="M371.1,131.572c1.349-3.372,4.046-3.372,6.744-3.372C376.5,131.572,373.8,131.572,371.1,131.572Z" transform="translate(119.459 583.311)"/>
      <path id="Path_9931" data-name="Path 9931" class="cls-3" d="M378.3,127.7c2.7,0,5.4,0,6.744,3.372C382.346,131.072,379.649,130.4,378.3,127.7Z" transform="translate(160.818 580.439)"/>
      <path id="Path_9938" data-name="Path 9938" class="cls-3" d="M391.2,125.644V118.9C395.246,122.272,395.246,122.272,391.2,125.644Z" transform="translate(234.918 529.89)"/>
      <path id="Path_9939" data-name="Path 9939" class="cls-3" d="M326.585,122.272v3.372c-4.047-3.372-4.047-3.372,0-6.744h0C329.282,119.574,329.282,120.923,326.585,122.272Z" transform="translate(-153.676 529.89)"/>
      <path id="Path_9940" data-name="Path 9940" class="cls-3" d="M327.1,117.3h3.372c0,2.7,0,6.07-3.372,7.419Z" transform="translate(-133.284 520.699)"/>
      <path id="Path_9941" data-name="Path 9941" class="cls-2" d="M307.544,119.672H300.8V116.3h7.419A6.08,6.08,0,0,1,307.544,119.672Z" transform="translate(-284.356 514.955)"/>
      <path id="Path_9951" data-name="Path 9951" class="cls-3" d="M313.3,114.652a22.939,22.939,0,0,0,.675,6.744c-2.7-1.349-2.7-4.047-3.372-6.744l.675-.674C311.949,113.3,312.623,113.3,313.3,114.652Z" transform="translate(-228.063 499.069)"/>
      <path id="Path_9996" data-name="Path 9996" class="cls-3" d="M304.454,92v6.744C301.082,95.372,301.082,95.372,304.454,92Z" transform="translate(-277.894 375.372)"/>
      <path id="Path_9998" data-name="Path 9998" class="cls-3" d="M306.346,90.5c0,2.7-.674,5.4-4.047,6.744C302.3,93.872,302.974,91.174,306.346,90.5Z" transform="translate(-275.74 366.755)"/>
      <path id="Path_9999" data-name="Path 9999" class="cls-3" d="M309.644,89.9c-1.349,2.7-4.047,3.372-6.744,3.372C303.574,89.9,306.947,89.9,309.644,89.9Z" transform="translate(-272.293 363.309)"/>
      <path id="Path_10001" data-name="Path 10001" class="cls-3" d="M414.5,88.4h6.744C417.872,91.772,417.872,91.772,414.5,88.4Z" transform="translate(368.757 354.693)"/>
      <path id="Path_10004" data-name="Path 10004" class="cls-3" d="M421.244,87.385H414.5C417.872,83.338,417.872,83.338,421.244,87.385Z" transform="translate(368.757 331.429)"/>
      <path id="Path_10033" data-name="Path 10033" class="cls-3" d="M396.4,51.744V45C400.447,48.372,400.447,48.372,396.4,51.744Z" transform="translate(264.787 105.395)"/>
      <path id="Path_10035" data-name="Path 10035" class="cls-3" d="M404.2,26.672c1.349-3.372,4.046-3.372,6.744-3.372C409.6,26,406.9,26.672,404.2,26.672Z" transform="translate(309.592 -19.253)"/>
      <path id="Path_10036" data-name="Path 10036" class="cls-3" d="M408.8,29.544c.675-2.7.675-5.4,3.372-6.744C412.172,25.5,412.172,28.2,408.8,29.544Z" transform="translate(336.015 -22.126)"/>
      <path id="Path_10038" data-name="Path 10038" class="cls-3" d="M406.7,29.544c.674-2.7.674-5.4,3.372-6.744C410.072,25.5,410.072,28.2,406.7,29.544Z" transform="translate(323.952 -22.126)"/>
      <path id="Path_10039" data-name="Path 10039" class="cls-3" d="M373.144,22.7c-3.372,4.047-3.372,4.047-6.744,0Z" transform="translate(92.462 -22.7)"/>
      <path id="Path_10220" data-name="Path 10220" class="cls-2" d="M462.151,120.708c-13.488,0-26.977-.674-40.465-.674-5.4,0-10.116-.674-15.511-.674a2.355,2.355,0,0,1-.674-1.349c0-.674,1.95-1.671,1.95-2.346a1.405,1.405,0,0,1,2.7,0c17.535,0,33.795,1,51.329,1C463.5,118.01,463.5,119.359,462.151,120.708Z" transform="translate(317.059 511.221)"/>
      <path id="Path_10232" data-name="Path 10232" class="cls-1" d="M440.279,122.144c-6.744,0-14.163-.674-20.907-.674-1.349,2.7-2.023,2.7-3.372,0,0-1.349.675-3.372.675-4.721,1.349-.674,2.023-1.349,3.372-1.349l18.209,4.046C439.6,119.446,439.6,120.8,440.279,122.144Z" transform="translate(377.373 509.785)"/>
      <path id="Path_10237" data-name="Path 10237" class="cls-1" d="M419,122.47l4.046-6.07c3.372,0,6.744.674,10.791.674-1.349,3.372-2.023,5.4-2.7,7.419C426.418,123.819,423.046,123.144,419,122.47Z" transform="translate(394.606 515.53)"/>
      <path id="Path_10238" data-name="Path 10238" class="cls-4" d="M409.649,131.209l-3.372-3.372c-3.372-9.442,0-14.163,10.116-14.837,1.349,1.349,2.023,2.7,3.372,4.047C419.765,118.4,409.649,131.209,409.649,131.209Z" transform="translate(314.259 495.999)"/>
      <path id="Path_10245" data-name="Path 10245" class="cls-1" d="M413.9,119.846a8.552,8.552,0,0,1,.675-4.046c2.023.674,4.721.674,5.4,2.7,2.023,2.023,1.349,6.07-1.349,6.744-2.7,1.349-4.047-1.349-4.721-3.372Q413.9,120.858,413.9,119.846Z" transform="translate(365.31 512.083)"/>
      <path id="Path_10275" data-name="Path 10275" class="cls-2" d="M416,116.3h3.372c.675,2.023.675,4.721,1.349,6.744C416.675,122.37,416,119.672,416,116.3Z" transform="translate(377.373 514.955)"/>
      <path id="Path_10377" data-name="Path 10377" class="cls-7" d="M833.457,118.2v3.372H320.9c2.023-4.047,5.4-3.372,8.767-3.372H410.6c25.628-22.93,51.256-43.163,82.953-53.279a18.917,18.917,0,0,0,.675-3.372V58.175c-3.372-2.023-6.744-4.046-9.442-6.07C500.3,44.012,500.3,54.128,500.3,64.244c-.675-10.116,0-19.558,15.511-12.14,1.349,1.349,2.7,3.372,4.046,3.372,4.721,0,10.116,1.349,13.489,0,8.093-3.372,16.186-2.7,24.279-2.7s16.186.674,24.279,0c28.326-2.7,55.3,5.4,80.93,14.837,18.884,6.744,37.093,16.186,52.6,29.674,8.093,7.419,16.86,13.488,26.977,21.581C772.085,118.2,803.109,118.2,833.457,118.2Z" transform="translate(-168.898 129.314)"/>
      <path id="Path_10382" data-name="Path 10382" class="cls-7" d="M370.1,48.633c0,3.372-4.047,6.744-8.093,6.744-2.7,0-4.047-1.349-4.721-4.047a7.622,7.622,0,0,1,6.07-8.767C366.055,41.889,370.1,45.936,370.1,48.633Z" transform="translate(39.527 90.971)"/>
      <path id="Path_10383" data-name="Path 10383" class="cls-7" d="M350.474,55.344A22.946,22.946,0,0,0,349.8,48.6C354.521,51.972,354.521,51.972,350.474,55.344Z" transform="translate(-2.892 126.074)"/>
      <path id="Path_10384" data-name="Path 10384" class="cls-7" d="M347.962,48.6a22.946,22.946,0,0,1-.674,6.744C343.915,51.972,343.915,51.972,347.962,48.6Z" transform="translate(-31.402 126.074)"/>
      <path id="Path_10385" data-name="Path 10385" class="cls-8" d="M324,122.272V118.9H630.186c.675,0,.675.674,1.349.674v1.349c-.675.674-.675.674-1.349.674C528.349,122.272,426.511,122.272,324,122.272Z" transform="translate(-151.091 529.89)"/>
      <path id="Path_10386" data-name="Path 10386" class="cls-9" d="M457.2,121.549c0,.674-.675,2.7-1.349,2.7a19.952,19.952,0,0,1-6.744,1.349H383.691a33.85,33.85,0,0,1-8.093-1.349c-1.349-.674-1.349-2.7-2.7-4.047,10.791-1.349,71.488-2.023,81.6-.674A9.315,9.315,0,0,0,457.2,121.549Z" transform="translate(129.799 529.264)"/>
      <path id="Path_10419" data-name="Path 10419" class="cls-4" d="M320.074,62c.675,1.349,2.023,2.7,2.7,4.046.674,2.023,0,4.721,0,6.744V392.465H319.4V78.86A152.656,152.656,0,0,1,320.074,62Z" transform="translate(-177.515 203.046)"/>
      <rect id="Rectangle_263" data-name="Rectangle 263" class="cls-5" width="78" height="129" rx="3" transform="translate(546.238 460.8)"/>
      <path id="Path_10425" data-name="Path 10425" class="cls-3" d="M313.9,122.6c-.675-2.7-2.023-5.4-2.7-8.093,2.023-.674,4.047-2.023,6.07-2.023,4.046-.674,8.093,0,12.139,0H562.083c3.372,2.7,6.07,5.4,9.442,7.419,2.023,0,4.046,0,5.4.674,43.837,4.047,87.674,8.767,130.163-5.4.674-.674,1.349-2.023,2.7-2.023a196.145,196.145,0,0,1,39.791,0c5.4,8.093,1.349,16.186,2.7,22.93-2.7,4.047-6.07,3.372-8.767,3.372H348.967C334.13,141.487,321.99,136.092,313.9,122.6Z" transform="translate(-224.617 491.117)"/>
      <path id="Path_10426" data-name="Path 10426" class="cls-3" d="M478.463,91.384c3.372,2.023,5.4,4.047,6.07,8.093V278.2c0,2.7-.675,6.07-.675,8.767-3.372,1.349-6.07,3.372-9.442,3.372h-87c-8.093,0-10.116-2.7-10.116-10.791V95.431c1.349-5.4,5.4-8.767,11.465-8.767,27.651-.674,54.628-1.349,82.279,0A27.848,27.848,0,0,1,478.463,91.384Z" transform="translate(155.073 340.243)"/>
      <rect id="Rectangle_264" data-name="Rectangle 264" class="cls-10" width="92" height="138" rx="3" transform="translate(539.238 455.8)"/>
      <path id="Path_10427" data-name="Path 10427" class="cls-11" d="M801,216.718a59.3,59.3,0,0,0-6.744-4.047c-1.349-1.349-2.7-3.372-2.7-5.4-4.721-27.651-2.023-55.3-2.7-83.628-.674-32.372-5.4-37.767-37.093-37.767H382.862c-31.023,0-36.418,5.4-36.418,36.419V308.439c0,29,6.07,35.07,34.4,35.07H640.49c27.651,0,33.721-6.07,33.721-34.4,0-23.6-.675-47.884.674-71.488,0-8.093-1.349-18.209,9.442-22.256,1.349,0,2.023.674,3.372.674a177.751,177.751,0,0,0-1.349,18.884V368.462c0,4.047,1.349,8.093-3.372,10.791-.675-.674-2.023-1.349-2.7-2.023-11.465-12.814-27.651-13.488-43.163-13.488H369.374c-9.442,0-18.884,0-27.651-.674-10.791-.674-17.535-6.744-17.535-17.535-1.349-87.674-2.023-175.349,0-263.023,0-11.465,6.744-16.186,18.209-17.535,7.419-.674,14.837-.674,22.93-.674H769.3c41.139,0,42.488,1.349,42.488,41.814,0,29,.674,58,0,87C809.094,201.881,810.443,211.323,801,216.718Z" transform="translate(-157.349 216.258)"/>
      <path id="Path_10428" data-name="Path 10428" class="cls-1" d="M480.8,118.322c-3.372,4.721-6.744,9.442-10.116,14.837a40.711,40.711,0,0,1-26.3,6.744c-14.163-.674-29,0-43.163,0-2.7,0-6.07-.674-7.419-3.372.675-7.419,1.349-14.837,1.349-21.581,1.349-.674,2.7-2.023,3.372-2.023,21.581-1.349,68.791-.674,80.93.674C480.125,114.949,480.125,116.3,480.8,118.322Z" transform="translate(249.853 491.352)"/>
      <path id="Path_10429" data-name="Path 10429" class="cls-11" d="M321.074,121.8a6.081,6.081,0,0,1-.674-3.372c5.4-7.419,13.488-8.093,21.581-8.093,110.6-.674,221.209-.674,331.139,0,8.093,0,16.186.674,22.256,7.419l.675.674c-2.023,1.349-4.047,2.7-5.4,2.7H660.981C548.353,121.8,435.051,121.8,321.074,121.8Z" transform="translate(-171.77 477.762)"/>
      <path id="Path_10430" data-name="Path 10430" class="cls-12" d="M349.9,114.9c3.372-4.047,7.419-2.023,11.465-2.7H478.04c4.721,8.767-2.7,12.814-8.093,12.814-38.442,0-76.884,4.721-114.651-2.7C352.6,120.293,351.249,117.6,349.9,114.9Z" transform="translate(-2.317 491.404)"/>
      <path id="Path_10431" data-name="Path 10431" class="cls-13" d="M352.7,118.844a22.205,22.205,0,0,0,12.814,4.047h99.14a14.85,14.85,0,0,0,5.4-.674c4.721-1.349,8.093-4.047,7.418-10.116,2.7,1.349,4.721,2.023,7.419,3.372-4.047,10.116-11.465,14.837-22.93,14.163-31.023-.674-62.721,0-93.744,0-6.744,0-14.163,0-18.209-7.419C350,120.867,351.349,120.193,352.7,118.844Z" transform="translate(-1.743 490.829)"/>
      <path id="Path_10432" data-name="Path 10432" class="cls-14" d="M485.236,93.267c0,.674,2.29,3.953,2.29,4.627-1.349,1.349-4.313.094-4.988,1.443-26.3,0-53.279.674-79.581.674-4.047,0-8.093-.674-12.14,0-3.372.674-6.07,2.7-9.442,4.047-1.349-1.349-5.058-.914-3.372-4.047s2.7-7.809,10.115-8.483c29-2.7,58.675-7.7,87.675-5.005A9.524,9.524,0,0,1,485.236,93.267Z" transform="translate(150.998 332.29)"/>
      <path id="Path_10433" data-name="Path 10433" class="cls-15" d="M353.846,116.547c-1.349,1.349-2.023,2.7-3.372,3.372a2.478,2.478,0,0,1-.674-2.023c0-2.023.674-3.372.674-5.4A25.694,25.694,0,0,0,353.846,116.547Z" transform="translate(-2.892 493.127)"/>
      <path id="Path_10529" data-name="Path 10529" class="cls-12" d="M696.194,398.927c-6.07,0-12.814.674-18.884.674H321.218c0-2.7-.674-5.4-.674-8.767V65.09q-1.012-5.058,4.046-4.047H837.147c6.617-1.314,5.4,7.419,6.07,12.14V382.741c0,5.4.674,11.465-1.349,17.535-7.419,4.047-15.512,2.7-22.93,1.349-4.047-4.721-2.7-9.442-2.7-14.163V257.3c0-6.744,0-14.163-.674-20.907V98.811c0-1.349-.675-2.023-1.349-4.047a24.243,24.243,0,0,0-7.418-1.349H366.4c-6.07,0-12.814-.674-18.209.674-1.349,2.023-2.023,2.7-2.023,4.047-1.349,25.628-.674,262.349.675,275.837a28.982,28.982,0,0,0,8.093,1.349H677.311c6.07,0,12.814-.674,19.558,1.349C697.543,384.09,696.869,391.508,696.194,398.927Z" transform="translate(-171.914 196.584)"/>
      <path id="Path_10627" data-name="Path 10627" class="cls-16" d="M320.26,100.442a8.392,8.392,0,0,1-9.442,7.419c-4.047-.674-7.419-4.047-7.419-8.093A8.928,8.928,0,0,1,312.167,91,8.535,8.535,0,0,1,320.26,100.442Z" transform="translate(-269.421 369.627)"/>
      <path id="Path_10657" data-name="Path 10657" class="cls-1" d="M325.178,57.746c0,5.4-3.372,9.442-6.744,9.442-2.7,0-6.744-4.047-6.07-6.744.674-3.372,4.721-6.744,8.767-6.07C322.48,55.048,323.828,57.072,325.178,57.746Z" transform="translate(-218.362 158.742)"/>
      <path id="Path_10821" data-name="Path 10821" class="cls-7" d="M349.977,57.642a21.38,21.38,0,0,1-4.046,3.372,7.621,7.621,0,0,1-8.767-6.07c-.675-2.7,3.372-6.744,6.07-6.744C346.605,48.2,349.977,52.247,349.977,57.642Z" transform="translate(-75.906 123.777)"/>
      <path id="Path_10860" data-name="Path 10860" class="cls-10" d="M380.625,226.632c-.674-4.047-1.349-6.07-1.349-8.767-1.349-27.651,0-112.628,1.349-125.442l6.07-2.023h67.442a14.85,14.85,0,0,1,5.4.674c3.372.674,6.07,4.047,6.744,7.419,0,2.023.674,4.721.674,6.744V216.516c0,2.7-.674,5.4-.674,9.442-9.442,2.7-18.884,1.349-27.651,1.349H410.973C400.857,226.632,391.416,226.632,380.625,226.632Z" transform="translate(163.214 366.181)"/>
      <path id="Path_10861" data-name="Path 10861" class="cls-17" d="M395.54,111.7c5.4,0,12.139,6.744,12.139,12.14,0,6.07-5.4,12.14-11.465,12.14-7.418,0-12.814-4.047-12.814-10.791S389.47,111.7,395.54,111.7Z" transform="translate(190.113 488.532)"/>
      <path id="Path_10864" data-name="Path 10864" class="cls-5" d="M781.19,198.067H692.841c-7.419,0-14.837.674-20.232,7.419-4.047,2.7-2.7,7.419-2.7,11.465V339.694c-3.372.674-6.07,1.349-8.767,2.023H346.191c-6.07,0-12.814.674-18.209-.674-4.047-4.721-2.7-9.442-2.7-14.163V68.579c3.372-.674,6.07-2.023,8.767-2.023,4.046-.674,8.093,0,12.139,0H776.469c5.4,0,8.767,3.372,9.442,8.767V187.95C785.237,191.323,785.911,196.044,781.19,198.067Z" transform="translate(-144.957 227.491)"/>
      <rect id="Rectangle_265" data-name="Rectangle 265" class="cls-5" width="80" height="123" rx="2" transform="translate(545.238 464.8)"/>
      <path id="Path_10928" data-name="Path 10928" class="cls-4" d="M366.2,65.972c-2.023,1.349-3.372,2.7-4.721,2.023a2.577,2.577,0,0,1-2.023-3.372c0-.674,2.023-2.023,3.372-2.023C363.5,62.6,364.174,64.623,366.2,65.972Z" transform="translate(51.525 206.493)"/>
      <path id="Path_11066" data-name="Path 11066" class="cls-18" d="M384.1,117.952c1.349-2.023,2.023-3.372,3.372-4.047,2.7-1.349,5.4-2.023,8.093.674a6.154,6.154,0,0,1,0,8.093c-1.349,2.7-4.721,3.372-7.419,1.349C386.8,122,386.123,119.975,384.1,117.952Z" transform="translate(194.134 494.42)"/>
      <path id="Rectangle_246" data-name="Rectangle 246" class="cls-19" d="M0,0H115a5,5,0,0,1,5,5V17a5,5,0,0,1-5,5H5a5,5,0,0,1-5-5V0A0,0,0,0,1,0,0Z" transform="translate(211.238 331.8)"/>
      <path id="Rectangle_257" data-name="Rectangle 257" class="cls-19" d="M0,0H26.707a2.7,2.7,0,0,1,2.7,2.7v0a2.7,2.7,0,0,1-2.7,2.7H2.7A2.7,2.7,0,0,1,0,2.7V0A0,0,0,0,1,0,0Z" transform="translate(548.238 494.8)"/>
      <path id="Rectangle_252" data-name="Rectangle 252" class="cls-19" d="M5,0H120a0,0,0,0,1,0,0V17a5,5,0,0,1-5,5H5a5,5,0,0,1-5-5V5A5,5,0,0,1,5,0Z" transform="translate(391.238 395.8)"/>
      <path id="Rectangle_255" data-name="Rectangle 255" class="cls-19" d="M2.7,0H29.4a0,0,0,0,1,0,0V2.7a2.7,2.7,0,0,1-2.7,2.7H2.7A2.7,2.7,0,0,1,0,2.7v0A2.7,2.7,0,0,1,2.7,0Z" transform="translate(592.341 510.481)"/>
      <path id="Rectangle_250" data-name="Rectangle 250" class="cls-19" d="M0,0H145a5,5,0,0,1,5,5V17a5,5,0,0,1-5,5H5a5,5,0,0,1-5-5V0A0,0,0,0,1,0,0Z" transform="translate(211.238 363.8)"/>
      <path id="Rectangle_256" data-name="Rectangle 256" class="cls-19" d="M0,0H34.058a2.7,2.7,0,0,1,2.7,2.7v0a2.7,2.7,0,0,1-2.7,2.7H2.7A2.7,2.7,0,0,1,0,2.7V0A0,0,0,0,1,0,0Z" transform="translate(548.238 502.641)"/>
      <path id="Rectangle_251" data-name="Rectangle 251" class="cls-19" d="M5,0H180a0,0,0,0,1,0,0V58a5,5,0,0,1-5,5H5a5,5,0,0,1-5-5V5A5,5,0,0,1,5,0Z" transform="translate(331.238 426.8)"/>
      <path id="Rectangle_254" data-name="Rectangle 254" class="cls-19" d="M5,0H36.753a0,0,0,0,1,0,0V5.536a5,5,0,0,1-5,5H5a5,5,0,0,1-5-5V5A5,5,0,0,1,5,0Z" transform="translate(584.991 518.077)"/>
      <path id="Rectangle_248" data-name="Rectangle 248" class="cls-17" d="M0,0H131a5,5,0,0,1,5,5V31a5,5,0,0,1-5,5H5a5,5,0,0,1-5-5V0A0,0,0,0,1,0,0Z" transform="translate(211.238 512.8)"/>
      <path id="Rectangle_253" data-name="Rectangle 253" class="cls-19" d="M0,0H47.679a5,5,0,0,1,5,5V7.741a5,5,0,0,1-5,5H5a5,5,0,0,1-5-5V0A0,0,0,0,1,0,0Z" transform="translate(548.238 533.513)"/>
      <rect id="Rectangle_260" data-name="Rectangle 260" class="cls-4" width="39" height="4.664" rx="2.332" transform="translate(573.238 441.8)"/>
      <rect id="Rectangle_261" data-name="Rectangle 261" class="cls-4" width="5" height="4.664" rx="2.332" transform="translate(563.238 441.8)"/>
      <text id="_" data-name="+" class="cls-20" transform="translate(243.238 714.8)"><tspan x="-16.52" y="0">+</tspan></text>
      <text id="_2" data-name="+" class="cls-20" transform="translate(581.238 739.8)"><tspan x="-16.52" y="0">+</tspan></text>
      <text id="_3" data-name="+" class="cls-21" transform="translate(788.238 449.8)"><tspan x="-16.52" y="0">+</tspan></text>
      <text id="_4" data-name="+" class="cls-21" transform="translate(355.238 181.8)"><tspan x="-16.52" y="0">+</tspan></text>
      <g id="Ellipse_127" data-name="Ellipse 127" class="cls-22" transform="translate(248.238 165.8)">
        <circle class="cls-23" cx="14.5" cy="14.5" r="14.5"/>
        <circle class="cls-24" cx="14.5" cy="14.5" r="11.5"/>
      </g>
      <g id="Ellipse_128" data-name="Ellipse 128" class="cls-22" transform="translate(102.238 206.8)">
        <circle class="cls-23" cx="10.5" cy="10.5" r="10.5"/>
        <circle class="cls-24" cx="10.5" cy="10.5" r="7.5"/>
      </g>
      <g id="Ellipse_129" data-name="Ellipse 129" class="cls-22" transform="translate(42.238 457.8)">
        <circle class="cls-23" cx="15.5" cy="15.5" r="15.5"/>
        <circle class="cls-24" cx="15.5" cy="15.5" r="12.5"/>
      </g>
      <g id="Ellipse_130" data-name="Ellipse 130" class="cls-22" transform="translate(536.238 183.8)">
        <circle class="cls-23" cx="8.5" cy="8.5" r="8.5"/>
        <circle class="cls-24" cx="8.5" cy="8.5" r="5.5"/>
      </g>
      <g id="Ellipse_131" data-name="Ellipse 131" class="cls-22" transform="translate(651.238 148.8)">
        <circle class="cls-23" cx="8.5" cy="8.5" r="8.5"/>
        <circle class="cls-24" cx="8.5" cy="8.5" r="5.5"/>
      </g>
      <circle id="Ellipse_132" data-name="Ellipse 132" class="cls-5" cx="10" cy="10" r="10" transform="translate(598.238 199.8)"/>
      <rect id="Rectangle_266" data-name="Rectangle 266" class="cls-5" width="15" height="15" transform="translate(114.493 678.555) rotate(-30)"/>
      <rect id="Rectangle_267" data-name="Rectangle 267" class="cls-5" width="15" height="15" transform="translate(741.493 542.555) rotate(-30)"/>
      <rect id="Rectangle_268" data-name="Rectangle 268" class="cls-5" width="15" height="15" transform="translate(94.493 277.555) rotate(-30)"/>
      <rect id="Rectangle_269" data-name="Rectangle 269" class="cls-17" width="4" height="19" rx="2" transform="translate(127.238 293.8)"/>
      <rect id="Rectangle_271" data-name="Rectangle 271" class="cls-17" width="4" height="19" rx="2" transform="translate(686.238 550.8) rotate(180)"/>
      <rect id="Rectangle_270" data-name="Rectangle 270" class="cls-17" width="4" height="57" rx="2" transform="translate(127.238 317.8)"/>
      <rect id="Rectangle_272" data-name="Rectangle 272" class="cls-17" width="4" height="57" rx="2" transform="translate(686.238 526.8) rotate(180)"/>
    </g>
  </g>
</svg>
