<svg xmlns="http://www.w3.org/2000/svg" viewBox="0 0 78.861 98.523"><defs><style>.a{fill:#6d6d6d;}</style></defs><path class="a" d="M108.742,191.514H53.983V120.176a1.446,1.446,0,0,0-2.892,0V192a2.413,2.413,0,0,0,2.41,2.41h55.241a1.446,1.446,0,1,0,0-2.892Z" transform="translate(-51.091 -95.883)"/><path class="a" d="M129.542,13.076,117.251.438A1.446,1.446,0,0,0,116.214,0H53.5a2.413,2.413,0,0,0-2.41,2.41V13.689a1.446,1.446,0,0,0,2.892,0V2.892H115.6L127.06,14.671v80.96h-8.2a1.446,1.446,0,1,0,0,2.892h8.677a2.413,2.413,0,0,0,2.41-2.41V14.084A1.445,1.445,0,0,0,129.542,13.076Z" transform="translate(-51.091)"/><path class="a" d="M396.778,13.076,384.486.438A1.446,1.446,0,0,0,382,1.447V14.084a1.446,1.446,0,0,0,1.446,1.446h12.292a1.446,1.446,0,0,0,1.036-2.454ZM384.9,12.638V5.007l7.422,7.631H384.9Z" transform="translate(-318.327 0)"/><path class="a" d="M134.441,39.9H99.6a2.413,2.413,0,0,0-2.41,2.41V50.3a2.413,2.413,0,0,0,2.41,2.41h34.842a2.413,2.413,0,0,0,2.41-2.41V42.309A2.413,2.413,0,0,0,134.441,39.9Zm-.482,9.92H100.081V42.791h33.878Z" transform="translate(-88.318 -32.221)"/><path class="a" d="M118.811,144.574a1.446,1.446,0,0,0-2.026.276l-6.389,8.407-1.919-1.679a1.446,1.446,0,1,0-1.9,2.177l3.085,2.7a1.447,1.447,0,0,0,.952.358c.049,0,.1,0,.146-.007a1.446,1.446,0,0,0,1.005-.564l7.327-9.64A1.446,1.446,0,0,0,118.811,144.574Z" transform="translate(-95.498 -116.516)"/><path class="a" d="M239.489,144.277H203.067a1.446,1.446,0,0,0,0,2.892h36.422a1.446,1.446,0,0,0,0-2.892Z" transform="translate(-172.655 -116.514)"/><path class="a" d="M226.714,169.326H203.067a1.446,1.446,0,0,0,0,2.892h23.647a1.446,1.446,0,1,0,0-2.892Z" transform="translate(-172.655 -136.743)"/><path class="a" d="M232.112,194.376H203.067a1.446,1.446,0,0,0,0,2.892h29.045a1.446,1.446,0,1,0,0-2.892Z" transform="translate(-172.655 -156.973)"/><path class="a" d="M118.811,246.777a1.446,1.446,0,0,0-2.026.276L110.4,255.46l-1.919-1.679a1.446,1.446,0,1,0-1.9,2.177l3.085,2.7a1.447,1.447,0,0,0,.952.358c.049,0,.1,0,.146-.007a1.446,1.446,0,0,0,1.005-.564l7.327-9.64A1.446,1.446,0,0,0,118.811,246.777Z" transform="translate(-95.498 -199.052)"/><path class="a" d="M239.489,246.481H203.067a1.446,1.446,0,0,0,0,2.892h36.422a1.446,1.446,0,0,0,0-2.892Z" transform="translate(-172.655 -199.051)"/><path class="a" d="M226.714,271.53H203.067a1.446,1.446,0,0,0,0,2.892h23.647a1.446,1.446,0,1,0,0-2.892Z" transform="translate(-172.655 -219.28)"/><path class="a" d="M232.112,296.579H203.067a1.446,1.446,0,1,0,0,2.892h29.045a1.446,1.446,0,1,0,0-2.892Z" transform="translate(-172.655 -239.509)"/><path class="a" d="M239.489,348.685H203.067a1.446,1.446,0,0,0,0,2.892h36.422a1.446,1.446,0,0,0,0-2.892Z" transform="translate(-172.655 -281.588)"/><path class="a" d="M226.714,373.734H203.067a1.446,1.446,0,0,0,0,2.892h23.647a1.446,1.446,0,1,0,0-2.892Z" transform="translate(-172.655 -301.817)"/><path class="a" d="M232.112,398.783H203.067a1.446,1.446,0,0,0,0,2.892h29.045a1.446,1.446,0,1,0,0-2.892Z" transform="translate(-172.655 -322.046)"/><path class="a" d="M116.2,348.685h-7.712a2.413,2.413,0,0,0-2.41,2.41v7.712a2.413,2.413,0,0,0,2.41,2.41H116.2a2.413,2.413,0,0,0,2.41-2.41V351.1A2.413,2.413,0,0,0,116.2,348.685Zm-.482,9.641h-6.748v-6.748h6.748Z" transform="translate(-95.496 -281.588)"/></svg>