<svg xmlns="http://www.w3.org/2000/svg" viewBox="0 0 471.14 749.938"><defs><style>.a{fill:#adadad;}.b,.c,.e{fill:none;stroke-miterlimit:10;stroke-width:0.636px;}.b{stroke:#6d6d6d;}.b,.c{stroke-linecap:round;stroke-linejoin:round;}.c,.e{stroke:#414042;}.d{fill:#414042;stroke:#707070;}</style></defs><g transform="translate(-632.042 799.674) rotate(-90)"><path class="a" d="M143.762,384.1H123V378h20.762Zm-19.444-1.318h18.291v-3.46H124.318v3.46Z" transform="translate(54.302 635.194)"/><path class="a" d="M151.862,400.345H119.4V392.6h32.462Zm-31.144-1.153h29.825v-5.108H120.718Z" transform="translate(51.97 644.652)"/><path class="a" d="M142.32,389.469H123.7V380.9h18.62Zm-17.467-1.318H141v-5.932H124.853Z" transform="translate(54.756 637.073)"/><path class="a" d="M146.747,398.812H121.7V385.3h25.047Zm-23.728-1.318h22.575V386.618H123.018Z" transform="translate(53.46 639.923)"/><path class="a" d="M133.038,409.8H127.6V378h5.438Zm-4.12-1.154h2.966V379.318h-2.966Z" transform="translate(57.282 635.194)"/><rect class="a" width="4.284" height="1.318" transform="translate(178.456 1028.519)"/><rect class="a" width="4.284" height="1.318" transform="translate(178.456 1031.32)"/><rect class="a" width="4.284" height="1.318" transform="translate(178.456 1034.121)"/><rect class="a" width="4.284" height="1.318" transform="translate(192.627 1028.519)"/><rect class="a" width="4.284" height="1.318" transform="translate(192.627 1031.32)"/><rect class="a" width="4.284" height="1.318" transform="translate(192.627 1034.121)"/><path class="a" d="M129.851,382.328a1.249,1.249,0,0,1-.659-.33.725.725,0,0,1-.165-.824c.494-2.142,1.483-5.767,2.637-6.921A3.888,3.888,0,0,1,134.3,373.1a3.279,3.279,0,0,1,2.637,1.153h0a3.889,3.889,0,0,1,1.153,2.636,3.279,3.279,0,0,1-1.153,2.636c-.989,1.154-4.779,2.142-6.921,2.637C130.016,382.328,130.016,382.328,129.851,382.328Zm4.449-7.745h0a2.646,2.646,0,0,0-1.813.824c-.494.494-1.318,2.8-2.142,5.767,2.966-.824,5.108-1.648,5.6-2.142a2.478,2.478,0,0,0,.659-1.813,2.646,2.646,0,0,0-.824-1.813h0C135.618,374.748,134.959,374.583,134.3,374.583Z" transform="translate(58.162 632.02)"/><path class="a" d="M131.965,381.694h0c-1.977-.329-4.943-.989-5.932-1.812a3.143,3.143,0,0,1-.33-4.449h0a3.143,3.143,0,0,1,4.449-.33c.989.824,2.142,3.79,2.637,5.438a.725.725,0,0,1-.165.824A.856.856,0,0,1,131.965,381.694Zm.165-1.318Zm-5.438-4.12a1.84,1.84,0,0,0,.165,2.636,21.6,21.6,0,0,0,4.449,1.318,17.774,17.774,0,0,0-1.977-4.284,1.857,1.857,0,0,0-2.637.33Z" transform="translate(55.554 632.818)"/><rect class="a" width="13.512" height="1.318" transform="translate(189.661 1040.548)"/><rect class="a" width="13.512" height="1.318" transform="translate(171.7 1040.548)"/><rect class="a" width="1.318" height="1.318" transform="translate(192.462 1021.598)"/><rect class="a" width="1.318" height="1.318" transform="translate(181.751 1021.598)"/><path class="a" d="M3.625,12.979H3.46c-.33-.165-.659-.33-.659-.659L0,.62.659.456c.33,0,8.569-1.977,14.006,2.307l.165.165v7.909l-.824-.165S7.25,9.354,4.449,12.485A.9.9,0,0,1,3.625,12.979ZM3.3,11.826ZM1.318,1.609,3.79,11.5c2.8-2.636,7.745-2.307,9.557-1.977V3.751C9.228.62,3.3,1.28,1.318,1.609Z" transform="translate(638.089 803.827) rotate(17)"/><path class="a" d="M7.415,2.052a6.669,6.669,0,0,0-6.756,0L0,1.063a8.116,8.116,0,0,1,8.074,0Z" transform="translate(650.466 809.561) rotate(17)"/><path class="a" d="M3.955,2.307A6.3,6.3,0,0,1,0,.989L.824,0c.165.165,2.8,2.307,6.591,0l.659,1.153A8.716,8.716,0,0,1,3.955,2.307Z" transform="translate(648.18 817.038) rotate(17)"/><path class="a" d="M4.119,2.142a5.668,5.668,0,0,1-3.3-.824A1.793,1.793,0,0,1,0,.165L1.318,0s.494,1.483,6.1.494L7.58,1.812A30.153,30.153,0,0,1,4.119,2.142Z" transform="translate(637.166 816.428) rotate(17)"/><path class="a" d="M11.04,12.879a.856.856,0,0,1-.659-.33C7.58,9.418.824,10.737.824,10.737L0,10.9V2.992l.165-.165C5.6-1.457,13.842.356,14.171.52l.659.165-2.8,11.7c-.165.33-.33.659-.659.659C11.205,12.879,11.205,12.879,11.04,12.879ZM3.955,9.254c2.307,0,5.108.33,6.921,2.142l2.472-9.887C11.37,1.179,5.438.52,1.318,3.651V9.418A11.724,11.724,0,0,1,3.955,9.254Z" transform="translate(657.758 809.945) rotate(17)"/><path class="a" d="M3.46,2.142A30.2,30.2,0,0,1,0,1.813L.165.494c5.6.989,6.1-.494,6.1-.494L7.58.165a1.793,1.793,0,0,1-.824,1.153A5.668,5.668,0,0,1,3.46,2.142Z" transform="translate(658.282 822.884) rotate(17)"/><path class="a" d="M1.483,17.8a1.485,1.485,0,0,1-.824-.165A1.244,1.244,0,0,1,0,16.478V13.842l1.318.165v2.472c0,.165,0,.165.165.165h.165l3.625-2.636,4.284-.824v-.33C5.108,7.909,4.614.494,4.449.165L5.767,0s.659,7.25,4.779,11.864a1.281,1.281,0,0,1,.33,1.318,1.688,1.688,0,0,1-.824.989H9.887L5.767,15,2.142,17.632C1.977,17.8,1.813,17.8,1.483,17.8Z" transform="translate(649.593 821.433) rotate(17)"/><path class="a" d="M10.01,13.512h-.33L5.726,11.535,1.442,13.018H1.277a1.239,1.239,0,0,1-1.153-.824,1.805,1.805,0,0,1,0-1.318C1.112,8.9,3.749,3.955,4.078,0L5.4.165C5.067,4.12,2.6,8.9,1.277,11.37v.165h0l4.449-1.483,4.284,2.142h0v-.165C9.681,7.58,8.527,1.153,8.527,1.153L9.846.989S11,7.58,11.329,12.029a1.5,1.5,0,0,1-.494,1.153A1.259,1.259,0,0,1,10.01,13.512Z" transform="translate(642.445 819.592) rotate(17)"/><path class="a" d="M.659,2.158,0,1A11.18,11.18,0,0,1,5.108.016V1.334C2.472,1,.659,1.994.659,2.158Z" transform="translate(656.721 814.463) rotate(17)"/><path class="a" d="M4.12,1.977A11,11,0,0,0,0,1.318V0A13.6,13.6,0,0,1,4.779.824Z" transform="translate(646.036 810.524) rotate(17)"/><path class="a" d="M0,1.813V.494A12.294,12.294,0,0,0,2.8,0l.33,1.153A6.614,6.614,0,0,1,0,1.813Z" transform="translate(646.574 813.273) rotate(17)"/><path class="a" d="M7.25,14.5A7.315,7.315,0,0,1,0,7.25,7.315,7.315,0,0,1,7.25,0,7.315,7.315,0,0,1,14.5,7.25,7.315,7.315,0,0,1,7.25,14.5Zm0-13.182A5.932,5.932,0,1,0,13.182,7.25,5.907,5.907,0,0,0,7.25,1.318Z" transform="matrix(0.469, -0.883, 0.883, 0.469, 701.488, 912.445)"/><path class="a" d="M11.37,22.74A11.37,11.37,0,1,1,22.74,11.37,11.393,11.393,0,0,1,11.37,22.74Zm0-21.421A10.052,10.052,0,1,0,21.421,11.37,10.2,10.2,0,0,0,11.37,1.318Z" transform="matrix(0.469, -0.883, 0.883, 0.469, 695.917, 914.148)"/><path class="a" d="M3.625,25.376A2,2,0,0,1,1.648,23.4V16.808a12.718,12.718,0,0,1,.33-2.472l.165-.494c0-.33,0-.494-.165-.659L0,11.205V7.086A7.728,7.728,0,0,1,1.813,1.977,4.276,4.276,0,0,1,5.273,0h.659V23.4A2.633,2.633,0,0,1,3.625,25.376ZM1.153,10.711l1.483,1.483a1.86,1.86,0,0,1,.494,1.813l-.165.494a11.339,11.339,0,0,0-.33,2.142v6.591a.778.778,0,0,0,.824.824.778.778,0,0,0,.824-.824V1.154A3.456,3.456,0,0,0,2.472,2.472,6.9,6.9,0,0,0,.989,6.921v3.79Z" transform="matrix(0.469, -0.883, 0.883, 0.469, 691.504, 919.64)"/><rect class="a" width="1.318" height="6.262" transform="matrix(0.469, -0.883, 0.883, 0.469, 707.139, 889.882)"/><path class="a" d="M4.12,25.706a1.9,1.9,0,0,1-1.977-1.977V13.018A7.037,7.037,0,0,0,.494,8.733,2.784,2.784,0,0,1,0,7.086V0H8.239V7.086a2.784,2.784,0,0,1-.494,1.648A7.76,7.76,0,0,0,6.1,13.018V23.728A1.9,1.9,0,0,1,4.12,25.706ZM1.318,1.318V7.25a1.258,1.258,0,0,0,.33.824A8.71,8.71,0,0,1,3.46,13.018V23.729a.709.709,0,0,0,.659.659.709.709,0,0,0,.659-.659V13.018A8.71,8.71,0,0,1,6.591,8.074c.165-.33.33-.494.33-.824V1.318Z" transform="matrix(0.469, -0.883, 0.883, 0.469, 705.224, 892.783)"/><path class="a" d="M164.4,399.227c-4.943,0-8.4-8.074-8.4-12.523a8.4,8.4,0,0,1,16.808,0C172.972,391.153,169.512,399.227,164.4,399.227Zm0-19.609a7.315,7.315,0,0,0-7.25,7.25c0,4.284,3.3,11.205,7.25,11.205,3.79,0,7.25-6.921,7.25-11.205A7.315,7.315,0,0,0,164.4,379.618Z" transform="translate(617.782 510.169)"/><path class="a" d="M164,395.03h-3.625a.906.906,0,0,1-.824-.494,1.051,1.051,0,0,1,0-.989l1.813-2.8a1.1,1.1,0,0,1,1.648,0l1.813,2.8a1.05,1.05,0,0,1,0,.989A.906.906,0,0,1,164,395.03Zm-2.966-1.318H163.5l-1.318-1.977Z" transform="translate(620.001 517.991)"/><path class="a" d="M169.356,396.692a5.075,5.075,0,0,1-2.142-.494l.494-1.154a2.449,2.449,0,0,0,1.483.33c3.79,0,7.25-6.921,7.25-11.205a7.315,7.315,0,0,0-7.25-7.25,7.545,7.545,0,0,0-5.6,2.637l-.989-.824a8.436,8.436,0,0,1,15,5.273C177.925,388.618,174.464,396.692,169.356,396.692Z" transform="translate(622.057 508.42)"/><path class="a" d="M169.6,392.43h-3.625a.906.906,0,0,1-.824-.494,1.051,1.051,0,0,1,0-.989l1.813-2.8a1.1,1.1,0,0,1,1.648,0l1.813,2.8a1.05,1.05,0,0,1,0,.989A.906.906,0,0,1,169.6,392.43Zm-2.966-1.318H169.1l-1.318-1.977Z" transform="translate(623.628 516.307)"/><path class="a" d="M172.443,383.232h-1.318c0-3.131-3.625-4.779-3.625-4.779l.494-1.153C168.159,377.465,172.443,379.277,172.443,383.232Z" transform="translate(625.232 509.521)"/><path class="a" d="M162.445,398.567h0a7,7,0,0,1-1.813-5.767l1.318.165a5.794,5.794,0,0,0,1.483,4.779h0Z" transform="translate(620.729 519.562)"/><path class="a" d="M168.245,395.967h0a7,7,0,0,1-1.813-5.767l1.318.165a5.794,5.794,0,0,0,1.483,4.779h0Z" transform="translate(624.486 517.878)"/><path class="a" d="M66.9,410.2a17.3,17.3,0,1,1,0-34.6,16.919,16.919,0,0,1,9.722,2.966l-.659.989a15.931,15.931,0,0,0-9.063-2.8,16.188,16.188,0,1,0,13.347,7.086l.989-.659A16.918,16.918,0,0,1,84.2,392.9,17.3,17.3,0,0,1,66.9,410.2Z" transform="translate(495.59 466.457)"/><path class="a" d="M62.821,395.642a6.921,6.921,0,1,1,6.921-6.921A6.857,6.857,0,0,1,62.821,395.642Zm0-12.358a5.6,5.6,0,1,0,5.6,5.6A5.556,5.556,0,0,0,62.821,383.283Z" transform="translate(499.671 470.473)"/><path class="a" d="M54.518,390.57H53.2A11.393,11.393,0,0,1,64.57,379.2v1.318A9.885,9.885,0,0,0,54.518,390.57Z" transform="translate(497.922 468.789)"/><path class="a" d="M52.718,391.671H51.4A14.17,14.17,0,0,1,65.571,377.5v1.318A12.763,12.763,0,0,0,52.718,391.671Z" transform="translate(496.756 467.687)"/><path class="a" d="M66.724,398.31l-.824-.824,1.648-1.648V375.9h1.318v20.433Z" transform="translate(506.15 466.651)"/><rect class="a" width="3.296" height="1.318" transform="matrix(0.707, 0.707, -0.707, 0.707, 571.864, 862.83)"/><rect class="a" width="1.318" height="4.779" transform="translate(572.158 863.937) rotate(45.032)"/><path class="a" d="M61.2,390a2.8,2.8,0,1,1,2.8-2.8A2.888,2.888,0,0,1,61.2,390Zm0-4.449a1.648,1.648,0,0,0,0,3.3,1.557,1.557,0,0,0,1.648-1.648A1.651,1.651,0,0,0,61.2,385.553Z" transform="translate(501.291 472.157)"/><rect class="a" width="0.848" height="2.121" transform="translate(398.55 764.46)"/><rect class="a" width="0.848" height="2.121" transform="translate(398.55 767.642)"/><rect class="a" width="0.848" height="2.121" transform="translate(398.55 772.308)"/><rect class="a" width="0.848" height="2.121" transform="translate(398.55 775.49)"/><rect class="a" width="2.121" height="0.848" transform="translate(403.535 770.611)"/><rect class="a" width="2.121" height="0.848" transform="translate(400.247 770.611)"/><rect class="a" width="2.121" height="0.848" transform="translate(395.581 770.611)"/><rect class="a" width="2.121" height="0.848" transform="translate(392.399 770.611)"/><rect class="a" width="2.121" height="0.848" transform="translate(402.445 773.898) rotate(45)"/><rect class="a" width="2.121" height="0.848" transform="translate(400.185 771.684) rotate(45)"/><rect class="a" width="2.121" height="0.848" transform="translate(396.861 768.27) rotate(45)"/><rect class="a" width="2.121" height="0.848" transform="translate(394.593 766.052) rotate(45)"/><rect class="a" width="0.848" height="2.121" transform="translate(395.496 773.901) rotate(45)"/><rect class="a" width="0.848" height="2.121" transform="translate(397.71 771.642) rotate(45)"/><rect class="a" width="0.848" height="2.121" transform="translate(401.15 768.32) rotate(45)"/><rect class="a" width="0.848" height="2.121" transform="translate(403.342 766.049) rotate(45)"/><rect class="a" width="0.848" height="2.439" transform="translate(411.171 770.505)"/><rect class="a" width="0.848" height="2.439" transform="translate(411.171 775.383)"/><rect class="a" width="0.848" height="2.439" transform="translate(414.646 772.227) rotate(63.973)"/><rect class="a" width="0.848" height="2.439" transform="translate(410.308 774.302) rotate(63.973)"/><rect class="a" width="2.439" height="0.848" transform="translate(412.806 774.412) rotate(29.434)"/><rect class="a" width="2.439" height="0.848" transform="translate(408.556 772.042) rotate(29.434)"/><rect class="a" width="0.848" height="2.015" transform="translate(404.383 778.777)"/><rect class="a" width="0.848" height="2.015" transform="translate(404.383 785.777)"/><rect class="a" width="0.848" height="2.015" transform="translate(407.655 779.803) rotate(45)"/><rect class="a" width="0.848" height="2.015" transform="translate(402.835 784.779) rotate(45)"/><rect class="a" width="2.015" height="0.848" transform="matrix(0.707, 0.707, -0.707, 0.707, 406.873, 784.772)"/><rect class="a" width="2.015" height="0.848" transform="matrix(0.707, 0.707, -0.707, 0.707, 401.905, 779.776)"/><rect class="a" width="2.015" height="0.848" transform="translate(407.247 782.913)"/><rect class="a" width="2.015" height="0.848" transform="translate(400.247 782.913)"/><rect class="a" width="0.848" height="2.121" transform="translate(193.285 660.396)"/><rect class="a" width="0.848" height="2.121" transform="translate(193.285 663.577)"/><rect class="a" width="0.848" height="2.121" transform="translate(193.285 668.244)"/><rect class="a" width="0.848" height="2.121" transform="translate(193.285 671.425)"/><rect class="a" width="2.121" height="0.848" transform="translate(198.27 666.547)"/><rect class="a" width="2.121" height="0.848" transform="translate(194.982 666.547)"/><rect class="a" width="2.121" height="0.848" transform="translate(190.316 666.547)"/><rect class="a" width="2.121" height="0.848" transform="translate(187.134 666.547)"/><rect class="a" width="2.121" height="0.848" transform="translate(197.18 669.834) rotate(45)"/><rect class="a" width="2.121" height="0.848" transform="translate(194.92 667.62) rotate(45)"/><rect class="a" width="2.121" height="0.848" transform="translate(191.596 664.206) rotate(45)"/><rect class="a" width="2.121" height="0.848" transform="translate(189.328 661.988) rotate(45)"/><rect class="a" width="0.848" height="2.121" transform="translate(190.231 669.837) rotate(45)"/><rect class="a" width="0.848" height="2.121" transform="translate(192.445 667.578) rotate(45)"/><rect class="a" width="0.848" height="2.121" transform="translate(195.885 664.256) rotate(45)"/><rect class="a" width="0.848" height="2.121" transform="translate(198.077 661.985) rotate(45)"/><rect class="a" width="0.848" height="2.439" transform="translate(205.906 666.441)"/><rect class="a" width="0.848" height="2.439" transform="translate(205.906 671.319)"/><rect class="a" width="0.848" height="2.439" transform="translate(209.381 668.163) rotate(63.973)"/><rect class="a" width="0.848" height="2.439" transform="translate(205.043 670.238) rotate(63.973)"/><rect class="a" width="2.439" height="0.848" transform="translate(207.541 670.348) rotate(29.434)"/><rect class="a" width="2.439" height="0.848" transform="translate(203.291 667.978) rotate(29.434)"/><rect class="a" width="0.848" height="2.015" transform="translate(199.118 674.713)"/><rect class="a" width="0.848" height="2.015" transform="translate(199.118 681.713)"/><rect class="a" width="0.848" height="2.015" transform="translate(202.39 675.739) rotate(45)"/><rect class="a" width="0.848" height="2.015" transform="translate(197.57 680.715) rotate(45)"/><rect class="a" width="2.015" height="0.848" transform="matrix(0.707, 0.707, -0.707, 0.707, 201.608, 680.708)"/><rect class="a" width="2.015" height="0.848" transform="matrix(0.707, 0.707, -0.707, 0.707, 196.639, 675.712)"/><rect class="a" width="2.015" height="0.848" transform="translate(201.982 678.849)"/><rect class="a" width="2.015" height="0.848" transform="translate(194.982 678.849)"/><path class="a" d="M99.89,360.9a8.852,8.852,0,0,1-5.767-2.307,8.04,8.04,0,1,1,11.37-11.37,7.953,7.953,0,0,1,2.307,5.767,8.533,8.533,0,0,1-2.307,5.767A8.782,8.782,0,0,1,99.89,360.9Zm0-14.83a6.6,6.6,0,0,0-4.779,1.978,6.758,6.758,0,0,0,9.557,9.557,6.763,6.763,0,0,0,0-9.557A6.879,6.879,0,0,0,99.89,346.07Z" transform="translate(64.214 532.609)"/><path class="a" d="M89.169,367.372a3.354,3.354,0,0,1-2.472-.989,3.758,3.758,0,0,1-.165-4.943l9.887-11.04.989.824-9.887,11.04a2.142,2.142,0,0,0,.165,3.131,2.489,2.489,0,0,0,3.131.165l11.04-9.887.824.989-11.04,9.887A4.441,4.441,0,0,1,89.169,367.372Z" transform="translate(60.27 536.188)"/><path class="a" d="M94.408,359.138A9.286,9.286,0,0,1,89.3,354.03l1.153-.33c0,.165.824,2.637,4.449,4.284Z" transform="translate(62.61 538.326)"/><path class="a" d="M92.608,360.938A9.285,9.285,0,0,1,87.5,355.83l1.153-.33c0,.165.824,2.636,4.449,4.284Z" transform="translate(61.444 539.492)"/><path class="a" d="M89.349,369.475a4.821,4.821,0,0,1-3.131-1.318,4.377,4.377,0,0,1,0-6.262l.989-.989.824.824-.989.989a2.729,2.729,0,0,0-.824,2.142A3.132,3.132,0,0,0,87.042,367a3.085,3.085,0,0,0,4.284,0l9.063-9.063a2.8,2.8,0,1,1,3.955,3.955l-3.79,3.79-.824-.824,3.79-3.79a1.515,1.515,0,0,0-2.142-2.142l-9.063,9.063A3.5,3.5,0,0,1,89.349,369.475Z" transform="translate(59.76 540.512)"/><path class="a" d="M104.105,357.905A11.217,11.217,0,0,1,92.9,346.7h1.318a9.916,9.916,0,0,0,9.887,9.887Z" transform="translate(64.942 533.792)"/><path class="a" d="M96.112,391.1H93.805A49.737,49.737,0,0,1,82.6,389.455l.33-1.153c.165,0,18.95,4.943,31.144-2.8l.659.989C108.965,390.114,101.879,391.1,96.112,391.1Z" transform="translate(673.255 372.685)"/><path class="a" d="M99.716,401.777a.605.605,0,0,1-.494-.165l-4.12-2.636-4.12,2.636a1.05,1.05,0,0,1-.989,0,1,1,0,0,1-.494-.989l.989-12.029,1.318.165-.824,11.37,4.284-2.8,4.284,2.8L97.9,388.265l1.318-.165,1.813,12.359a1,1,0,0,1-.494.989C100.046,401.612,99.881,401.777,99.716,401.777Z" transform="translate(677.724 374.369)"/><path class="a" d="M101.008,401.389h0a.754.754,0,0,1-.824-.659L95.9,389.36l1.153-.494,4.12,10.711,2.472-3.79,3.955,1.648-4.12-11.04,1.153-.494,4.449,11.7a.862.862,0,0,1-1.153,1.154L104.3,397.27,102,400.73A1.192,1.192,0,0,1,101.008,401.389Z" transform="translate(681.87 372.944)"/><path class="a" d="M90.8,401.777a.605.605,0,0,1-.494-.165l-3.131-3.131-3.625,2.472a.735.735,0,0,1-.824,0c-.33-.165-.33-.494-.33-.824L84.542,388.1l1.318.165L83.883,399.14l3.625-2.472,3.3,3.3,2.142-11.7,1.318.165-2.307,12.688c0,.33-.33.494-.494.659Zm.33-1.153Zm-7.745-.494Z" transform="translate(673.125 374.37)"/><path class="a" d="M84.63,390.5l-.33-1.154c.165,0,14.171-3.79,19.115-13.347l1.153.659C99.3,386.546,85.289,390.336,84.63,390.5Z" transform="translate(674.356 366.531)"/><rect class="a" width="6.921" height="1.318" transform="translate(768.322 752.44) rotate(64.78)"/><path class="a" d="M93.453,391.47l-1.153-.494,1.648-3.3,3.625.33-4.943-7.25.989-.659,5.273,7.909a1.05,1.05,0,0,1,0,.989.906.906,0,0,1-.824.494l-3.625-.33Zm4.943-3.625Z" transform="translate(679.538 369.187)"/><path class="a" d="M100.78,388.3a.605.605,0,0,1-.494-.165L93.2,382.367l.824-.989,6.426,5.273.165-3.3,2.966-.33-6.591-5.438.824-.989,7.25,6.1c.33.165.33.659.33.989-.165.33-.33.659-.659.659l-2.8.329-.165,2.966a.906.906,0,0,1-.494.824C100.945,388.135,100.78,388.3,100.78,388.3Z" transform="translate(680.121 366.92)"/><rect class="a" width="3.625" height="1.318" transform="translate(761.095 756.056) rotate(70.732)"/><rect class="a" width="7.086" height="1.318" transform="translate(766.574 753.162) rotate(70.453)"/><path class="a" d="M176.62,419.37H158v-7.085A4.362,4.362,0,0,1,162.284,408H172.5a4.362,4.362,0,0,1,4.284,4.284v7.085Zm-17.467-1.318H175.3v-5.767a2.954,2.954,0,0,0-2.966-2.966H162.119a2.954,2.954,0,0,0-2.966,2.966Z" transform="translate(576.26 603.719)"/><path class="a" d="M184.944,431.731H153.8V419.538a5.486,5.486,0,0,1,5.438-5.438h20.268a5.486,5.486,0,0,1,5.438,5.438Zm-29.825-1.318H183.79V419.538a4.079,4.079,0,0,0-4.119-4.12H159.4a4.079,4.079,0,0,0-4.12,4.12v10.876Z" transform="translate(573.54 607.67)"/><rect class="a" width="36.581" height="1.318" transform="translate(724.703 1038.083)"/><rect class="a" width="36.581" height="1.318" transform="translate(724.703 1040.72)"/><path class="a" d="M167.528,413.8h-1.318a2.646,2.646,0,0,1-1.813-.824l-.165-.165a1.5,1.5,0,0,0-1.977,0,2.646,2.646,0,0,1-1.813.824H158.3v-1.318h2.142a2.342,2.342,0,0,0,.989-.329,2.792,2.792,0,0,1,3.79,0l.165.165a1.211,1.211,0,0,0,.989.33h1.318a2.343,2.343,0,0,0,.989-.33l.165-.165a2.792,2.792,0,0,1,3.79,0,1.425,1.425,0,0,0,.989.494h2.307V413.8h-2.307a2.646,2.646,0,0,1-1.813-.824,1.234,1.234,0,0,0-1.977,0l-.165.165A4.673,4.673,0,0,1,167.528,413.8Z" transform="translate(576.455 605.824)"/><path class="a" d="M184.09,419.582H180.3a3.132,3.132,0,0,1-2.142-.824l-.33-.33a2,2,0,0,0-2.637,0l-.33.33a2.729,2.729,0,0,1-2.142.824H171.9a3.133,3.133,0,0,1-2.142-.824l-.165-.165a2,2,0,0,0-2.637,0l-.165.165a2.729,2.729,0,0,1-2.142.824h-.33a3.133,3.133,0,0,1-2.142-.824,1.715,1.715,0,0,0-2.636,0,2.729,2.729,0,0,1-2.142.824h-3.3v-1.318h3.3a1.871,1.871,0,0,0,1.318-.494,3.085,3.085,0,0,1,4.284,0,1.871,1.871,0,0,0,1.318.494h.33a1.871,1.871,0,0,0,1.318-.494l.165-.165a3.085,3.085,0,0,1,4.284,0l.165.165a1.871,1.871,0,0,0,1.318.494h.824a1.871,1.871,0,0,0,1.318-.494l.33-.33a3.085,3.085,0,0,1,4.284,0l.33.33a1.871,1.871,0,0,0,1.318.494h3.79Z" transform="translate(573.734 609.273)"/><path class="a" d="M184.09,422.147H180.3a3.133,3.133,0,0,1-2.142-.824l-.33-.329a2,2,0,0,0-2.637,0l-.33.329a2.729,2.729,0,0,1-2.142.824H171.9a3.133,3.133,0,0,1-2.142-.824l-.165-.165a2,2,0,0,0-2.637,0l-.165.165a2.729,2.729,0,0,1-2.142.824h-.33a3.133,3.133,0,0,1-2.142-.824,1.715,1.715,0,0,0-2.636,0,2.728,2.728,0,0,1-2.142.824h-3.3v-1.483h3.3a1.871,1.871,0,0,0,1.318-.494,3.085,3.085,0,0,1,4.284,0,1.871,1.871,0,0,0,1.318.494h.33a1.871,1.871,0,0,0,1.318-.494l.165-.165a3.085,3.085,0,0,1,4.284,0l.165.165a1.871,1.871,0,0,0,1.318.494h.824a1.871,1.871,0,0,0,1.318-.494l.33-.33a3.085,3.085,0,0,1,4.284,0l.33.33a1.871,1.871,0,0,0,1.318.494h3.79Z" transform="translate(573.734 610.828)"/><rect class="a" width="1.318" height="1.318" transform="translate(734.26 1034.953)"/><rect class="a" width="1.318" height="1.318" transform="translate(736.897 1034.953)"/><rect class="a" width="1.318" height="1.318" transform="translate(739.698 1034.953)"/><rect class="a" width="1.318" height="1.318" transform="translate(742.335 1034.953)"/><rect class="a" width="1.318" height="1.318" transform="translate(744.971 1034.953)"/><rect class="a" width="1.318" height="1.318" transform="translate(747.772 1034.953)"/><rect class="a" width="1.318" height="1.318" transform="translate(750.409 1034.953)"/><rect class="a" width="1.318" height="1.318" transform="translate(740.028 1014.52)"/><rect class="a" width="1.318" height="1.318" transform="translate(742.829 1014.52)"/><rect class="a" width="1.318" height="1.318" transform="translate(745.465 1014.52)"/><path class="a" d="M109.31,440.12H86.9V409.8h22.41ZM88.218,438.8h19.938V411.118H88.218Z" transform="translate(235.739 489.029)"/><path class="a" d="M87.23,413.515l-.33-1.154,18.785-6.262v4.943h-1.153v-3.3Z" transform="translate(235.739 486.633)"/><path class="a" d="M101.735,421.084H90.2V416.8h11.535Zm-10.381-1.318h9.063v-1.813H91.353Z" transform="translate(237.876 493.564)"/><rect class="a" width="5.438" height="1.318" transform="translate(334.338 915.967)"/><path class="a" d="M2.465,6.06A2.657,2.657,0,0,1,.323,5.071C-.5,3.753.323,1.941,1.971.787,3.784-.366,5.761-.2,6.585.952c.824,1.318,0,3.131-1.648,4.284A4.014,4.014,0,0,1,2.465,6.06ZM4.608,1.282a3.068,3.068,0,0,0-1.813.659c-1.153.824-1.648,1.977-1.318,2.472s1.648.659,2.8-.165S5.926,2.27,5.6,1.776A1,1,0,0,0,4.608,1.282Z" transform="translate(542.695 968.971) rotate(43)"/><path class="a" d="M2.465,6.06A2.657,2.657,0,0,1,.323,5.071C-.5,3.753.323,1.941,1.971.787,3.784-.366,5.761-.2,6.585.952c.824,1.318,0,3.131-1.648,4.284A4.9,4.9,0,0,1,2.465,6.06ZM4.608,1.282a3.068,3.068,0,0,0-1.813.659c-1.153.824-1.648,1.977-1.318,2.472s1.648.659,2.8-.165S5.926,2.27,5.6,1.776A1,1,0,0,0,4.608,1.282Z" transform="translate(532.735 964.189) rotate(43)"/><path class="a" d="M1.153,17.632H0V4.12L11.7,0V14.336H10.381V1.813L1.153,4.943Z" transform="translate(547.65 956.643) rotate(43)"/><path class="a" d="M2.465,6.06A2.657,2.657,0,0,1,.323,5.071C-.5,3.753.323,1.941,1.971.787,3.784-.366,5.761-.2,6.585.952h0c.824,1.318,0,3.131-1.648,4.284A4.9,4.9,0,0,1,2.465,6.06ZM4.608,1.281a3.068,3.068,0,0,0-1.813.659c-1.153.824-1.648,1.977-1.318,2.472s1.648.659,2.8-.165S5.926,2.27,5.6,1.776A1,1,0,0,0,4.608,1.281Z" transform="translate(520.157 961.247) rotate(43)"/><path class="a" d="M1.318,13.842H0V0H.659c1.318.165,3.79.989,3.79,3.3H3.131c0-1.153-1.153-1.648-1.977-1.812V13.842Z" transform="translate(532.375 956.593) rotate(43)"/><rect class="a" width="1.318" height="11.04" transform="translate(553.026 966.894) rotate(115.013)"/><rect class="a" width="1.318" height="3.625" transform="translate(540.277 955.851) rotate(43)"/><rect class="a" width="3.625" height="1.318" transform="translate(538.646 955.908) rotate(43)"/><rect class="a" width="1.318" height="3.625" transform="translate(553.013 973.361) rotate(43)"/><rect class="a" width="3.625" height="1.318" transform="translate(551.383 973.418) rotate(43)"/><rect class="a" width="1.318" height="3.625" transform="translate(535.226 974.798) rotate(43)"/><rect class="a" width="3.625" height="1.318" transform="translate(533.483 974.975) rotate(43)"/><rect class="a" width="1.318" height="3.625" transform="translate(523.484 955.738) rotate(43)"/><rect class="a" width="3.625" height="1.318" transform="translate(521.742 955.915) rotate(43)"/><path class="a" d="M62.128,361.33a4.061,4.061,0,0,1-2.8-1.318,3.312,3.312,0,0,1-2.142.659,3.657,3.657,0,0,1-3.625-3.625,2.877,2.877,0,0,1,.659-1.978,3.52,3.52,0,0,1-1.318-2.8,3.657,3.657,0,0,1,3.625-3.625,2.09,2.09,0,0,1,.989.165,3.584,3.584,0,0,1,3.3-2.307,3.717,3.717,0,0,1,3.625,2.966,3.657,3.657,0,0,1,3.625,3.625,3.558,3.558,0,0,1-2.636,3.46,2.09,2.09,0,0,1,.165.989A3.3,3.3,0,0,1,62.128,361.33Zm-2.472-3.3.494.824a2.4,2.4,0,0,0,4.449-1.153,3.055,3.055,0,0,0-.33-1.153l-.494-.989h.989a2.357,2.357,0,0,0,2.307-2.307,2.253,2.253,0,0,0-2.307-2.307H64.27l-.824.165v-.824a2.253,2.253,0,0,0-2.307-2.307,2.311,2.311,0,0,0-2.307,1.977l-.165.824-.824-.494a3.057,3.057,0,0,0-1.153-.329,2.253,2.253,0,0,0-2.307,2.307A2.571,2.571,0,0,0,55.7,354.41l.824.494-.659.659a2.116,2.116,0,0,0-.659,1.648,2.253,2.253,0,0,0,2.307,2.307,2.028,2.028,0,0,0,1.648-.824Z" transform="translate(370.079 610.579)"/><path class="a" d="M55.318,348.667H54a3.657,3.657,0,0,1,3.625-3.625,2.09,2.09,0,0,1,.989.165,3.584,3.584,0,0,1,3.3-2.307,3.361,3.361,0,0,1,3.3,2.307l-1.153.494a2.346,2.346,0,0,0-2.142-1.483A2.31,2.31,0,0,0,59.6,346.2l-.165.824-.824-.494a3.056,3.056,0,0,0-1.153-.33A2.65,2.65,0,0,0,55.318,348.667Z" transform="translate(370.792 608.247)"/><path class="a" d="M58.7,354.9a2.8,2.8,0,1,1,2.8-2.8A2.777,2.777,0,0,1,58.7,354.9Zm0-4.284a1.483,1.483,0,1,0,1.483,1.483C60.349,351.277,59.525,350.618,58.7,350.618Z" transform="translate(372.022 612.393)"/><path class="a" d="M66.438,359.03a3.533,3.533,0,0,1-3.131-1.813l1.153-.659a2.4,2.4,0,0,0,4.449-1.153,3.054,3.054,0,0,0-.33-1.153l-.494-.989h.989a2.357,2.357,0,0,0,2.307-2.307,2.253,2.253,0,0,0-2.307-2.307H68.58l-.824.165v-.824a2.253,2.253,0,0,0-2.307-2.307,2.31,2.31,0,0,0-2.307,1.977l-.165.824-.824-.494A3.055,3.055,0,0,0,61,347.66v-1.318a2.089,2.089,0,0,1,.989.165,3.584,3.584,0,0,1,3.3-2.307,3.717,3.717,0,0,1,3.625,2.966,3.657,3.657,0,0,1,3.625,3.625,3.558,3.558,0,0,1-2.636,3.46,2.09,2.09,0,0,1,.165.989A3.5,3.5,0,0,1,66.438,359.03Z" transform="translate(375.326 609.089)"/><path class="a" d="M64.436,352.505h-.494l.165-1.318a1.281,1.281,0,0,0,1.318-.33,1.515,1.515,0,0,0-2.142-2.142.856.856,0,0,0-.33.659l-1.153-.33a2.656,2.656,0,0,1,.659-1.154,3.005,3.005,0,0,1,3.955,0,2.692,2.692,0,0,1,0,3.955A3.533,3.533,0,0,1,64.436,352.505Z" transform="translate(375.844 611)"/><path class="a" d="M64.916,359.88c-6.591,0-10.876-1.153-12.523-3.3a2.755,2.755,0,0,1-.659-2.472h0a6.874,6.874,0,0,0,.33-1.813h1.318a14.845,14.845,0,0,1-.33,2.142,1.836,1.836,0,0,0,.494,1.483c.824.989,3.3,2.8,11.535,2.8v1.153Z" transform="translate(369.268 614.336)"/><path class="a" d="M61.518,363.229H60.2c0-2.142.494-3.79,1.483-4.779,1.483-1.483,3.79-1.483,6.262-1.483h.824c3.46,0,3.625-5.767,3.625-5.767h1.318c0,2.472-1.153,7.086-4.943,7.086h-.824c-2.307,0-4.284,0-5.438,1.153C61.848,360.1,61.518,361.416,61.518,363.229Z" transform="translate(374.808 613.624)"/><path class="a" d="M66.74,369.606h-.33a6.679,6.679,0,0,1-1.483-.824,3.14,3.14,0,0,0-1.648-.824,4.684,4.684,0,0,0-1.977.659,9.785,9.785,0,0,1-1.318.659,1.092,1.092,0,0,1-1.153-.33,1.015,1.015,0,0,1-.165-1.154v-.165A6.237,6.237,0,0,0,55.7,359.06l.494-1.154a7.62,7.62,0,0,1,3.625,9.887c.165,0,.33-.165.494-.33a4.05,4.05,0,0,1,2.8-.824,4.5,4.5,0,0,1,2.142,1.154h0c-1.483-3.131.659-7.086,1.813-9.228a10.8,10.8,0,0,1,2.472-2.966l.824.989a7.968,7.968,0,0,0-2.142,2.637c-1.153,2.142-3.3,6.262-1.318,8.9a.8.8,0,0,1,0,1.154C67.235,369.442,67.07,369.606,66.74,369.606Zm-6.591-1.153Z" transform="translate(371.893 616.474)"/><path class="a" d="M166.287,336.736a34.089,34.089,0,0,1-5.767-.494,2.658,2.658,0,0,1-1.483-.494,4.75,4.75,0,0,1-2.636-4.284V322.4h1.318v9.063a3.389,3.389,0,0,0,1.977,3.131,2.381,2.381,0,0,0,1.153.33,42.514,42.514,0,0,0,11.205,0,4.191,4.191,0,0,0,1.153-.33,3.692,3.692,0,0,0,1.977-3.131V322.4H176.5v9.063a4.75,4.75,0,0,1-2.637,4.284l-1.483.494A43.123,43.123,0,0,1,166.287,336.736Z" transform="translate(611.473 631.601)"/><path class="a" d="M165.18,321.707a25.711,25.711,0,0,1-7.58-1.154l.33-1.153c7.415,2.472,14.83,0,15,0l.33,1.153A29.619,29.619,0,0,1,165.18,321.707Z" transform="translate(612.25 629.657)"/><path class="a" d="M152.7,337.272a3.876,3.876,0,0,1-1.318-.33,2.163,2.163,0,0,1-.494-3.131l14.665-20.762a1.73,1.73,0,0,1,1.483-.824,1.916,1.916,0,0,1,1.648.33,2.163,2.163,0,0,1,.494,3.131l-14.665,20.762a1.731,1.731,0,0,1-1.483.824Zm14.665-23.893h0a.968.968,0,0,0-.824.33l-14.665,20.762a.991.991,0,0,0-.165.659.856.856,0,0,0,.33.659.991.991,0,0,0,.659.165.856.856,0,0,0,.659-.33l14.665-20.762a1,1,0,0,0-.165-1.318A.605.605,0,0,0,167.362,313.379Z" transform="translate(607.597 624.968)"/><path class="a" d="M166.805,328.288A45.46,45.46,0,0,1,155.6,326.97l.33-1.154a42.725,42.725,0,0,0,10.876,1.318c9.887,0,16.808-2.636,16.808-5.108s-6.921-5.108-16.808-5.108a31.748,31.748,0,0,0-3.955.165l-.165-1.318a33.1,33.1,0,0,1,4.12-.165c8.733,0,17.961,2.142,17.961,6.262S175.538,328.288,166.805,328.288Z" transform="translate(610.954 627.196)"/><path class="a" d="M155.025,325.657c-2.966-1.318-3.625-2.8-3.625-3.955,0-2.472,3.625-4.614,9.722-5.6l.165,1.318c-5.932.989-8.569,2.966-8.569,4.449,0,.989.989,1.813,2.966,2.8Z" transform="translate(608.234 627.52)"/><rect class="a" width="1.318" height="3.625" transform="translate(782.044 938.182)"/><rect class="a" width="3.625" height="1.318" transform="translate(780.89 939.335)"/><rect class="a" width="1.318" height="3.625" transform="translate(763.094 939.006)"/><rect class="a" width="3.625" height="1.318" transform="translate(761.94 940.159)"/><rect class="a" width="3.625" height="1.318" transform="matrix(0.707, 0.707, -0.707, 0.707, 789.143, 935.115)"/><rect class="a" width="1.318" height="3.625" transform="translate(790.738 935.147) rotate(44.972)"/><path class="b" d="M248.16,87.5l2.117,4.536,5.141.907-3.629,3.326.907,5.141-4.536-2.419-4.536,2.419.907-5.141L240.6,92.943l5.14-.907Z" transform="translate(-52.061 628.412)"/><line class="b" y2="36.588" transform="translate(196.099 731.333)"/><path class="b" d="M239.843,91.8l1.512,3.326,3.629.6-2.419,2.419.6,3.629-3.326-1.512-3.326,1.512.6-3.629L234.4,95.731l3.629-.6Z" transform="translate(-64.608 637.114)"/><path class="b" d="M253.643,91.8l-1.814,3.326-3.629.6,2.721,2.419-.6,3.629,3.326-1.512,3.326,1.512-.6-3.629,2.419-2.419-3.629-.6Z" transform="translate(-36.68 637.114)"/><path class="b" d="M245.3,120.688s6.35-16.933,11.491-23.888" transform="translate(-42.549 647.234)"/><path class="b" d="M248.491,120.688S242.141,103.755,237,96.8" transform="translate(-59.347 647.234)"/><circle class="b" cx="3.024" cy="3.024" r="3.024" transform="translate(185.213 736.776)"/><circle class="b" cx="3.024" cy="3.024" r="3.024" transform="translate(200.635 746.453)"/><circle class="b" cx="1.814" cy="1.814" r="1.814" transform="translate(175.839 720.75)"/><circle class="b" cx="1.814" cy="1.814" r="1.814" transform="translate(172.211 756.431)"/><circle class="b" cx="1.814" cy="1.814" r="1.814" transform="translate(215.451 718.029)"/><circle class="b" cx="1.814" cy="1.814" r="1.814" transform="translate(215.451 758.246)"/><path class="b" d="M247.65,87.5l1.974,4.23,4.794.846-3.384,3.1.846,4.794-4.23-2.256-4.23,2.256.846-4.794-3.666-3.1,4.794-.846Z" transform="translate(-68.05 708.906)"/><line class="b" y2="34.12" transform="translate(179.599 810.787)"/><path class="b" d="M239.476,91.8l1.41,3.1,3.384.564-2.256,2.256.564,3.384-3.1-1.41-3.1,1.41.564-3.384L234.4,95.466l3.384-.564Z" transform="translate(-79.333 716.731)"/><path class="b" d="M253.276,91.8l-1.692,3.1-3.384.564,2.538,2.256-.564,3.384,3.1-1.41,3.1,1.41-.564-3.384,2.256-2.256-3.384-.564Z" transform="translate(-54.22 716.731)"/><path class="b" d="M245.3,119.076s5.922-15.791,10.715-22.276" transform="translate(-59.497 725.83)"/><path class="b" d="M247.715,119.076S241.794,103.286,237,96.8" transform="translate(-74.602 725.83)"/><circle class="b" cx="2.82" cy="2.82" r="2.82" transform="translate(169.448 815.862)"/><circle class="b" cx="2.82" cy="2.82" r="2.82" transform="translate(183.829 824.886)"/><circle class="b" cx="1.692" cy="1.692" r="1.692" transform="translate(160.707 800.917)"/><circle class="b" cx="1.692" cy="1.692" r="1.692" transform="translate(157.323 834.191)"/><circle class="b" cx="1.692" cy="1.692" r="1.692" transform="translate(197.646 798.38)"/><circle class="b" cx="1.692" cy="1.692" r="1.692" transform="translate(197.646 835.883)"/><path class="c" d="M283.573,124.592h0a13.148,13.148,0,0,1-9.134-15.984L280.376,87.6l25.118,7.307-5.937,21.008C297.73,122.309,290.423,126.419,283.573,124.592Z" transform="translate(234.801 910.599)"/><line class="c" x2="26.945" y2="1.827" transform="translate(509.697 1017.38)"/><line class="c" x1="11.874" y2="41.559" transform="translate(506.5 1035.191)"/><line class="c" x2="25.118" y2="7.307" transform="translate(493.713 1073.097)"/><path class="c" d="M302.821,124.592h0a13.148,13.148,0,0,0,9.134-15.984L306.018,87.6,280.9,94.907l5.937,21.008C288.664,122.309,295.971,126.419,302.821,124.592Z" transform="translate(259.396 910.599)"/><line class="c" x1="26.488" y2="1.827" transform="translate(544.406 1017.38)"/><line class="c" x2="11.874" y2="41.559" transform="translate(562.217 1035.191)"/><line class="c" x1="25.118" y2="7.307" transform="translate(561.76 1073.097)"/><line class="c" y1="5.937" transform="translate(540.295 991.805)"/><line class="c" x2="2.74" y2="2.74" transform="translate(531.618 995.002)"/><line class="c" y1="2.74" x2="2.74" transform="translate(546.232 995.002)"/><rect class="c" width="6.55" height="13.1" transform="translate(792.488 1026.697)"/><path class="c" d="M357.937,95.35a2.068,2.068,0,0,1-4.137,0c0-1.034,2.068-6.55,2.068-6.55S357.937,93.971,357.937,95.35Z" transform="translate(440.067 924.797)"/><ellipse class="c" cx="6.652" cy="4.838" rx="6.652" ry="4.838" transform="translate(251.929 1045.543) rotate(-15.001)"/><path class="c" d="M0,45.358V11.491L29.936,0V35.681" transform="matrix(0.966, 0.259, -0.259, 0.966, 277.838, 1004.825)"/><ellipse class="c" cx="6.652" cy="4.838" rx="6.652" ry="4.838" transform="translate(283.315 1043.931) rotate(-15.001)"/><line class="c" y1="11.491" x2="29.936" transform="matrix(0.966, 0.259, -0.259, 0.966, 276.508, 1009.79)"/><path class="c" d="M4.838,0,6.35,3.326l3.326.6L7.257,6.35l.6,3.326L4.838,8.164,1.814,9.676l.6-3.326L0,3.931l3.326-.6Z" transform="matrix(0.966, 0.259, -0.259, 0.966, 265.628, 1002.492)"/><path class="c" d="M4.838,0,6.35,3.326l3.326.3L7.257,6.048l.3,3.629L4.838,8.164,1.814,9.676l.6-3.629L0,3.629l3.326-.3Z" transform="matrix(0.966, 0.259, -0.259, 0.966, 295.798, 1053.464)"/><circle class="c" cx="1.814" cy="1.814" r="1.814" transform="matrix(0.966, 0.259, -0.259, 0.966, 258.554, 1021.884)"/><circle class="c" cx="1.814" cy="1.814" r="1.814" transform="matrix(0.966, 0.259, -0.259, 0.966, 304.791, 1042.1)"/><circle class="d" cx="0.907" cy="0.907" r="0.907" transform="matrix(0.966, 0.259, -0.259, 0.966, 287.009, 1057.057)"/><circle class="d" cx="0.907" cy="0.907" r="0.907" transform="matrix(0.966, 0.259, -0.259, 0.966, 304.609, 1031.094)"/><circle class="d" cx="0.907" cy="0.907" r="0.907" transform="matrix(0.966, 0.259, -0.259, 0.966, 265.01, 1030.501)"/><circle class="d" cx="0.907" cy="0.907" r="0.907" transform="matrix(0.966, 0.259, -0.259, 0.966, 279.1, 1008.293)"/><circle class="d" cx="0.907" cy="0.907" r="0.907" transform="matrix(0.966, 0.259, -0.259, 0.966, 285.667, 1005.984)"/><circle class="d" cx="0.907" cy="0.907" r="0.907" transform="matrix(0.966, 0.259, -0.259, 0.966, 256.221, 1034.094)"/><ellipse class="c" cx="14.214" cy="18.721" rx="14.214" ry="18.721" transform="matrix(0.966, -0.259, 0.259, 0.966, 586.191, 743.959)"/><path class="c" d="M1.04,0,0,4.507H6.587L5.2,0" transform="matrix(0.966, -0.259, 0.259, 0.966, 606.597, 777.253)"/><path class="c" d="M22.187,34.321a12.215,12.215,0,0,1-7.974,3.12C6.24,37.441,0,29.121,0,18.72,0,8.667,5.894.693,13.52,0" transform="matrix(0.966, -0.259, 0.259, 0.966, 573.79, 756.613)"/><path class="c" d="M1.387,0,0,4.854H6.587L5.547,0" transform="matrix(0.966, -0.259, 0.259, 0.966, 593.771, 789.662)"/><path class="c" d="M.924,0a10.463,10.463,0,0,0,0,8.667" transform="matrix(0.966, -0.259, 0.259, 0.966, 597.483, 793.692)"/><path class="c" d="M0,34.321a12.214,12.214,0,0,0,7.973,3.12c7.974,0,14.214-8.32,14.214-18.721C22.187,8.667,16.294.693,8.667,0" transform="matrix(0.966, -0.259, 0.259, 0.966, 609.62, 747.013)"/><path class="c" d="M5.2,0,6.587,4.854H0L1.04,0" transform="matrix(0.966, -0.259, 0.259, 0.966, 623.574, 781.676)"/><path class="c" d="M0,0A10.463,10.463,0,0,1,0,8.667" transform="matrix(0.966, -0.259, 0.259, 0.966, 628.179, 785.467)"/><path class="c" d="M0,0,1.733,5.2a12.449,12.449,0,0,1-.347,9.36L0,17.68" transform="matrix(0.966, -0.259, 0.259, 0.966, 610.777, 780.798)"/><ellipse class="c" cx="27.188" cy="35.809" rx="27.188" ry="35.809" transform="translate(88.409 632.36)"/><path class="c" d="M282.289,136.4l-1.989,8.621h12.6l-2.652-8.621" transform="translate(-170.671 567.578)"/><path class="c" d="M315.14,193.849a23.364,23.364,0,0,1-15.252,5.968c-15.252,0-27.188-15.915-27.188-35.809,0-19.231,11.273-34.483,25.862-35.809" transform="translate(-213.469 521.401)"/><path class="c" d="M278.453,138.9l-2.653,9.284h12.6L286.41,138.9" transform="translate(-196.012 581.656)"/><path class="c" d="M278.3,140.3a20.014,20.014,0,0,0,0,16.578" transform="translate(-191.882 589.539)"/><path class="c" d="M283.4,193.849a23.363,23.363,0,0,0,15.252,5.968c15.252,0,27.188-15.915,27.188-35.809,0-19.231-11.273-34.483-25.862-35.809" transform="translate(-153.214 521.401)"/><path class="c" d="M294.647,138.9l2.652,9.284H284.7l1.989-9.284" transform="translate(-145.894 581.656)"/><path class="c" d="M285.7,140.3a20.014,20.014,0,0,1,0,16.578" transform="translate(-140.262 589.539)"/><path class="c" d="M281.2,137.7l3.316,9.947c1.989,5.968,1.989,12.6-.663,17.9l-2.652,5.968" transform="translate(-165.603 574.898)"/><path class="c" d="M16.146,7.5V18.452a1.662,1.662,0,0,1-1.73,1.73h0a1.662,1.662,0,0,1-1.73-1.73V7.5H8.938V14.7a1.662,1.662,0,0,1-1.73,1.73h0a1.662,1.662,0,0,1-1.73-1.73V7.5H0V3.748A3.817,3.817,0,0,1,3.748,0H25.66c2.018,0,5.478,1.73,5.478,3.748V7.5Z" transform="matrix(0.819, -0.574, 0.574, 0.819, 689.514, 960.272)"/><path class="c" d="M30.85,0V40.365a1.662,1.662,0,0,1-1.73,1.73H1.73A1.662,1.662,0,0,1,0,40.365V0" transform="matrix(0.819, -0.574, 0.574, 0.819, 693.814, 966.413)"/><path class="c" d="M0,27.39H7.208a7.138,7.138,0,0,0,7.208-7.208V7.208A7.138,7.138,0,0,0,7.208,0H0Z" transform="matrix(0.819, -0.574, 0.574, 0.819, 721.234, 951.788)"/><path class="c" d="M0,20.182H5.478A5.474,5.474,0,0,0,10.956,14.7V5.478A5.474,5.474,0,0,0,5.478,0H0Z" transform="matrix(0.819, -0.574, 0.574, 0.819, 723.219, 954.622)"/><path class="c" d="M0,0V21.047A2.889,2.889,0,0,0,2.883,23.93h0a2.889,2.889,0,0,0,2.883-2.883V14.7" transform="matrix(0.819, -0.574, 0.574, 0.819, 702.932, 973.403)"/><path class="c" d="M0,0V11.821A2.889,2.889,0,0,0,2.883,14.7h0a2.889,2.889,0,0,0,2.883-2.883V5.478" transform="matrix(0.819, -0.574, 0.574, 0.819, 715.545, 975.834)"/><path class="c" d="M0,0V16.434a2.889,2.889,0,0,0,2.883,2.883h0a2.889,2.889,0,0,0,2.883-2.883V10.091" transform="matrix(0.819, -0.574, 0.574, 0.819, 720.457, 966.763)"/><path class="c" d="M302.715,186.084a37.177,37.177,0,0,1,3.125,14.287,35.27,35.27,0,1,1-35.27-35.27,31.121,31.121,0,0,1,16.966,4.465" transform="translate(396.699 850.457)"/><path class="c" d="M241.5,170.05V163.8h14.287v6.25" transform="translate(418.179 845.953)"/><line class="c" y2="5.804" transform="translate(666.823 1003.949)"/><path class="c" d="M241.2,200.37c0-19.644,4.018-35.27,8.483-35.27s8.483,16.073,8.483,35.27-4.018,35.27-8.483,35.27c-3.572,0-6.25-8.036-7.59-19.644" transform="translate(417.14 850.457)"/><ellipse class="c" cx="22.769" cy="35.27" rx="22.769" ry="35.27" transform="translate(644.053 1015.557)"/><path class="c" d="M253.5,187.172c-11.161-1.339-18.3-4.465-18.3-7.59,0-4.911,16.073-8.483,35.27-8.483s35.27,4.018,35.27,8.483-16.073,8.483-35.27,8.483" transform="translate(396.352 871.245)"/><ellipse class="c" cx="35.27" cy="22.769" rx="35.27" ry="22.769" transform="translate(631.552 1028.058)"/><line class="c" y2="5.804" transform="translate(634.231 1018.236)"/><line class="c" x2="5.804" transform="translate(655.215 1059.31)"/><line class="c" y2="5.358" transform="translate(658.34 1056.631)"/><line class="c" x2="5.804" transform="translate(631.106 1020.915)"/><line class="c" y2="5.804" transform="translate(648.071 1003.949)"/><line class="c" x2="5.804" transform="translate(645.393 1006.628)"/><line class="c" y2="5.358" transform="translate(693.61 1024.04)"/><line class="c" x2="5.358" transform="translate(690.931 1026.719)"/><path class="c" d="M300.081,203.972H278.914L277.1,169.5h24.8Z" transform="translate(408.107 554.299)"/><line class="c" x2="40.519" transform="translate(677.345 758.271)"/><line class="c" x2="23.586" transform="translate(685.812 737.104)"/><path class="c" d="M300.86,163.8l-13.607,3.629L280.6,194.341" transform="translate(415.19 542.763)"/><circle class="c" cx="1.814" cy="1.814" r="1.814" transform="translate(700.628 741.337)"/><circle class="c" cx="1.814" cy="1.814" r="1.814" transform="translate(696.697 748.897)"/><circle class="c" cx="1.814" cy="1.814" r="1.814" transform="translate(690.045 741.337)"/><rect class="c" width="48.079" height="34.472" transform="translate(321.004 769.886) rotate(-30)"/><rect class="c" width="52.01" height="7.56" transform="translate(315.653 764.246) rotate(-30)"/><rect class="c" width="9.676" height="3.931" transform="translate(332.019 750.259) rotate(-30)"/><path class="c" d="M0,4.233V9.676H11.491V5.745L6.955,1.21A3.882,3.882,0,0,0,3.931,0h0A4.515,4.515,0,0,0,0,4.233Z" transform="translate(318.782 750.918) rotate(-30)"/><path class="c" d="M11.49,4.233V9.676H0V5.745L4.536,1.21A3.882,3.882,0,0,1,7.56,0h0A4.515,4.515,0,0,1,11.49,4.233Z" transform="translate(337.113 740.334) rotate(-30)"/><rect class="c" width="9.676" height="42.334" transform="translate(333.984 753.663) rotate(-30)"/><path class="c" d="M0,0,8.11.658a172.028,172.028,0,0,0,21.262,0L37.482,0" transform="translate(415.963 722.861) rotate(-41)"/><path class="c" d="M0,0,4.165,8.11,7.891.658" transform="translate(418.754 720.726) rotate(-41)"/><path class="c" d="M0,0,4.384,8.987,8.768,0" transform="translate(427.457 714.032) rotate(-41)"/><path class="c" d="M0,.658,3.946,8.11,7.891,0" transform="translate(435.793 705.914) rotate(-41)"/><path class="c" d="M0,0,8.11.658a172.028,172.028,0,0,0,21.262,0L37.482,0" transform="translate(425.167 733.449) rotate(-41)"/><path class="c" d="M0,0,4.165,8.11,7.891.438" transform="translate(427.957 731.313) rotate(-41)"/><path class="c" d="M0,0,4.384,8.768,8.768,0" transform="translate(436.66 724.619) rotate(-41)"/><path class="c" d="M0,.438,3.946,8.11,7.891,0" transform="translate(444.996 716.501) rotate(-41)"/><path class="c" d="M0,0,8.11.658a172.028,172.028,0,0,0,21.262,0L37.482,0" transform="translate(434.226 743.87) rotate(-41)"/><path class="c" d="M0,0,4.165,7.891,7.891.438" transform="translate(437.161 741.9) rotate(-41)"/><path class="c" d="M0,0,4.384,8.768,8.768,0" transform="translate(445.863 735.207) rotate(-41)"/><path class="c" d="M0,.438,3.946,7.891,7.891,0" transform="translate(454.2 727.089) rotate(-41)"/><path class="c" d="M371.375,242.9l5.115,10.96,10.96,1.461-8.037,8.768L381.6,275.78l-10.229-5.845-10.229,5.845,2.192-11.691-8.038-8.768,10.96-1.461Z" transform="translate(114.844 633.197)"/><path class="c" d="M431.012,279.556c0,21.92-39.456,86.219-39.456,86.219s-39.456-64.3-39.456-86.219a39.456,39.456,0,1,1,78.912,0Z" transform="translate(94.663 615.538)"/><circle class="c" cx="25.573" cy="25.573" r="25.573" transform="translate(460.646 869.521)"/><path class="c" d="M320.942,335.613h-83.3a3.02,3.02,0,0,1-3.143-3.143V285.843a3.02,3.02,0,0,1,3.143-3.143h83.3a3.02,3.02,0,0,1,3.143,3.143V332.47C324.61,334.042,323.038,335.613,320.942,335.613Z" transform="translate(237.224 485.855)"/><path class="c" d="M250.811,280.7h19.908l6.811,10.478H244Z" transform="translate(277.494 477.378)"/><rect class="c" width="13.097" height="6.811" transform="translate(481.678 761.745)"/><rect class="c" width="13.097" height="9.954" transform="translate(481.678 778.509)"/><line class="c" x2="9.954" transform="translate(471.724 781.653)"/><line class="c" x2="10.478" transform="translate(551.356 781.653)"/><line class="c" x2="26.719" transform="translate(494.775 781.653)"/><line class="c" x2="13.097" transform="translate(481.678 794.75)"/><circle class="c" cx="16.765" cy="16.765" r="16.765" transform="translate(519.922 780.081)"/><circle class="c" cx="3.143" cy="3.143" r="3.143" transform="translate(533.544 793.702)"/><path class="c" d="M246.9,286.1a9.947,9.947,0,0,1,9.954,9.954" transform="translate(289.787 500.268)"/><line class="c" x2="59.237" transform="translate(55.359 905.497)"/><rect class="c" width="36.692" height="76.036" transform="translate(66.853 829.462)"/><circle class="c" cx="4.421" cy="4.421" r="4.421" transform="translate(80.557 834.766)"/><circle class="c" cx="4.421" cy="4.421" r="4.421" transform="translate(80.557 857.312)"/><circle class="c" cx="12.82" cy="12.82" r="12.82" transform="translate(72.157 848.913)"/><circle class="c" cx="4.421" cy="4.421" r="4.421" transform="translate(80.557 885.604)"/><circle class="c" cx="9.726" cy="9.726" r="9.726" transform="translate(75.252 880.299)"/><path class="c" d="M278.109,297.4c-3.979-3.979-3.979-10.168,0-13.7" transform="translate(-217.003 570.075)"/><path class="c" d="M286.6,297.4c3.979-3.979,3.979-10.168,0-13.7" transform="translate(-177.751 570.075)"/><path class="c" d="M278.6,307.94a18.143,18.143,0,0,1,0-25.64" transform="translate(-223.246 565.286)"/><path class="c" d="M287.9,307.94a18.143,18.143,0,0,0,0-25.64" transform="translate(-173.304 565.286)"/><path class="c" d="M38.427,7.32H3.66A3.516,3.516,0,0,1,0,3.66H0A3.516,3.516,0,0,1,3.66,0H38.427a3.516,3.516,0,0,1,3.66,3.66h0C42.7,5.49,40.867,7.32,38.427,7.32Z" transform="translate(608.611 885.332) rotate(-22)"/><path class="c" d="M31.108,7.929H3.66L0,0H34.767Z" transform="translate(614.746 890.748) rotate(-22)"/><path class="c" d="M0,17.689a17.689,17.689,0,0,1,35.377,0" transform="translate(605.149 866.995) rotate(-22)"/><path class="c" d="M13.419,50.626h0c-5.49,0-9.759-4.27-10.369-9.759L0,0H27.448L24.4,40.867C23.178,46.357,18.909,50.626,13.419,50.626Z" transform="translate(621.675 896.5) rotate(-22)"/><line class="c" y2="15.859" transform="translate(639.829 905.612) rotate(-22)"/><line class="c" y1="23.178" transform="translate(653.082 938.413) rotate(-22)"/><path class="c" d="M234.5,341.633V318.557a1.4,1.4,0,0,1,1.457-1.457h38.621a1.4,1.4,0,0,1,1.457,1.457v29.391l-4.615,4.615H248.345" transform="translate(-164.946 623.071)"/><path class="c" d="M249.7,329.7v4.615l4.858-4.615Z" transform="translate(-143.225 641.076)"/><line class="c" x2="41.779" transform="translate(69.554 944.543)"/><circle class="c" cx="5.344" cy="5.344" r="5.344" transform="translate(69.554 967.618)"/><rect class="c" width="6.072" height="6.072" transform="translate(74.898 950.615)"/><rect class="c" width="6.072" height="6.072" transform="translate(81.213 950.615)"/><rect class="c" width="6.072" height="6.072" transform="translate(87.286 950.615)"/><rect class="c" width="6.072" height="6.072" transform="translate(93.358 950.615)"/><rect class="c" width="6.072" height="6.072" transform="translate(99.674 950.615)"/><rect class="c" width="6.072" height="6.072" transform="translate(74.898 950.615)"/><rect class="c" width="6.072" height="6.072" transform="translate(81.213 950.615)"/><rect class="c" width="6.072" height="6.072" transform="translate(87.286 950.615)"/><rect class="c" width="6.072" height="6.072" transform="translate(93.358 950.615)"/><rect class="c" width="6.072" height="6.072" transform="translate(99.674 950.615)"/><rect class="c" width="6.072" height="6.072" transform="translate(74.898 956.931)"/><rect class="c" width="6.072" height="6.072" transform="translate(81.213 956.931)"/><rect class="c" width="6.072" height="6.072" transform="translate(87.286 956.931)"/><rect class="c" width="6.072" height="6.072" transform="translate(93.358 956.931)"/><rect class="c" width="6.072" height="6.072" transform="translate(99.674 956.931)"/><rect class="c" width="6.072" height="6.072" transform="translate(81.213 963.003)"/><rect class="c" width="6.072" height="6.072" transform="translate(87.286 963.003)"/><rect class="c" width="6.072" height="6.072" transform="translate(93.358 963.003)"/><rect class="c" width="6.072" height="6.072" transform="translate(99.674 963.003)"/><path class="c" d="M236.7,329.7v2.186h2.429" transform="translate(-161.802 641.076)"/><circle class="c" cx="4.888" cy="4.888" r="4.888" transform="matrix(0.921, 0.391, -0.391, 0.921, 215.721, 891.855)"/><path class="c" d="M0,70.392l9.288,1.955a123.651,123.651,0,0,0,46.439,0l9.288-1.955L32.263,0Z" transform="matrix(0.921, 0.391, -0.391, 0.921, 186.252, 889.968)"/><circle class="c" cx="2.933" cy="2.933" r="2.933" transform="matrix(0.921, 0.391, -0.391, 0.921, 183.173, 946.014)"/><circle class="c" cx="4.888" cy="4.888" r="4.888" transform="matrix(0.921, 0.391, -0.391, 0.921, 197.53, 958.481)"/><circle class="c" cx="4.888" cy="4.888" r="4.888" transform="matrix(0.921, 0.391, -0.391, 0.921, 196.022, 930.757)"/><circle class="d" cx="1.467" cy="1.467" r="1.467" transform="matrix(0.921, 0.391, -0.391, 0.921, 168.622, 951.52)"/><circle class="d" cx="1.467" cy="1.467" r="1.467" transform="matrix(0.921, 0.391, -0.391, 0.921, 206.232, 950.492)"/><circle class="e" cx="2.933" cy="2.933" r="2.933" transform="matrix(0.921, 0.391, -0.391, 0.921, 207.793, 919.291)"/><circle class="c" cx="3.408" cy="3.408" r="3.408" transform="translate(563.925 938.416) rotate(-49)"/><path class="c" d="M0,49.072l6.475,1.363a86.193,86.193,0,0,0,32.374,0l6.475-1.363L22.491,0Z" transform="translate(556.325 957.547) rotate(-49)"/><circle class="c" cx="2.045" cy="2.045" r="2.045" transform="translate(592.82 971.662) rotate(-49)"/><circle class="c" cx="3.408" cy="3.408" r="3.408" transform="translate(604.179 964.829) rotate(-49)"/><circle class="c" cx="3.408" cy="3.408" r="3.408" transform="translate(585.473 959.857) rotate(-49)"/><circle class="d" cx="1.022" cy="1.022" r="1.022" transform="translate(593.336 982.496) rotate(-49)"/><circle class="d" cx="1.022" cy="1.022" r="1.022" transform="translate(600.756 957.339) rotate(-49)"/><circle class="e" cx="2.045" cy="2.045" r="2.045" transform="translate(580.406 949.583) rotate(-49)"/><path class="c" d="M25.586,8.529H0V2.693A2.587,2.587,0,0,1,2.693,0h20.2a2.587,2.587,0,0,1,2.693,2.693Z" transform="translate(364.417 858.755) rotate(-22)"/><path class="c" d="M34.115,57.008H8.08a2.587,2.587,0,0,1-2.693-2.693L0,0H42.644L37.257,54.315A3.279,3.279,0,0,1,34.115,57.008Z" transform="translate(364.324 880.094) rotate(-22)"/><path class="c" d="M8.529,0,0,11.222H42.644L34.115,0Z" transform="translate(359.704 869.857) rotate(-22)"/><line class="c" x2="39.95" transform="translate(370.537 893.076) rotate(-22)"/><line class="c" x2="38.155" transform="translate(374.565 900.647) rotate(-22)"/><path class="c" d="M467.894,330.281V318.9H390.5v11.381a15.841,15.841,0,0,0,6.07,12.141l3.794,3.035a13.915,13.915,0,0,1,5.312,7.587h0a14.58,14.58,0,0,0,13.657,9.864h18.211a14.58,14.58,0,0,0,13.657-9.864h0c.759-3.035,3.035-5.311,5.312-7.587l3.794-3.035C465.618,339.387,467.894,335.593,467.894,330.281Z" transform="translate(-142.473 518.439)"/><line class="c" x2="76.635" transform="translate(248.786 851.755)"/><path class="c" d="M388,338a22,22,0,1,1,44.008,0Z" transform="translate(-158.942 499.335)"/><path class="c" d="M389,316.7l14.416,16.693L417.074,316.7" transform="translate(-152.354 503.946)"/><line class="c" y2="22.004" transform="translate(251.062 815.335)"/><path class="c" d="M422.609,324.6v57.666L391.5,392.13h62.977l-31.868-9.864" transform="translate(-135.885 555.988)"/><path class="c" d="M57.8,31.015H0L28.9,0Z" transform="translate(283.162 672.8) rotate(30)"/><rect class="c" width="40.179" height="58.506" transform="translate(274.98 703.889) rotate(30)"/><line class="c" x2="40.179" y2="15.508" transform="translate(271.455 709.993) rotate(30)"/><line class="c" x2="40.179" y2="15.508" transform="translate(264.759 721.592) rotate(30)"/><line class="c" x2="40.179" y2="15.508" transform="translate(258.062 733.19) rotate(30)"/><rect class="c" width="9.164" height="31.015" transform="translate(245.727 754.556) rotate(30)"/><path class="c" d="M0,0V7.754a11.366,11.366,0,0,0,4.229,9.164l4.934,4.934" transform="translate(268.924 767.949) rotate(30)"/><path class="c" d="M11.188,4.357s-4.233,1.814-6.35,1.21S0,1.333,0,1.333,4.233-.481,6.35.123,11.188,4.357,11.188,4.357Z" transform="translate(408.439 810.847) rotate(-30)"/><path class="c" d="M0,4.357s4.233,1.814,6.35,1.21,4.838-4.233,4.838-4.233S6.955-.481,4.838.123,0,4.357,0,4.357Z" transform="translate(426.77 800.264) rotate(-30)"/><path class="c" d="M23.594,16.631l-1.814.6a21.8,21.8,0,0,1-16.329-.907h0A6.585,6.585,0,0,1,2.73,14.212C-.294,9.676.008,2.117.008,2.117L5.754,3.931V0C16.942,3.024,22.99,7.56,22.99,7.56l3.024,1.814L29.037,7.56S35.085,2.721,46.273,0V3.931l5.745-1.814s.6,7.257-2.721,12.1a4.826,4.826,0,0,1-2.722,2.117h0a21.8,21.8,0,0,1-16.329.907l-1.814-.6A6.678,6.678,0,0,0,23.594,16.631Z" transform="translate(395.316 808.091) rotate(-30)"/><path class="c" d="M3.629,3.931V27.819a1.743,1.743,0,0,1-1.814,1.814h0A1.743,1.743,0,0,1,0,27.819V0" transform="translate(403.768 817.876) rotate(-30)"/><path class="c" d="M8.387,3.266s-3.173,1.36-4.76.907S0,1,0,1,3.173-.361,4.76.093,8.387,3.266,8.387,3.266Z" transform="translate(355.922 970.015) rotate(-30)"/><path class="c" d="M0,3.266s3.173,1.36,4.76.907S8.387,1,8.387,1,5.213-.361,3.627.093,0,3.266,0,3.266Z" transform="translate(369.663 962.082) rotate(-30)"/><path class="c" d="M17.686,12.466l-1.36.453a16.343,16.343,0,0,1-12.24-.68h0a4.935,4.935,0,0,1-2.04-1.587C-.22,7.253.006,1.587.006,1.587l4.307,1.36V0c8.387,2.267,12.92,5.667,12.92,5.667L19.5,7.027l2.266-1.36S26.3,2.04,34.686,0V2.947l4.306-1.36s.453,5.44-2.04,9.066a3.617,3.617,0,0,1-2.04,1.587h0a16.343,16.343,0,0,1-12.24.68l-1.36-.453A5.006,5.006,0,0,0,17.686,12.466Z" transform="translate(346.085 967.949) rotate(-30)"/><path class="c" d="M2.72,2.947V20.853a1.306,1.306,0,0,1-1.36,1.36h0A1.306,1.306,0,0,1,0,20.853V0" transform="translate(352.421 975.284) rotate(-30)"/><path class="c" d="M28.726,21.167H3.931L0,0H32.657Z" transform="matrix(0.966, 0.259, -0.259, 0.966, 111.904, 773.975)"/><path class="c" d="M18.748,21.167H2.419L0,0H21.167Z" transform="matrix(0.966, 0.259, -0.259, 0.966, 117.453, 775.462)"/><path class="c" d="M8.467,21.167H1.21L0,0H9.676Z" transform="matrix(0.966, 0.259, -0.259, 0.966, 123.003, 776.949)"/><line class="c" y2="21.167" transform="matrix(0.966, 0.259, -0.259, 0.966, 127.676, 778.201)"/><path class="c" d="M1.408,5.443.2,3.024A2.282,2.282,0,0,1,.5.6h0A2.551,2.551,0,0,1,2.618,0L18.644,5.443Z" transform="matrix(0.966, 0.259, -0.259, 0.966, 115.749, 769.37)"/><path class="c" d="M0,5.019V7.74l15.422,5.141h5.745a6.483,6.483,0,0,0-3.326-5.745L7.862.786a5.145,5.145,0,0,0-4.233-.6h0A5.175,5.175,0,0,0,0,5.019Z" transform="matrix(0.966, 0.259, -0.259, 0.966, 120.787, 763.02)"/><path class="c" d="M13.305,17.26h3.931V14.841a12.7,12.7,0,0,0-1.814-6.35c-1.814-3.024-4.536-7.257-5.14-7.56h0A6.8,6.8,0,0,0,1.21,3.048L0,4.862" transform="matrix(0.966, 0.259, -0.259, 0.966, 129.514, 760.825)"/><path class="c" d="M3.931,6.652V0H0V10.583" transform="matrix(0.966, 0.259, -0.259, 0.966, 130.703, 755.22)"/><path class="c" d="M3.629,3.931A1.743,1.743,0,0,1,1.814,5.745,1.951,1.951,0,0,1,0,3.931C0,3.024,1.814,0,1.814,0S3.629,2.721,3.629,3.931Z" transform="matrix(0.966, 0.259, -0.259, 0.966, 133.5, 745.952)"/><rect class="c" width="27.717" height="71.813" transform="translate(84.421 1026.009)"/><path class="c" d="M432.2,296.468c0-5.669,10.079-18.268,10.079-18.268s10.079,12.6,10.079,18.268a9.95,9.95,0,0,1-10.079,10.079A10.36,10.36,0,0,1,432.2,296.468Z" transform="translate(-344 711.903)"/><circle class="c" cx="3.78" cy="3.78" r="3.78" transform="translate(94.5 1004.591)"/><path class="c" d="M431.6,285.2h3.78a3.631,3.631,0,0,1,3.78,3.78v18.268a3.631,3.631,0,0,0,3.78,3.78h0a3.631,3.631,0,0,0,3.78-3.78V288.98a3.631,3.631,0,0,1,3.78-3.78h0a3.631,3.631,0,0,1,3.78,3.78v8.189h3.78" transform="translate(-347.179 748.998)"/><line class="c" x2="60.474" transform="translate(68.042 1098.452)"/><line class="c" x2="96.552" transform="translate(353.19 1032.134)"/><path class="c" d="M468.668,295.7h0a3.236,3.236,0,0,1-3.368-3.368V281.668a3.236,3.236,0,0,1,3.368-3.368h0a3.236,3.236,0,0,1,3.368,3.368v10.666A3.622,3.622,0,0,1,468.668,295.7Z" transform="translate(-100.883 729.134)"/><path class="c" d="M480.768,295.7h0a3.236,3.236,0,0,1-3.368-3.368V281.668a3.236,3.236,0,0,1,3.368-3.368h0a3.236,3.236,0,0,1,3.368,3.368v10.666A3.622,3.622,0,0,1,480.768,295.7Z" transform="translate(-45.06 729.134)"/><line class="c" x2="60.626" transform="translate(371.153 1017.539)"/><path class="c" d="M548.725,280.1h7.3a3.236,3.236,0,0,1,3.368,3.368v78.589a3.236,3.236,0,0,1-3.368,3.368H466.768a3.236,3.236,0,0,1-3.368-3.368V283.468a3.236,3.236,0,0,1,3.368-3.368h7.3" transform="translate(-109.649 737.439)"/><rect class="c" width="81.957" height="57.258" transform="translate(360.487 1038.87)"/><ellipse class="c" cx="8.982" cy="10.666" rx="8.982" ry="10.666" transform="translate(392.484 1047.852)"/><path class="c" d="M477.052,307.263l-.561-.561A10.908,10.908,0,0,1,472,297.72V289.3" transform="translate(-69.973 779.883)"/><path class="c" d="M436.286,144.909h-84.5L348.6,138h91.406Z" transform="translate(335.468 718.818)"/><line class="c" x2="104.692" transform="translate(677.16 856.818)"/><path class="c" d="M360.9,131.3c13.286,6.909,22.32,20.194,22.32,35.606" transform="translate(388.534 689.913)"/><path class="c" d="M349.2,170.789c0-22.32,19.132-40.389,41.983-40.389a48.25,48.25,0,0,1,12.223,1.594" transform="translate(338.057 686.03)"/><path class="c" d="M375.695,154.746c-1.063,3.72-4.251,7.44-7.972,7.971a9.147,9.147,0,0,1-6.377-1.063,7.542,7.542,0,0,1-4.251-4.783c-1.594-3.72-.531-7.972,2.657-11.16L375.163,130.3l5.846,3.189Z" transform="translate(368.957 685.598)"/><path class="c" d="M367.872,133.232a3.465,3.465,0,1,0-4.783,1.063L359.9,140.14l5.846,3.189,3.188-5.846a3.464,3.464,0,0,0,3.72-5.846A4.286,4.286,0,0,0,367.872,133.232Z" transform="translate(384.22 675.226)"/><path class="c" d="M356.318,122.1a6.736,6.736,0,0,0,0,9.566l1.063,1.063a7.185,7.185,0,0,1,.531,9.034" transform="translate(360.168 650.221)"/><path class="c" d="M358.518,124.5a6.736,6.736,0,0,0,0,9.566l1.063,1.063a7.185,7.185,0,0,1,.532,9.034" transform="translate(369.659 660.575)"/><path class="c" d="M359.818,122.1a6.736,6.736,0,0,0,0,9.566l1.063,1.063a7.184,7.184,0,0,1,.531,9.034" transform="translate(375.268 650.221)"/></g></svg>