<svg xmlns="http://www.w3.org/2000/svg" viewBox="0 0 626.396 281.464"><defs><style>.a{fill:#adadad;}.b,.c,.d,.f{fill:none;stroke-width:0.636px;}.b{stroke:#6d6d6d;}.b,.c,.d{stroke-linecap:round;}.b,.c{stroke-linejoin:round;stroke-miterlimit:10;}.c,.d,.f{stroke:#414042;}.e{fill:#414042;stroke:#707070;}</style></defs><g transform="translate(0.318 0.318)"><g transform="translate(54.682 16.734)"><path class="a" d="M135,381.639H123V378h12Zm-11.239-.787h10.572v-2.065H123.762v2.065Z" transform="translate(-104.133 -167.426)"/><path class="a" d="M138.163,397.222H119.4V392.6h18.763Zm-18-.688H137.4v-3.049H120.162Z" transform="translate(-103.961 -167.667)"/><path class="a" d="M134.462,386.014H123.7V380.9h10.763Zm-10.1-.787H133.7v-3.541h-9.334Z" transform="translate(-104.166 -167.474)"/><path class="a" d="M136.177,393.365H121.7V385.3h14.477Zm-13.715-.787H135.51v-6.491H122.462Z" transform="translate(-104.071 -167.546)"/><path class="a" d="M130.743,396.982H127.6V378h3.143Zm-2.381-.688h1.714V378.787h-1.714Z" transform="translate(-104.351 -167.426)"/><rect class="a" width="2.476" height="0.787" transform="translate(19.534 219.721)"/><rect class="a" width="2.476" height="0.787" transform="translate(19.534 221.393)"/><rect class="a" width="2.476" height="0.787" transform="translate(19.534 223.065)"/><rect class="a" width="2.476" height="0.787" transform="translate(27.725 219.721)"/><rect class="a" width="2.476" height="0.787" transform="translate(27.725 221.393)"/><rect class="a" width="2.476" height="0.787" transform="translate(27.725 223.065)"/><path class="a" d="M129.474,378.608a.713.713,0,0,1-.381-.2.442.442,0,0,1-.1-.492c.286-1.279.857-3.442,1.524-4.131a2.215,2.215,0,0,1,1.524-.688,1.869,1.869,0,0,1,1.524.688h0a2.357,2.357,0,0,1,.667,1.574,1.986,1.986,0,0,1-.667,1.574c-.571.688-2.762,1.279-4,1.574C129.57,378.608,129.57,378.608,129.474,378.608Zm2.572-4.623h0a1.509,1.509,0,0,0-1.048.492,12.771,12.771,0,0,0-1.238,3.442A10.824,10.824,0,0,0,133,376.641a1.508,1.508,0,0,0,.381-1.082,1.6,1.6,0,0,0-.476-1.082h0C132.808,374.083,132.427,373.985,132.046,373.985Z" transform="translate(-104.416 -167.345)"/><path class="a" d="M129,378.726h0a9.5,9.5,0,0,1-3.429-1.082,1.918,1.918,0,0,1-.19-2.656h0a1.777,1.777,0,0,1,2.572-.2,9.21,9.21,0,0,1,1.524,3.246.442.442,0,0,1-.1.492A.49.49,0,0,1,129,378.726Zm.1-.787Zm-3.143-2.459a1.123,1.123,0,0,0,.1,1.574,12.2,12.2,0,0,0,2.572.787,10.764,10.764,0,0,0-1.143-2.557,1.051,1.051,0,0,0-1.524.2Z" transform="translate(-104.225 -167.366)"/><rect class="a" width="7.81" height="0.787" transform="translate(26.011 226.9)"/><rect class="a" width="7.81" height="0.787" transform="translate(15.629 226.9)"/><rect class="a" width="0.762" height="0.787" transform="translate(27.63 215.59)"/><rect class="a" width="0.762" height="0.787" transform="translate(21.439 215.59)"/><path class="a" d="M2.169,7.738h-.1c-.192-.1-.384-.2-.386-.4L0,.362.384.267c.191,0,4.956-1.132,8.13,1.447l.1.1.042,4.708-.478-.1S4.251,5.6,2.644,7.448A.506.506,0,0,1,2.169,7.738Zm-.2-.688ZM.772.958l1.485,5.9C3.866,5.3,6.733,5.523,7.786,5.729L7.755,2.3C5.351.411,1.916.772.772.958Z" transform="translate(285.202 85.617) rotate(17)"/><path class="a" d="M4.307,1.255A3.769,3.769,0,0,0,.391,1.219L0,.627A4.586,4.586,0,0,1,4.684.67Z" transform="translate(292.356 89.037) rotate(17)"/><path class="a" d="M2.3,1.393A3.662,3.662,0,0,1,0,.587L.476,0A3.133,3.133,0,0,0,4.3.038l.388.69A4.884,4.884,0,0,1,2.3,1.393Z" transform="translate(291.036 93.496) rotate(17)"/><path class="a" d="M2.4,1.3A3.263,3.263,0,0,1,.484.787,1.1,1.1,0,0,1,0,.1L.764.005S1.058.891,4.3.332l.1.786A16.946,16.946,0,0,1,2.4,1.3Z" transform="translate(284.669 93.132) rotate(17)"/><path class="a" d="M6.463,7.712a.5.5,0,0,1-.384-.2C4.439,5.634.53,6.383.53,6.383l-.477.094L.012,1.768l.095-.1C3.236-.851,8.021.272,8.213.372l.383.1L7.033,7.423c-.094.2-.188.391-.379.389C6.559,7.712,6.559,7.712,6.463,7.712Zm-4.126-2.2A5.587,5.587,0,0,1,6.36,6.828L7.74.956C6.592.749,3.151.326.779,2.167L.81,5.6A6.6,6.6,0,0,1,2.337,5.516Z" transform="translate(296.571 89.275) rotate(17)"/><path class="a" d="M2.015,1.285A17.147,17.147,0,0,1,.007,1.071L.1.287C3.348.9,3.627.025,3.627.025L4.392.13A1.046,1.046,0,0,1,3.92.812,3.178,3.178,0,0,1,2.015,1.285Z" transform="translate(296.874 96.992) rotate(17)"/><path class="a" d="M.935,10.593a.851.851,0,0,1-.478-.1A.76.76,0,0,1,.069,9.8L.055,8.231l.765.105L.833,9.808c0,.1,0,.1.1.1h.1l2.087-1.55L5.591,7.89v-.2C2.984,4.727,2.659.311,2.561.114L3.325.023s.42,4.319,2.832,7.087a.786.786,0,0,1,.2.786.973.973,0,0,1-.472.584h-.1L3.4,8.948,1.316,10.5C1.222,10.6,1.126,10.6.935,10.593Z" transform="translate(291.867 96.131) rotate(17)"/><path class="a" d="M5.858,8.09h0l-.191,0-2.3-1.2-2.475.86h-.1a.736.736,0,0,1-.673-.5,1.1,1.1,0,0,1-.007-.785C.677,5.3,2.179,2.368,2.349.016l.765.105C2.944,2.473,1.536,5.3.785,6.769v.1h0l2.571-.859,2.495,1.3h0v-.1C5.636,4.557,4.934.726,4.934.726L5.7.635s.7,3.93.918,6.58a.886.886,0,0,1-.28.684A.707.707,0,0,1,5.858,8.09Z" transform="translate(287.733 95.029) rotate(17)"/><path class="a" d="M.392,1.282,0,.592A6.267,6.267,0,0,1,2.96.031l.007.785A3.425,3.425,0,0,0,.392,1.282Z" transform="translate(295.972 91.964) rotate(17)"/><path class="a" d="M2.4,1.2A6.293,6.293,0,0,0,.007.785L0,0A7.782,7.782,0,0,1,2.774.516Z" transform="translate(289.796 89.607) rotate(17)"/><path class="a" d="M.009,1.075,0,.291A6.891,6.891,0,0,0,1.623.011L1.82.7A3.708,3.708,0,0,1,.009,1.075Z" transform="translate(290.106 91.251) rotate(17)"/><path class="a" d="M4.2,8.4A4.161,4.161,0,0,1-.043,4.235,4.439,4.439,0,0,1,4.312-.043,4.161,4.161,0,0,1,8.552,4.121,4.439,4.439,0,0,1,4.2,8.4ZM4.3.725a3.584,3.584,0,0,0-3.562,3.5,3.361,3.361,0,0,0,3.47,3.407,3.584,3.584,0,0,0,3.562-3.5A3.361,3.361,0,0,0,4.3.725Z" transform="matrix(0.469, -0.883, 0.883, 0.469, 321.828, 150.446)"/><path class="a" d="M6.583,13.171a6.482,6.482,0,0,1-6.65-6.53A6.913,6.913,0,0,1,6.761-.067a6.482,6.482,0,0,1,6.65,6.53A6.913,6.913,0,0,1,6.583,13.171ZM6.751.7A6.123,6.123,0,0,0,.715,6.631,5.742,5.742,0,0,0,6.594,12.4a6.123,6.123,0,0,0,6.036-5.93A5.8,5.8,0,0,0,6.751.7Z" transform="matrix(0.469, -0.883, 0.883, 0.469, 318.597, 151.466)"/><path class="a" d="M1.972,14.756A1.139,1.139,0,0,1,.816,13.62L.867,9.783a7.36,7.36,0,0,1,.215-1.441l.1-.289c0-.192,0-.288-.093-.382L-.066,6.535l.032-2.4A4.563,4.563,0,0,1,1.081,1.148,2.626,2.626,0,0,1,3.147-.03l.391-.005L3.355,13.587A1.607,1.607,0,0,1,1.972,14.756ZM.622,6.238l.867.852a1.05,1.05,0,0,1,.279,1.051l-.1.289a6.573,6.573,0,0,0-.212,1.25L1.4,13.517a.443.443,0,0,0,.482.473A.472.472,0,0,0,2.38,13.5L2.552.649a2.123,2.123,0,0,0-1.085.782,4.067,4.067,0,0,0-.914,2.6L.524,6.239Z" transform="matrix(0.469, -0.883, 0.883, 0.469, 316.056, 154.748)"/><path class="a" d="M.012,0l.781-.01L.745,3.637l-.781.01Z" transform="matrix(0.469, -0.883, 0.883, 0.469, 325.106, 136.983)"/><path class="a" d="M2.254,14.949A1.084,1.084,0,0,1,1.1,13.813l.084-6.235A3.953,3.953,0,0,0,.239,5.1a1.566,1.566,0,0,1-.28-.955L.014.016,4.9-.049,4.842,4.076a1.636,1.636,0,0,1-.306.963,4.589,4.589,0,0,0-1.01,2.507l-.084,6.235A1.154,1.154,0,0,1,2.254,14.949ZM.785.773.738,4.227A.707.707,0,0,0,.927,4.7,4.892,4.892,0,0,1,1.963,7.567L1.879,13.8a.4.4,0,0,0,.386.379.431.431,0,0,0,.4-.389l.084-6.235A5.143,5.143,0,0,1,3.857,4.665c.1-.193.2-.29.2-.482L4.106.729Z" transform="matrix(0.469, -0.883, 0.883, 0.469, 323.986, 138.709)"/><path class="a" d="M160.857,390.791c-2.857,0-4.857-4.819-4.857-7.475a4.86,4.86,0,1,1,9.715,0C165.81,385.971,163.81,390.791,160.857,390.791Zm0-11.7a4.3,4.3,0,0,0-4.191,4.328c0,2.557,1.9,6.688,4.191,6.688,2.191,0,4.191-4.131,4.191-6.688A4.3,4.3,0,0,0,160.857,379.087Z" transform="translate(207.633 -242.171)"/><path class="a" d="M162.068,393.153h-2.1a.522.522,0,0,1-.476-.3.645.645,0,0,1,0-.59l1.048-1.672a.623.623,0,0,1,.952,0l1.048,1.672a.645.645,0,0,1,0,.59A.522.522,0,0,1,162.068,393.153Zm-1.714-.787h1.429l-.762-1.18Z" transform="translate(207.471 -242.37)"/><path class="a" d="M166.5,388.189a2.856,2.856,0,0,1-1.238-.3l.286-.688a1.379,1.379,0,0,0,.857.2c2.191,0,4.191-4.131,4.191-6.688a4.169,4.169,0,0,0-7.429-2.754l-.571-.492a4.823,4.823,0,0,1,3.81-1.869,4.959,4.959,0,0,1,4.857,5.016C171.458,383.37,169.458,388.189,166.5,388.189Z" transform="translate(207.319 -242.126)"/><path class="a" d="M167.668,390.553h-2.1a.522.522,0,0,1-.476-.3.645.645,0,0,1,0-.59L166.144,388a.623.623,0,0,1,.952,0l1.048,1.672a.645.645,0,0,1,0,.59A.522.522,0,0,1,167.668,390.553Zm-1.714-.787h1.429l-.762-1.18Z" transform="translate(207.204 -242.327)"/><path class="a" d="M170.357,380.841H169.6c0-1.869-2.1-2.852-2.1-2.852l.286-.688C167.881,377.4,170.357,378.48,170.357,380.841Z" transform="translate(207.086 -242.154)"/><path class="a" d="M161.645,396.242h0A4.27,4.27,0,0,1,160.6,392.8l.762.1a3.533,3.533,0,0,0,.857,2.852h0Z" transform="translate(207.417 -242.41)"/><path class="a" d="M167.445,393.642h0A4.269,4.269,0,0,1,166.4,390.2l.762.1a3.533,3.533,0,0,0,.857,2.852h0Z" transform="translate(207.141 -242.367)"/><path class="a" d="M11.605,7.739a4.864,4.864,0,0,1-2.3-.706A1.7,1.7,0,0,0,7.4,7.018a3.875,3.875,0,0,1-2.285.668C3.11,7.67.031,4.5.015,2.443,0-.01,3.718.02,5.054.031a4.377,4.377,0,0,1,2.584.9A1.431,1.431,0,0,0,9.165.948a4.055,4.055,0,0,1,2.57-.862C13.167.1,16.795.127,16.814,2.58,16.639,4.64,13.61,7.755,11.605,7.739ZM8.251,5.945a2.175,2.175,0,0,1,1.339.4,3.42,3.42,0,0,0,1.914.6c1.623.013,4.369-2.712,4.355-4.479-.009-1.178-1.445-1.68-4.4-1.7a4.059,4.059,0,0,0-2.094.67,1.967,1.967,0,0,1-2.291-.019,3.617,3.617,0,0,0-2.105-.7C2.005.693.578,1.27.586,2.35.6,4.018,3.295,6.886,5.013,6.9a3.331,3.331,0,0,0,1.9-.573A3.96,3.96,0,0,1,8.251,5.945Z" transform="matrix(0.966, 0.259, -0.259, 0.966, 416.514, 206.983)"/><path class="a" d="M2.4,2.842A8.255,8.255,0,0,1,.4,2.531l-.383-.1L.2,2.039S1.42-.9,5.343.314l.287.1,0,.294A2.505,2.505,0,0,1,4.69,2.272,4.155,4.155,0,0,1,2.4,2.842ZM1.061,1.948a3.78,3.78,0,0,0,3.052-.27A1.785,1.785,0,0,0,4.68,1,3.116,3.116,0,0,0,1.061,1.948Z" transform="matrix(0.966, 0.259, -0.259, 0.966, 424.383, 211.618)"/><path class="a" d="M3.172,2.858a3.919,3.919,0,0,1-2.2-.607A2.212,2.212,0,0,1,0,.673L0,.379l.286-.1c3.9-1.146,5.168,1.71,5.168,1.809l.194.394-.381.1A9.544,9.544,0,0,1,3.172,2.858ZM.771.974a1.87,1.87,0,0,0,.578.692,3.82,3.82,0,0,0,3.057.319C4.019,1.393,2.961.4.771.974Z" transform="matrix(0.966, 0.259, -0.259, 0.966, 418.034, 209.85)"/><path class="a" d="M10.548,6.734l-.006-.785a2.262,2.262,0,0,0,1.713-.575,2.929,2.929,0,0,0,.559-1.762,2.527,2.527,0,0,0-.973-2.363c-1.344-.992-4.2.064-6.2.735l-.476.192A6.377,6.377,0,0,1,.013,2.134L.389,1.45a5.863,5.863,0,0,0,4.582.037L5.446,1.3C7.73.431,10.585-.626,12.314.664a3.592,3.592,0,0,1,1.264,2.954,3.216,3.216,0,0,1-.746,2.251A3.424,3.424,0,0,1,10.548,6.734Z" transform="matrix(0.966, 0.259, -0.259, 0.966, 422.991, 204.819)"/><path class="a" d="M1.763,9.515S-1.508,6.348.945,2.737A4.343,4.343,0,0,1,5.7.715,4.65,4.65,0,0,0,8.942.054l.387.69A4.784,4.784,0,0,1,5.517,1.5a3.976,3.976,0,0,0-4.09,1.733c-2.076,3.025.618,5.7.714,5.8Z" transform="matrix(0.966, 0.259, -0.259, 0.966, 416.607, 199.889)"/><path class="a" d="M59.6,396.254a10.332,10.332,0,0,1,0-20.654,9.563,9.563,0,0,1,5.619,1.77l-.381.59a9.006,9.006,0,0,0-5.238-1.672,9.643,9.643,0,1,0,9.334,9.639,9.97,9.97,0,0,0-1.619-5.409l.571-.393a10.332,10.332,0,0,1,1.714,5.8A10.166,10.166,0,0,1,59.6,396.254Z" transform="translate(181.907 -267.173)"/><path class="a" d="M59.9,390.062a4.133,4.133,0,1,1,4-4.131A4.029,4.029,0,0,1,59.9,390.062Zm0-7.376a3.346,3.346,0,1,0,3.238,3.344A3.265,3.265,0,0,0,59.9,382.685Z" transform="translate(181.607 -267.275)"/><path class="a" d="M53.962,385.986H53.2a6.7,6.7,0,0,1,6.572-6.786v.787A5.809,5.809,0,0,0,53.962,385.986Z" transform="translate(181.736 -267.232)"/><path class="a" d="M52.162,385.958H51.4a8.327,8.327,0,0,1,8.191-8.458v.787A7.5,7.5,0,0,0,52.162,385.958Z" transform="translate(181.821 -267.204)"/><path class="a" d="M66.376,389.276l-.476-.492.952-.984V375.9h.762v12.2Z" transform="translate(181.132 -267.178)"/><path class="a" d="M0,0,1.936.031l.012.774L.012.774Z" transform="matrix(0.707, 0.707, -0.707, 0.707, 246.924, 120.826)"/><path class="a" d="M0,0,.774.012.819,2.82.045,2.807Z" transform="translate(247.094 121.487) rotate(45.032)"/><path class="a" d="M60.019,387.744a1.673,1.673,0,1,1,1.619-1.672A1.7,1.7,0,0,1,60.019,387.744Zm0-2.655a.984.984,0,0,0,0,1.967.915.915,0,0,0,.952-.984A.97.97,0,0,0,60.019,385.088Z" transform="translate(181.489 -267.318)"/><rect class="a" width="0.49" height="1.266" transform="translate(146.749 62.113)"/><rect class="a" width="0.49" height="1.266" transform="translate(146.749 64.012)"/><rect class="a" width="0.49" height="1.266" transform="translate(146.749 66.797)"/><rect class="a" width="0.49" height="1.266" transform="translate(146.749 68.696)"/><rect class="a" width="1.226" height="0.506" transform="translate(149.63 65.784)"/><rect class="a" width="1.226" height="0.506" transform="translate(147.73 65.784)"/><rect class="a" width="1.226" height="0.506" transform="translate(145.033 65.784)"/><rect class="a" width="1.226" height="0.506" transform="translate(143.194 65.784)"/><path class="a" d="M0,0,1.246.02l.008.5L.008.5Z" transform="translate(149 67.746) rotate(45)"/><path class="a" d="M0,0,1.246.02l.008.5L.008.5Z" transform="translate(147.694 66.424) rotate(45)"/><path class="a" d="M0,0,1.246.02l.008.5L.008.5Z" transform="translate(145.773 64.387) rotate(45)"/><path class="a" d="M0,0,1.246.02l.008.5L.008.5Z" transform="translate(144.462 63.063) rotate(45)"/><path class="a" d="M0,0,.5.008l.02,1.246-.5-.008Z" transform="translate(144.984 67.748) rotate(45)"/><path class="a" d="M0,0,.5.008l.02,1.246-.5-.008Z" transform="translate(146.263 66.399) rotate(45)"/><path class="a" d="M0,0,.5.008l.02,1.246-.5-.008Z" transform="translate(148.252 64.416) rotate(45)"/><path class="a" d="M0,0,.5.008l.02,1.246-.5-.008Z" transform="translate(149.519 63.061) rotate(45)"/><rect class="a" width="0.49" height="1.456" transform="translate(154.044 65.721)"/><rect class="a" width="0.49" height="1.456" transform="translate(154.044 68.632)"/><path class="a" d="M0,0,.5.006.521,1.425l-.5-.006Z" transform="translate(156.053 66.749) rotate(63.973)"/><path class="a" d="M0,0,.5.006.521,1.425l-.5-.006Z" transform="translate(153.545 67.987) rotate(63.973)"/><path class="a" d="M0,0,1.421.02l.007.5L.007.5Z" transform="translate(154.989 68.053) rotate(29.434)"/><path class="a" d="M0,0,1.421.02l.007.5L.007.5Z" transform="translate(152.533 66.638) rotate(29.434)"/><rect class="a" width="0.49" height="1.203" transform="translate(150.12 70.658)"/><rect class="a" width="0.49" height="1.203" transform="translate(150.12 74.836)"/><path class="a" d="M0,0,.5.008.517,1.192l-.5-.008Z" transform="translate(152.012 71.27) rotate(45)"/><path class="a" d="M0,0,.5.008.517,1.192l-.5-.008Z" transform="translate(149.225 74.24) rotate(45)"/><path class="a" d="M0,0,1.184.019l.008.5L.008.5Z" transform="matrix(0.707, 0.707, -0.707, 0.707, 151.559, 74.236)"/><path class="a" d="M0,0,1.184.019l.008.5L.008.5Z" transform="matrix(0.707, 0.707, -0.707, 0.707, 148.688, 71.254)"/><rect class="a" width="1.165" height="0.506" transform="translate(151.776 73.127)"/><rect class="a" width="1.165" height="0.506" transform="translate(147.73 73.127)"/><g transform="translate(24.55)"><rect class="a" width="0.49" height="1.266" transform="translate(3.555)"/><rect class="a" width="0.49" height="1.266" transform="translate(3.555 1.899)"/><rect class="a" width="0.49" height="1.266" transform="translate(3.555 4.684)"/><rect class="a" width="0.49" height="1.266" transform="translate(3.555 6.583)"/><rect class="a" width="1.226" height="0.506" transform="translate(6.436 3.671)"/><rect class="a" width="1.226" height="0.506" transform="translate(4.536 3.671)"/><rect class="a" width="1.226" height="0.506" transform="translate(1.839 3.671)"/><rect class="a" width="1.226" height="0.506" transform="translate(0 3.671)"/><path class="a" d="M0,0,1.246.02l.008.5L.008.5Z" transform="translate(5.807 5.633) rotate(45)"/><path class="a" d="M0,0,1.246.02l.008.5L.008.5Z" transform="translate(4.5 4.312) rotate(45)"/><path class="a" d="M0,0,1.246.02l.008.5L.008.5Z" transform="translate(2.579 2.274) rotate(45)"/><path class="a" d="M0,0,1.246.02l.008.5L.008.5Z" transform="translate(1.268 0.95) rotate(45)"/><path class="a" d="M0,0,.5.008l.02,1.246-.5-.008Z" transform="translate(1.79 5.635) rotate(45)"/><path class="a" d="M0,0,.5.008l.02,1.246-.5-.008Z" transform="translate(3.07 4.287) rotate(45)"/><path class="a" d="M0,0,.5.008l.02,1.246-.5-.008Z" transform="translate(5.058 2.304) rotate(45)"/><path class="a" d="M0,0,.5.008l.02,1.246-.5-.008Z" transform="translate(6.325 0.948) rotate(45)"/><rect class="a" width="0.49" height="1.456" transform="translate(10.85 3.608)"/><rect class="a" width="0.49" height="1.456" transform="translate(10.85 6.52)"/><path class="a" d="M0,0,.5.006.521,1.425l-.5-.006Z" transform="translate(12.859 4.636) rotate(63.973)"/><path class="a" d="M0,0,.5.006.521,1.425l-.5-.006Z" transform="translate(10.351 5.874) rotate(63.973)"/><path class="a" d="M0,0,1.421.02l.007.5L.007.5Z" transform="translate(11.795 5.94) rotate(29.434)"/><path class="a" d="M0,0,1.421.02l.007.5L.007.5Z" transform="translate(9.339 4.525) rotate(29.434)"/><rect class="a" width="0.49" height="1.203" transform="translate(6.927 8.545)"/><rect class="a" width="0.49" height="1.203" transform="translate(6.927 12.723)"/><path class="a" d="M0,0,.5.008.517,1.192l-.5-.008Z" transform="translate(8.818 9.158) rotate(45)"/><path class="a" d="M0,0,.5.008.517,1.192l-.5-.008Z" transform="translate(6.032 12.128) rotate(45)"/><path class="a" d="M0,0,1.184.019l.008.5L.008.5Z" transform="matrix(0.707, 0.707, -0.707, 0.707, 8.366, 12.123)"/><path class="a" d="M0,0,1.184.019l.008.5L.008.5Z" transform="matrix(0.707, 0.707, -0.707, 0.707, 5.494, 9.142)"/><rect class="a" width="1.165" height="0.506" transform="translate(8.582 11.014)"/><rect class="a" width="1.165" height="0.506" transform="translate(4.536 11.014)"/></g><path class="a" d="M96.466,354.44a5.029,5.029,0,0,1-3.334-1.377,4.92,4.92,0,0,1,0-6.786,4.553,4.553,0,0,1,6.572,0,4.829,4.829,0,0,1,1.333,3.442,5.184,5.184,0,0,1-1.333,3.442A4.986,4.986,0,0,1,96.466,354.44Zm0-8.852a3.754,3.754,0,0,0-2.762,1.18,4.13,4.13,0,0,0,0,5.7,3.822,3.822,0,0,0,5.524,0,4.13,4.13,0,0,0,0-5.7A3.912,3.912,0,0,0,96.466,345.588Z" transform="translate(-85.227 -215.302)"/><path class="a" d="M87.7,360.53a1.907,1.907,0,0,1-1.429-.59,2.3,2.3,0,0,1-.1-2.951l5.715-6.59.571.492-5.715,6.59a1.307,1.307,0,0,0,.1,1.869,1.4,1.4,0,0,0,1.81.1l6.381-5.9.476.59-6.381,5.9A2.513,2.513,0,0,1,87.7,360.53Z" transform="translate(-84.937 -215.393)"/><path class="a" d="M92.253,356.946A5.484,5.484,0,0,1,89.3,353.9l.667-.2a4.407,4.407,0,0,0,2.572,2.557Z" transform="translate(-85.109 -215.447)"/><path class="a" d="M90.453,358.746A5.484,5.484,0,0,1,87.5,355.7l.667-.2a4.407,4.407,0,0,0,2.572,2.557Z" transform="translate(-85.024 -215.477)"/><path class="a" d="M87.472,364.476a2.661,2.661,0,0,1-1.81-4.524l.571-.59.476.492-.571.59a1.658,1.658,0,0,0-.476,1.279A1.9,1.9,0,0,0,86.138,363a1.743,1.743,0,0,0,2.476,0l5.238-5.409a1.523,1.523,0,0,1,2.286,0,1.643,1.643,0,0,1,0,2.36l-2.191,2.262-.476-.492,2.191-2.262a.858.858,0,0,0,0-1.279.8.8,0,0,0-1.238,0l-5.238,5.409A2,2,0,0,1,87.472,364.476Z" transform="translate(-84.9 -215.503)"/><path class="a" d="M99.377,353.388A6.592,6.592,0,0,1,92.9,346.7h.762a5.827,5.827,0,0,0,5.715,5.9Z" transform="translate(-85.281 -215.332)"/><path class="a" d="M90.41,388.844H89.077a27.919,27.919,0,0,1-6.477-.984l.19-.688c.1,0,10.953,2.951,18-1.672l.381.59A19.993,19.993,0,0,1,90.41,388.844Z" transform="translate(270.671 -327.133)"/><path class="a" d="M95.405,396.263a.343.343,0,0,1-.286-.1l-2.381-1.574-2.381,1.574a.59.59,0,0,1-.571,0,.6.6,0,0,1-.286-.59l.571-7.18.762.1-.476,6.786,2.476-1.672,2.476,1.672-.952-7.081.762-.1,1.048,7.376a.6.6,0,0,1-.286.59C95.6,396.165,95.5,396.263,95.405,396.263Z" transform="translate(270.343 -327.176)"/><path class="a" d="M98.853,395.145h0a.44.44,0,0,1-.476-.393L95.9,387.965l.667-.3,2.381,6.393,1.429-2.262,2.286.984-2.381-6.59.667-.3,2.572,6.983a.619.619,0,0,1-.1.59.57.57,0,0,1-.571.1l-2.1-.885-1.333,2.065A.687.687,0,0,1,98.853,395.145Z" transform="translate(270.039 -327.139)"/><path class="a" d="M87.257,396.263a.343.343,0,0,1-.286-.1l-1.81-1.869-2.1,1.475a.414.414,0,0,1-.476,0c-.19-.1-.19-.3-.19-.492l1.238-7.18.762.1-1.143,6.491,2.1-1.475,1.9,1.967L88.5,388.2l.762.1-1.333,7.573c0,.2-.19.3-.286.393Zm.19-.688Zm-4.476-.3Z" transform="translate(270.681 -327.176)"/><path class="a" d="M84.49,384.655l-.19-.689c.1,0,8.191-2.262,11.048-7.967l.667.393C92.967,382.295,84.871,384.557,84.49,384.655Z" transform="translate(270.59 -326.976)"/><path class="a" d="M0,0,4.107.05l.01.766L.01.766Z" transform="translate(360.478 54.938) rotate(64.78)"/><path class="a" d="M92.967,386.886l-.667-.3.952-1.967,2.1.2-2.857-4.327.571-.393,3.048,4.721a.645.645,0,0,1,0,.59.522.522,0,0,1-.476.3l-2.1-.2Zm2.857-2.164Z" transform="translate(270.21 -327.044)"/><path class="a" d="M97.581,383.583a.343.343,0,0,1-.286-.1l-4.1-3.442.476-.59,3.714,3.147.1-1.967,1.714-.2-3.81-3.246.476-.59,4.191,3.639c.19.1.19.393.19.59-.1.2-.19.393-.381.393l-1.619.2-.1,1.77a.544.544,0,0,1-.286.492C97.676,383.485,97.581,383.583,97.581,383.583Z" transform="translate(270.167 -326.986)"/><path class="a" d="M0,0,2.156.021l.008.765L.008.765Z" transform="translate(356.3 57.096) rotate(70.732)"/><path class="a" d="M0,0,4.214.042l.008.765L.008.765Z" transform="translate(359.467 55.369) rotate(70.453)"/><path class="a" d="M168.762,414.786H158v-4.229A2.564,2.564,0,0,1,160.476,408h5.905a2.564,2.564,0,0,1,2.476,2.557v4.229Zm-10.1-.787H168v-3.442a1.736,1.736,0,0,0-1.714-1.77h-5.905a1.736,1.736,0,0,0-1.714,1.77Z" transform="translate(182.79 -198.307)"/><path class="a" d="M171.8,424.624h-18v-7.278a3.224,3.224,0,0,1,3.143-3.246h11.715a3.224,3.224,0,0,1,3.143,3.246Zm-17.239-.787h16.572v-6.491a2.4,2.4,0,0,0-2.381-2.459H157.038a2.4,2.4,0,0,0-2.381,2.459v6.491Z" transform="translate(182.99 -198.407)"/><rect class="a" width="21.144" height="0.787" transform="translate(335.266 225.43)"/><rect class="a" width="21.144" height="0.787" transform="translate(335.266 227.003)"/><path class="a" d="M163.634,412.774h-.762a1.509,1.509,0,0,1-1.048-.492l-.1-.1a.849.849,0,0,0-1.143,0,1.509,1.509,0,0,1-1.048.492H158.3v-.787h1.238a1.325,1.325,0,0,0,.571-.2,1.577,1.577,0,0,1,2.191,0l.1.1a.686.686,0,0,0,.571.2h.762a1.325,1.325,0,0,0,.571-.2l.1-.1a1.577,1.577,0,0,1,2.191,0,.814.814,0,0,0,.572.3h1.333v.787h-1.333a1.508,1.508,0,0,1-1.048-.492.7.7,0,0,0-1.143,0l-.1.1A2.64,2.64,0,0,1,163.634,412.774Z" transform="translate(182.776 -198.36)"/><path class="a" d="M171.434,418.37h-2.191a1.779,1.779,0,0,1-1.238-.492l-.191-.2a1.13,1.13,0,0,0-1.524,0l-.19.2a1.55,1.55,0,0,1-1.238.492h-.476a1.78,1.78,0,0,1-1.238-.492l-.1-.1a1.13,1.13,0,0,0-1.524,0l-.1.1a1.55,1.55,0,0,1-1.238.492h-.19a1.779,1.779,0,0,1-1.238-.492.971.971,0,0,0-1.524,0,1.55,1.55,0,0,1-1.238.492h-1.9v-.787H156a1.062,1.062,0,0,0,.762-.3,1.743,1.743,0,0,1,2.476,0,1.062,1.062,0,0,0,.762.3h.19a1.062,1.062,0,0,0,.762-.3l.1-.1a1.743,1.743,0,0,1,2.476,0l.1.1a1.062,1.062,0,0,0,.762.3h.476a1.062,1.062,0,0,0,.762-.3l.19-.2a1.743,1.743,0,0,1,2.476,0l.19.2a1.062,1.062,0,0,0,.762.3h2.191Z" transform="translate(182.975 -198.448)"/><path class="a" d="M171.434,420.868h-2.191a1.78,1.78,0,0,1-1.238-.492l-.191-.2a1.13,1.13,0,0,0-1.524,0l-.19.2a1.55,1.55,0,0,1-1.238.492h-.476a1.78,1.78,0,0,1-1.238-.492l-.1-.1a1.13,1.13,0,0,0-1.524,0l-.1.1a1.55,1.55,0,0,1-1.238.492h-.19a1.779,1.779,0,0,1-1.238-.492.972.972,0,0,0-1.524,0,1.55,1.55,0,0,1-1.238.492h-1.9v-.885H156a1.062,1.062,0,0,0,.762-.3,1.743,1.743,0,0,1,2.476,0,1.062,1.062,0,0,0,.762.3h.19a1.062,1.062,0,0,0,.762-.3l.1-.1a1.743,1.743,0,0,1,2.476,0l.1.1a1.062,1.062,0,0,0,.762.3h.476a1.062,1.062,0,0,0,.762-.3l.19-.2a1.743,1.743,0,0,1,2.476,0l.19.2a1.062,1.062,0,0,0,.762.3h2.191Z" transform="translate(182.975 -198.488)"/><rect class="a" width="0.762" height="0.787" transform="translate(340.79 223.561)"/><rect class="a" width="0.762" height="0.787" transform="translate(342.314 223.561)"/><rect class="a" width="0.762" height="0.787" transform="translate(343.933 223.561)"/><rect class="a" width="0.762" height="0.787" transform="translate(345.457 223.561)"/><rect class="a" width="0.762" height="0.787" transform="translate(346.981 223.561)"/><rect class="a" width="0.762" height="0.787" transform="translate(348.6 223.561)"/><rect class="a" width="0.762" height="0.787" transform="translate(350.124 223.561)"/><rect class="a" width="0.762" height="0.787" transform="translate(344.123 211.365)"/><rect class="a" width="0.762" height="0.787" transform="translate(345.743 211.365)"/><rect class="a" width="0.762" height="0.787" transform="translate(347.266 211.365)"/><path class="a" d="M99.536,327.217c-1.429,0-3.81-1.672-5.715-3.737a20.252,20.252,0,0,1-2.953-3.934c-.667-1.377-.857-2.36-.286-2.951.476-.492,1.524-.393,2.857.3a19.767,19.767,0,0,1,3.81,3.049c2.476,2.557,4.381,5.7,3.238,6.885h0A1.975,1.975,0,0,1,99.536,327.217Zm-8.191-10.13c-.19,0-.286,0-.381.1-.19.2-.19.787.476,1.967a15.7,15.7,0,0,0,2.857,3.737c2.667,2.754,5.143,3.836,5.619,3.344h0c.476-.492-.571-2.951-3.238-5.8a18.283,18.283,0,0,0-3.619-2.951A5.442,5.442,0,0,0,91.345,317.087Z" transform="translate(374.665 -166.489)"/><path class="a" d="M85.955,331.856a.852.852,0,0,1-.667-.3.966.966,0,0,1-.19-.885L89.956,317.3l.667.3-4.857,13.376c0,.1,0,.1.1.1a.129.129,0,0,0,.19,0L99,326.447l.286.688-12.953,4.721Z" transform="translate(374.912 -166.505)"/><path class="a" d="M102.505,324.531h-.571v-.787h.571a1.178,1.178,0,0,0,1.143-1.18,1.244,1.244,0,0,0-.571-1.082c-2.572-1.475-5.905,2.164-5.905,2.164l-.571-.492c.19-.2,3.81-4.131,6.858-2.262a1.914,1.914,0,0,1,.952,1.672A1.942,1.942,0,0,1,102.505,324.531Z" transform="translate(374.363 -166.556)"/><path class="a" d="M93.533,319.965l-.476-.59s3.524-3.541,2.1-6.1a1.087,1.087,0,0,0-1.048-.59,1.178,1.178,0,0,0-1.143,1.18v.59H92.2v-.59a1.942,1.942,0,0,1,1.9-1.967,1.835,1.835,0,0,1,1.619.984C97.534,316.031,93.724,319.768,93.533,319.965Z" transform="translate(374.572 -166.416)"/><path class="a" d="M98.176,317.488l-.476-.59a5.064,5.064,0,0,0,1.333-5.8l.667-.3A5.588,5.588,0,0,1,98.176,317.488Z" transform="translate(374.311 -166.398)"/><path class="a" d="M103.8,318.634a1.968,1.968,0,1,1,1.9-1.967A1.942,1.942,0,0,1,103.8,318.634Zm0-3.246a1.178,1.178,0,0,0-1.143,1.18,1.25,1.25,0,0,0,1.143,1.18,1.178,1.178,0,0,0,1.143-1.18A1.25,1.25,0,0,0,103.8,315.388Z" transform="translate(374.111 -166.463)"/><path class="a" d="M97.043,312.16a1.181,1.181,0,1,1,1.143-1.18A1.069,1.069,0,0,1,97.043,312.16Zm0-1.672a.492.492,0,1,0,.476.492A.457.457,0,0,0,97.043,310.488Z" transform="translate(374.396 -166.382)"/><path class="a" d="M95.272,328.578a18.282,18.282,0,0,1-3.619-2.951,20.253,20.253,0,0,1-2.953-3.934l.667-.393a15.7,15.7,0,0,0,2.857,3.737,20.878,20.878,0,0,0,3.429,2.852Z" transform="translate(374.739 -166.571)"/><path class="a" d="M91.686,329.918a21.139,21.139,0,0,1-2.191-1.967,17.411,17.411,0,0,1-2.1-2.557l.571-.393a22.674,22.674,0,0,0,2,2.459c.667.689,1.429,1.377,2.1,1.967Z" transform="translate(374.801 -166.632)"/><rect class="a" width="0.762" height="5.114" transform="translate(463.725 155.516)"/><rect class="a" width="0.762" height="4.327" transform="translate(465.439 157.876)"/><rect class="a" width="0.762" height="2.951" transform="translate(467.249 159.745)"/><path class="a" d="M99.853,427.9H86.9V409.8H99.853Zm-12.191-.787H99.186V410.587H87.662Z" transform="translate(15.972 -267.487)"/><path class="a" d="M87.09,410.526l-.191-.688L97.758,406.1v2.951h-.667v-1.967Z" transform="translate(15.972 -267.426)"/><path class="a" d="M96.867,419.357H90.2V416.8h6.667Zm-6-.787h5.238v-1.082H90.867Z" transform="translate(15.815 -267.602)"/><rect class="a" width="3.143" height="0.787" transform="translate(109.634 152.542)"/><path class="a" d="M1.494,3.576a1.612,1.612,0,0,1-1.266-.6c-.5-.783-.029-1.841.927-2.5a2.018,2.018,0,0,1,2.709.14c.5.783.029,1.841-.927,2.5A2.29,2.29,0,0,1,1.494,3.576ZM2.706.786a1.747,1.747,0,0,0-1.057.371C.98,1.631.7,2.3.9,2.6a1.3,1.3,0,0,0,1.642-.071c.669-.474.948-1.147.75-1.441A.605.605,0,0,0,2.706.786Z" transform="translate(230.065 184.193) rotate(43)"/><path class="a" d="M1.494,3.576a1.612,1.612,0,0,1-1.266-.6c-.5-.783-.029-1.841.927-2.5a2.018,2.018,0,0,1,2.709.14c.5.783.029,1.841-.927,2.5A2.794,2.794,0,0,1,1.494,3.576ZM2.706.786a1.747,1.747,0,0,0-1.057.371C.98,1.631.7,2.3.9,2.6a1.3,1.3,0,0,0,1.642-.071c.669-.474.948-1.147.75-1.441A.605.605,0,0,0,2.706.786Z" transform="translate(224.308 181.339) rotate(43)"/><path class="a" d="M.833,10.352l-.677-.011L.029,2.395,6.855.082,6.99,8.513,6.216,8.5,6.1,1.136.713,2.89Z" transform="translate(232.917 176.847) rotate(43)"/><path class="a" d="M1.494,3.576a1.612,1.612,0,0,1-1.266-.6c-.5-.783-.029-1.841.927-2.5a2.018,2.018,0,0,1,2.709.14h0c.5.783.029,1.841-.927,2.5A2.8,2.8,0,0,1,1.494,3.576ZM2.706.786a1.747,1.747,0,0,0-1.057.371C.98,1.631.7,2.3.9,2.6a1.3,1.3,0,0,0,1.642-.071c.669-.474.948-1.147.75-1.441A.605.605,0,0,0,2.706.786Z" transform="translate(217.038 179.583) rotate(43)"/><path class="a" d="M.9,8.153.13,8.14,0,0,.387.006C1.162.116,2.62.623,2.642,1.98l-.774-.012C1.857,1.289,1.176.988.691.883L.807,8.151Z" transform="translate(224.1 176.791) rotate(43)"/><path class="a" d="M.02,0,.8-.007.723,6.411l-.782.01Z" transform="translate(236.047 182.922) rotate(115.013)"/><path class="a" d="M0,0,.774.012.808,2.144.034,2.132Z" transform="translate(228.667 176.348) rotate(43)"/><path class="a" d="M0,0,2.127.034,2.14.809.012.775Z" transform="translate(227.725 176.382) rotate(43)"/><path class="a" d="M0,0,.774.012.808,2.144.034,2.132Z" transform="translate(236.029 186.799) rotate(43)"/><path class="a" d="M0,0,2.127.034,2.14.809.012.775Z" transform="translate(235.087 186.833) rotate(43)"/><path class="a" d="M0,0,.774.012.808,2.144.034,2.132Z" transform="translate(225.747 187.656) rotate(43)"/><path class="a" d="M0,0,2.127.034,2.14.809.012.775Z" transform="translate(224.74 187.762) rotate(43)"/><path class="a" d="M0,0,.774.012.808,2.144.034,2.132Z" transform="translate(218.961 176.28) rotate(43)"/><path class="a" d="M0,0,2.127.034,2.14.809.012.775Z" transform="translate(217.954 176.386) rotate(43)"/><path class="a" d="M58.234,355.352a2.317,2.317,0,0,1-1.619-.787,1.873,1.873,0,0,1-1.238.393,2.149,2.149,0,0,1-2.1-2.164,1.754,1.754,0,0,1,.381-1.18,2.128,2.128,0,0,1-.762-1.672,2.149,2.149,0,0,1,2.1-2.164,1.174,1.174,0,0,1,.571.1,2.076,2.076,0,0,1,1.9-1.377,2.167,2.167,0,0,1,2.1,1.77,2.149,2.149,0,0,1,2.1,2.164,2.113,2.113,0,0,1-1.524,2.065,1.284,1.284,0,0,1,.1.59A1.945,1.945,0,0,1,58.234,355.352ZM56.8,353.385l.286.492a1.283,1.283,0,0,0,1.238.688,1.324,1.324,0,0,0,1.333-1.377,1.869,1.869,0,0,0-.19-.688l-.286-.59h.571a1.386,1.386,0,0,0,1.333-1.377,1.324,1.324,0,0,0-1.333-1.377h-.286l-.476.1v-.492a1.324,1.324,0,0,0-1.333-1.377,1.35,1.35,0,0,0-1.333,1.18l-.1.492-.476-.3a1.724,1.724,0,0,0-.667-.2,1.324,1.324,0,0,0-1.333,1.377,1.542,1.542,0,0,0,.762,1.279l.476.3-.381.393a1.285,1.285,0,0,0-.381.984,1.324,1.324,0,0,0,1.333,1.377,1.161,1.161,0,0,0,.952-.492Z" transform="translate(107.969 -169.419)"/><path class="a" d="M54.762,346.342H54a2.149,2.149,0,0,1,2.1-2.164,1.174,1.174,0,0,1,.571.1,2.076,2.076,0,0,1,1.9-1.377,1.947,1.947,0,0,1,1.9,1.377l-.667.3a1.328,1.328,0,0,0-2.572.3l-.1.492-.476-.3a1.724,1.724,0,0,0-.667-.2A1.565,1.565,0,0,0,54.762,346.342Z" transform="translate(107.916 -169.36)"/><path class="a" d="M57.519,352.644a1.673,1.673,0,1,1,1.619-1.672A1.633,1.633,0,0,1,57.519,352.644Zm0-2.557a.886.886,0,1,0,.857.885A.813.813,0,0,0,57.519,350.087Z" transform="translate(107.826 -169.465)"/><path class="a" d="M64.143,353.052a2.032,2.032,0,0,1-1.81-1.082l.667-.393a1.283,1.283,0,0,0,1.238.688,1.324,1.324,0,0,0,1.333-1.377,1.869,1.869,0,0,0-.19-.688l-.286-.59h.571A1.386,1.386,0,0,0,67,348.232a1.324,1.324,0,0,0-1.333-1.377h-.286l-.476.1v-.492a1.324,1.324,0,0,0-1.333-1.377,1.349,1.349,0,0,0-1.333,1.18l-.1.492-.476-.3a1.723,1.723,0,0,0-.667-.2v-.787a1.174,1.174,0,0,1,.571.1,2.076,2.076,0,0,1,1.9-1.377,2.167,2.167,0,0,1,2.1,1.77,2.149,2.149,0,0,1,2.1,2.164,2.113,2.113,0,0,1-1.524,2.065,1.284,1.284,0,0,1,.1.59A2.062,2.062,0,0,1,64.143,353.052Z" transform="translate(107.584 -169.381)"/><path class="a" d="M63.324,350.346h-.286l.1-.787a.725.725,0,0,0,.762-.2.858.858,0,0,0,0-1.279.8.8,0,0,0-1.238,0,.516.516,0,0,0-.19.393l-.667-.2a1.6,1.6,0,0,1,.381-.688,1.7,1.7,0,0,1,2.286,0,1.643,1.643,0,0,1,0,2.36A2,2,0,0,1,63.324,350.346Z" transform="translate(107.545 -169.43)"/><path class="a" d="M59.317,356.824c-3.81,0-6.286-.688-7.238-1.967a1.685,1.685,0,0,1-.381-1.475h0a4.221,4.221,0,0,0,.19-1.082h.762a9.129,9.129,0,0,1-.19,1.279,1.122,1.122,0,0,0,.286.885c.476.59,1.9,1.672,6.667,1.672v.688Z" transform="translate(108.028 -169.515)"/><path class="a" d="M60.962,358.38H60.2a4.049,4.049,0,0,1,.857-2.852c.857-.885,2.191-.885,3.619-.885h.476c2,0,2.1-3.442,2.1-3.442h.762c0,1.475-.667,4.229-2.857,4.229h-.476c-1.333,0-2.476,0-3.143.688A3.366,3.366,0,0,0,60.962,358.38Z" transform="translate(107.622 -169.497)"/><path class="a" d="M62.081,363.96h-.19a3.826,3.826,0,0,1-.857-.492c-.286-.2-.571-.492-.952-.492a2.649,2.649,0,0,0-1.143.393,5.587,5.587,0,0,1-.762.393.641.641,0,0,1-.762-.885v-.1a3.776,3.776,0,0,0-1.714-5.114l.286-.688a4.613,4.613,0,0,1,2.1,5.9c.1,0,.19-.1.286-.2a2.29,2.29,0,0,1,1.619-.492,2.575,2.575,0,0,1,1.238.689h0c-.857-1.869.381-4.229,1.048-5.508A6.4,6.4,0,0,1,63.7,355.6l.476.59a4.73,4.73,0,0,0-1.238,1.574c-.667,1.279-1.9,3.737-.762,5.311a.486.486,0,0,1,0,.689C62.367,363.862,62.272,363.96,62.081,363.96Zm-3.81-.688Z" transform="translate(107.836 -169.569)"/><path class="a" d="M162.115,330.957a19.094,19.094,0,0,1-3.334-.3,1.5,1.5,0,0,1-.857-.3,2.847,2.847,0,0,1-1.524-2.557V322.4h.762v5.409a2.03,2.03,0,0,0,1.143,1.869,1.345,1.345,0,0,0,.667.2,23.805,23.805,0,0,0,6.477,0,2.364,2.364,0,0,0,.667-.2,2.212,2.212,0,0,0,1.143-1.869V322.4h.762v5.409a2.847,2.847,0,0,1-1.524,2.557l-.857.3A24.151,24.151,0,0,1,162.115,330.957Z" transform="translate(203.818 -147.157)"/><path class="a" d="M161.981,320.777a14.428,14.428,0,0,1-4.381-.688l.19-.688a15.1,15.1,0,0,0,8.667,0l.19.688A16.627,16.627,0,0,1,161.981,320.777Z" transform="translate(203.761 -147.107)"/><path class="a" d="M151.734,327.149a2.184,2.184,0,0,1-.762-.2,1.318,1.318,0,0,1-.286-1.869l8.477-12.392a.994.994,0,0,1,.857-.492,1.08,1.08,0,0,1,.952.2,1.318,1.318,0,0,1,.286,1.869l-8.477,12.392a.994.994,0,0,1-.857.492Zm8.477-14.261h0a.552.552,0,0,0-.476.2l-8.477,12.392a.606.606,0,0,0-.1.393.517.517,0,0,0,.191.393.559.559,0,0,0,.381.1.49.49,0,0,0,.381-.2l8.477-12.392a.609.609,0,0,0-.1-.787A.343.343,0,0,0,160.211,312.888Z" transform="translate(204.102 -146.988)"/><path class="a" d="M162.077,323.173a25.487,25.487,0,0,1-6.477-.787l.19-.688a23.956,23.956,0,0,0,6.286.787c5.715,0,9.715-1.574,9.715-3.049s-4-3.049-9.715-3.049a17.774,17.774,0,0,0-2.286.1l-.1-.787a18.532,18.532,0,0,1,2.381-.1c5.048,0,10.382,1.279,10.382,3.737S167.124,323.173,162.077,323.173Z" transform="translate(203.856 -147.045)"/><path class="a" d="M153.5,321.8c-1.714-.787-2.1-1.672-2.1-2.36,0-1.475,2.1-2.754,5.619-3.344l.1.787c-3.429.59-4.953,1.77-4.953,2.656,0,.59.571,1.082,1.714,1.672Z" transform="translate(204.056 -147.053)"/><rect class="a" width="0.762" height="2.164" transform="translate(368.409 165.801)"/><rect class="a" width="2.095" height="0.787" transform="translate(367.742 166.49)"/><rect class="a" width="0.762" height="2.164" transform="translate(357.456 166.293)"/><rect class="a" width="2.095" height="0.787" transform="translate(356.789 166.982)"/><path class="a" d="M0,0,2.13.034l.012.774L.012.774Z" transform="matrix(0.707, 0.707, -0.707, 0.707, 372.512, 163.971)"/><path class="a" d="M0,0,.774.012l.034,2.13L.034,2.13Z" transform="translate(373.434 163.99) rotate(44.972)"/></g><g transform="translate(0 0)"><g transform="translate(69.208 49.869)"><path class="b" d="M244.969,87.5l1.223,2.707,2.971.541-2.1,1.985.524,3.068-2.622-1.444L242.348,95.8l.524-3.068L240.6,90.749l2.971-.541Z" transform="translate(-229.764 -87.5)"/><line class="b" y2="21.838" transform="translate(15.206 9.205)"/><path class="b" d="M237.546,91.8l.874,1.985,2.1.361-1.4,1.444.35,2.166-1.923-.9-1.923.9.35-2.166L234.4,94.146l2.1-.361Z" transform="translate(-234.4 -84.039)"/><path class="b" d="M251.346,91.8,250.3,93.785l-2.1.361,1.573,1.444-.35,2.166,1.923-.9,1.923.9-.35-2.166,1.4-1.444-2.1-.361Z" transform="translate(-224.081 -84.039)"/><path class="b" d="M245.3,111.058s3.67-10.107,6.642-14.258" transform="translate(-226.249 -80.015)"/><path class="b" d="M243.642,111.058S239.971,100.951,237,96.8" transform="translate(-232.456 -80.015)"/><ellipse class="b" cx="1.748" cy="1.805" rx="1.748" ry="1.805" transform="translate(8.914 12.453)"/><ellipse class="b" cx="1.748" cy="1.805" rx="1.748" ry="1.805" transform="translate(17.827 18.229)"/><ellipse class="b" cx="1.049" cy="1.083" rx="1.049" ry="1.083" transform="translate(3.496 2.888)"/><ellipse class="b" cx="1.049" cy="1.083" rx="1.049" ry="1.083" transform="translate(1.398 24.185)"/><ellipse class="b" cx="1.049" cy="1.083" rx="1.049" ry="1.083" transform="translate(26.391 1.263)"/><ellipse class="b" cx="1.049" cy="1.083" rx="1.049" ry="1.083" transform="translate(26.391 25.268)"/></g><g transform="translate(60.698 97.914)"><path class="b" d="M244.675,87.5l1.141,2.525,2.771.5-1.956,1.851.489,2.861L244.675,93.9l-2.445,1.346.489-2.861L240.6,90.529l2.771-.5Z" transform="translate(-230.495 -87.5)"/><line class="b" y2="20.365" transform="translate(14.18 8.584)"/><path class="b" d="M237.334,91.8l.815,1.851,1.956.337-1.3,1.346.326,2.02-1.793-.841-1.793.841.326-2.02L234.4,93.988l1.956-.337Z" transform="translate(-234.4 -84.563)"/><path class="b" d="M251.134,91.8l-.978,1.851-1.956.337,1.467,1.346-.326,2.02,1.793-.841,1.793.841-.326-2.02,1.3-1.346-1.956-.337Z" transform="translate(-225.708 -84.563)"/><path class="b" d="M245.3,110.1s3.423-9.425,6.193-13.3" transform="translate(-227.535 -81.148)"/><path class="b" d="M243.193,110.1s-3.423-9.425-6.193-13.3" transform="translate(-232.762 -81.148)"/><ellipse class="b" cx="1.63" cy="1.683" rx="1.63" ry="1.683" transform="translate(8.312 11.613)"/><ellipse class="b" cx="1.63" cy="1.683" rx="1.63" ry="1.683" transform="translate(16.624 16.999)"/><ellipse class="b" cx="0.978" cy="1.01" rx="0.978" ry="1.01" transform="translate(3.26 2.693)"/><ellipse class="b" cx="0.978" cy="1.01" rx="0.978" ry="1.01" transform="translate(1.304 22.553)"/><ellipse class="b" cx="0.978" cy="1.01" rx="0.978" ry="1.01" transform="translate(24.611 1.178)"/><ellipse class="b" cx="0.978" cy="1.01" rx="0.978" ry="1.01" transform="translate(24.611 23.563)"/></g><g transform="translate(256.435 214.541)"><path class="c" d="M279.535,109.679h0a7.88,7.88,0,0,1-5.279-9.54L277.687,87.6l14.518,4.361L288.774,104.5A7.629,7.629,0,0,1,279.535,109.679Z" transform="translate(-265.281 -83.784)"/><line class="c" x2="15.574" y2="1.09" transform="translate(9.239 15.265)"/><line class="c" x1="6.863" y2="24.805" transform="translate(7.391 25.896)"/><line class="c" x2="14.518" y2="4.361" transform="translate(0 48.52)"/><path class="c" d="M293.57,109.679h0a7.88,7.88,0,0,0,5.279-9.54L295.418,87.6,280.9,91.961l3.432,12.539A7.629,7.629,0,0,0,293.57,109.679Z" transform="translate(-253.975 -83.784)"/><line class="c" x1="15.31" y2="1.09" transform="translate(29.3 15.265)"/><line class="c" x2="6.863" y2="24.805" transform="translate(39.595 25.896)"/><line class="c" x1="14.518" y2="4.361" transform="translate(39.331 48.52)"/><line class="c" y1="3.544" transform="translate(26.925 0)"/><line class="c" x2="1.584" y2="1.636" transform="translate(21.909 1.908)"/><line class="c" y1="1.636" x2="1.584" transform="translate(30.356 1.908)"/></g><g transform="translate(525.509 192.285)"><path class="c" d="M342.5,101.343l-17.951,18.537a3.321,3.321,0,0,1-4.823,0h0a3.588,3.588,0,0,1,0-4.98l17.951-18.537a3.321,3.321,0,0,1,4.823,0h0A3.588,3.588,0,0,1,342.5,101.343Z" transform="translate(-300.975 -77.272)"/><path class="c" d="M330.587,126.7,312.1,88.8l37.242,18.537Z" transform="translate(-312.1 -88.8)"/><ellipse class="c" cx="2.679" cy="2.767" rx="2.679" ry="2.767" transform="translate(17.147 25.177)"/><ellipse class="c" cx="2.679" cy="2.767" rx="2.679" ry="2.767" transform="translate(20.63 13.834)"/><ellipse class="c" cx="2.679" cy="2.767" rx="2.679" ry="2.767" transform="translate(9.377 10.79)"/><line class="c" y1="2.49" transform="translate(16.075 20.474)"/><line class="c" x2="2.411" transform="translate(25.721 22.964)"/><line class="c" y1="2.49" transform="translate(30.543 17.984)"/><line class="c" y1="2.49" transform="translate(17.415 11.62)"/><line class="c" x2="2.411" transform="translate(6.43 8.023)"/></g><g transform="translate(422.752 224.873)"><rect class="c" width="29.091" height="17.078" transform="translate(0 18.312)"/><path class="c" d="M350.2,97.7h1.992a1.169,1.169,0,0,1,1.2,1.235v5.144a1.167,1.167,0,0,0,1.2,1.235h0a1.169,1.169,0,0,0,1.2-1.235V98.935a1.167,1.167,0,0,1,1.2-1.235h0a1.169,1.169,0,0,1,1.2,1.235v2.675a1.166,1.166,0,0,0,1.2,1.235h0a1.169,1.169,0,0,0,1.2-1.235V98.935a1.166,1.166,0,0,1,1.2-1.235h0a1.169,1.169,0,0,1,1.2,1.235v7.819a1.166,1.166,0,0,0,1.2,1.234h0a1.169,1.169,0,0,0,1.2-1.234V98.935a1.166,1.166,0,0,1,1.2-1.235h0a1.169,1.169,0,0,1,1.2,1.235v1.235a1.166,1.166,0,0,0,1.2,1.235h0a1.169,1.169,0,0,0,1.2-1.235V98.935a1.166,1.166,0,0,1,1.2-1.235h0a1.169,1.169,0,0,1,1.2,1.235v5.144a1.167,1.167,0,0,0,1.2,1.235h0a1.169,1.169,0,0,0,1.2-1.235V98.935a1.166,1.166,0,0,1,1.2-1.235H378.1" transform="translate(-350.2 -76.713)"/><rect class="c" width="3.786" height="7.819" transform="translate(6.376 10.493)"/><rect class="c" width="3.786" height="7.819" transform="translate(18.929 10.493)"/><rect class="c" width="3.786" height="10.493" transform="translate(12.553 7.819)"/><path class="c" d="M356.191,92.709a1.2,1.2,0,1,1-2.391,0A30.533,30.533,0,0,1,355,88.8,22.711,22.711,0,0,1,356.191,92.709Z" transform="translate(-346.627 -86.125)"/><path class="c" d="M359.291,91.409a1.166,1.166,0,0,1-1.2,1.234,1.307,1.307,0,0,1-1.2-1.234,30.533,30.533,0,0,1,1.2-3.909A22.71,22.71,0,0,1,359.291,91.409Z" transform="translate(-343.55 -87.5)"/><path class="c" d="M362.59,92.709a1.167,1.167,0,0,1-1.2,1.235A1.508,1.508,0,0,1,360,92.709a30.531,30.531,0,0,1,1.2-3.909A20.412,20.412,0,0,1,362.59,92.709Z" transform="translate(-340.473 -86.125)"/></g><g transform="translate(434.625 188.676)"><path class="d" d="M8.533-.1c4.709-.076,8.513.658,8.5,1.639S13.185,3.375,8.476,3.45s-8.513-.658-8.5-1.639S3.824-.027,8.533-.1Z" transform="translate(7.5 18.829) rotate(-45)"/><line class="c" x1="7.865" y1="20.214" transform="translate(20.449 7.941)"/><line class="c" x2="19.575" y2="8.122" transform="translate(8.739 20.034)"/><path class="c" d="M396.5,100.95s4.369-3.249,8.04-1.263" transform="translate(-378.323 -76.946)"/><path class="c" d="M394.7,103.907A16.024,16.024,0,0,0,402.041,93.8" transform="translate(-379.669 -81.166)"/><path class="c" d="M394,102.319s2.971-2.166,2.272-7.219" transform="translate(-380.193 -80.12)"/><ellipse class="c" cx="1.049" cy="1.083" rx="1.049" ry="1.083" transform="translate(2.622 10.468)"/><ellipse class="c" cx="1.049" cy="1.083" rx="1.049" ry="1.083" transform="translate(8.914 7.219)"/><ellipse class="c" cx="1.049" cy="1.083" rx="1.049" ry="1.083" transform="translate(12.06 0.722)"/><path class="c" d="M396.045,94.075S392.9,91.549,392.2,88.3" transform="translate(-381.539 -85.593)"/><path class="c" d="M392.772,95.146A7.8,7.8,0,0,0,390.5,92.8" transform="translate(-382.81 -81.971)"/><path class="c" d="M387.7,95.611s2.1-.9,5.418.722" transform="translate(-384.903 -79.909)"/><path class="c" d="M396.366,88.7s-.874,1.083,0,3.249" transform="translate(-378.714 -85.271)"/><ellipse class="e" cx="0.524" cy="0.541" rx="0.524" ry="0.541" transform="translate(5.418 18.409)"/><ellipse class="e" cx="0.524" cy="0.541" rx="0.524" ry="0.541" transform="translate(0 14.258)"/><ellipse class="e" cx="0.524" cy="0.541" rx="0.524" ry="0.541" transform="translate(11.011 11.009)"/><ellipse class="e" cx="0.524" cy="0.541" rx="0.524" ry="0.541" transform="translate(7.865 4.512)"/><ellipse class="e" cx="0.524" cy="0.541" rx="0.524" ry="0.541" transform="translate(14.856 5.414)"/><ellipse class="e" cx="0.524" cy="0.541" rx="0.524" ry="0.541" transform="translate(17.653 0)"/></g><g transform="matrix(0.966, 0.259, -0.259, 0.966, 123.744, 219.59)"><path class="d" d="M3.859-.023C5.987-.041,7.7,1.235,7.69,2.827S5.942,5.722,3.814,5.74-.03,4.481-.017,2.89,1.731-.006,3.859-.023Z" transform="matrix(0.866, -0.5, 0.5, 0.866, 0.166, 27.928)"/><path class="c" d="M.2,26.979.041,6.808,17.327.105,17.5,21.357" transform="translate(8.364 0.616)"/><path class="d" d="M3.859-.023C5.987-.041,7.7,1.235,7.69,2.827S5.942,5.722,3.814,5.74-.03,4.481-.017,2.89,1.731-.006,3.859-.023Z" transform="matrix(0.866, -0.5, 0.5, 0.866, 17.44, 22.303)"/><line class="c" y1="6.703" x2="17.287" transform="translate(8.429 3.783)"/><path class="c" d="M2.8.017l.892,1.988,1.93.376L4.229,3.811,4.6,5.794,2.836,4.88l-1.744.886.335-1.978L.014,2.335l1.924-.344Z" transform="translate(1.178 1.068)"/><path class="c" d="M2.8.017,3.69,2.005l1.928.2L4.228,3.63,4.42,5.793,2.837,4.88l-1.744.886.333-2.158L.013,2.155l1.925-.164Z" transform="translate(25.895 25.942)"/><path class="d" d="M1.049.006A1.087,1.087,0,0,1,2.108,1.1,1.046,1.046,0,0,1,1.066,2.168,1.087,1.087,0,0,1,.006,1.078,1.046,1.046,0,0,1,1.049.006Z" transform="translate(0.221 13.303)"/><path class="d" d="M1.049.006A1.087,1.087,0,0,1,2.108,1.1,1.046,1.046,0,0,1,1.066,2.168,1.087,1.087,0,0,1,.006,1.078,1.046,1.046,0,0,1,1.049.006Z" transform="translate(29.158 18.041)"/><path class="e" d="M.524,0a.543.543,0,0,1,.53.545.523.523,0,0,1-.521.536A.543.543,0,0,1,0,.539.523.523,0,0,1,.524,0Z" transform="translate(21.54 29.323)"/><path class="e" d="M.524,0a.543.543,0,0,1,.53.545.523.523,0,0,1-.521.536A.543.543,0,0,1,0,.539.523.523,0,0,1,.524,0Z" transform="translate(27.356 11.722)"/><path class="e" d="M.524,0a.543.543,0,0,1,.53.545.523.523,0,0,1-.521.536A.543.543,0,0,1,0,.539.523.523,0,0,1,.524,0Z" transform="translate(5.156 17.304)"/><path class="e" d="M.524,0a.543.543,0,0,1,.53.545.523.523,0,0,1-.521.536A.543.543,0,0,1,0,.539.523.523,0,0,1,.524,0Z" transform="translate(9.592 2.393)"/><path class="e" d="M.524,0a.543.543,0,0,1,.53.545.523.523,0,0,1-.521.536A.543.543,0,0,1,0,.539.523.523,0,0,1,.524,0Z" transform="translate(12.901 0.078)"/><path class="e" d="M.524,0a.543.543,0,0,1,.53.545.523.523,0,0,1-.521.536A.543.543,0,0,1,0,.539.523.523,0,0,1,.524,0Z" transform="translate(0.804 20.69)"/></g><g transform="translate(448.083 140.848)"><path class="d" d="M3.886-.041C6.027-.071,7.745,1.188,7.723,2.77S5.948,5.659,3.807,5.689-.052,4.461-.03,2.879,1.745-.011,3.886-.041Z" transform="matrix(0.866, -0.5, 0.5, 0.866, 0, 28.012)"/><path class="c" d="M238.6,152.672V132.458l17.3-6.858v21.3" transform="translate(-230.211 -125.059)"/><path class="d" d="M3.886-.041C6.027-.071,7.745,1.188,7.723,2.77S5.948,5.659,3.807,5.689-.052,4.461-.03,2.879,1.745-.011,3.886-.041Z" transform="matrix(0.866, -0.5, 0.5, 0.866, 17.282, 22.234)"/><line class="c" y1="6.858" x2="17.303" transform="translate(8.389 3.61)"/><path class="c" d="M237.3,125.9l.874,1.985,1.923.361-1.4,1.444.35,1.985-1.748-.9-1.748.9.35-1.985-1.4-1.444,1.923-.361Z" transform="translate(-233.277 -124.817)"/><path class="c" d="M251.3,139.6l.874,1.985,1.923.18-1.4,1.444.175,2.166-1.573-.9-1.748.9.35-2.166-1.4-1.444,1.923-.18Z" transform="translate(-222.808 -113.791)"/><ellipse class="c" cx="1.049" cy="1.083" rx="1.049" ry="1.083" transform="translate(0.175 13.356)"/><ellipse class="c" cx="1.049" cy="1.083" rx="1.049" ry="1.083" transform="translate(29.013 17.868)"/><ellipse class="e" cx="0.524" cy="0.541" rx="0.524" ry="0.541" transform="translate(21.323 29.238)"/><ellipse class="e" cx="0.524" cy="0.541" rx="0.524" ry="0.541" transform="translate(27.265 11.551)"/><ellipse class="e" cx="0.524" cy="0.541" rx="0.524" ry="0.541" transform="translate(5.068 17.326)"/><ellipse class="e" cx="0.524" cy="0.541" rx="0.524" ry="0.541" transform="translate(9.613 2.346)"/><ellipse class="e" cx="0.524" cy="0.541" rx="0.524" ry="0.541" transform="translate(12.933)"/><ellipse class="e" cx="0.524" cy="0.541" rx="0.524" ry="0.541" transform="translate(0.699 20.756)"/></g><g transform="matrix(0.966, -0.259, 0.259, 0.966, 301.331, 68.941)"><path class="d" d="M8.255-.05C12.8-.087,16.449,4.875,16.4,11.033S12.626,22.213,8.079,22.25-.115,17.325-.066,11.167,3.708-.013,8.255-.05Z" transform="translate(8.846 -0.054)"/><path class="c" d="M.608,0-.016,2.69,3.8,2.659,3.018-.018" transform="translate(15.112 22.205)"/><path class="c" d="M12.712,20.353a7.079,7.079,0,0,1-4.634,1.9C3.46,22.287-.116,17.36-.066,11.166-.019,5.178,3.433.4,7.854-.048" transform="translate(-0.032 5.388)"/><path class="c" d="M.809,0-.017,2.9,3.8,2.866,3.219-.02" transform="translate(6.034 27.44)"/><path class="c" d="M.541,0A6.406,6.406,0,0,0,.5,5.159" transform="translate(7.485 30.324)"/><path class="c" d="M-.122,20.452a6.858,6.858,0,0,0,4.6,1.821C9.1,22.235,12.755,17.25,12.8,11.055,12.851,5.068,9.475.346,5.061-.031" transform="translate(21.437 5.219)"/><path class="c" d="M3.018-.018,3.8,2.866-.017,2.9.608,0" transform="translate(23.907 27.295)"/><path class="c" d="M.01,0A6.375,6.375,0,0,1-.031,5.162" transform="translate(25.888 30.175)"/><path class="c" d="M.021,0,1,3.089A7.622,7.622,0,0,1,.755,8.666L-.063,10.53" transform="translate(16.883 24.88)"/></g><g transform="translate(5.305)"><ellipse class="c" cx="15.715" cy="21.373" rx="15.715" ry="21.373" transform="translate(16.865)"/><path class="c" d="M281.45,136.4l-1.15,5.145h7.282l-1.533-5.145" transform="translate(-251.17 -93.654)"/><path class="c" d="M297.23,167.384a13.267,13.267,0,0,1-8.816,3.562c-8.816,0-15.715-9.5-15.715-21.373,0-11.478,6.516-20.581,14.948-21.373" transform="translate(-272.7 -117.909)"/><path class="c" d="M277.333,138.9l-1.533,5.541h7.283l-1.15-5.541" transform="translate(-263.918 -86.259)"/><path class="c" d="M277.555,140.3a12.3,12.3,0,0,0,0,9.895" transform="translate(-261.841 -82.118)"/><path class="c" d="M283.4,167.384a13.266,13.266,0,0,0,8.815,3.562c8.816,0,15.715-9.5,15.715-21.373,0-11.478-6.516-20.581-14.948-21.373" transform="translate(-242.388 -117.909)"/><path class="c" d="M290.449,138.9l1.533,5.541H284.7l1.15-5.541" transform="translate(-238.706 -86.259)"/><path class="c" d="M285.7,140.3a12.3,12.3,0,0,1,0,9.895" transform="translate(-235.873 -82.118)"/><path class="c" d="M281.2,137.7l1.916,5.937a14.643,14.643,0,0,1-.383,10.687l-1.533,3.562" transform="translate(-248.621 -89.809)"/></g><g transform="translate(538.967 147.164)"><path class="c" d="M369.438,159.9l-6.515,2.479H317.315L310.8,159.9v-6.728h6.515V138.653H310.8v-6.728l6.515-2.125h45.607l6.515,2.125v6.728h-6.515v13.456l6.515,1.062Z" transform="translate(-310.8 -129.8)"/><rect class="c" width="37.035" height="23.725" transform="translate(10.973 4.249)"/><path class="c" d="M321.387,132.5l1.372,3.9,3.772.354-2.743,3.187.686,3.9-3.086-1.771-3.429,1.771.686-3.9-2.743-3.187,3.772-.354Z" transform="translate(-298.411 -122.939)"/><line class="c" x2="8.916" transform="translate(34.634 9.915)"/><line class="c" x2="8.916" transform="translate(34.634 14.518)"/><line class="c" x2="8.916" transform="translate(34.634 19.122)"/></g><g transform="matrix(0.819, -0.574, 0.574, 0.819, 369.49, 195.734)"><path class="c" d="M9.382,4.342l-.1,6.471A1.011,1.011,0,0,1,8.259,11.85h0a.943.943,0,0,1-1-1.006l.1-6.471-2.19.033L5.107,8.663A1.011,1.011,0,0,1,4.081,9.7h0a.943.943,0,0,1-1-1.006L3.15,4.436l-3.2.049.033-2.214A2.326,2.326,0,0,1,2.206.024l12.8-.194c1.179-.018,3.185.973,3.167,2.165l-.033,2.214Z" transform="translate(0.089 -0.001)"/><path class="c" d="M18.111-.206l-.358,23.842a1.011,1.011,0,0,1-1.026,1.037l-16,.243a.943.943,0,0,1-1-1.006L.089.068" transform="translate(-0.05 4.416)"/><path class="c" d="M-.182,16.194l4.211-.064A4.348,4.348,0,0,0,8.3,11.809l.115-7.663A4.045,4.045,0,0,0,4.271-.048L.06.015Z" transform="translate(17.968 6.409)"/><path class="c" d="M-.134,11.933l3.2-.049A3.336,3.336,0,0,0,6.315,8.6L6.4,3.15A3.1,3.1,0,0,0,3.245-.037L.045.012Z" transform="translate(17.953 8.456)"/><path class="c" d="M.047,0-.14,12.431a1.637,1.637,0,0,0,1.659,1.677h0a1.76,1.76,0,0,0,1.71-1.729l.056-3.747" transform="translate(1.916 10.925)"/><path class="c" d="M.026,0l-.1,6.982A1.637,1.637,0,0,0,1.58,8.659h0A1.76,1.76,0,0,0,3.29,6.931l.056-3.747" transform="translate(7.077 16.295)"/><path class="c" d="M.036,0-.109,9.707A1.637,1.637,0,0,0,1.55,11.384h0a1.76,1.76,0,0,0,1.71-1.729l.056-3.747" transform="translate(12.497 13.489)"/></g><g transform="translate(335.849 221.79)"><path class="c" d="M274.266,177.624a22.8,22.8,0,0,1,1.806,8.527c0,11.725-9.29,21.052-20.386,21.052S235.3,197.61,235.3,186.152s9.29-21.052,20.386-21.052a17.553,17.553,0,0,1,9.806,2.665" transform="translate(-234.784 -158.172)"/><path class="c" d="M241.5,167.531V163.8h8.258v3.731" transform="translate(-224.985 -160.336)"/><line class="c" y2="3.464" transform="translate(20.644 0)"/><path class="c" d="M241.2,186.152c0-11.725,2.323-21.052,4.9-21.052s4.9,9.593,4.9,21.052-2.322,21.052-4.9,21.052c-2.064,0-3.613-4.8-4.387-11.725" transform="translate(-225.459 -158.172)"/><ellipse class="c" cx="13.161" cy="21.052" rx="13.161" ry="21.052" transform="translate(7.484 6.928)"/><path class="c" d="M245.78,180.693c-6.451-.8-10.58-2.665-10.58-4.53,0-2.931,9.29-5.063,20.386-5.063s20.386,2.4,20.386,5.063-9.29,5.063-20.386,5.063" transform="translate(-234.942 -148.183)"/><ellipse class="c" cx="20.386" cy="13.59" rx="20.386" ry="13.59" transform="translate(0.258 14.39)"/><line class="c" y2="3.464" transform="translate(1.806 8.527)"/><line class="c" x2="3.355" transform="translate(13.935 33.043)"/><line class="c" y2="3.198" transform="translate(15.741 31.444)"/><line class="c" x2="3.355" transform="translate(0 10.126)"/><line class="c" y2="3.464" transform="translate(9.806 0)"/><line class="c" x2="3.355" transform="translate(8.258 1.599)"/><line class="c" y2="3.198" transform="translate(36.128 11.991)"/><line class="c" x2="3.097" transform="translate(34.579 13.59)"/></g><g transform="translate(362.575 44.289)"><path class="c" d="M290.383,190.075H278.149L277.1,169.5h14.332Z" transform="translate(-272.556 -159.212)"/><line class="c" x2="23.42" transform="translate(0 30.863)"/><line class="c" x2="13.633" transform="translate(4.894 18.229)"/><path class="c" d="M292.31,163.8l-7.865,2.166L280.6,182.029" transform="translate(-269.939 -163.8)"/><ellipse class="c" cx="1.049" cy="1.083" rx="1.049" ry="1.083" transform="translate(13.458 20.756)"/><ellipse class="c" cx="1.049" cy="1.083" rx="1.049" ry="1.083" transform="translate(11.186 25.268)"/><ellipse class="c" cx="1.049" cy="1.083" rx="1.049" ry="1.083" transform="translate(7.341 20.756)"/></g><g transform="translate(150.564 73.51) rotate(-30)"><path class="d" d="M.069.1,28.086-.294,27.8,20.118l-28.016.393Z" transform="translate(0.88 10.35)"/><path class="d" d="M.014.107,30.321-.318,30.26,4.159-.047,4.583Z" transform="translate(-0.061 5.88)"/><path class="d" d="M.008.02,5.646-.059,5.614,2.269l-5.639.079Z" transform="translate(12.312 3.466)"/><path class="c" d="M-.015,2.515-.059,5.738l6.7-.094.032-2.328L4.062.667A2.184,2.184,0,0,0,2.31-.024h0A2.752,2.752,0,0,0-.015,2.515Z" transform="translate(5.478 -0.006)"/><path class="c" d="M6.681,2.428,6.636,5.651l-6.7.094.032-2.328L2.653.695A2.306,2.306,0,0,1,4.425-.046h0A2.565,2.565,0,0,1,6.681,2.428Z" transform="translate(17.812 -0.187)"/><path class="d" d="M.086.019,5.725-.06,5.379,25.008l-5.639.079Z" transform="translate(12.202 5.795)"/></g><g transform="translate(211.391 53.993) rotate(-41)"><path class="c" d="M0,.088,4.746.4A100.444,100.444,0,0,0,17.208.2l4.76-.463" transform="translate(0.065 -0.001)"/><path class="c" d="M0,0,2.365,4.736,4.619.313" transform="translate(2.118 0.183)"/><path class="c" d="M0,.021l2.486,5.25L5.139-.061" transform="translate(8.535 0.448)"/><path class="c" d="M0,.406,2.238,4.756,4.626-.055" transform="translate(15.349 -0.046)"/><path class="c" d="M0,.088,4.746.4A100.444,100.444,0,0,0,17.208.2l4.76-.463" transform="translate(-0.066 8.258)"/><path class="c" d="M0,0,2.365,4.736,4.621.184" transform="translate(1.987 8.443)"/><path class="c" d="M0,.021,2.487,5.142l2.651-5.2" transform="translate(8.404 8.707)"/><path class="c" d="M0,.277l2.241,4.48L4.626-.055" transform="translate(15.218 8.213)"/><path class="c" d="M0,.088,4.746.4A100.444,100.444,0,0,0,17.208.2l4.76-.463" transform="translate(-0.195 16.388)"/><path class="c" d="M0,0,2.367,4.607,4.621.184" transform="translate(1.855 16.702)"/><path class="c" d="M0,.021,2.487,5.142l2.651-5.2" transform="translate(8.273 16.966)"/><path class="c" d="M0,.277,2.24,4.627,4.626-.055" transform="translate(15.087 16.472)"/></g><g transform="matrix(0.966, -0.259, 0.259, 0.966, 462.958, 101.892)"><path class="c" d="M0,.062l6.5.548A120.915,120.915,0,0,0,23.535.472l6.5-.654" transform="translate(0.05 0)"/><path class="c" d="M0,0,3.279,7.388,6.319.55" transform="translate(2.859 0.239)"/><path class="c" d="M0,.014,3.448,8.2,7.027-.043" transform="translate(11.638 0.754)"/><path class="c" d="M0,.614,3.1,7.4,6.325-.038" transform="translate(20.952 0.079)"/><path class="c" d="M0,.062l6.5.548A120.915,120.915,0,0,0,23.535.471l6.5-.654" transform="translate(-0.052 12.825)"/><path class="c" d="M0,0,3.279,7.388,6.321.349" transform="translate(2.757 13.065)"/><path class="c" d="M0,.014,3.45,8,7.027-.043" transform="translate(11.536 13.58)"/><path class="c" d="M0,.414,3.1,7.4,6.325-.038" transform="translate(20.851 12.904)"/><path class="c" d="M0,.062l6.5.548A120.915,120.915,0,0,0,23.535.472l6.5-.654" transform="translate(-0.152 25.45)"/><path class="c" d="M0,0,3.281,7.187,6.321.349" transform="translate(2.656 25.89)"/><path class="c" d="M0,.014,3.45,8,7.027-.043" transform="translate(11.435 26.406)"/><path class="c" d="M0,.414,3.106,7.2,6.325-.038" transform="translate(20.749 25.73)"/></g><g transform="translate(429.76 83.801)"><line class="c" x2="31.125" transform="translate(0 41.324)"/><path class="c" d="M401.9,221.166l-11-15.466h22.232Z" transform="translate(-386.454 -196.759)"/><path class="c" d="M398.548,217.8l-5.148,3.142h10.531Z" transform="translate(-383.103 -179.618)"/><line class="c" y2="13.775" transform="translate(15.445 24.408)"/><line class="c" x2="15.679" transform="translate(7.723 13.533)"/><ellipse class="c" cx="1.404" cy="1.45" rx="1.404" ry="1.45" transform="translate(23.87 0)"/><line class="c" y1="6.525" x2="5.851" transform="translate(18.488 2.417)"/></g><g transform="translate(490.001 140.611) rotate(19)"><path class="c" d="M21.725,24.956,5.141,24.79,0,0,4.9.049l.072,7.345h0a8.919,8.919,0,0,1,6.815,3.16l1.523,1.561L14.8,10.585A9.139,9.139,0,0,1,21.556,7.56h0L21.484.215l4.9.049Z" transform="translate(2.487 0.019)"/><path class="d" d="M0,0,16.584.166l.049,5.025L.049,5.025Z" transform="translate(7.251 24.804)"/><path class="c" d="M31.563,37.019.279,36.706.241,32.84A74.7,74.7,0,0,1,5.977,2.748L7.082.053,23.666.219l1.157,2.717a76.4,76.4,0,0,1,6.325,30.213l.038,3.866Z" transform="translate(0.219 29.777)"/></g><g transform="translate(229.298 133.267)"><path class="c" d="M364.591,242.9l2.956,6.542,6.335.872-4.646,5.233,1.267,6.978-5.913-3.489-5.912,3.489,1.267-6.978-4.646-5.233,6.335-.872Z" transform="translate(-341.786 -230.689)"/><path class="c" d="M397.711,263.65c0,13.083-22.806,51.461-22.806,51.461S352.1,276.733,352.1,263.65s10.136-23.55,22.805-23.55S397.711,250.567,397.711,263.65Z" transform="translate(-352.1 -240.1)"/><ellipse class="c" cx="14.781" cy="15.264" rx="14.781" ry="15.264" transform="translate(8.024 8.286)"/></g><g transform="translate(243.726 75.037)"><path class="c" d="M284.464,314.282H236.317a1.776,1.776,0,0,1-1.817-1.876v-27.83a1.773,1.773,0,0,1,1.817-1.876h48.147a1.776,1.776,0,0,1,1.817,1.876v27.83C286.584,313.344,285.675,314.282,284.464,314.282Z" transform="translate(-234.5 -276.446)"/><path class="c" d="M247.937,280.7h11.507l3.937,6.254H244Z" transform="translate(-215.233 -280.7)"/><rect class="c" width="7.57" height="4.065" transform="translate(5.753 2.189)"/><rect class="c" width="7.57" height="5.941" transform="translate(5.753 12.195)"/><line class="c" x2="5.753" transform="translate(0 14.071)"/><line class="c" x2="6.056" transform="translate(46.027 14.071)"/><line class="c" x2="15.443" transform="translate(13.324 14.071)"/><line class="c" x2="7.57" transform="translate(5.753 21.889)"/><ellipse class="c" cx="9.69" cy="10.006" rx="9.69" ry="10.006" transform="translate(27.859 13.133)"/><ellipse class="c" cx="1.817" cy="1.876" rx="1.817" ry="1.876" transform="translate(35.732 21.263)"/><path class="c" d="M246.9,286.1a5.847,5.847,0,0,1,5.753,5.941" transform="translate(-209.351 -269.214)"/></g><g transform="translate(0 117.644)"><line class="c" x2="34.239" transform="translate(3.066 45.383)"/><rect class="c" width="21.208" height="45.383" transform="translate(9.71 0)"/><ellipse class="c" cx="2.555" cy="2.639" rx="2.555" ry="2.639" transform="translate(17.631 3.166)"/><ellipse class="c" cx="2.555" cy="2.639" rx="2.555" ry="2.639" transform="translate(17.631 16.623)"/><ellipse class="c" cx="7.41" cy="7.652" rx="7.41" ry="7.652" transform="translate(12.776 11.61)"/><ellipse class="c" cx="2.555" cy="2.639" rx="2.555" ry="2.639" transform="translate(17.631 33.51)"/><ellipse class="c" cx="5.621" cy="5.805" rx="5.621" ry="5.805" transform="translate(14.564 30.343)"/><path class="c" d="M276.85,291.88a5.709,5.709,0,0,1,0-8.18" transform="translate(-270.462 -269.188)"/><path class="c" d="M286.6,291.88a5.709,5.709,0,0,0,0-8.18" transform="translate(-252.616 -269.188)"/><path class="c" d="M276.366,297.6a11.081,11.081,0,0,1,0-15.3" transform="translate(-273.3 -271.482)"/><path class="c" d="M287.9,297.6a11.081,11.081,0,0,0,0-15.3" transform="translate(-250.595 -271.482)"/></g><g transform="translate(318.838 140.845) rotate(-22)"><path class="c" d="M22.27,4.161,2.083,4.389a2.014,2.014,0,0,1-2.1-2.151h0A2.119,2.119,0,0,1,2.13.04L22.318-.188a2.014,2.014,0,0,1,2.1,2.151h0C24.761,3.046,23.687,4.145,22.27,4.161Z" transform="translate(-0.09 10.845)"/><path class="c" d="M18.01,4.566l-15.938.18L0,.058,20.187-.17Z" transform="translate(1.993 15.176)"/><path class="c" d="M-.087,10.54A10.685,10.685,0,0,1,10.3-.087a10.125,10.125,0,0,1,10.155,10.4" transform="translate(2.132 -0.018)"/><path class="c" d="M7.46,30.041h0A6.037,6.037,0,0,1,1.5,24.309L0,.045l15.938-.18L13.9,24.17C13.154,27.44,10.647,30,7.46,30.041Z" transform="translate(4.42 19.872)"/><line class="c" x1="0.104" y2="9.424" transform="translate(12.008 28.891)"/><line class="c" y1="13.773" x2="0.152" transform="translate(11.728 49.913)"/></g><g transform="translate(568.393 232.32)"><path class="c" d="M444.014,286.63l-12.648,17.529L415.391,280.1l-15.643,24.059L387.1,286.63v39.525h56.914Z" transform="translate(-387.1 -280.1)"/><ellipse class="c" cx="1.997" cy="2.062" rx="1.997" ry="2.062" transform="translate(26.294 34.026)"/><ellipse class="c" cx="1.997" cy="2.062" rx="1.997" ry="2.062" transform="translate(14.645 34.026)"/><ellipse class="c" cx="1.997" cy="2.062" rx="1.997" ry="2.062" transform="translate(37.943 34.026)"/><path class="c" d="M398.394,284.6l-3,3.781a4.278,4.278,0,0,0,0,5.5l3,3.781,3-3.781a4.279,4.279,0,0,0,0-5.5Z" transform="translate(-370.103 -269.134)"/><line class="c" x2="56.914" transform="translate(0 41.587)"/></g><g transform="translate(483.593 240.478)"><path class="c" d="M234.5,331.743V317.97a.822.822,0,0,1,.842-.87h22.323a.824.824,0,0,1,.842.87v17.542l-2.667,2.755H242.5" transform="translate(-234.5 -317.1)"/><path class="c" d="M249.7,329.7v2.755l2.808-2.755Z" transform="translate(-228.36 -311.433)"/><line class="c" x2="24.148" transform="translate(0 2.61)"/><ellipse class="c" cx="3.089" cy="3.19" rx="3.089" ry="3.19" transform="translate(0 16.383)"/><rect class="c" width="3.51" height="3.624" transform="translate(3.089 6.234)"/><rect class="c" width="3.51" height="3.624" transform="translate(6.739 6.234)"/><rect class="c" width="3.51" height="3.624" transform="translate(10.249 6.234)"/><rect class="c" width="3.51" height="3.624" transform="translate(13.759 6.234)"/><rect class="c" width="3.51" height="3.624" transform="translate(17.409 6.234)"/><rect class="c" width="3.51" height="3.624" transform="translate(3.089 6.234)"/><rect class="c" width="3.51" height="3.624" transform="translate(6.739 6.234)"/><rect class="c" width="3.51" height="3.624" transform="translate(10.249 6.234)"/><rect class="c" width="3.51" height="3.624" transform="translate(13.759 6.234)"/><rect class="c" width="3.51" height="3.624" transform="translate(17.409 6.234)"/><rect class="c" width="3.51" height="3.624" transform="translate(3.089 10.003)"/><rect class="c" width="3.51" height="3.624" transform="translate(6.739 10.003)"/><rect class="c" width="3.51" height="3.624" transform="translate(10.249 10.003)"/><rect class="c" width="3.51" height="3.624" transform="translate(13.759 10.003)"/><rect class="c" width="3.51" height="3.624" transform="translate(17.409 10.003)"/><rect class="c" width="3.51" height="3.624" transform="translate(6.739 13.628)"/><rect class="c" width="3.51" height="3.624" transform="translate(10.249 13.628)"/><rect class="c" width="3.51" height="3.624" transform="translate(13.759 13.628)"/><rect class="c" width="3.51" height="3.624" transform="translate(17.409 13.628)"/><path class="c" d="M236.7,329.7V331h1.4" transform="translate(-233.611 -311.433)"/></g><g transform="translate(11.271 183.722)"><path class="c" d="M234.5,331.743V317.97a.822.822,0,0,1,.842-.87h22.323a.824.824,0,0,1,.842.87v17.542l-2.667,2.755H242.5" transform="translate(-234.5 -317.1)"/><path class="c" d="M249.7,329.7v2.755l2.808-2.755Z" transform="translate(-228.36 -311.433)"/><line class="c" x2="24.148" transform="translate(0 2.61)"/><ellipse class="c" cx="3.089" cy="3.19" rx="3.089" ry="3.19" transform="translate(0 16.383)"/><rect class="c" width="3.51" height="3.624" transform="translate(3.089 6.234)"/><rect class="c" width="3.51" height="3.624" transform="translate(6.739 6.234)"/><rect class="c" width="3.51" height="3.624" transform="translate(10.249 6.234)"/><rect class="c" width="3.51" height="3.624" transform="translate(13.759 6.234)"/><rect class="c" width="3.51" height="3.624" transform="translate(17.409 6.234)"/><rect class="c" width="3.51" height="3.624" transform="translate(3.089 6.234)"/><rect class="c" width="3.51" height="3.624" transform="translate(6.739 6.234)"/><rect class="c" width="3.51" height="3.624" transform="translate(10.249 6.234)"/><rect class="c" width="3.51" height="3.624" transform="translate(13.759 6.234)"/><rect class="c" width="3.51" height="3.624" transform="translate(17.409 6.234)"/><rect class="c" width="3.51" height="3.624" transform="translate(3.089 10.003)"/><rect class="c" width="3.51" height="3.624" transform="translate(6.739 10.003)"/><rect class="c" width="3.51" height="3.624" transform="translate(10.249 10.003)"/><rect class="c" width="3.51" height="3.624" transform="translate(13.759 10.003)"/><rect class="c" width="3.51" height="3.624" transform="translate(17.409 10.003)"/><rect class="c" width="3.51" height="3.624" transform="translate(6.739 13.628)"/><rect class="c" width="3.51" height="3.624" transform="translate(10.249 13.628)"/><rect class="c" width="3.51" height="3.624" transform="translate(13.759 13.628)"/><rect class="c" width="3.51" height="3.624" transform="translate(17.409 13.628)"/><path class="c" d="M236.7,329.7V331h1.4" transform="translate(-233.611 -311.433)"/></g><g transform="matrix(0.921, 0.391, -0.391, 0.921, 81.033, 148.492)"><path class="d" d="M2.831.025A2.954,2.954,0,0,1,5.7,2.962,2.793,2.793,0,0,1,2.9,5.832,2.954,2.954,0,0,1,.025,2.9,2.793,2.793,0,0,1,2.831.025Z" transform="translate(16.058 0.14)"/><path class="c" d="M.358,41.756,5.767,42.98a70.293,70.293,0,0,0,26.976.315l5.382-1.1L18.622.163Z" transform="translate(0.05 5.806)"/><path class="d" d="M1.7.015A1.772,1.772,0,0,1,3.422,1.777,1.676,1.676,0,0,1,1.739,3.5,1.772,1.772,0,0,1,.015,1.737,1.676,1.676,0,0,1,1.7.015Z" transform="translate(11.368 37.243)"/><path class="d" d="M2.831.025A2.954,2.954,0,0,1,5.7,2.962,2.793,2.793,0,0,1,2.9,5.832,2.954,2.954,0,0,1,.025,2.9,2.793,2.793,0,0,1,2.831.025Z" transform="translate(21.918 40.854)"/><path class="d" d="M2.831.025A2.954,2.954,0,0,1,5.7,2.962,2.793,2.793,0,0,1,2.9,5.832,2.954,2.954,0,0,1,.025,2.9,2.793,2.793,0,0,1,2.831.025Z" transform="translate(14.65 25.962)"/><path class="e" d="M.849.007a.886.886,0,0,1,.862.881.838.838,0,0,1-.842.861A.886.886,0,0,1,.007.869.838.838,0,0,1,.849.007Z" transform="translate(4.908 43.552)"/><path class="e" d="M.849.007a.886.886,0,0,1,.862.881.838.838,0,0,1-.842.861A.886.886,0,0,1,.007.869.838.838,0,0,1,.849.007Z" transform="translate(24.678 34.493)"/><path class="f" d="M1.7.015A1.772,1.772,0,0,1,3.422,1.777,1.676,1.676,0,0,1,1.739,3.5,1.772,1.772,0,0,1,.015,1.737,1.676,1.676,0,0,1,1.7.015Z" transform="translate(18.235 17.001)"/></g><g transform="translate(289.527 191.489) rotate(-49)"><path class="d" d="M2.014-.024A1.927,1.927,0,0,1,3.989,1.942,2.08,2.08,0,0,1,1.951,3.971,1.927,1.927,0,0,1-.024,2.005,2.08,2.08,0,0,1,2.014-.024Z" transform="translate(11.559 -0.137)"/><path class="c" d="M-.344,28.813l3.8.738a51,51,0,0,0,19.06-.3l3.825-.859L13.356-.159Z" transform="translate(-0.048 3.995)"/><path class="d" d="M1.209-.014A1.156,1.156,0,0,1,2.393,1.165,1.248,1.248,0,0,1,1.17,2.382,1.156,1.156,0,0,1-.014,1.2,1.248,1.248,0,0,1,1.209-.014Z" transform="translate(7.543 25.489)"/><path class="d" d="M2.014-.024A1.927,1.927,0,0,1,3.989,1.942,2.08,2.08,0,0,1,1.951,3.971,1.927,1.927,0,0,1-.024,2.005,2.08,2.08,0,0,1,2.014-.024Z" transform="translate(14.925 27.765)"/><path class="d" d="M2.014-.024A1.927,1.927,0,0,1,3.989,1.942,2.08,2.08,0,0,1,1.951,3.971,1.927,1.927,0,0,1-.024,2.005,2.08,2.08,0,0,1,2.014-.024Z" transform="translate(10.071 17.658)"/><path class="e" d="M.6-.007A.578.578,0,0,1,1.2.582a.624.624,0,0,1-.611.609A.578.578,0,0,1-.007.6.624.624,0,0,1,.6-.007Z" transform="translate(2.861 29.959)"/><path class="e" d="M.6-.007A.578.578,0,0,1,1.2.582a.624.624,0,0,1-.611.609A.578.578,0,0,1-.007.6.624.624,0,0,1,.6-.007Z" transform="translate(17.007 23.345)"/><path class="f" d="M1.209-.014A1.156,1.156,0,0,1,2.393,1.165,1.248,1.248,0,0,1,1.17,2.382,1.156,1.156,0,0,1-.014,1.2,1.248,1.248,0,0,1,1.209-.014Z" transform="translate(12.781 11.428)"/></g><g transform="translate(177.083 136.998) rotate(-22)"><path class="c" d="M14.814,4.938-.042,5.106,0,1.638A1.56,1.56,0,0,1,1.577.02L13.306-.112a1.482,1.482,0,0,1,1.546,1.583Z" transform="translate(4.97 -0.042)"/><path class="c" d="M19.435,33.722l-15.117.171A1.48,1.48,0,0,1,2.771,32.31L0,.071,24.76-.209,21.277,32.1A1.97,1.97,0,0,1,19.435,33.722Z" transform="translate(0.163 11.714)"/><path class="c" d="M4.97,0-.056,6.725l24.761-.279L19.827-.167Z" transform="translate(-0.042 5.063)"/><line class="c" y1="0.262" x2="23.197" transform="translate(0.59 20.053)"/><line class="c" y1="0.25" x2="22.155" transform="translate(1.056 25.127)"/></g><g transform="translate(103.465 109.212)"><path class="c" d="M435.234,325.693V318.9H390.5v6.793a9.566,9.566,0,0,0,3.508,7.246l2.193,1.811a8.307,8.307,0,0,1,3.07,4.529h0a8.453,8.453,0,0,0,7.894,5.887h10.526a8.453,8.453,0,0,0,7.894-5.887h0c.439-1.811,1.754-3.17,3.07-4.529l2.193-1.811C433.918,331.128,435.234,328.863,435.234,325.693Z" transform="translate(-379.536 -305.766)"/><line class="c" x2="44.295" transform="translate(11.403 21.738)"/><path class="c" d="M388,329.133a12.725,12.725,0,1,1,25.437,0Z" transform="translate(-388 -316)"/><path class="c" d="M389,316.7l8.333,9.963,7.894-9.963" transform="translate(-384.614 -313.53)"/><line class="c" y2="13.134" transform="translate(12.718)"/><path class="c" d="M409.481,324.6v34.419L391.5,364.906h36.4l-18.42-5.887" transform="translate(-376.15 -285.652)"/></g><g transform="translate(514.801 240.497) rotate(-30)"><path class="c" d="M21.149,11.337l-21.269.3L10.674-.112Z" transform="translate(0 0)"/><path class="d" d="M.075.051,14.859-.156l-.3,21.877-14.785.207Z" transform="translate(2.917 11.54)"/><line class="c" x2="14.705" y2="5.592" transform="translate(2.956 14.227)"/><line class="c" x2="14.705" y2="5.592" transform="translate(2.887 19.235)"/><line class="c" x2="14.705" y2="5.592" transform="translate(2.817 24.243)"/><path class="d" d="M.04.012,3.412-.036l-.16,11.6-3.372.047Z" transform="translate(2.65 33.457)"/><path class="c" d="M.01,0-.03,2.9A4.155,4.155,0,0,0,1.479,6.3l1.79,1.82" transform="translate(12.537 33.33)"/></g><g transform="translate(134.762 24.221) rotate(30)"><path class="c" d="M33.871,18.778.19,18.305,16.777.176Z" transform="translate(0 0)"/><path class="d" d="M0,0,23.413.328l.478,34.644L.478,34.644Z" transform="translate(5.119 18.375)"/><line class="c" x2="23.539" y2="9.511" transform="translate(5.176 22.548)"/><line class="c" x2="23.539" y2="9.511" transform="translate(5.286 30.479)"/><line class="c" x2="23.539" y2="9.511" transform="translate(5.395 38.41)"/><path class="d" d="M0,0,5.34.075,5.593,18.44l-5.34-.075Z" transform="translate(5.597 53.019)"/><path class="c" d="M0,0,.063,4.591A6.978,6.978,0,0,0,2.6,10.052l2.916,2.962" transform="translate(21.205 53.238)"/></g><g transform="translate(199.51 104.808) rotate(-30)"><path class="c" d="M6.487,2.5S4,3.608,2.776,3.268-.008.8-.008.8,2.473-.309,3.7.032,6.487,2.5,6.487,2.5Z" transform="translate(5.748 5.301)"/><path class="c" d="M-.027,2.592s2.452,1.04,3.69.664S6.518.71,6.518.71,4.065-.33,2.827.046-.027,2.592-.027,2.592Z" transform="translate(18.077 5.127)"/><path class="c" d="M13.618,9.751l-1.062.373a12.469,12.469,0,0,1-9.508-.4h0A3.7,3.7,0,0,1,1.479,8.489C-.246,5.828-.008,1.349-.008,1.349L3.325,2.376,3.357.048a30.64,30.64,0,0,1,9.982,4.336l1.747,1.05,1.777-1.1A28.4,28.4,0,0,1,26.969-.283l-.032,2.328L30.3.924s.293,4.292-1.685,7.184a2.931,2.931,0,0,1-1.6,1.276h0a12.581,12.581,0,0,1-9.522.671l-1.052-.343A3.836,3.836,0,0,0,13.618,9.751Z" transform="translate(0 0)"/><path class="c" d="M2.139,2.3l-.2,14.145A1.058,1.058,0,0,1,.872,17.532h0a.992.992,0,0,1-1.042-1.06L.057,0" transform="translate(1.259 7.596)"/></g><g transform="translate(171.068 200.242) rotate(-30)"><path class="c" d="M4.862,1.874a5.936,5.936,0,0,1-2.781.576C1.16,2.194-.006.6-.006.6A5.935,5.935,0,0,1,2.775.024C3.7.28,4.862,1.874,4.862,1.874Z" transform="translate(4.309 3.974)"/><path class="c" d="M-.02,1.943a5.742,5.742,0,0,0,2.766.5C3.674,2.159,4.885.532,4.885.532a5.741,5.741,0,0,0-2.766-.5C1.191.316-.02,1.943-.02,1.943Z" transform="translate(13.55 3.843)"/><path class="c" d="M10.207,7.309l-.8.28a9.346,9.346,0,0,1-7.127-.3h0a2.771,2.771,0,0,1-1.176-.923C-.184,4.368-.006,1.011-.006,1.011l2.5.77L2.517.036A22.968,22.968,0,0,1,10,3.286l1.31.787,1.332-.824A21.288,21.288,0,0,1,20.215-.212l-.024,1.745,2.521-.84a9.788,9.788,0,0,1-1.263,5.385,2.2,2.2,0,0,1-1.2.956h0a9.431,9.431,0,0,1-7.138.5l-.789-.257A2.875,2.875,0,0,0,10.207,7.309Z" transform="translate(0 0)"/><path class="c" d="M1.6,1.722l-.146,10.6a.793.793,0,0,1-.8.816h0a.743.743,0,0,1-.781-.794L.042,0" transform="translate(0.943 5.694)"/></g><g transform="translate(591.155 184.331)"><path class="c" d="M423.9,218.468c0-9.746,7.69-17.868,17.3-17.868,9.438,0,17.3,7.941,17.3,17.868s-7.69,17.868-17.3,17.868" transform="translate(-423.9 -200.6)"/><path class="c" d="M429.7,213.8a7.317,7.317,0,0,1,7.166-7.4,7.4,7.4,0,0,1,0,14.8" transform="translate(-419.563 -195.932)"/><ellipse class="c" cx="1.748" cy="1.805" rx="1.748" ry="1.805" transform="translate(15.555 16.063)"/><ellipse class="c" cx="2.272" cy="1.805" rx="2.272" ry="1.805" transform="translate(2.272 29.78)"/><path class="c" d="M427.7,223.412v-9.746l7.865-2.166v9.746" transform="translate(-421.058 -191.827)"/><ellipse class="c" cx="2.272" cy="1.805" rx="2.272" ry="1.805" transform="translate(9.962 27.614)"/><path class="c" d="M427.1,215.892A11.907,11.907,0,0,1,438.81,203.8" transform="translate(-421.507 -198.025)"/><path class="c" d="M439.9,204.4a15.6,15.6,0,0,1,0,21.838" transform="translate(-411.936 -197.542)"/></g><g transform="matrix(0.966, 0.259, -0.259, 0.966, 40.667, 65.725)"><path class="c" d="M16.74,12.743,2.377,12.626,0,0,18.917.154Z" transform="translate(0.116 19.432)"/><path class="c" d="M10.96,12.7,1.5,12.618,0,0,12.261.1Z" transform="translate(3.444 19.459)"/><path class="c" d="M5,12.647.8,12.613,0,0,5.605.046Z" transform="translate(6.772 19.486)"/><line class="c" x2="0.1" y2="12.607" transform="translate(9.574 19.509)"/><path class="c" d="M.839,3.245.127,1.8A1.382,1.382,0,0,1,.291.36h0A1.433,1.433,0,0,1,1.514.009l9.309,3.317Z" transform="translate(1.554 16.205)"/><path class="c" d="M.018,2.983.031,4.6,8.988,7.738l3.328.027h0a3.955,3.955,0,0,0-1.954-3.438L4.552.5A2.931,2.931,0,0,0,2.1.119h0A3.012,3.012,0,0,0,.018,2.983Z" transform="translate(3.389 11.794)"/><path class="c" d="M7.783,10.334l2.277.019-.011-1.441A7.82,7.82,0,0,0,8.967,5.121,30.264,30.264,0,0,0,5.954.595h0A3.842,3.842,0,0,0,.709,1.813L.017,2.887" transform="translate(7.922 9.225)"/><path class="c" d="M2.309,3.981,2.277.019,0,0,.05,6.3" transform="translate(7.714 5.807)"/><path class="c" d="M2.116,2.356A1,1,0,0,1,1.073,3.428,1.17,1.17,0,0,1,.014,2.339,9.586,9.586,0,0,1,1.046.006,7.359,7.359,0,0,1,2.116,2.356Z" transform="translate(7.848 0.048)"/></g><g transform="translate(10.397 213.525)"><rect class="c" width="16.021" height="42.863" transform="translate(9.467 21.431)"/><path class="c" d="M432.2,289.1c0-3.384,5.826-10.9,5.826-10.9s5.826,7.52,5.826,10.9a5.847,5.847,0,0,1-5.826,6.016A6.09,6.09,0,0,1,432.2,289.1Z" transform="translate(-420.549 -278.2)"/><ellipse class="c" cx="2.185" cy="2.256" rx="2.185" ry="2.256" transform="translate(15.292 8.648)"/><path class="c" d="M431.6,285.2h2.185a2.136,2.136,0,0,1,2.185,2.256v10.9a2.132,2.132,0,0,0,2.185,2.256h0a2.136,2.136,0,0,0,2.185-2.256v-10.9a2.131,2.131,0,0,1,2.185-2.256h0a2.136,2.136,0,0,1,2.185,2.256v4.888h2.185" transform="translate(-422.133 -258.881)"/><line class="c" x2="34.954" transform="translate(0 64.67)"/></g><g transform="translate(175.213 223.87)"><line class="c" x2="55.807" transform="translate(0 14.742)"/><path class="c" d="M467.247,288.687h0a1.9,1.9,0,0,1-1.947-2.01V280.31a1.9,1.9,0,0,1,1.947-2.01h0a1.9,1.9,0,0,1,1.947,2.01v6.366A2.128,2.128,0,0,1,467.247,288.687Z" transform="translate(-458.811 -278.3)"/><path class="c" d="M479.347,288.687h0a1.9,1.9,0,0,1-1.947-2.01V280.31a1.9,1.9,0,0,1,1.947-2.01h0a1.9,1.9,0,0,1,1.947,2.01v6.366A2.129,2.129,0,0,1,479.347,288.687Z" transform="translate(-431.651 -278.3)"/><line class="c" x2="35.042" transform="translate(10.383 6.031)"/><path class="c" d="M512.718,280.1h4.218a1.9,1.9,0,0,1,1.947,2.01v46.907a1.9,1.9,0,0,1-1.947,2.01H465.347a1.9,1.9,0,0,1-1.947-2.01V282.11a1.9,1.9,0,0,1,1.947-2.01h4.218" transform="translate(-463.076 -274.069)"/><rect class="c" width="47.371" height="34.175" transform="translate(4.218 18.763)"/><ellipse class="c" cx="5.191" cy="6.366" rx="5.191" ry="6.366" transform="translate(22.712 24.124)"/><path class="c" d="M474.92,300.022l-.324-.335a6.582,6.582,0,0,1-2.6-5.361V289.3" transform="translate(-443.772 -252.444)"/></g><g transform="translate(362.468 83.538)"><path class="c" d="M399.283,142.124h-48.84L348.6,138h52.833Z" transform="translate(-344.607 -87.566)"/><line class="c" x2="60.512" transform="translate(0 50.434)"/><path class="c" d="M360.9,131.3a24.122,24.122,0,0,1,12.9,21.252" transform="translate(-319.125 -102.118)"/><path class="c" d="M349.2,154.507A24.306,24.306,0,0,1,373.466,130.4a27.059,27.059,0,0,1,7.065.952" transform="translate(-343.364 -104.073)"/><path class="c" d="M367.536,144.891c-.614,2.22-2.457,4.441-4.608,4.758a5.143,5.143,0,0,1-3.686-.634,4.458,4.458,0,0,1-2.457-2.855,6.146,6.146,0,0,1,1.536-6.661l8.908-9.2,3.379,1.9Z" transform="translate(-328.526 -104.29)"/><path class="c" d="M364.508,131.081a2.107,2.107,0,0,0-.614-2.855,1.964,1.964,0,0,0-2.765.634,2.107,2.107,0,0,0,.615,2.855L359.9,135.2l3.379,1.9,1.843-3.489a1.963,1.963,0,0,0,2.764-.634,2.106,2.106,0,0,0-.614-2.855A2.434,2.434,0,0,0,364.508,131.081Z" transform="translate(-321.197 -109.512)"/><path class="c" d="M355.477,122.1a4.113,4.113,0,0,0,0,5.71l.614.634a4.4,4.4,0,0,1,.307,5.392" transform="translate(-332.746 -122.1)"/><path class="c" d="M357.677,124.5a4.114,4.114,0,0,0,0,5.71l.614.634a4.4,4.4,0,0,1,.307,5.392" transform="translate(-328.189 -116.887)"/><path class="c" d="M358.977,122.1a4.114,4.114,0,0,0,0,5.71l.614.634a4.4,4.4,0,0,1,.307,5.392" transform="translate(-325.495 -122.1)"/></g></g></g></svg>