<svg xmlns="http://www.w3.org/2000/svg" viewBox="0 0 48.876 48.876"><defs><style>.a,.b{fill:none;stroke:#b7b7b7;stroke-linecap:round;stroke-linejoin:round;stroke-miterlimit:10;stroke-width:3px;}.b{fill-rule:evenodd;}</style></defs><g transform="translate(1.5 1.5)"><circle class="a" cx="22.938" cy="22.938" r="22.938" transform="translate(0)"/><g transform="translate(8.062 8.062)"><g transform="translate(6.852)"><path class="a" d="M429.364,426.187a6.329,6.329,0,0,1-.864-2.687" transform="translate(-415.869 -404.209)"/><path class="a" d="M418.568,423.2a9.066,9.066,0,0,1-.768,2.975" transform="translate(-415.438 -404.197)"/><path class="b" d="M423.267,424.323h.1c1.536,0,3.071-.288,3.647-.864a18.063,18.063,0,0,0,4.127-12.573c-.48-5.183-3.743-7.486-7.87-7.486-4.031,0-7.39,2.3-7.87,7.486a17.854,17.854,0,0,0,4.127,12.573c.576.576,2.111.864,3.647.864h.1" transform="translate(-415.339 -403.4)"/></g><path class="a" d="M438.518,431.963c-.864-3.263-9.118-5.663-9.118-5.663" transform="translate(-409.053 -404.322)"/><path class="a" d="M417.318,426.3s-8.254,2.4-9.118,5.662" transform="translate(-408.2 -404.322)"/></g></g></svg>