<svg id="cable" xmlns="http://www.w3.org/2000/svg" viewBox="0 0 360.46 379.31">
  <defs>
    <style>
      .cls-1 {
        fill: #6d6d6d;
      }

      .cls-2 {
        fill: #f4f4f4;
      }

      .cls-3 {
        fill: #ff0083;
      }

      .cls-4 {
        fill: #e4e4e4;
      }

      .cls-5 {
        fill: #f5f5f5;
      }

      .cls-6 {
        fill: #e5e5e5;
      }

      .cls-7 {
        fill: #ebebeb;
      }

      .cls-8 {
        fill: #eaeaea;
      }

      .cls-9 {
        fill: #f2f2f2;
      }

      .cls-10 {
        fill: #e8e8e8;
      }

      .cls-11 {
        fill: #1d1d1d;
      }

      .cls-12 {
        fill: #fbfbfb;
      }

      .cls-13 {
        fill: #fff;
      }

      .cls-14 {
        fill: #fefefe;
      }

      .cls-15 {
        fill: #eee;
      }

      .cls-16 {
        fill: #f8f8f8;
      }

      .cls-17 {
        fill: #181818;
      }

      .cls-18 {
        fill: #1b1b1b;
      }

      .cls-19 {
        fill: #fdfdfd;
      }

      .cls-20 {
        fill: #959595;
      }
    </style>
  </defs>
  <path id="Union_53" data-name="Union 53" class="cls-1" d="M139.556,294.416c-12.466-2.167-22.16-9.093-28.245-20.594a38.9,38.9,0,0,1-4.877-18.666c0-1.386-.9-2.77-1.323-4.217a15.811,15.811,0,0,1-.483-2.951c-.063-2.77,0-5.6,0-8.551-2.833-.181-5.419-.241-7.948-.542-8.972-.9-18.126-10.356-17.946-19.931.178-9.814,0-19.691,0-29.507,0-3.671-.365-4.093-4.1-4.093-16.864,0-33.72-.12-50.583.06-6.625.06-11.442-2.348-14.452-8.189a24.423,24.423,0,0,1-1.323-4.819c0-1.022.06-1.986.06-3.011V35.363c0-4.277-.06-8.611-.123-12.888A14.1,14.1,0,0,1,22.128,8.626a13.289,13.289,0,0,0,2.594.542c11.682,0,23.3-.06,34.984-.06.181-.12.3-.06.362.121a31.752,31.752,0,0,1-4.1.543c-10.419.06-20.832,0-31.249.06-1.265,0-2.529.72-3.794,1.142-8.8,1.628-11.682,10.058-9.7,16.378,3.252-4.7,7.826-5.721,13.125-5.66,13.428.181,26.858.06,40.288.06a29.8,29.8,0,0,1,3.249.362c-1.263.482-2.586,1.386-3.852,1.386-13.488.121-26.981.06-40.469.121a36.3,36.3,0,0,0-4.391.542c-6.625,3.129-8.672,8.43-8.614,15.534q.275,64.854,0,129.768c-.058,7.167,5.24,13.91,13.671,13.732,17.038-.362,34.142-.121,51.181-.121.965,0,1.987-.121,3.315-.181v-7.288c0-9.213.061-18.485-.063-27.7-.06-2.468.606-3.312,3.192-3.252,6.5.181,13.006.06,19.814.06,0-1.748.117-3.252,0-4.7-.181-1.866.783-2.469,2.469-2.469,5.54,0,11.019.06,16.558,0,1.5,0,2.228.542,2.171,2.109-.06,1.5,0,3.011,0,4.817,5.9.241,11.622.482,17.339.723.025.019.05.038.074.06,1.62-.121,3.244-.362,4.863-.362a1.532,1.532,0,0,1,1.148,1.022c-.06,2.891-.3,5.781-.482,8.732-.151.041-.334.077-.513.109a4,4,0,0,0,.57-.109,21.885,21.885,0,0,1,.54,3.493c.06,8.189,0,16.381,0,25.11,4.34,0,8.49-.057,12.649,0a30.8,30.8,0,0,1,4.033.543c2.652-.181,5.3-.422,7.948-.543,1.266-.057,2.589,0,4.159,0,.057-1.323.175-2.348.175-3.43,0-15.537-.117-31.074.066-46.669a67.629,67.629,0,0,1,1.5-14.814c2.287-10.115,8.189-17.945,16.857-23.666,9.154-6.082,19.39-7.345,29.809-5.238,10.118,2.047,18.129,7.707,23.965,16.318a40.384,40.384,0,0,1,6.868,24.389c-.123,6.143,0,12.225-.06,18.367,0,1.384.177,3.071-2.167,2.288,0-7.107.117-14.271,0-21.378-.3-13.488-5.423-24.688-16.682-32.337a34.659,34.659,0,0,0-26.975-5.721c-12.047,2.529-21.318,9.153-26.8,20.715a32.552,32.552,0,0,0-3.435,13.97c-.058,26.375,0,52.751-.058,79.186a34.451,34.451,0,0,1-.419,3.493l-.014.005a22.613,22.613,0,0,0-.772,3.967c-.057,14.271-.057,28.482,0,42.756a27.268,27.268,0,0,0,.546,3.792c-.845,3.011-1.329,6.142-2.593,9.033-3.492,8.068-9.753,13.186-18,15.9a30.956,30.956,0,0,1-23.726-1.446c-8.249-3.976-13.85-10.3-16.08-19.148-1.146-4.579-1.146-9.455-1.5-14.211-.183-2.17-.964-3.373-3.252-3.373-2.11.06-3.01,1.2-3.01,3.252-.124,8.068-.3,16.077,3.915,23.485,4.276,7.526,10.054,13.427,18.063,16.679a38.838,38.838,0,0,0,20.655,2.71,39.414,39.414,0,0,0,16.441-5.9,35,35,0,0,0,15.356-22.039,71.748,71.748,0,0,0,1.381-13.973c.184-10.6.06-21.194.06-31.794v-88.76c0-6.022.546-11.8,3.975-17.1,4.88-7.526,11.442-12.406,20.173-14.151a28.96,28.96,0,0,1,16.744,1.685,28.66,28.66,0,0,1,12.284,9.093c5.055,6.564,6.8,13.97,6.683,22.1s0,16.257.06,24.386c-2.411,1.386-2.951.06-2.951-2.047,0-8.912-.124-17.885,0-26.8.181-11.32-7.527-20.9-17.282-24.627A27.2,27.2,0,0,0,190.8,115.029a26.528,26.528,0,0,0-3.31,12.707c-.06,17.885,0,35.707,0,53.592,0,.482.122.964.122,1.386,6.381,0,12.707.66,18.846-.241,4.337-.663,8.132-6.143,8.072-11.8-.124-18.79-.064-37.515,0-56.3,0-1.263.659-2.469.964-3.731.419,1.263,1.2,2.529,1.2,3.792.063,18.488-.058,36.915.123,55.4.06,6.323-2.351,11.019-7.707,14.151a9.925,9.925,0,0,1-4.517,1.206c-4.7.181-9.453.241-14.151.181-2.17,0-3.252.723-3.071,2.951.06.721,0,1.384,0,2.107,0,22.34.178,44.682-.181,67.022-.241,12.764-6.445,22.882-16.622,30.287a38.4,38.4,0,0,1-22.994,7.4A46.115,46.115,0,0,1,139.556,294.416Zm-18.85-55.1c-.9,4.817-.241,9.154-1.745,13.729-1.989,6.082.362,12.707,4.156,17.945,8.367,11.562,21.312,14.934,35.346,9.756,9.756-3.614,15.112-11.321,16.8-21.5.017-.074.039-.145.057-.219V240.522c0-17.222-.057-34.444.06-51.666,0-2.592-.717-3.734-3.427-3.493a36.916,36.916,0,0,1-6.326,0c-.841-.06-1.565-.844-2.345-1.266-.783.422-1.63,1.206-2.413,1.266-3.609.121-7.225.121-10.836.06-2.592-.06-3.732.783-3.732,3.611.176,9.334-.3,18.668.116,27.943.606,12.044-9.871,23-22.277,22.339-.383-.019-.764-.027-1.145-.027C122.229,239.29,121.468,239.317,120.706,239.317Zm-12.583-8.49c-2.293,4.756-1.088,9.816-1.269,15.175,5.121-3.674,6.445-3.674,10.9-.362l1.085-.181c-.545-4.636-.787-9.395-1.745-13.97-.241-1.266-2.534-2.529-4.1-3.071a3.648,3.648,0,0,0-1.179-.2A4.251,4.251,0,0,0,108.123,230.827Zm-3.614,5.6c1.022-7.707,2.649-10.115,7.282-10.3,1.631-.06,3.617,0,4.94.841,3.376,2.23,4.334,5.9,4.033,9.7,14.211,2.227,24.813-10.058,22.885-19.992-3.611,4.214-7.827,6.2-12.888,6.2-12.1,0-24.266.06-36.373-.06a17.083,17.083,0,0,1-6.86-1.628c-2.17-.962-4.035-2.649-6.085-4.033C79.937,228.961,93.306,239.5,104.509,236.426ZM81.084,175.969c0,11.441-.123,22.46.117,33.48.064,1.929,1.387,4.1,2.593,5.781,3.01,4.217,7.526,5.3,12.466,5.241,10.658-.06,21.254-.06,31.914,0,7.647.06,13.063-2.652,15.532-10.238.039-.206.082-.414.126-.622v-33.4h-20.9a27.223,27.223,0,0,1,3.734-.723c4.515-.06,9.031,0,13.548-.06.9,0,1.869-.121,2.773-.181v-.781l-.063,0v.663c-.9.06-1.865.181-2.77.181-4.514,0-9.03-.06-13.548.06a19.468,19.468,0,0,0-3.731.723c0,5.54-.06,11.019.057,16.559.06,2.291-.723,2.951-2.951,2.891-5-.121-10.054-.121-15.052,0-2.287.06-2.951-.841-2.893-3.011.123-4.7.183-9.452.06-14.151,0-.844-.9-2.288-1.447-2.288-3.9-.109-7.778-.129-11.691-.129C86.353,175.961,83.734,175.969,81.084,175.969Zm95.562,33.211c.249-.148.822-.252,1.145-.392l.022-.044A5.757,5.757,0,0,0,176.646,209.18Zm-72.2-18.035c-.06,1.806.723,2.408,2.529,2.348,2.409-.121,4.756-.06,7.167-.06,7.285,0,7.707-.542,6.137-8.189H104.449C104.449,187.41,104.509,189.276,104.449,191.144Zm.241-8.49h15.776V140.2H104.69Zm-23.364-8.972c6.561,0,12.828.06,19.15-.06a2.666,2.666,0,0,0,1.8-1.688c.06-8.128,0-16.2,0-24.627H81.326Zm46.184-27.22a41.058,41.058,0,0,0-4.633.723V173.38c.166.036.336.077.507.121h20.624V147.848c-1.259-.784-2.047-1.266-2.887-1.809a.673.673,0,0,1-.06-.049.625.625,0,0,1-.123.471c-2.97,0-5.967-.027-8.956-.027Q129.739,146.435,127.509,146.462Zm13.281-.72c-.072-.071-.145-.145-.219-.216ZM101.8,213.966c8.49-.06,17.044-.362,25.535.121a10.664,10.664,0,0,0,11.32-11.381,91.2,91.2,0,0,1,0-9.937c.057-.784.781-1.5,1.205-2.288.359.723,1.022,1.386,1.08,2.107.06,4.216.183,8.43-.058,12.586a11.247,11.247,0,0,1-8.855,10.658c-10.959.06-21.854.12-32.7.12C98.6,213.424,100.534,213.966,101.8,213.966Zm36.855-30.891c0-1.145.723-2.291,1.145-3.433.483,1.142,1.025,2.227,1.682,3.493-.6,1.384-1.139,2.529-1.622,3.611A14.33,14.33,0,0,1,138.651,183.076ZM253.183,159.53c-.362-.181-.844-.663-.844-1.025-.117-1.685-.06-3.433-.06-5.419,1.928,1.206,2.83,4.877,1.869,6.082a1.306,1.306,0,0,1-.828.394A.249.249,0,0,1,253.183,159.53ZM.092,106.177c0-15.115,0-30.288.057-45.4A21.021,21.021,0,0,1,.876,56.98c.362,0,.723-.06,1.08-.06A13.311,13.311,0,0,1,2.98,60.171c.181,4.1.123,8.189.181,12.345v.323a15.675,15.675,0,0,1,.482,2.869c.06,9.874.06,19.811,0,29.685a29.532,29.532,0,0,1-.54,3.252c-.906.181-1.745.362-2.893.6C.15,107.925.092,107.081.092,106.177ZM214.4,70.889c-.057-11.14-.3-22.28.06-33.419.181-6.927-5.479-13.849-13.424-13.548-10.842.362-21.683.12-32.519.12H26.1c-2.164,0-4.514.181-6.8.241a36.506,36.506,0,0,1,4.4-.543c13.488-.06,26.977,0,40.465-.12,1.321,0,2.587-.9,3.855-1.387a34.349,34.349,0,0,1,3.487-.362q64.134,0,128.263-.06c5.543,0,10.54.6,14.334,5.962.723-5.178.241-9.271-2.951-12.825-2.83-3.132-6.386-3.855-10.419-3.855q-60.519.091-121.033,0c-19.573,0-39.082-.06-58.653-.06A18.1,18.1,0,0,1,24.84,9.892c10.419-.12,20.838-.06,31.255-.06a31.819,31.819,0,0,0,4.092-.542c.723-.362,1.5-1.085,2.227-1.085,4.7-.121,9.455-.06,14.154-.06,40.768,0,81.474-.06,122.236.121a27.25,27.25,0,0,1,11.2,2.83c4.4,2.047,6.567,6.142,6.627,11.019.122,12.224.122,24.509.122,36.734,0,4.033.06,8.009-.063,12.042,0,.784-.723,1.567-1.14,2.35C215.185,72.456,214.4,71.673,214.4,70.889ZM.092,49.212c-.123-3.071-.123-6.142,0-9.274,0-.422.9-1.2,1.266-1.142.6.121,1.444.72,1.5,1.2a29.3,29.3,0,0,1,.117,4.578,36.017,36.017,0,0,1-.06,4.455c-.057.6-.838,1.145-1.321,1.685C1.057,50.237.15,49.755.092,49.212ZM155.09.919c1.206-.3,2.469-.964,3.675-.9A14.06,14.06,0,0,1,162.5,1.16c-1.205.48-2.351.962-3.794,1.5C157.441,2.062,156.236,1.519,155.09.919Zm37.337,1.263c-7.893,0-15.777,0-23.725-.06a13.049,13.049,0,0,1-2.894-.781c.061-.362.184-.723.241-1.025a14.886,14.886,0,0,1,2.288-.3h26.134a2.242,2.242,0,0,1,.907.06,13.5,13.5,0,0,1,1.5,1.025c-.482.359-.9.962-1.447,1.022a6.98,6.98,0,0,1-1.269.1C193.593,2.223,193.01,2.182,192.427,2.182Z" transform="translate(73.854 57.374)"/>
  <path id="XMLID_3052_" class="cls-2" d="M324.46,406.962c0-8.129-.12-16.259-.06-24.388.12-8.129-1.626-15.536-6.684-22.1a29.111,29.111,0,0,0-12.284-9.093,28.459,28.459,0,0,0-16.74-1.686c-8.792,1.746-15.3,6.624-20.173,14.151-3.432,5.3-3.974,11.08-3.974,17.1v88.76c0,10.6.121,21.2-.06,31.794a67.461,67.461,0,0,1-1.385,13.97,34.985,34.985,0,0,1-15.355,22.039,39.408,39.408,0,0,1-16.439,5.9,38.817,38.817,0,0,1-20.654-2.71c-8.009-3.252-13.79-9.153-18.065-16.68-4.215-7.407-4.035-15.416-3.914-23.485.06-2.047.9-3.191,3.011-3.252,2.288-.06,3.071,1.2,3.252,3.372.361,4.757.361,9.635,1.505,14.211,2.228,8.792,7.828,15.115,16.078,19.149a30.942,30.942,0,0,0,23.725,1.445c8.25-2.65,14.512-7.828,18-15.9,1.2-2.83,1.746-6.022,2.589-9.033a18.453,18.453,0,0,0,.6-3.071c.06-14.874.06-29.687,0-44.561a24.657,24.657,0,0,0-.361-2.951l-.06.12a34.519,34.519,0,0,0,.422-3.493q.09-39.562.06-79.185a32.528,32.528,0,0,1,3.432-13.97c5.419-11.562,14.753-18.125,26.8-20.715,9.574-2.047,18.968.241,26.977,5.721,11.261,7.648,16.379,18.848,16.68,32.336.12,7.106,0,14.271,0,21.377-.6-.12-1.144-.3-1.746-.422-3.733-.6-4.336-.181-4.817,3.493A9.012,9.012,0,0,1,324.46,406.962Z" transform="translate(-5.37 -193.971)"/>
  <path id="XMLID_3047_" class="cls-3" d="M167.034,365.36H134.577c-1.505,0-3.192.12-4.4-.542-1.265-.723-2.89-2.288-2.89-3.493-.241-12.344-.181-24.689-.06-36.973,0-2.77,1.927-4.035,4.637-4.035,6.022,0,12.043-.12,18.065.06,2.89.06,3.974-1.024,3.794-3.854-.181-2.951-.06-5.961,0-8.972.06-2.409,1.265-3.553,3.794-3.553q9.936.181,19.872,0c2.951-.06,3.974,1.385,3.974,3.974,0,3.011.12,6.022,0,9.033-.12,2.469,1.024,3.372,3.432,3.312,5.54-.12,11.02-.06,16.56,0,3.914,0,6.865,1.265,6.684,6.624-.361,10.839-.12,21.678-.12,32.457,0,4.576-.843,5.66-5.54,5.9-5.6.3-11.2.241-16.8.3-6.082.06-12.224,0-18.366,0C167.034,365.48,167.034,365.42,167.034,365.36Zm.12-16.259c11.2,0,22.461-.06,33.661.06,2.77,0,4.035-.783,3.914-3.733-.181-6.2-.12-12.465,0-18.667.06-2.589-.843-3.613-3.493-3.553-6.142.12-12.224.06-18.366,0-3.372,0-3.974-.662-4.035-4.095-.06-3.312-.12-6.624,0-9.936.12-2.65-1.024-3.553-3.553-3.493-5.3.12-10.658.12-15.957,0-2.409-.06-3.493.843-3.432,3.312.12,3.372-.06,6.8.06,10.177.06,3.011-1.325,4.035-4.215,3.974-6.142-.12-12.224,0-18.366-.06-2.469-.06-3.432.9-3.372,3.372.12,6.2,0,12.465.06,18.667,0,3.613.241,3.854,3.974,3.914C145.115,349.1,156.135,349.1,167.154,349.1Zm.3,3.011H136.444c-6.925,0-6.383-.542-6.383,6.624,0,4.035.181,4.215,4.275,4.215h63.649c7.346,0,6.744.723,6.744-6.865,0-3.733-.241-3.974-3.914-3.974Z" transform="translate(19.097 -178.865)"/>
  <path id="XMLID_3045_" class="cls-4" d="M172.909,595.417a18.243,18.243,0,0,1,.482,3.493c-.421,7.286,1.325,14.211,3.974,20.775a40.382,40.382,0,0,0,11.983,16.259c6.022,4.938,12.646,8.731,20.353,10.357,3.192.662,6.564,1.626,9.695,1.385,11.863-1.024,22.943-4.095,31.734-12.947,4.516-4.516,8.671-9.273,10.9-15.235a52.6,52.6,0,0,0,3.372-14.211c.482-7.768,0-15.656.06-23.485,0-.722.6-1.385.963-2.108.662.542,1.807.964,1.987,1.626a19.985,19.985,0,0,1,.482,5.359c-.06,4.215-.241,8.43-.3,12.585-.181,7.949-1.505,15.777-5.058,22.882-5.9,11.622-14.813,20.112-27.4,24.569a48.794,48.794,0,0,1-22.1,2.65,50.313,50.313,0,0,1-22.882-9.033c-6.5-4.516-11.14-10.6-14.813-17.4-4.215-7.828-5.54-16.379-5.179-25.231a3.706,3.706,0,0,1,.422-1.385C171.7,596.2,172.006,596.079,172.909,595.417Z" transform="translate(1.6 -288.548)"/>
  <path id="XMLID_3044_" class="cls-5" d="M20.194,228.9c.06,4.275.06,8.611.12,12.886V375.829c0,1.024-.06,1.987-.06,3.011-.361-1.265-1.084-2.589-1.084-3.854q-.09-71.267,0-142.534A9.589,9.589,0,0,1,20.194,228.9Z" transform="translate(62.062 -148.989)"/>
  <path id="XMLID_3043_" class="cls-6" d="M319.2,333.8A63.074,63.074,0,0,1,325.222,330c7.346-3.613,15.175-5.721,23.424-5,7.587.662,14.934,2.348,21.377,6.8,1.867,1.325,3.794,2.529,5.54,4.035.482.361.3,1.505.421,2.288-.723-.181-1.566-.12-2.108-.542-11.321-9.695-24.629-11.2-38.6-8.852-3.974.662-7.708,3.131-11.5,4.757-1.264.542-2.529,1.144-3.794,1.746C319.742,334.762,319.441,334.28,319.2,333.8Z" transform="translate(-57.317 -187.167)"/>
  <path id="XMLID_3041_" class="cls-7" d="M343.247,245.646c.06,4.215-2.529,6.8-6.684,6.8s-6.624-2.589-6.564-6.925c0-4.155,2.71-7.106,6.564-7.226C340.357,238.239,343.187,241.31,343.247,245.646Z" transform="translate(-61.612 -152.728)"/>
  <path id="XMLID_3040_" class="cls-7" d="M49.248,245.6c0,4.336-2.529,6.744-7.045,6.8-3.613.06-6.2-2.71-6.2-6.624,0-4.275,2.951-7.768,6.443-7.587A7.252,7.252,0,0,1,49.248,245.6Z" transform="translate(55.349 -152.684)"/>
  <path id="XMLID_3039_" class="cls-8" d="M36,471.464c0-4.637,1.927-6.564,6.564-6.564,4.095,0,6.684,2.409,6.684,6.323,0,4.4-2.469,6.865-6.865,6.865C38.409,478.148,36,475.558,36,471.464Z" transform="translate(55.349 -242.877)"/>
  <path id="XMLID_3038_" class="cls-8" d="M343.287,471.3c.06,4.155-2.348,6.744-6.263,6.744-4.4.06-6.925-2.469-6.925-6.8,0-3.854,2.469-6.323,6.323-6.443C340.7,464.8,343.227,467.148,343.287,471.3Z" transform="translate(-61.653 -242.837)"/>
  <path id="XMLID_3037_" class="cls-3" d="M-94.443,382.856c-.542.843-.723,1.325-1.084,1.566a2.639,2.639,0,0,1-1.385.361c-2.168.181-4.938-.361-6.263.783-1.084.964-.361,3.914-.662,5.961-.12.783-.9,1.505-1.445,2.288-.482-.783-1.325-1.445-1.445-2.288-.3-2.047.422-4.878-.662-6.022s-3.914-.422-5.961-.783c-.843-.12-1.566-.9-2.348-1.325a7.576,7.576,0,0,1,2.469-1.505c2.047-.361,4.757.3,5.961-.843,1.024-.964.3-3.794.6-5.721.12-.9.963-1.686,1.505-2.529a9.83,9.83,0,0,1,1.385,2.589c.361,1.987-.241,4.757.9,5.9.963,1.024,3.794.3,5.781.482C-96.37,382.013-95.588,382.495-94.443,382.856Z" transform="translate(115.7 -206.237)"/>
  <path id="XMLID_3033_" class="cls-3" d="M130,103.183a7.376,7.376,0,0,1,7.467-6.985,7.261,7.261,0,0,1,6.925,7.166c.181,4.637-4.035,7.106-7.527,7.166C133.432,110.59,130,106.736,130,103.183Zm2.409.181a4.851,4.851,0,0,0,9.695-.06c0-2.409-2.71-5.058-5.058-4.938A5.389,5.389,0,0,0,132.409,103.364Z" transform="translate(17.953 -96.195)"/>
  <path id="XMLID_3032_" class="cls-9" d="M92.2,689.9c3.252-.06,5.721,2.047,5.66,4.878-.06,2.65-2.409,4.7-5.54,4.757a4.881,4.881,0,0,1-5.118-4.7A4.973,4.973,0,0,1,92.2,689.9Z" transform="translate(34.98 -332.388)"/>
  <path id="XMLID_3029_" class="cls-3" d="M-42,615.8c0-3.974,2.047-5.961,5.9-5.9,3.493.06,5.54,2.288,5.54,6.022,0,3.673-2.529,6.082-6.323,6.022C-40.074,621.882-42.061,619.534-42,615.8Zm9.514-.662c-1.385-1.024-2.83-2.83-4.155-2.77-1.2.06-2.951,2.168-3.131,3.553-.12,1.084,1.626,3.011,2.89,3.432C-34.955,619.955-32.968,617.788-32.487,615.138Z" transform="translate(86.381 -300.561)"/>
  <path id="XMLID_3028_" class="cls-10" d="M-49.928,549.7a4.357,4.357,0,0,1-4.275,4.4c-2.108-.06-4.757-2.951-4.7-5.119.06-2.108,2.89-4.878,5-4.878C-51.915,544.16-49.868,546.93-49.928,549.7Z" transform="translate(93.104 -274.385)"/>
  <path id="XMLID_3027_" class="cls-10" d="M103.375,116.9a4.707,4.707,0,0,1,5.058,4.4,4.882,4.882,0,0,1-4.576,4.637,5.031,5.031,0,0,1-4.757-4.817C99.1,118.224,100.425,116.959,103.375,116.9Z" transform="translate(30.246 -104.431)"/>
  <path id="XMLID_3026_" class="cls-10" d="M468,347.6c-.06-3.071,1.505-4.7,4.456-4.7a4.184,4.184,0,0,1,4.516,4.155,4.646,4.646,0,0,1-4.878,4.878C469.324,351.933,468.059,350.668,468,347.6Z" transform="translate(-116.513 -194.342)"/>
  <path id="XMLID_3025_" class="cls-3" d="M135.368,711.7c-.723.6-1.024,1.024-1.325,1.024-2.77,0-4.7.843-4.4,4.155.06.361-.723,1.024-1.144,1.024-.482,0-1.325-.6-1.325-.9.181-3.493-2.348-4.095-4.878-4.757-.12,0-.12-.361-.3-.723.361-.241.723-.723,1.084-.723,2.469-.06,3.974-1.024,3.914-3.794,0-.482,1.024-1.024,1.505-1.505.422.482,1.144,1.024,1.144,1.445-.181,2.77,1.2,3.794,3.794,3.673C133.983,710.679,134.465,711.16,135.368,711.7Z" transform="translate(21.136 -338.595)"/>
  <path id="XMLID_3024_" class="cls-3" d="M417.2,620.085a11.069,11.069,0,0,1,2.951-.662c2.409.181,3.312-.9,3.131-3.192a2.77,2.77,0,0,1,.241-1.746,8.052,8.052,0,0,1,1.746-1.385,14.978,14.978,0,0,1,.9,1.686,6.307,6.307,0,0,1,.06,1.506c-.241,2.409.964,3.191,3.252,3.131a7.285,7.285,0,0,1,2.529.963c-.783.422-1.626,1.2-2.288,1.084-3.252-.422-3.673,1.325-3.493,3.914.06.6-.6,1.265-.964,1.867-.6-.542-1.806-1.144-1.746-1.505.6-3.914-1.686-4.516-4.757-4.336a1.082,1.082,0,0,1-.542-.241C417.923,621.109,417.862,620.928,417.2,620.085Z" transform="translate(-96.304 -301.835)"/>
  <path id="XMLID_3021_" class="cls-3" d="M429,270.124c4.336-.181,6.142-2.409,6.5-6.624,1.084,3.794,2.228,6.684,6.865,6.5-3.914.843-6.323,2.65-6.564,6.925C434.961,273.014,432.854,270.967,429,270.124Z" transform="translate(-100.998 -162.754)"/>
  <path id="XMLID_3019_" class="cls-11" d="M81.575,205.994c-11.682.06-23.3.06-34.986.06A13.226,13.226,0,0,1,44,205.512a9.528,9.528,0,0,1,2.168-.542c10.959-.06,21.979-.06,32.939,0A9.74,9.74,0,0,1,81.575,205.994Z" transform="translate(52.166 -139.451)"/>
  <path id="XMLID_3007_" class="cls-8" d="M326.7,560.515c.843-1.626,1.566-2.89,2.288-4.215.482,1.445,1.385,2.891,1.385,4.336,0,1.626-.843,3.191-1.265,4.817C328.386,563.887,327.6,562.382,326.7,560.515Z" transform="translate(-60.3 -279.238)"/>
  <path id="XMLID_3006_" class="cls-3" d="M-26.221,165.9c1.265,1.746,2.65,2.83,2.469,3.613-.181,1.084-1.566,1.987-2.409,3.011-.963-.963-2.348-1.807-2.65-2.951C-28.991,168.851-27.546,167.707-26.221,165.9Z" transform="translate(81.139 -123.926)"/>
  <path id="XMLID_3005_" class="cls-3" d="M457.684,565.181c-1.807,1.144-2.891,2.348-3.733,2.228-1.084-.121-1.987-1.445-2.951-2.228,1.024-1.024,1.867-2.469,3.071-2.89C454.673,562.11,455.938,563.736,457.684,565.181Z" transform="translate(-109.751 -281.617)"/>
  <path id="XMLID_2999_" class="cls-4" d="M422.236,357.965c-1.445-1.927-2.89-3.914-4.336-5.841.3-.361.6-.662.9-1.024,1.084.783,2.469,1.385,3.252,2.469s.9,2.589,1.325,3.914C422.958,357.664,422.6,357.784,422.236,357.965Z" transform="translate(-96.582 -197.604)"/>
  <path id="XMLID_2609_" class="cls-12" d="M35.2,209.8c19.571,0,39.081.06,58.651.06H214.883c4.035,0,7.587.723,10.418,3.854,3.191,3.553,3.673,7.648,2.951,12.826-3.794-5.3-8.852-5.961-14.332-5.961-42.754.12-85.508.06-128.262.06a34.326,34.326,0,0,0-3.493.361,29.838,29.838,0,0,0-3.252-.361c-13.428,0-26.857.06-40.285-.06-5.3-.06-9.876,1.024-13.127,5.66C23.513,219.856,26.344,211.486,35.2,209.8Z" transform="translate(59.767 -141.39)"/>
  <path id="XMLID_2605_" class="cls-3" d="M183.55,484.014h20.955v34.143c-2.469,7.587-7.888,10.3-15.536,10.237-10.658-.12-21.257-.06-31.915,0-4.938,0-9.454-1.024-12.465-5.239-1.2-1.686-2.529-3.794-2.589-5.781-.241-11.02-.12-22.039-.12-33.481,6.564,0,13.067-.06,19.571.12.542,0,1.385,1.505,1.445,2.288.12,4.7.06,9.454-.06,14.151-.06,2.168.542,3.071,2.89,3.011,5-.12,10.056-.12,15.054,0,2.228.06,3.011-.6,2.951-2.89C183.49,495.094,183.55,489.554,183.55,484.014Zm9.033,39.683a11.2,11.2,0,0,0,8.852-10.658c.181-4.215.12-8.43.06-12.585,0-.723-.723-1.385-1.084-2.108-.422.783-1.144,1.505-1.2,2.288a91.151,91.151,0,0,0,0,9.936,10.665,10.665,0,0,1-11.321,11.381c-8.491-.482-17.041-.121-25.532-.121-1.265,0-3.131-.542-2.469,1.987.783.361,1.626,1.084,2.409,1.084q13.549.09,27.1,0A11.528,11.528,0,0,0,192.583,523.7Zm9.514-32.758c-.6-1.265-1.144-2.409-1.686-3.493-.422,1.144-1.144,2.288-1.144,3.432,0,1.265.783,2.469,1.2,3.673C200.953,493.468,201.435,492.324,202.1,490.939Z" transform="translate(13.239 -250.429)"/>
  <path id="XMLID_2604_" class="cls-13" d="M196.577,466.753H180.8V424.3h15.777Z" transform="translate(-2.257 -226.725)"/>
  <path id="XMLID_2603_" class="cls-3" d="M204.287,551.3c1.927,9.936-8.671,22.22-22.943,20.052.3-3.854-.6-7.467-4.035-9.695-1.265-.843-3.252-.9-4.938-.843-4.637.181-6.263,2.589-7.286,10.3-11.2,3.071-24.568-7.467-23.063-19.269,2.047,1.385,3.914,3.071,6.082,4.035a18.2,18.2,0,0,0,6.865,1.626c12.1.181,24.267.06,36.371.06C196.459,557.5,200.674,555.455,204.287,551.3Z" transform="translate(13.216 -277.249)"/>
  <path id="XMLID_2602_" class="cls-13" d="M229.286,434.1c.843.482,1.626,1.024,2.89,1.807v25.652H211.1V435.365c4.516-.06,8.972-.06,13.489-.181,1.505-.06,3.071-.361,4.577-.542A.9.9,0,0,0,229.286,434.1Z" transform="translate(-14.311 -230.624)"/>
  <path id="XMLID_2601_" class="cls-14" d="M162.916,436.06c0,8.43.06,16.5-.06,24.569a2.448,2.448,0,0,1-1.807,1.686c-6.323.12-12.585.06-19.149.06V436C148.825,436.06,155.629,436.06,162.916,436.06Z" transform="translate(13.219 -231.38)"/>
  <path id="XMLID_2600_" class="cls-15" d="M195.209,587.944c-4.456-3.312-5.781-3.312-10.9.422.181-5.42-.963-10.418,1.265-15.175a4.106,4.106,0,0,1,4.878-2.409c1.566.542,3.794,1.746,4.095,3.071.963,4.576,1.2,9.273,1.746,13.97A6.626,6.626,0,0,0,195.209,587.944Z" transform="translate(-3.599 -284.929)"/>
  <path id="XMLID_2599_" class="cls-16" d="M180.4,499.1h15.837c1.566,7.648,1.144,8.189-6.142,8.189-2.409,0-4.817-.12-7.166.06-1.807.12-2.589-.542-2.529-2.348C180.458,503.134,180.4,501.268,180.4,499.1Z" transform="translate(-2.096 -256.483)"/>
  <path id="XMLID_2598_" class="cls-17" d="M301.753,537.9a24.644,24.644,0,0,1,.361,2.951v44.561a18.451,18.451,0,0,1-.6,3.071,27.4,27.4,0,0,1-.542-3.794c-.06-14.271-.06-28.483,0-42.754A29.856,29.856,0,0,1,301.753,537.9Z" transform="translate(-50.046 -271.919)"/>
  <path id="XMLID_2597_" class="cls-18" d="M229.165,434.882c-1.505.181-3.011.482-4.577.542-4.516.12-8.972.12-13.489.181a41.153,41.153,0,0,1,4.637-.723C220.193,434.822,224.649,434.882,229.165,434.882Z" transform="translate(-14.311 -230.924)"/>
  <path id="XMLID_2596_" class="cls-2" d="M169.052,350.254H135.933c-3.733,0-3.974-.241-3.974-3.914,0-6.2.06-12.465-.06-18.667-.06-2.469.9-3.432,3.372-3.372,6.142.12,12.224-.06,18.366.06,2.89.06,4.275-1.024,4.215-3.974-.12-3.372.06-6.8-.06-10.177-.06-2.469.963-3.372,3.432-3.312,5.3.12,10.658.12,15.957,0,2.529-.06,3.673.843,3.553,3.493-.12,3.312-.06,6.624,0,9.936.06,3.432.662,4.035,4.035,4.095,6.142.06,12.224.12,18.366,0,2.65-.06,3.553,1.024,3.493,3.553-.12,6.2-.12,12.465,0,18.667.06,2.951-1.144,3.794-3.914,3.733C191.513,350.194,180.313,350.254,169.052,350.254Z" transform="translate(17.199 -180.018)"/>
  <path id="XMLID_2595_" class="cls-12" d="M169.388,383.9h33.36c3.673,0,3.914.241,3.914,3.974,0,7.587.6,6.865-6.744,6.865H136.269c-4.095,0-4.275-.181-4.275-4.215,0-7.106-.542-6.624,6.383-6.624Z" transform="translate(17.164 -210.648)"/>
  <path id="XMLID_2594_" class="cls-19" d="M134,104.835a5.276,5.276,0,0,1,4.637-4.938c2.348-.12,5.058,2.529,5.058,4.938a4.978,4.978,0,0,1-5.179,4.7C136.348,109.532,134.059,107.184,134,104.835Z" transform="translate(16.362 -97.666)"/>
  <path id="XMLID_2593_" class="cls-19" d="M-31.018,616.769c-.482,2.71-2.469,4.878-4.4,4.215-1.265-.422-3.011-2.349-2.89-3.432.181-1.385,1.927-3.493,3.131-3.553C-33.848,613.939-32.4,615.745-31.018,616.769Z" transform="translate(84.912 -302.192)"/>
  <path id="XMLID_2440_" class="cls-20" d="M171.9,550.06c10.9,0,21.738-.06,32.638-.06a11.181,11.181,0,0,1-3.131,1.2c-9.033.121-18.065.06-27.1,0C173.466,551.144,172.683,550.421,171.9,550.06Z" transform="translate(1.284 -276.732)"/>
</svg>
