<svg xmlns="http://www.w3.org/2000/svg" viewBox="0 0 746.917 328.847"><defs><style>.a{fill:#adadad;}.b{fill:#f5f5f5;}.c{fill:#7f7f7f;}.ab,.d{fill:#e4e4e4;}.e{fill:#4f6780;}.f{fill:#ff0083;}.g{fill:#6d6d6d;}.h{fill:#afc8d4;}.i{fill:#b8d4e2;}.j{fill:#a5c3d3;}.k{fill:#fbfbfb;}.l{fill:#eeeff1;}.m{fill:#f9fafa;}.n{fill:#465b6f;}.o{fill:#49a7d3;}.p{fill:#fcf5d6;}.q{fill:#f0e9c1;}.r{fill:#e4f1f7;}.s{fill:#65788c;}.t{fill:#e4cfe5;}.u{fill:#637383;}.v{fill:#566c81;}.w{fill:#376d94;}.x{fill:#5d6863;}.y{fill:#e1eef4;}.z{fill:#707f90;}.aa{fill:#fdfdfc;}.aa,.ab{stroke:#707070;}</style></defs><g transform="translate(-586.999 -4040.024)"><g transform="translate(558.234 3951.16)"><g transform="translate(28.765 88.864)"><path class="a" d="M47.3,65.141H90.129c2.677.894,5.356,1.788,8.478,3.125V80.313C81.654,81.207,64.25,81.65,47.3,82.544Zm1.341-8.031q.663-11.376,1.336-22.755H48.637c-.894,2.678-.894,5.8-2.232,8.031Q42.388,49.75,38.374,57.11c-8.478-.447-16.513-.447-24.544-.447-3.568-8.921-6.693-17.4-10.706-26.324C2.679,29,.894,27.661,0,26.324l2.232-2.231c1.783-.447,3.568-.89,4.905-1.337a8.971,8.971,0,0,1,3.572,1.785q2.675,4.017,5.352,8.031c2.679,4.015,5.8,8.478,8.925,13.387C27.218,40.6,29,35.7,31.233,31.234c3.126-8.031,6.248-16.065,9.816-24.54L63.8,0c.447,0,.447,0,.894.447-.447,1.337-1.339,2.675-1.783,4.015-1.341,5.353.444,12.046,4.016,13.831,5.352,2.231,11.6-.447,14.724-6.247A116.9,116.9,0,0,0,86.116.89H87.9c7.589.447,13.835,4.016,19.636,8.925,1.338,5.353,3.124,11.156,4.015,16.509,1.341,5.356,2.232,11.156,3.126,16.509q-1.341,5.353-2.679,10.709h-8.031C98.607,48.189,99.948,40.6,99.5,33.908H97.716V53.542c-4.91,0-9.82,0-14.726.447-1.336,0-2.677,1.784-3.568,3.122Z" transform="translate(375.69 135.648)"/><path class="b" d="M916.094,535.646c-2.677.892-7.139-2.231-8.031,3.569-3.123-4.462-8.031-1.339-12.047-2.231a10.5,10.5,0,0,0-3.569-.892H813.025c-1.339,0-2.231,2.231-3.569,3.123-3.569-3.569-7.585-2.677-12.047-1.339-2.231-.892-4.016-2.231-6.247-2.231H706.387v17.4c-.446,1.339-.892,3.123-1.339,4.462-1.339,4.016-1.785,8.031.893,11.6-2.677.892-4.908,1.339-7.585,2.231-1.785-.892-3.569-1.339-5.354-2.231-.892-4.016-2.231-8.031-3.123-11.6-1.339-5.8-2.677-11.155-4.462-16.955a8,8,0,0,0-2.231-3.123c-.446.892-1.338,1.338-1.785,2.231-1.338-.893-3.123-3.123-4.462-3.123H564.945c2.231,2.231,3.569,3.123,4.462,4.462-2.231,9.37-4.908,19.186-7.139,28.556H550.221c-.446-1.785-.893-3.123-1.339-4.462,0-.892-.446-2.231-.446-3.123.446-.446.892-.892.892-1.339.446-7.585.893-15.616.893-23.2l-1.785-.892c-16.063,0-31.679-.446-47.742-.446-.446,0-1.338,1.339-1.785,1.785V552.6c-.892-4.462-1.785-9.37-2.677-13.832a7.164,7.164,0,0,0-11.6,1.339,19.637,19.637,0,0,0-.892-4.462H476.6V529.4H911.632c1.338.446,2.677.446,4.462.892C916.094,532.523,916.094,533.862,916.094,535.646Z" transform="translate(-286.467 -334.855)"/><path class="c" d="M599.878,583.965c-5.8-4.462-12.047-8.478-19.632-8.924-2.677-2.231-5.354-4.462-5.354-8.924,0-8.032,5.354-11.6,10.262-16.063a14.037,14.037,0,0,0,3.57-6.693c0-1.339-1.785-3.569-3.123-4.016-2.677-1.338-6.247-1.785-9.37-2.677-5.354-4.016-7.585-11.155-14.724-12.939q-2.677,3.346-4.016,5.354c-4.462-.892-7.585-1.338-11.155-1.785-.446.446-.892.893-.892,1.338-2.677,8.031-4.016,16.509.446,24.54,3.124,5.354,6.693,9.816,13.386,11.154a15.858,15.858,0,0,1,.892,4.462c-1.339,2.231-2.677,4.016-4.016,6.247L533.4,581.734c-3.123-1.785-8.924,0-8.477-6.693.892-4.462,2.677-8.924,3.123-13.832,1.339-10.262,1.339-20.971,3.57-31.233,3.123-13.832,10.262-24.987,24.54-29,16.509-4.908,39.265,1.785,41.5,24.986,1.339,14.724,4.016,29.448,6.247,44.172.446,3.569,2.677,6.693,4.016,10.709C605.679,581.734,603,582.626,599.878,583.965Z" transform="translate(-117.104 -438.501)"/><path class="a" d="M8.925,82.1H7.584c0-.447,0-.447-.447-.447-.444-2.228-.444-4.015-.889-6.247V60.682H55.325V82.1ZM80.313,64.251c-.891-.447-2.232-1.338-3.122-1.785C75.855,61.573,74.96,60.235,72.73,58H89.685c-1.168,3.887-3.688,6.417-7.561,6.417A10.169,10.169,0,0,1,80.313,64.251ZM40.6,48.633c-2.23-3.568-5.352-2.675-8.475-2.675-8.478,0-16.954,0-25.433-.447v-.894A109.4,109.4,0,0,0,3.568,31.68C2.679,28.555,1.338,25.434,0,21.861c.447-1.784,0-4.906,0-7.584C6.248,4.015,15.62.447,27.218,0H29c4.909,6.694,16.507,6.694,20.97,0h1.338C63.8.894,70.051,8.031,73.175,19.63c2.233,7.588,5.8,14.725,8.922,22.312.894,0,2.232.443,2.232,0,3.126-4.462,5.8-8.478,8.478-12.94,1.785-2.679,3.572-4.91,5.352-7.584h2.232c1.788,0,3.126.443,4.91.443v2.231c-3.122,8.031-6.246,15.619-9.369,23.65-2.232.444-4.016,1.337-6.246,1.784H66.93c-2.233-4.015-4.463-8.031-6.695-11.6V28.555H58.451v8.031a12.363,12.363,0,0,1-.445,4.015c-.447,2.678-.9,5.356-1.785,8.925H47.3c-.892,0-2,.071-3.063.071C42.637,49.6,41.138,49.437,40.6,48.633Z" transform="translate(208.37 142.787)"/><path class="d" d="M617.211,540.7c-.892,17.848-1.338,36.141-2.231,53.989-.446,9.37-1.338,18.74-2.231,28.11H591.332c-.892-4.462-2.231-8.478-3.123-12.939l-10.708-41.5V540.7Z" transform="translate(62.835 -295.736)"/><path class="d" d="M532.943,529.156c-2.231.446-4.016.446-6.247.892-2.231,5.354-6.693,6.247-12.047,5.8H479.4c-7.139,0-11.155-3.57-11.6-11.155V510.416c0-5.8,4.016-9.816,10.262-9.816h38.818c6.247,0,9.37,2.677,9.37,8.478,0,6.693.892,12.493,5.8,17.4C532.943,526.925,532.943,527.818,532.943,529.156Zm-15.616-3.123v-.892H477.17v.892Zm-40.157-15.17v.892h40.6v-.892Zm26.325,6.693v1.785h8.031v-1.785ZM477.616,518v.446h20.078V518Z" transform="translate(-314.758 -434.557)"/><path class="d" d="M542.7,525.51c.446-.446.446-2.677,1.785-3.569,4.016-3.123,4.462-7.139,4.462-12.047-.446-8.924,3.569-12.493,12.493-12.493h33.018c9.37,0,12.047,2.231,12.94,11.6a68.425,68.425,0,0,1-.893,16.509c-.893,5.354-4.016,8.478-9.816,8.478h-37.48a14.812,14.812,0,0,1-7.139-2.231C549.839,530.418,546.716,528.187,542.7,525.51Zm56.22-15.617c-.448-.3,0-.892,0-.892h-41.5s.222.7,0,.892ZM557.87,523.725h42.388a8.044,8.044,0,0,1,0-1.392H557.87S558.169,523.535,557.87,523.725Zm21.417-7.139v-.892H558.317v.892Zm5.8-1.339v1.339h7.139v-1.339Z" transform="translate(-57.637 -445.635)"/><path class="e" d="M1089.841,568.793h90.576v1.785H433.5V569.24H663.286v-11.6c0-.446.446-.892.446-1.338.892,4.016,1.339,8.478,2.231,12.94h420.308A8.687,8.687,0,0,1,1089.841,568.793Z" transform="translate(-433.5 -241.731)"/><path class="c" d="M582.275,327.062c-2.232-6.694-4.463-13.388-6.246-19.634v19.634H573.8c-.447-8.925-.447-17.85-.894-26.771q-.671-2.011-1.338-4.015c-.447-2.231-.447-4.462-.894-6.247-5.352-16.956-10.709-33.912-16.509-50.42-2.674-8.478-6.246-17.4-9.369-25.877v-2.678a92.978,92.978,0,0,0,9.815-1.784c.447,1.337,1.338,2.231,1.785,3.568.894,2.678,1.338,5.8,2.23,8.478,4.016,14.725,8.032,29.449,11.6,43.727.894,2.675,1.341,4.906,2.232,7.584q5.359,20.746,10.709,41.5c1.338,4.462,2.678,8.477,3.568,12.94Zm-198.106,0c-.894-2.231-1.788-4.909-2.679-7.141H371.228c-1.341,2.678-2.679,4.909-4.016,7.141h-7.587c-.889-1.784-2.227-3.569-3.568-5.8,4.42-6.356,10.206-6.039,16.2-5.722,3.688.193,7.449.387,11.022-.972.447-1.784,1.785-4.462,1.785-7.137.445-10.262.445-20.528,0-30.343-.447-6.694-1.785-12.94-2.679-20.524H352.488c-2.677,0-5.356.447-8.031,0a39.247,39.247,0,0,1-6.693-2.231c1.338-5.353,1.338-5.353,10.709-6.694-.894-3.568-1.785-7.584-2.679-11.152,2.232-.894,4.91-1.341,7.584-2.231,4.019,8.921,10.709,13.831,20.525,13.831,6.246,0,12.049-.894,18.293-1.337v1.337a22.4,22.4,0,0,0,5.355.894h16.509c-.894,3.568-1.783,6.69-2.677,9.815-.449-.894-1.338-2.231-1.786-2.231H393.985c-.894,7.584-2.679,13.831-2.679,20.524-.447,9.816-.447,20.078,0,29.9,0,3.122,1.338,5.8,2.232,8.478h16.956v3.122c-.447,2.231-.9,4.015-1.338,6.247a47.3,47.3,0,0,0-3.126-4.909H395.768c-.894,2.678-1.783,4.909-2.677,7.141Zm-203.016,0c-.894-2.231-1.786-4.909-2.677-7.141H167.767c-.891,2.678-1.785,4.909-2.679,7.141h-2.232c-.891-4.463-1.338-8.478-2.23-12.94-1.338-21.415-3.122-43.28-4.46-66.036h25.877a13,13,0,0,0,12.939-9.815c.447-2.678.447-5.8.894-8.478.444,1.337.891,2.678,1.339,4.462h6.692c-.892,4.462-1.786,8.478-3.124,13.384,1.785,0,3.568.447,5.355.447,3.122,0,5.354.894,4.907,4.015-.447,1.784-3.122,4.015-5.354,4.462-6.693.447-13.386,0-20.081,0H165.535c-1.338,20.078-3.122,39.264-.447,58,3.928,1.6,8.066,1.355,12.05,1.105,5.975-.373,11.6-.75,15.615,5.142-1.338,2.678-1.785,4.462-2.679,6.247ZM105.3,297.613c.447-.447.894-1.337,1.341-1.784,2.228-9.368,4.458-18.293,6.69-27.665,3.572-13.384,7.587-26.771,11.6-40.155a10.034,10.034,0,0,0-3.124-.447c1.341-.447,2.677-1.337,4.015-1.785.447-3.125.9-6.246,1.342-8.925.442-.447.889-.89.889-1.337v-2.678a41.394,41.394,0,0,0,2.232-4.462c1.165,2.918,3.287,2.59,5.49,2.266a8.264,8.264,0,0,1,3.435-.035c-.894,4.909-2.23,9.815-3.126,14.725-4.905,15.171-10.262,29.9-15.168,45.064-1.341,4.016-2.23,7.588-3.572,11.6-.442.89-1.338,1.337-1.338,2.231q-5.352,16.729-10.708,33.461c-.447.894.447,1.788.894,2.678v.894a27.251,27.251,0,0,0-2.232,5.353,27.412,27.412,0,0,1-5.8.447C100.39,317.247,103.068,307.428,105.3,297.613ZM0,327.062c7.14-26.771,14.277-53.095,21.417-79.87,3.122-11.152,5.8-22.309,8.923-33.461a19.267,19.267,0,0,1,1.786-3.125h9.816v4.462c-.894,1.784-2.232,3.569-3.124,5.353-5.8,17.4-11.6,34.805-16.954,52.2-2.677,7.588-4.462,15.619-6.692,23.65-.449,1.337-.9,2.231-1.339,3.568-3.124,8.925-6.249,17.846-9.372,27.218Zm481.882-7.141c-7.139-22.756-14.726-45.954-21.863-68.71-4.016-12.05-7.587-24.1-11.6-35.7-.444-1.341-.444-3.125-.891-4.462a5.722,5.722,0,0,1,3.452-.113c2.014.324,4.087.651,5.472-2.119.891,1.784,1.338,3.568,2.232,4.909.444,1.337.444,2.231.891,3.568,1.336,5.8,2.679,12.046,4.463,17.846,4.909,19.634,10.261,39.711,15.613,59.792.447.89.447,1.337.9,2.228,1.785,8.034,3.568,16.065,5.8,23.65a4.022,4.022,0,0,0-2.232.447A9.723,9.723,0,0,1,481.882,319.922Zm88.79-54.879c-.444-7.141-.444-13.831-.891-20.971,5.8-.447,10.709-.894,16.063-1.784h.94c.776-7.849-1.041-14.833-6.294-20.524a68.3,68.3,0,0,1-5.355-5.8c1.341-.894,3.571-1.341,6.246-2.231,1.341,1.784,2.232,3.568,4.462,6.69,0-5.8.894-10.706,0-14.721-3.122-9.819-5.353-20.524-15.616-25.88-2.232-1.337-5.355-3.122-6.246-5.353-3.125-6.247-8.031-10.262-14.279-13.834,3.122.447,5.8.447,8.922,1.341,6.695,1.337,13.388,3.122,20.081,4.906,6.691,2.231,5.354,8.478,6.247,12.941,4.431,20.822,3.581,41.644,3.568,62.467h4.458c2.232.89,4.463.89,6.694,1.337h1.342c4.015.447,7.583.894,11.6,1.341H572.9v27.661C572.013,269.952,571.566,267.72,570.672,265.043Zm29-21.418c0-16.956,9.819-28.108,22.756-37.48.448,1.788.448,3.125.895,5.356,2.674,0,4.905-.447,6.692,0,1.338.447,2.675,1.784,4.016,3.122-7.587,4.462-15.619,8.031-22.308,13.835-4.463,3.568-7.141,9.815-10.709,15.168Zm-10.568-1.337c2.658-.368,1.647-3.03,1.647-5.356v-62.02c0-6.69,1.339-12.937,2.228-19.631a42.135,42.135,0,0,1,4.463-4.462c4.462-4.909,9.372-10.262,13.835-15.171,3.568-3.568,7.136-7.584,10.709-11.6a31.688,31.688,0,0,0,6.243-4.462,6.176,6.176,0,0,0,1.787,1.341c-2.231,4.015-4.018,8.031-6.692,11.6-4.016,6.247-8.032,12.941-13.388,18.293-5.352,5.8-7.136,12.94-11.152,19.187-5.355,8.922-6.246,17.846-5.8,27.661v9.372c1.342-1.784,1.789-2.231,2.232-3.568,2.678-6.247,5.355-12.94,8.478-19.187,2.678-5.8,7.14-9.372,13.834-9.372,1.206,3.927,3.846,3.558,6.4,3.188a8.519,8.519,0,0,1,3.417-.064c-3.568,5.8-7.137,10.709-13.386,14.725-12.047,8.031-22.31,18.74-20.973,35.7.449,4.459,0,9.368,0,13.831Zm-253.573-11.6c-2.677-8.925-4.909-17.4-7.137-26.328.444-.89,1.338-1.337,1.785-2.231a13.645,13.645,0,0,1,2.232,3.125c1.783,5.8,3.121,11.152,4.462,16.956,1.338,4.016,2.228,8.031,3.564,12.047C338.658,233.362,335.979,232.471,335.533,230.688ZM215.955,205.254a26.03,26.03,0,0,0,3.122,1.784c-1.785,7.584-3.569,15.171-5.8,22.756-.447,1.784-2.677,2.678-4.462,4.015C211.047,224.441,213.724,214.622,215.955,205.254Zm-178.9-3.16a9.172,9.172,0,0,1-3.593.035,85.288,85.288,0,0,1-9.369-1.784v-6.694H54.435c1.338.447,2.675,1.341,4.016,1.341h62.467v6.247H49.973c-2.677,0-5.352,0-6.246,3.122C41.974,201.443,39.461,201.766,37.058,202.093Zm113.754-8.443c-1.785-.443-3.122-1.784-4.016-2.228h29a1.571,1.571,0,0,1,.9.443v1.784Zm-75.852-.443c-1.338,0-2.23-1.341-3.568-1.784h73.172c-1.338.89-2.227,1.784-3.568,1.784Zm145.459-8.034c2.23-6.69,4.462-13.384,6.246-20.078,1.785-7.584,3.122-15.171,4.462-22.755,4.016,3.125,3.569,7.141,2.675,11.156-1.338,5.353-2.675,10.262-4.015,15.615,0,.894.894,2.231,1.339,3.569-2.677,4.462-5.8,8.924-8.478,12.94A9.072,9.072,0,0,0,220.419,185.173Zm96.374-24.093c-.447-.89-2.23-.89-3.568-1.784a1.379,1.379,0,0,0,.447-.89c-.447-2.678-.894-5.8-1.341-8.481,1.341-2.675,3.126-4.906,4.462-7.584,1.338,7.141,3.122,13.834,4.463,20.971.447,1.784.447,3.568.891,5.8C320.361,166.436,319.025,163.758,316.792,161.08ZM203.908,38.825C203.908,16.963,220.419.9,242.28.007c22.308-.447,39.712,19.634,38.371,38.817,1.341,19.187-16.063,38.821-37.924,38.821C219.078,77.645,203.461,59.8,203.908,38.825Zm74.514.447c0-19.63-17.85-37.033-36.59-36.586-20.078.444-36.14,15.168-36.587,36.14.447,19.634,16.063,37.033,37.034,35.7C261.467,76.3,278.423,56.227,278.423,39.271Z" transform="translate(69.605 0)"/><path class="c" d="M488.313,538.9c-4.462-8.924-5.354-17.847-.446-26.325,1.785-3.569,7.585-5.354,12.047-6.693,5.8-1.785,12.047-1.785,18.294-2.677a8.712,8.712,0,0,0,.446,3.123c4.462,1.339,8.477,2.231,12.939,3.569-.446,1.785-.446,3.123-.892,4.462.446,0,.446,0,.892-.446,1.338,4.016,2.677,8.031,4.016,12.493a51.6,51.6,0,0,0-7.585-.446H510.176c-3.569,0-6.693-.892-10.262-1.339-1.339.446-3.123.446-3.123.892a81.606,81.606,0,0,0-3.569,11.155A23.9,23.9,0,0,0,488.313,538.9Z" transform="translate(-256.742 -425.556)"/><path class="b" d="M522.509,565.034c-3.123-7.585-6.693-14.724-8.924-22.309-3.123-11.6-9.37-18.74-21.863-19.632-.892-3.569,2.231-3.569,4.016-4.462,1.339-.892,2.677-1.339,3.569-2.231,7.585,0,15.617.446,23.2,0,4.908,0,8.031,1.339,10.262,5.354-1.338,7.585-2.677,15.171-4.462,22.755A154.839,154.839,0,0,1,522.509,565.034Z" transform="translate(-234.661 -379.86)"/><path class="b" d="M541.863,516.487c-.446,6.693,5.354,4.462,8.478,6.693-3.123,8.031-6.247,16.063-9.816,24.54-1.785,4.462-4.016,9.37-6.247,14.724l-8.924-13.386c-.446-1.785-.446-4.016-.892-5.8-1.339-7.139-3.123-13.832-4.462-20.971h0l.892-.892c3.123-1.338,6.247-3.569,9.37-4.462C534.278,516.04,538.294,516.487,541.863,516.487Z" transform="translate(-135.135 -377.773)"/><path class="f" d="M2.232,52.251V42.882A15.577,15.577,0,0,1,6.248,45.56c.445-4.462.445-8.478.889-12.94-1.78.894-3.122,1.784-4.013,2.231A5.3,5.3,0,0,1,0,33.067c0-4.015,2.232-5.356,5.8-5.356,4.016,0,8.031.447,12.494.447V49.576c0,.89-1.338,1.784-2.232,2.675Zm39.711-6.243V23.7c5.354,0,10.262-.443,14.726,0,1.338,0,2.23,2.678,3.121,4.015-1.783.447-3.568,1.341-6.69,2.231.444,1.341.891,4.015,1.785,7.588A20.6,20.6,0,0,1,53.1,41.1c2.232-.894,3.569-1.337,5.352-2.231,0,2.678-.445,5.356-.445,7.584-5.354.447-9.369,1.341-13.832,1.784C43.28,47.345,41.942,46.9,41.942,46.007ZM52.2,3.618C56.668,5.849,57.11,6.3,55.33,10.759a39.347,39.347,0,0,1-4.019,8.921C45.064,13.433,55.772,9.417,52.2,3.618ZM3.568,17.448c.426-1.481,2.51-3.445,2.746-7.112C6.523,6.972,4.885,1.872,5.357,0c2.227,2.231,5.585,6.789,5,11.293-.277,2.193-3.5,4.093-5,6.6A2.69,2.69,0,0,0,3.568,17.448Z" transform="translate(315.9 116.413)"/><path class="d" d="M613.665,534.284c-6.693-1.785-13.386-3.569-20.079-4.908-3.123-.892-5.8-.892-8.924-1.339H568.6c2.677-5.354,9.816-8.924,14.724-8.031a120.312,120.312,0,0,0,12.493,1.785C602.956,522.237,612.326,528.93,613.665,534.284Z" transform="translate(32.025 -367.849)"/><path class="g" d="M256.11,103.068a3.376,3.376,0,0,0-1.783-.894H228c-.449,0-1.341,1.341-1.788,1.788h-2.675v-.894c1.338-.894,2.232-3.122,3.569-3.122,4.905-.447,9.814-.447,14.724-.447,1.785.89,4.015.89,6.246.89h8.031q1.341-5.353,2.679-10.709c.891-3.122,2.227-6.247,3.122-9.815h1.338c-1.785,6.694-3.122,13.387-4.907,20.081h72.283l.447.443a2.673,2.673,0,0,1-.447,1.784h-69.16c-.891,0-2.228,1.341-3.122,1.788C257.447,103.515,257,103.515,256.11,103.068ZM74.96,75.4A13.851,13.851,0,0,1,84.328,62.91a9.78,9.78,0,0,0,1.338,2.231c-5.8.894-8.475,4.462-8.475,10.262ZM13.83,48.633H30.34a1.829,1.829,0,0,0,.3.247c6.016-4.007,8.173-9.725,8.173-16.308,0-6.694-.891-13.831-1.338-20.525h1.785c.445,6.694,1.783,12.94.892,19.634.444,4.906-2.677,10.706-4.909,16.062-1.338.89-2.679,1.337-3.569,2.231a1.821,1.821,0,0,0-.364-.283c-1.813.745-4.487.962-3.656,4.3a1.628,1.628,0,0,1-1.336.447C22.308,52.648,18.293,50.864,13.83,48.633Zm-9.816,5.8c0-4.909,0-10.266.447-15.171.449-.894.449-1.337.891-2.231,0,5.8.447,11.6.447,17.4Zm226.708-6.579c.266-.023.4.087.4.332C230.99,48.077,230.857,47.967,230.723,47.857Zm-5.4-16.177a77.459,77.459,0,0,1,7.584-9.371c.894-.891,2.679-.891,4.462-1.785V14.277c-4.015,0-8.92,1.337-10.261-4.462,3.126.894,6.246,1.341,9.37,2.678,1.338.447,3.571,2.678,3.124,4.015-.449,2.232-1.786,5.353-3.569,6.694-4.91,4.462-10.262,8.031-10.262,16.062,0,4.663,2.417,6.507,4.952,8.593a2.867,2.867,0,0,0-.936.332C224.877,45.511,222.2,36.139,225.324,31.68ZM207.478,47.742c1.338-2.231,2.675-4.015,4.013-6.247.019.041.042.081.061.121-.018-.04-.038-.08-.058-.121a15.832,15.832,0,0,0-.894-4.462V35.249c.447,0,.894.447,1.338.447s.892,0,.892.443c2.679-.443,5.357-.443,8.032-.89-1.756,3.95-8.694,2.717-8.494,8.2a2.557,2.557,0,0,1,.016.278c-1.338,1.337-2.68,3.122-4.016,4.462C207.921,48.189,207.921,47.742,207.478,47.742ZM2.413,33.905A15.24,15.24,0,0,0,4.462,37.48c-.447.89-.447,1.337-.894,2.231C3.238,37.721,2.845,35.794,2.413,33.905Zm194.8-7.582c-4.91-8.031-3.572-16.062-.449-24.54a.4.4,0,0,1,.356.18,1.679,1.679,0,0,0-.356-.627c.449-.447.9-.89.9-1.337V3.122c-.9,3.572-2.68,7.588-1.789,11.156,1.789,7.584,3.569,15.171,11.156,19.631A26.334,26.334,0,0,0,210.6,35.7V37.48C204.352,36.139,200.784,31.68,197.217,26.324ZM1.672,30.835q.384,1.521.74,3.07A11.466,11.466,0,0,1,1.672,30.835ZM0,24.54a20.862,20.862,0,0,1,4.462-2.231C5.8,18.293,6.693,14.724,8.031,11.156c.447-.447,2.232-.447,3.122-.894C9.369,15.615,7.584,21.418,5.8,26.771a9.717,9.717,0,0,0-3.568-1.337,14.819,14.819,0,0,0-.559,5.4C1.137,28.714.569,26.627,0,24.54Z" transform="translate(231.572 88.799)"/><path class="d" d="M611,513.6c-3.569,4.016-7.139,8.478-10.708,12.493-4.462,5.354-9.37,10.262-13.832,15.17A42.084,42.084,0,0,1,582,545.726C582.446,527.432,595.832,517.616,611,513.6Z" transform="translate(78.414 -389.553)"/><path class="d" d="M600.1,541.509c-1.339-.892-2.677-2.677-4.016-3.123-1.785-.446-4.016,0-6.693,0-.446-2.231-.446-3.569-.892-5.354a16.1,16.1,0,0,1,20.524,7.585c2.677,4.908,5.354,9.816,7.585,14.724a6.035,6.035,0,0,1,0,4.016C612.595,551.772,608.579,544.186,600.1,541.509Z" transform="translate(100.916 -326.44)"/><path class="h" d="M652.411,530.285v.893H501.6c0-.893.446-1.785.446-2.677,1.785.446,3.569,1.339,5.354,1.339H621.624C631.886,530.285,642.149,530.285,652.411,530.285Z" transform="translate(-197.747 -337.971)"/><path class="d" d="M597.316,530.1c-3.123-.892-8.031,2.677-9.816-3.123,11.6-4.016,23.2-2.677,34.8,1.339C614.271,529.212,605.794,529.659,597.316,530.1Z" transform="translate(97.454 -351.623)"/><path class="g" d="M514.2,538.625c4.462-.446,8.924-.892,13.832-1.785,0-2.231.446-4.462.446-7.585-1.785.893-3.123,1.339-5.354,2.231a20.344,20.344,0,0,0,1.785-3.569c-.893-3.569-1.338-6.247-1.785-7.585,3.123-.892,4.908-1.785,6.693-2.231a74.125,74.125,0,0,1,6.247,5.8c.446,2.677.892,5.8,1.339,8.478h0c-.446-.893-.446-1.339-.893-2.231-.446-5.354-3.569-7.585-8.924-7.139,1.785,4.016,3.123,7.585,4.908,11.6l-2.231,2.231C525.355,541.748,519.555,539.071,514.2,538.625Z" transform="translate(-154.127 -373.975)"/><path class="g" d="M506.031,519.3c.892.446,1.339,1.339,2.677,2.231.893-.446,2.231-1.339,4.016-2.231-.446,4.462-.446,8.478-.892,12.939a30.246,30.246,0,0,1-4.016-2.677v9.37h13.832c-4.016,3.123-12.047,2.231-17.847-1.785v-2.231c1.339-3.569,3.123-7.139,4.462-10.262-.446,0-.892-.446-1.339-.446a9.754,9.754,0,0,0-1.338-2.231A6.632,6.632,0,0,0,506.031,519.3Z" transform="translate(-190.131 -369.82)"/><path class="g" d="M457.639,531.288c3.569.892,7.585-2.231,10.708,2.231-.892,2.231-1.339,4.462-2.231,6.247H456.3C456.3,537.088,457.193,533.965,457.639,531.288Z" transform="translate(-354.569 -329.158)"/><path class="g" d="M583.193,538.427a92.3,92.3,0,0,0-9.816,1.785h0c-.892-3.123-1.785-5.8-2.677-8.924,4.016.892,8.478-2.231,12.047,2.231A16.733,16.733,0,0,0,583.193,538.427Z" transform="translate(41.469 -329.158)"/><path class="g" d="M562.623,527.893q-.669,3.346-1.338,8.031c2.231,0,4.016.446,6.247.446h58.45c1.785,0,3.569.446,5.354.446H561.731c-.892-1.785-1.338-3.123-1.785-4.016l-.446-.446c.892-1.785,1.339-3.569,2.231-5.354C561.731,527.446,562.177,527.446,562.623,527.893Z" transform="translate(2.695 -343.164)"/><path class="g" d="M524.648,528.6c0,.892-.446,1.785-.446,2.677l-.892.892H495.2v-2.231h22.756c2.231,0,4.462-.892,6.693-1.339Z" transform="translate(-219.903 -337.625)"/><path class="g" d="M574.1,529.2h6.247c-.446,2.677,2.677,5.8-1.785,7.585v-5.354c-1.785-.446-3.123-.446-4.462-.892Z" transform="translate(53.239 -335.548)"/><path class="i" d="M479.992,521.023c-.446-.892-.446-2.231-.892-3.123C479.546,518.792,479.546,520.131,479.992,521.023Z" transform="translate(-275.639 -374.667)"/><path class="i" d="M561.2,525.131c.446-.892.446-1.338.893-2.231C561.646,523.792,561.646,524.239,561.2,525.131Z" transform="translate(8.581 -357.358)"/><path class="j" d="M520.992,517.5l-.892.893Z" transform="translate(-133.702 -376.052)"/><path class="k" d="M530.9,508.47c3.569.446,6.693,1.339,11.155,1.785q1.339-2.008,4.016-5.354c7.139,1.785,9.37,8.924,14.724,12.939,1.339,5.8,6.247,4.462,10.262,4.462v6.247c-1.785.893-3.57.893-4.462,1.785-2.677,3.123-5.354,6.247-7.585,9.37-3.123,4.462-.446,13.831,4.462,16.509a116.189,116.189,0,0,1-4.462,11.155c-2.677,5.8-9.37,8.478-14.724,6.247-3.569-1.785-5.8-8.031-4.016-13.832.446-1.339,1.339-2.677,1.785-4.016,1.339-1.338,2.677-3.123,4.016-4.462-.446-5.8,6.693-4.462,8.478-8.478-3.123.446-5.8.446-8.031.892-.446,0-.892,0-.892-.446-.446,0-.893-.446-1.339-.446a26.481,26.481,0,0,1-3.569-1.785c-7.585-4.462-9.37-12.047-11.155-19.632-.892-3.123,1.339-7.139,1.785-11.155C530.9,510.254,530.9,509.362,530.9,508.47Z" transform="translate(-101.668 -419.671)"/><path class="b" d="M539.528,546.556H526.1c3.357-4.908,7.273-9.816,10.071-14.724,1.679-2.677,1.679-5.354,2.8-8.031h1.678C540.647,531.385,540.087,538.97,539.528,546.556Z" transform="translate(-115.105 -354.242)"/><path class="l" d="M527.016,528.613v.893c-1.785.446-3.569.892-4.908,1.338-1.339-3.569-3.123-7.585-4.908-11.6,5.354-.446,8.924,1.785,8.924,7.139a7.517,7.517,0,0,0,.892,2.231Z" transform="translate(-143.741 -370.21)"/><path class="m" d="M545.847,543.432H539.6V523.8h1.785C541.831,530.493,540.492,537.632,545.847,543.432Z" transform="translate(-66.196 -354.242)"/><path class="c" d="M518.68,625.091c0,.446-.446.892-.446,1.338-3.57-.446-7.585-.446-11.155-.893-.446-.446-.892-.446-.892-.892-4.908-18.74-9.37-37.48-14.278-56.22,0-.446-1.339-.892-3.569-1.785,3.123,20.078,6.247,39.264,8.924,58a3.374,3.374,0,0,1-.446,1.785H483.878v-1.785c-2.677-10.262-5.8-20.524-8.478-30.787a88.155,88.155,0,0,1,3.569-11.6c4.908-15.171,9.816-30.341,15.17-45.065h6.247c.892,0,1.338-.446,2.231-.446.446,0,.893-.446,1.339-.446h2.231c1.785.446,3.123,1.785,4.908,1.785h42.388c0,.892.446,2.231.446,3.123-.446,2.677,0,5.8-.892,8.478A13.008,13.008,0,0,1,540.1,559.5H514.218C515.557,581.811,517.341,603.674,518.68,625.091Z" transform="translate(-288.448 -310.968)"/><path class="d" d="M529.944,552.494c-3.123-3.569-2.231-7.585-.892-11.6.446-1.339.892-3.123,1.339-4.462,16.955-.892,34.356-1.338,51.311-2.231,5.354,1.338,11.155,3.123,16.509,4.462,11.155,2.677,22.309,5.354,26.771,17.847.893,2.677,2.677,5.354,4.016,8.031h0c-19.186,0-38.818-.446-58-.446-.446,0-.892.446-1.339.892-6.247.446-12.047,1.338-18.294,1.338C540.207,566.325,533.96,561.417,529.944,552.494Z" transform="translate(-106.959 -318.239)"/><path class="g" d="M825.432,531.97c0,.446.446.446.446.893H501.5l.893-.893H669.266c5.354,0,11.155-.446,16.509-.892.893.446,1.339.446,2.231.892h68.267c1.339,0,2.677-1.338,4.016-1.785a2.684,2.684,0,0,1,.446-1.785,15.852,15.852,0,0,0,1.785,4.016C783.044,531.97,804.015,531.97,825.432,531.97Z" transform="translate(-198.093 -338.318)"/><path class="n" d="M529.567,540.839h-1.785v-6.247H465.316c-1.338,0-2.677-.893-4.016-1.339,4.016,0,8.031.446,12.047,0,1.785,0,3.569-1.338,5.354-2.231,1.339.892,2.231,1.785,3.569,1.785h66.036c1.339,0,2.231-1.339,3.569-1.785v-2.231l.892-.892v.892c.446.892.446,1.339.893,2.231,1.338.892,2.677,2.231,3.569,2.231h25.879l1.338,1.339H529.567Z" transform="translate(-337.26 -340.048)"/><path class="g" d="M482.2,553.856h47.3V532.439c0-.446.446-.893.446-1.339.446.446,1.785.446,1.785.892-.446,7.585-.446,15.617-.893,23.2,0,.446-.446.892-.893,1.339H487.554C485.323,555.64,483.539,554.3,482.2,553.856Z" transform="translate(-264.907 -328.97)"/><path class="g" d="M513.825,537.709l-1.339-1.339v-1.785c0-.446,0-.446.446-.892-.446,0-.893.446-1.339.446h-29c-.446-.892-.446-1.339-.893-2.231,8.478,0,16.955,0,25.433.446,3.123,0,6.247-.892,8.478,2.677.892,1.338,4.462.446,6.693.892h8.924c.446-3.123,1.338-5.8,1.785-8.924v10.709Z" transform="translate(-266.638 -343.164)"/><path class="l" d="M488.97,545.432c.446,2.231.446,4.016.892,6.246l-.446.446c-.446,0-.892.446-1.338.446-.892,0-1.338.446-2.231.446H479.6c1.338-4.908,2.231-9.816,3.569-14.724.892-2.231,2.231-4.462,3.123-6.693A83.667,83.667,0,0,0,488.97,545.432Z" transform="translate(-273.908 -327.239)"/><path class="o" d="M531.327,531.346c0,.446-.446.893-.446,1.339H481.8c.446-.446,1.338-1.785,1.785-1.785C499.2,530.9,515.264,531.346,531.327,531.346Z" transform="translate(-266.292 -329.663)"/><path class="g" d="M551.823,539.924c-.892-2.677-2.231-4.908-3.123-7.585,4.016-1.339,8.031-2.677,12.047,1.338a12.357,12.357,0,0,0,.446,4.016C558.516,542.155,554.5,539.031,551.823,539.924Z" transform="translate(-34.693 -329.316)"/><path class="g" d="M490.347,533.59c-.892,2.231-2.231,4.462-3.123,6.693-2.677-.892-6.693,2.231-8.924-2.231v-3.123C481.423,530.467,487.224,529.574,490.347,533.59Z" transform="translate(-278.408 -329.229)"/><path class="n" d="M493.2,540.824V530.116a12.35,12.35,0,0,1,.446-4.016c.446.446.446.892.892,1.338v12.493h7.139v1.339A51.288,51.288,0,0,0,493.2,540.824Z" transform="translate(-226.826 -346.28)"/><path class="m" d="M489.154,552.519c0-5.8-.446-11.6-.446-17.4a12.708,12.708,0,0,1-2.231-12.047,12.074,12.074,0,0,0,3.569,1.338c1.785-5.354,3.57-10.708,5.354-16.509,3.569.446,6.693,1.338,10.262,1.338,5.354.446,10.708,0,16.063,0,.446,6.693,1.339,13.832,1.339,20.524s-2.231,12.939-8.478,16.509H498.078c4.462,2.231,8.478,4.016,12.493,5.8C505.663,559.212,494.062,559.212,489.154,552.519Z" transform="translate(-252.229 -409.286)"/><path class="l" d="M502.7,530.662c0-5.8,2.231-9.37,8.477-10.262.446,0,.893.446,1.338.446-1.338,3.569-3.123,7.139-4.462,10.262A21.717,21.717,0,0,0,502.7,530.662Z" transform="translate(-193.939 -366.012)"/><path class="b" d="M500.639,539.139H493.5V526.646c.446,0,.446,0,.892-.446,2.231,4.016,4.462,8.031,6.693,11.6A1.954,1.954,0,0,1,500.639,539.139Z" transform="translate(-227.962 -345.933)"/><path class="g" d="M495.085,533.224c-.446,0-.446,0-.893.446-.446-.446-.446-.892-.892-1.338V524.3h1.785C495.085,526.977,495.085,530.1,495.085,533.224Z" transform="translate(-226.48 -352.511)"/><path class="d" d="M499.818,556.3c3.569.446,7.585.446,11.154.893v11.6H478.4c-2.677-3.569.446-4.016,2.677-4.908,1.785-.446,4.016-.892,5.8-1.339A115.652,115.652,0,0,0,499.818,556.3Z" transform="translate(-281.632 -241.731)"/><path class="d" d="M493.325,556.4h12.939c.892,3.57-1.785,4.462-4.016,5.354-4.908,0-10.262.446-11.155,7.139H475.477a14.841,14.841,0,0,1-2.677-1.339c0-1.338.446-2.677.446-3.569h0C480.832,563.985,487.078,560.416,493.325,556.4Z" transform="translate(-297.449 -241.385)"/><path class="p" d="M566.133,561.316c3.569,0,7.585-.446,8.924,4.016H540.7v-1.785c.446-2.231.892-4.016,1.339-6.247h5.354l2.231,2.231h4.462c2.677.892,4.908,1.338,7.585,2.231A13.76,13.76,0,0,1,566.133,561.316Z" transform="translate(-62.388 -238.269)"/><path class="q" d="M551.3,564.639c.892-2.231,1.338-4.908,2.231-7.139h0c4.908.892,10.262,2.231,15.171,3.123,1.785.446,3.569.446,5.354.892,1.785-.892,3.57-1.785,5.8-2.677a4.025,4.025,0,0,0,2.231-.446c1.339,2.231,2.677,4.016,4.016,6.247Z" transform="translate(-25.692 -237.577)"/><path class="m" d="M531.4,564.639c1.338-2.231,2.677-4.462,4.016-7.139h10.262c.892,2.231,1.785,4.908,2.677,7.139Z" transform="translate(-94.583 -237.577)"/><path class="m" d="M553.263,562.854v1.785H537.2c.892-2.231,1.785-4.462,2.677-7.139h10.262A33.315,33.315,0,0,0,553.263,562.854Z" transform="translate(-74.504 -237.577)"/><path class="m" d="M486,564.639c.892-2.231,1.785-4.462,2.677-7.139h10.708c.893,2.231,1.785,4.462,2.677,7.139Z" transform="translate(-251.752 -237.577)"/><path class="r" d="M578.2,574.332V554.7c1.785,6.247,4.016,12.939,6.247,19.632Z" transform="translate(67.432 -247.271)"/><path class="s" d="M476.9,564.639c.892-6.693,5.8-7.139,11.155-7.139.446.446.892.892,1.339.892-1.785.446-4.016.446-5.8,1.339-2.231.892-5.354,1.339-2.677,4.908Z" transform="translate(-283.255 -237.577)"/><path class="s" d="M474.877,558c0,1.339-.446,2.231-.446,3.57l2.677,1.338H472.2A13.4,13.4,0,0,0,474.877,558Z" transform="translate(-299.526 -235.846)"/><path class="m" d="M601.171,560.625c-5.354.446-10.262.893-16.063,1.785.446,7.139.446,13.832.892,20.971-4.016-14.724-8.031-29.448-11.6-43.726,4.908-1.785,9.816-3.569,15.17-5.354a68.654,68.654,0,0,1,5.354,5.8C600.279,545.455,602.063,552.594,601.171,560.625Z" transform="translate(54.278 -317.892)"/><path class="g" d="M498.836,45.511C488.129,59.342,477.419,73.173,466.71,86.56c-.444-.894-.444-1.337-.891-2.231C476.081,70.945,486.791,58,497.5,44.174,479.649,31.234,462.7,18.74,445.743,6.247c-.447-1.34-.447-2.231-.894-3.568,17.846,12.937,35.7,25.877,53.988,39.264,3.569-4.462,7.139-9.372,10.709-13.834C516.683,18.74,524.271,9.368,531.855,0a6.75,6.75,0,0,0-.891,3.568C520.7,16.956,510.44,29.893,499.73,43.727,519.361,58,538.549,71.835,557.289,86.113q.67,2.011,1.336,4.015C539,75.4,518.914,60.679,498.836,45.511ZM.894,85.666c18.293-13.384,36.587-26.771,54.878-40.6.449-.447.9-.894,1.786-1.784C47.3,30.34,37.481,17.4,27.218,4.462V1.337c9.367,11.6,18.292,23.649,27.665,35.249,1.338,1.784,2.675,3.568,4.458,5.8L114.225,2.231V4.906c-.447.447-.894.894-.894,1.34-1.338.891-3.122,1.337-4.462,2.675C96.378,17.846,83.884,27.215,71.389,36.586,67.819,39.264,64.7,41.5,60.682,44.617,71.836,58.448,82.1,72.282,92.806,85.666c-.447.447-.891,1.341-1.338,1.784C80.76,73.619,70.051,59.789,59.342,45.511,39.265,60.235,19.634,74.513,0,88.791A11.352,11.352,0,0,1,.894,85.666Z" transform="translate(83.883 210.162)"/><path class="b" d="M531.788,558.589c-20.971,1.339-36.587-16.509-36.587-36.141,0-20.525,16.509-35.695,36.587-36.141,18.293-.446,36.587,16.955,36.587,36.587C567.929,540.741,551.42,560.82,531.788,558.589Zm.446-55.327H530.9V522H520.187v.892h12.047C532.234,516.2,532.234,509.955,532.234,503.262Zm.446-12.493c-.446,0-.446-.446-.892-.446v5.354h.446A16.729,16.729,0,0,1,532.68,490.768Zm-33.464,31.679v.446h4.908v-.446Zm60.235,0v.446h4.908v-.446Zm-27.218,28.11h-.446v5.354h.446Z" transform="translate(-219.903 -484.069)"/><path class="d" d="M615.582,528.7c-1.338.446-2.677,1.785-4.016,1.785H543.3a5.667,5.667,0,0,1,3.123-1.785Z" transform="translate(-53.387 -337.279)"/><path class="d" d="M565.895,529.593c-5.354.446-11.155.893-16.509.893H536c.446-.446,1.338-1.785,1.785-1.785H564.11C565,528.7,565.448,529.593,565.895,529.593Z" transform="translate(-78.658 -337.279)"/><path class="t" d="M520.092,523.031c-.446-.892-.446-1.338-.892-2.231A7.538,7.538,0,0,0,520.092,523.031Z" transform="translate(-136.818 -364.628)"/><path class="u" d="M533.792,514.146c-.446,0-.892,0-.892-.446C533.346,513.7,533.346,514.146,533.792,514.146Z" transform="translate(-89.39 -389.207)"/><path class="m" d="M473.592,587.472a6.343,6.343,0,0,1-.893-2.677l10.709-33.464c.446-.893.892-1.339,1.338-2.231,2.677,10.262,5.8,20.525,8.478,30.787C486.978,582.564,480.285,585.241,473.592,587.472Z" transform="translate(-297.795 -266.657)"/><path class="l" d="M487.224,601c-3.123-18.74-5.8-37.926-8.924-58,2.231,1.339,3.123,1.339,3.569,1.785,4.908,18.74,9.37,37.48,14.278,56.22-1.785.892-4.016,1.785-5.8,2.677A9.674,9.674,0,0,1,487.224,601Z" transform="translate(-278.408 -287.774)"/><path class="s" d="M473.246,563.585c6.693-2.677,13.386-5.354,20.078-7.585v1.785c-6.247,4.016-12.493,8.031-20.525,7.139A1.638,1.638,0,0,1,473.246,563.585Z" transform="translate(-297.449 -242.77)"/><path class="v" d="M484.108,556c.892.892,1.338,1.785,2.677,3.123,1.785-.892,4.016-1.785,5.8-2.677.446.446.893.446.893.893-4.462,2.231-8.478,4.462-12.939,6.693-.446-.446-.892-.892-1.339-.892,2.231-.893,4.908-1.785,4.016-5.354C484.108,556.893,484.108,556.446,484.108,556Z" transform="translate(-275.292 -242.77)"/><path class="w" d="M481,536.646c.892,0,1.339-.446,2.231-.446A4.852,4.852,0,0,1,481,536.646Z" transform="translate(-269.061 -311.315)"/><path class="w" d="M481.8,536.546c0-.446,0-.446.446-.446a.437.437,0,0,1,.446.446Z" transform="translate(-266.292 -311.661)"/><path class="l" d="M537,541.793c.446-.446.893-.893,1.338-.893,19.186,0,38.818,0,58,.446-.446,0-.446.446-.892.446-19.632.446-39.264.446-58.45,0Z" transform="translate(-75.197 -295.044)"/><path class="g" d="M18.74,20.525c0-1.337.447-2.231.447-3.569v-.894a12.373,12.373,0,0,1,.445-4.015c.891-3.125,1.785-6.247,2.675-9.815H5.8L2.23,1.337H0V.447C19.629,0,39.264,0,58.895,0V.89h.447l-.447.053v.394h-5.13c-1.9.112-3.792.223-5.577.447-1.786,0-3.572.894-5.356,1.337H41.048c-4.909-.443-10.259-.89-15.168-1.337q-2.682,9.371-5.357,18.74Z" transform="translate(461.357 247.195)"/><path class="n" d="M489.392,529.392c-.446,0-.446-.446-.892-.446.446,0,.892-.446,1.338-.446C489.392,528.946,489.392,528.946,489.392,529.392Z" transform="translate(-243.097 -337.971)"/><path class="c" d="M479.284,577.057c-1.785-6.247-3.569-12.047-5.354-18.293-2.677-11.155,2.677-19.632,13.386-21.863a10.05,10.05,0,0,1,3.123.446C486.869,550.286,482.853,563.671,479.284,577.057Z" transform="translate(-295.901 -308.891)"/><path class="m" d="M477.6,535.439c.446-.446.892-.893.892-1.339C478.492,534.546,478.046,534.992,477.6,535.439Z" transform="translate(-280.832 -318.585)"/><path class="m" d="M543.6,557.7h8.031a3.382,3.382,0,0,1-.893,1.785A55.545,55.545,0,0,1,543.6,557.7Z" transform="translate(-52.348 -236.885)"/><path class="m" d="M542.2,557.2l2.231,2.231C543.539,558.985,543.092,558.092,542.2,557.2Z" transform="translate(-57.195 -238.616)"/><path class="x" d="M555.2,558.2h1.785c.893.446,2.231.446,3.123.892C558.77,558.646,556.985,558.646,555.2,558.2Z" transform="translate(-12.191 -235.154)"/><path class="g" d="M512.847,490.1v19.632H500.8v-.893h10.708V490.1C511.955,490.546,512.4,490.1,512.847,490.1Z" transform="translate(-200.516 -470.907)"/><path class="g" d="M504.292,487.646a16.727,16.727,0,0,1-.446,4.908H503.4V487.2A1.385,1.385,0,0,1,504.292,487.646Z" transform="translate(-191.515 -480.946)"/><path class="g" d="M496.1,494.4h4.908v.446H496.1Z" transform="translate(-216.787 -456.021)"/><path class="g" d="M509.6,494.4h4.908v.446H509.6Z" transform="translate(-170.052 -456.021)"/><path class="g" d="M503.846,501.046v4.908H503.4V500.6A.437.437,0,0,1,503.846,501.046Z" transform="translate(-191.515 -434.557)"/><path class="y" d="M552.193,549.623c-.446-.893-.446-2.231-.892-3.123h.892Z" transform="translate(-25.692 -275.658)"/><path class="z" d="M541.2,544.7v0Z" transform="translate(-60.657 -281.889)"/><path class="m" d="M543.238,553.6l1.785,1.785a21.777,21.777,0,0,1-3.123,1.338v-2.231C542.792,554.493,542.792,554.047,543.238,553.6Z" transform="translate(-58.233 -251.078)"/><path class="l" d="M542.892,557.754c-.446.446-.446.892-.892.892V552.4C542.446,554.185,542.446,555.97,542.892,557.754Z" transform="translate(-57.887 -255.233)"/><path class="l" d="M542.246,554.9c0,.446-.446.892-.446,1.785C541.8,556.239,542.246,555.792,542.246,554.9Z" transform="translate(-58.579 -246.578)"/><path class="l" d="M541.8,551c0,.446.446.893.446,1.339C542.246,551.893,541.8,551.446,541.8,551Z" transform="translate(-58.58 -260.079)"/><path class="aa" d="M62.467,74.96C57.559,74.066,52.2,72.729,47.3,71.835c-2.232-7.137-4.463-14.277-7.139-20.971C35.249,41.049,29.9,31.234,25.433,21.418c-.447-1.34-.447-2.678-.894-4.462-.444-4.015-.891-8.031-1.338-11.6V2.231L28.556.89C32.127.447,36.143.447,39.711,0c.894,1.784,1.338,3.568,2.232,5.353.447,1.341.447,2.231.894,3.572,0,.89.444,1.784.444,2.675.447,3.569,7.14,33.912,7.587,35.7,0,.894.444,2.231.444,3.125.447.89.447,1.337.894,2.228,1.338,3.572,2.679,7.587,4.016,11.156,3.121,6.247,4.015,7.141,11.152,9.816a21.919,21.919,0,0,0-3.122,1.34ZM10.709,73.173H6.248c-.891-1.081-1.338-1.619-2.233-2.7H0C.894,67.225,1.338,63.442,2.232,60.2c0-.541-.729-20.907-1.173-23.072a.842.842,0,0,1,.077-.459c-.08-.46-.162-.931-.242-1.417V19.187Q3.571,9.812,6.248.447c4.909.443,10.261.89,15.169,1.337V5.8c-.445,3.125-4.015,20.971-5.356,26.771-.442,2.231-1.338,4.462-1.785,6.694-.61,1.833-1.011,3.668-1.491,5.5C12.118,51.7,9.66,67.644,11.6,70.47c.444.542,3.142,2.164,3.142,2.7Z" transform="translate(480.988 248.088)"/><path class="ab" d="M543.552,549.118c1.785,7.139,3.57,14.278,4.908,20.971H476.178c-1.338-3.569-2.231-6.693-3.123-9.816a71.344,71.344,0,0,1-2.231-9.37c-.446-1.785-1.339-3.569-1.785-5.354,0-.446-.446-1.339-.446-1.785a13.207,13.207,0,0,1-.892-4.462c-.446-2.231-1.339-4.462-1.785-6.693l-1.339-4.016-1.339-5.354c-.446-2.231-.892-4.016-1.338-6.693h63.359c1.785,0,4.016-.446,5.8-.446h1.785l2.231,2.231c.892,2.677,1.339,5.354,2.231,8.478C539.537,533.948,541.767,541.533,543.552,549.118Z" transform="translate(-335.182 -380.898)"/><path class="ab" d="M621.073,563.542c0,.446-.464,1.339-.464,1.785-.927,1.785-1.39,3.569-2.318,5.354H543.2c1.854-7.139,3.245-13.386,5.1-20.078.463-1.339.927-2.677,1.391-4.462.927-2.677,1.39-5.354,2.318-8.478,1.854-6.693,4.172-13.385,6.026-20.971,1.854,0,3.708-.446,6.026-.446h59.8c1.854,0,4.172-.446,6.026-.446h1.854l1.39,4.016c-.463,2.231-1.39,4.462-1.854,6.693a69.1,69.1,0,0,0-2.318,9.37c-.463,2.231-1.391,4.462-1.854,6.693l-1.391,5.354c-.927,2.677-1.391,4.908-2.318,7.585L622,560.865C621.537,562.2,621.537,563.1,621.073,563.542Z" transform="translate(-55.907 -381.937)"/><path class="d" d="M599.454,535.846c-2.677.892-4.908,1.338-7.585,2.231-4.908,1.785-9.816,3.569-15.17,5.354-.38-1.14-10.217,6.1-10.582,4.534-.31-1.329,8.863-11.475,8.351-13.012,3.123-.892,6.693-2.231,9.816-1.785C589.638,533.169,594.546,534.954,599.454,535.846Z" transform="translate(49.358 -322.115)"/></g></g></g></svg>